<?xml version='1.0' encoding='UTF-8' standalone='no'?>
<!-- Created with Fritzing (http://www.fritzing.org/) -->
<svg xmlns:svg='http://www.w3.org/2000/svg' xmlns='http://www.w3.org/2000/svg' version='1.2' baseProfile='tiny' x='0in' y='0in' width='7.51417in' height='4.17757in' viewBox='0 0 7514.17 4177.57' >
<g partID='12210'><g transform='translate(4119.97,432.098)' ><g transform='matrix(0,1,-1,0,0,0)'  ><g id="schematic">
<g>
<path d="M187.5,207.861L137.5,207.861c-2.68056,0,-4.86111,-2.16667,-4.86111,-4.86111s2.16667,-4.86111,4.86111,-4.86111L187.5,198.139c2.68056,0,4.86111,2.16667,4.86111,4.86111S190.194,207.861,187.5,207.861z"/>
</g>
<g>
<path d="M137.5,207.861L87.5,207.861c-2.68056,0,-4.86111,-2.16667,-4.86111,-4.86111s2.18056,-4.86111,4.86111,-4.86111l50,0c2.68056,0,4.86111,2.16667,4.86111,4.86111S140.181,207.861,137.5,207.861z"/>
</g>
<g>
<polygon fill="#FFFFFF" points="137.5,203,87.5,103,137.5,103,187.5,103"/>
<path d="M137.5,213.861L79.6389,98.1389l115.736,0L137.5,213.861zM95.3611,107.861L137.5,192.139l42.1389,-84.2778L95.3611,107.861z"/>
</g>
<g>
<path d="M137.5,206.125c-1.72222,0,-3.125,-1.40278,-3.125,-3.125l0,-100c0,-1.72222,1.40278,-3.125,3.125,-3.125s3.125,1.40278,3.125,3.125l0,100C140.611,204.722,139.222,206.125,137.5,206.125z"/>
</g>
<g>
<path d="M25,168.625c-0.805556,0,-1.59722,-0.291667,-2.20833,-0.902778c-1.22222,-1.22222,-1.22222,-3.19444,0,-4.41667l32.5,-32.5139c1.22222,-1.22222,3.19444,-1.22222,4.41667,0s1.22222,3.19444,0,4.41667l-32.5,32.5139C26.5972,168.333,25.8056,168.625,25,168.625z"/>
</g>
<g>
<path d="M30,213.625c-0.805556,0,-1.59722,-0.291667,-2.20833,-0.902778c-1.22222,-1.22222,-1.22222,-3.19444,0,-4.41667l32.5,-32.5c1.22222,-1.22222,3.19444,-1.22222,4.41667,0s1.22222,3.19444,0,4.41667l-32.5,32.5C31.6111,213.319,30.8056,213.625,30,213.625z"/>
</g>
<g id="connector0pin">
<path fill="#787878" d="M137.5,307.861c-2.68056,0,-4.86111,-2.16667,-4.86111,-4.86111l0,-100c0,-2.68056,2.16667,-4.86111,4.86111,-4.86111s4.86111,2.16667,4.86111,4.86111l0,100C142.347,305.694,140.181,307.861,137.5,307.861z"/>
</g>
<g id="connector0terminal">
<rect width="0.0138889" x="137.5" y="303" fill="none" height="0.0138889"/>
</g>
<g transform="matrix(1, 0, 0, 1, 47.625, 89.2528)">
<g>
<g transform="rotate(270)">
<g>
<g enable-background="new    ">
<path fill="#787878" d="M-161.764,76.9444l-12.375,0L-174.139,74.8333l4.75,-5.16667c0.680556,-0.736111,1.29167,-1.40278,1.81944,-2.01389s0.986111,-1.19444,1.375,-1.77778c0.361111,-0.583333,0.652778,-1.16667,0.861111,-1.73611c0.208333,-0.597222,0.291667,-1.22222,0.291667,-1.91667c0,-0.527778,-0.0694444,-1,-0.236111,-1.41667s-0.375,-0.75,-0.652778,-1.04167c-0.291667,-0.277778,-0.625,-0.486111,-1.01389,-0.638889s-0.833333,-0.222222,-1.30556,-0.222222c-0.861111,0,-1.63889,0.180556,-2.31944,0.527778c-0.708333,0.333333,-1.36111,0.791667,-1.98611,1.33333l-1.38889,-1.61111c0.347222,-0.319444,0.763889,-0.638889,1.16667,-0.902778c0.402778,-0.291667,0.875,-0.541667,1.34722,-0.75s0.986111,-0.361111,1.51389,-0.5c0.527778,-0.111111,1.09722,-0.180556,1.68056,-0.180556c0.875,0,1.65278,0.125,2.34722,0.361111c0.708333,0.25,1.30556,0.597222,1.79167,1.05556c0.486111,0.444444,0.875,1,1.13889,1.65278c0.263889,0.666667,0.388889,1.40278,0.388889,2.22222c0,0.777778,-0.125,1.5,-0.361111,2.19444c-0.236111,0.694444,-0.569444,1.38889,-0.972222,2.05556c-0.430556,0.666667,-0.916667,1.34722,-1.51389,2.02778c-0.569444,0.680556,-1.20833,1.38889,-1.88889,2.11111L-171.111,74.5833l0,0.111111l9.34722,0L-161.764,76.9444z"/>
</g>
</g>
</g>
</g>
</g>
<g id="connector1pin">
<path fill="#787878" d="M137.5,107.861c-2.68056,0,-4.86111,-2.18056,-4.86111,-4.86111l0,-100c0,-2.68056,2.16667,-4.86111,4.86111,-4.86111s4.86111,2.18056,4.86111,4.86111l0,100C142.347,105.681,140.181,107.861,137.5,107.861z"/>
</g>
<g id="connector1terminal">
<polygon fill="none" points="137.5,3,137.514,3,137.514,3"/>
</g>
<g transform="matrix(1, 0, 0, 1, 47.625, 18.6972)">
<g>
<g transform="rotate(270)">
<g>
<g enable-background="new    ">
<path fill="#787878" d="M-36.3333,76.9444l-2.38889,0L-38.7222,64.5556c0,-0.388889,0,-0.805556,0,-1.25s0.0138889,-0.875,0.0277778,-1.31944c0.0138889,-0.444444,0.0277778,-0.875,0.0416667,-1.27778c0.0138889,-0.388889,0.0277778,-0.75,0.0277778,-1.05556c-0.152778,0.166667,-0.291667,0.291667,-0.402778,0.416667s-0.236111,0.236111,-0.361111,0.333333s-0.25,0.222222,-0.388889,0.347222c-0.138889,0.111111,-0.291667,0.263889,-0.486111,0.416667l-2.01389,1.63889l-1.30556,-1.66667l5.19444,-4.05556l2.02778,0L-36.3611,76.9444z"/>
</g>
</g>
</g>
</g>
</g>
<g>
<path d="M2.5,188l15,-35.0139l20,19.9722L2.5,188z"/>
</g>
<g>
<path d="M7.5,233l15,-35.0139l19.9722,19.9722L7.5,233z"/>
</g>
</g>
</g></g></g><g partID='12180'><g transform='translate(2938.86,432.098)' ><g transform='matrix(0,1,-1,0,0,0)'  ><g id="schematic">
<g>
<path d="M187.5,207.861L137.5,207.861c-2.68056,0,-4.86111,-2.16667,-4.86111,-4.86111s2.16667,-4.86111,4.86111,-4.86111L187.5,198.139c2.68056,0,4.86111,2.16667,4.86111,4.86111S190.194,207.861,187.5,207.861z"/>
</g>
<g>
<path d="M137.5,207.861L87.5,207.861c-2.68056,0,-4.86111,-2.16667,-4.86111,-4.86111s2.18056,-4.86111,4.86111,-4.86111l50,0c2.68056,0,4.86111,2.16667,4.86111,4.86111S140.181,207.861,137.5,207.861z"/>
</g>
<g>
<polygon fill="#FFFFFF" points="137.5,203,87.5,103,137.5,103,187.5,103"/>
<path d="M137.5,213.861L79.6389,98.1389l115.736,0L137.5,213.861zM95.3611,107.861L137.5,192.139l42.1389,-84.2778L95.3611,107.861z"/>
</g>
<g>
<path d="M137.5,206.125c-1.72222,0,-3.125,-1.40278,-3.125,-3.125l0,-100c0,-1.72222,1.40278,-3.125,3.125,-3.125s3.125,1.40278,3.125,3.125l0,100C140.611,204.722,139.222,206.125,137.5,206.125z"/>
</g>
<g>
<path d="M25,168.625c-0.805556,0,-1.59722,-0.291667,-2.20833,-0.902778c-1.22222,-1.22222,-1.22222,-3.19444,0,-4.41667l32.5,-32.5139c1.22222,-1.22222,3.19444,-1.22222,4.41667,0s1.22222,3.19444,0,4.41667l-32.5,32.5139C26.5972,168.333,25.8056,168.625,25,168.625z"/>
</g>
<g>
<path d="M30,213.625c-0.805556,0,-1.59722,-0.291667,-2.20833,-0.902778c-1.22222,-1.22222,-1.22222,-3.19444,0,-4.41667l32.5,-32.5c1.22222,-1.22222,3.19444,-1.22222,4.41667,0s1.22222,3.19444,0,4.41667l-32.5,32.5C31.6111,213.319,30.8056,213.625,30,213.625z"/>
</g>
<g id="connector0pin">
<path fill="#787878" d="M137.5,307.861c-2.68056,0,-4.86111,-2.16667,-4.86111,-4.86111l0,-100c0,-2.68056,2.16667,-4.86111,4.86111,-4.86111s4.86111,2.16667,4.86111,4.86111l0,100C142.347,305.694,140.181,307.861,137.5,307.861z"/>
</g>
<g id="connector0terminal">
<rect width="0.0138889" x="137.5" y="303" fill="none" height="0.0138889"/>
</g>
<g transform="matrix(1, 0, 0, 1, 47.625, 89.2528)">
<g>
<g transform="rotate(270)">
<g>
<g enable-background="new    ">
<path fill="#787878" d="M-161.764,76.9444l-12.375,0L-174.139,74.8333l4.75,-5.16667c0.680556,-0.736111,1.29167,-1.40278,1.81944,-2.01389s0.986111,-1.19444,1.375,-1.77778c0.361111,-0.583333,0.652778,-1.16667,0.861111,-1.73611c0.208333,-0.597222,0.291667,-1.22222,0.291667,-1.91667c0,-0.527778,-0.0694444,-1,-0.236111,-1.41667s-0.375,-0.75,-0.652778,-1.04167c-0.291667,-0.277778,-0.625,-0.486111,-1.01389,-0.638889s-0.833333,-0.222222,-1.30556,-0.222222c-0.861111,0,-1.63889,0.180556,-2.31944,0.527778c-0.708333,0.333333,-1.36111,0.791667,-1.98611,1.33333l-1.38889,-1.61111c0.347222,-0.319444,0.763889,-0.638889,1.16667,-0.902778c0.402778,-0.291667,0.875,-0.541667,1.34722,-0.75s0.986111,-0.361111,1.51389,-0.5c0.527778,-0.111111,1.09722,-0.180556,1.68056,-0.180556c0.875,0,1.65278,0.125,2.34722,0.361111c0.708333,0.25,1.30556,0.597222,1.79167,1.05556c0.486111,0.444444,0.875,1,1.13889,1.65278c0.263889,0.666667,0.388889,1.40278,0.388889,2.22222c0,0.777778,-0.125,1.5,-0.361111,2.19444c-0.236111,0.694444,-0.569444,1.38889,-0.972222,2.05556c-0.430556,0.666667,-0.916667,1.34722,-1.51389,2.02778c-0.569444,0.680556,-1.20833,1.38889,-1.88889,2.11111L-171.111,74.5833l0,0.111111l9.34722,0L-161.764,76.9444z"/>
</g>
</g>
</g>
</g>
</g>
<g id="connector1pin">
<path fill="#787878" d="M137.5,107.861c-2.68056,0,-4.86111,-2.18056,-4.86111,-4.86111l0,-100c0,-2.68056,2.16667,-4.86111,4.86111,-4.86111s4.86111,2.18056,4.86111,4.86111l0,100C142.347,105.681,140.181,107.861,137.5,107.861z"/>
</g>
<g id="connector1terminal">
<polygon fill="none" points="137.5,3,137.514,3,137.514,3"/>
</g>
<g transform="matrix(1, 0, 0, 1, 47.625, 18.6972)">
<g>
<g transform="rotate(270)">
<g>
<g enable-background="new    ">
<path fill="#787878" d="M-36.3333,76.9444l-2.38889,0L-38.7222,64.5556c0,-0.388889,0,-0.805556,0,-1.25s0.0138889,-0.875,0.0277778,-1.31944c0.0138889,-0.444444,0.0277778,-0.875,0.0416667,-1.27778c0.0138889,-0.388889,0.0277778,-0.75,0.0277778,-1.05556c-0.152778,0.166667,-0.291667,0.291667,-0.402778,0.416667s-0.236111,0.236111,-0.361111,0.333333s-0.25,0.222222,-0.388889,0.347222c-0.138889,0.111111,-0.291667,0.263889,-0.486111,0.416667l-2.01389,1.63889l-1.30556,-1.66667l5.19444,-4.05556l2.02778,0L-36.3611,76.9444z"/>
</g>
</g>
</g>
</g>
</g>
<g>
<path d="M2.5,188l15,-35.0139l20,19.9722L2.5,188z"/>
</g>
<g>
<path d="M7.5,233l15,-35.0139l19.9722,19.9722L7.5,233z"/>
</g>
</g>
</g></g></g><g partID='12240'><g transform='translate(5301.07,3975.41)' ><g transform='matrix(0,1,-1,0,0,0)'  ><g id="schematic">
<g>
<path d="M187.5,207.861L137.5,207.861c-2.68056,0,-4.86111,-2.16667,-4.86111,-4.86111s2.16667,-4.86111,4.86111,-4.86111L187.5,198.139c2.68056,0,4.86111,2.16667,4.86111,4.86111S190.194,207.861,187.5,207.861z"/>
</g>
<g>
<path d="M137.5,207.861L87.5,207.861c-2.68056,0,-4.86111,-2.16667,-4.86111,-4.86111s2.18056,-4.86111,4.86111,-4.86111l50,0c2.68056,0,4.86111,2.16667,4.86111,4.86111S140.181,207.861,137.5,207.861z"/>
</g>
<g>
<polygon fill="#FFFFFF" points="137.5,203,87.5,103,137.5,103,187.5,103"/>
<path d="M137.5,213.861L79.6389,98.1389l115.736,0L137.5,213.861zM95.3611,107.861L137.5,192.139l42.1389,-84.2778L95.3611,107.861z"/>
</g>
<g>
<path d="M137.5,206.125c-1.72222,0,-3.125,-1.40278,-3.125,-3.125l0,-100c0,-1.72222,1.40278,-3.125,3.125,-3.125s3.125,1.40278,3.125,3.125l0,100C140.611,204.722,139.222,206.125,137.5,206.125z"/>
</g>
<g>
<path d="M25,168.625c-0.805556,0,-1.59722,-0.291667,-2.20833,-0.902778c-1.22222,-1.22222,-1.22222,-3.19444,0,-4.41667l32.5,-32.5139c1.22222,-1.22222,3.19444,-1.22222,4.41667,0s1.22222,3.19444,0,4.41667l-32.5,32.5139C26.5972,168.333,25.8056,168.625,25,168.625z"/>
</g>
<g>
<path d="M30,213.625c-0.805556,0,-1.59722,-0.291667,-2.20833,-0.902778c-1.22222,-1.22222,-1.22222,-3.19444,0,-4.41667l32.5,-32.5c1.22222,-1.22222,3.19444,-1.22222,4.41667,0s1.22222,3.19444,0,4.41667l-32.5,32.5C31.6111,213.319,30.8056,213.625,30,213.625z"/>
</g>
<g id="connector0pin">
<path fill="#787878" d="M137.5,307.861c-2.68056,0,-4.86111,-2.16667,-4.86111,-4.86111l0,-100c0,-2.68056,2.16667,-4.86111,4.86111,-4.86111s4.86111,2.16667,4.86111,4.86111l0,100C142.347,305.694,140.181,307.861,137.5,307.861z"/>
</g>
<g id="connector0terminal">
<rect width="0.0138889" x="137.5" y="303" fill="none" height="0.0138889"/>
</g>
<g transform="matrix(1, 0, 0, 1, 47.625, 89.2528)">
<g>
<g transform="rotate(270)">
<g>
<g enable-background="new    ">
<path fill="#787878" d="M-161.764,76.9444l-12.375,0L-174.139,74.8333l4.75,-5.16667c0.680556,-0.736111,1.29167,-1.40278,1.81944,-2.01389s0.986111,-1.19444,1.375,-1.77778c0.361111,-0.583333,0.652778,-1.16667,0.861111,-1.73611c0.208333,-0.597222,0.291667,-1.22222,0.291667,-1.91667c0,-0.527778,-0.0694444,-1,-0.236111,-1.41667s-0.375,-0.75,-0.652778,-1.04167c-0.291667,-0.277778,-0.625,-0.486111,-1.01389,-0.638889s-0.833333,-0.222222,-1.30556,-0.222222c-0.861111,0,-1.63889,0.180556,-2.31944,0.527778c-0.708333,0.333333,-1.36111,0.791667,-1.98611,1.33333l-1.38889,-1.61111c0.347222,-0.319444,0.763889,-0.638889,1.16667,-0.902778c0.402778,-0.291667,0.875,-0.541667,1.34722,-0.75s0.986111,-0.361111,1.51389,-0.5c0.527778,-0.111111,1.09722,-0.180556,1.68056,-0.180556c0.875,0,1.65278,0.125,2.34722,0.361111c0.708333,0.25,1.30556,0.597222,1.79167,1.05556c0.486111,0.444444,0.875,1,1.13889,1.65278c0.263889,0.666667,0.388889,1.40278,0.388889,2.22222c0,0.777778,-0.125,1.5,-0.361111,2.19444c-0.236111,0.694444,-0.569444,1.38889,-0.972222,2.05556c-0.430556,0.666667,-0.916667,1.34722,-1.51389,2.02778c-0.569444,0.680556,-1.20833,1.38889,-1.88889,2.11111L-171.111,74.5833l0,0.111111l9.34722,0L-161.764,76.9444z"/>
</g>
</g>
</g>
</g>
</g>
<g id="connector1pin">
<path fill="#787878" d="M137.5,107.861c-2.68056,0,-4.86111,-2.18056,-4.86111,-4.86111l0,-100c0,-2.68056,2.16667,-4.86111,4.86111,-4.86111s4.86111,2.18056,4.86111,4.86111l0,100C142.347,105.681,140.181,107.861,137.5,107.861z"/>
</g>
<g id="connector1terminal">
<polygon fill="none" points="137.5,3,137.514,3,137.514,3"/>
</g>
<g transform="matrix(1, 0, 0, 1, 47.625, 18.6972)">
<g>
<g transform="rotate(270)">
<g>
<g enable-background="new    ">
<path fill="#787878" d="M-36.3333,76.9444l-2.38889,0L-38.7222,64.5556c0,-0.388889,0,-0.805556,0,-1.25s0.0138889,-0.875,0.0277778,-1.31944c0.0138889,-0.444444,0.0277778,-0.875,0.0416667,-1.27778c0.0138889,-0.388889,0.0277778,-0.75,0.0277778,-1.05556c-0.152778,0.166667,-0.291667,0.291667,-0.402778,0.416667s-0.236111,0.236111,-0.361111,0.333333s-0.25,0.222222,-0.388889,0.347222c-0.138889,0.111111,-0.291667,0.263889,-0.486111,0.416667l-2.01389,1.63889l-1.30556,-1.66667l5.19444,-4.05556l2.02778,0L-36.3611,76.9444z"/>
</g>
</g>
</g>
</g>
</g>
<g>
<path d="M2.5,188l15,-35.0139l20,19.9722L2.5,188z"/>
</g>
<g>
<path d="M7.5,233l15,-35.0139l19.9722,19.9722L7.5,233z"/>
</g>
</g>
</g></g></g><g partID='12270'><g transform='translate(5301.07,432.098)' ><g transform='matrix(0,1,-1,0,0,0)'  ><g id="schematic">
<g>
<path d="M187.5,207.861L137.5,207.861c-2.68056,0,-4.86111,-2.16667,-4.86111,-4.86111s2.16667,-4.86111,4.86111,-4.86111L187.5,198.139c2.68056,0,4.86111,2.16667,4.86111,4.86111S190.194,207.861,187.5,207.861z"/>
</g>
<g>
<path d="M137.5,207.861L87.5,207.861c-2.68056,0,-4.86111,-2.16667,-4.86111,-4.86111s2.18056,-4.86111,4.86111,-4.86111l50,0c2.68056,0,4.86111,2.16667,4.86111,4.86111S140.181,207.861,137.5,207.861z"/>
</g>
<g>
<polygon fill="#FFFFFF" points="137.5,203,87.5,103,137.5,103,187.5,103"/>
<path d="M137.5,213.861L79.6389,98.1389l115.736,0L137.5,213.861zM95.3611,107.861L137.5,192.139l42.1389,-84.2778L95.3611,107.861z"/>
</g>
<g>
<path d="M137.5,206.125c-1.72222,0,-3.125,-1.40278,-3.125,-3.125l0,-100c0,-1.72222,1.40278,-3.125,3.125,-3.125s3.125,1.40278,3.125,3.125l0,100C140.611,204.722,139.222,206.125,137.5,206.125z"/>
</g>
<g>
<path d="M25,168.625c-0.805556,0,-1.59722,-0.291667,-2.20833,-0.902778c-1.22222,-1.22222,-1.22222,-3.19444,0,-4.41667l32.5,-32.5139c1.22222,-1.22222,3.19444,-1.22222,4.41667,0s1.22222,3.19444,0,4.41667l-32.5,32.5139C26.5972,168.333,25.8056,168.625,25,168.625z"/>
</g>
<g>
<path d="M30,213.625c-0.805556,0,-1.59722,-0.291667,-2.20833,-0.902778c-1.22222,-1.22222,-1.22222,-3.19444,0,-4.41667l32.5,-32.5c1.22222,-1.22222,3.19444,-1.22222,4.41667,0s1.22222,3.19444,0,4.41667l-32.5,32.5C31.6111,213.319,30.8056,213.625,30,213.625z"/>
</g>
<g id="connector0pin">
<path fill="#787878" d="M137.5,307.861c-2.68056,0,-4.86111,-2.16667,-4.86111,-4.86111l0,-100c0,-2.68056,2.16667,-4.86111,4.86111,-4.86111s4.86111,2.16667,4.86111,4.86111l0,100C142.347,305.694,140.181,307.861,137.5,307.861z"/>
</g>
<g id="connector0terminal">
<rect width="0.0138889" x="137.5" y="303" fill="none" height="0.0138889"/>
</g>
<g transform="matrix(1, 0, 0, 1, 47.625, 89.2528)">
<g>
<g transform="rotate(270)">
<g>
<g enable-background="new    ">
<path fill="#787878" d="M-161.764,76.9444l-12.375,0L-174.139,74.8333l4.75,-5.16667c0.680556,-0.736111,1.29167,-1.40278,1.81944,-2.01389s0.986111,-1.19444,1.375,-1.77778c0.361111,-0.583333,0.652778,-1.16667,0.861111,-1.73611c0.208333,-0.597222,0.291667,-1.22222,0.291667,-1.91667c0,-0.527778,-0.0694444,-1,-0.236111,-1.41667s-0.375,-0.75,-0.652778,-1.04167c-0.291667,-0.277778,-0.625,-0.486111,-1.01389,-0.638889s-0.833333,-0.222222,-1.30556,-0.222222c-0.861111,0,-1.63889,0.180556,-2.31944,0.527778c-0.708333,0.333333,-1.36111,0.791667,-1.98611,1.33333l-1.38889,-1.61111c0.347222,-0.319444,0.763889,-0.638889,1.16667,-0.902778c0.402778,-0.291667,0.875,-0.541667,1.34722,-0.75s0.986111,-0.361111,1.51389,-0.5c0.527778,-0.111111,1.09722,-0.180556,1.68056,-0.180556c0.875,0,1.65278,0.125,2.34722,0.361111c0.708333,0.25,1.30556,0.597222,1.79167,1.05556c0.486111,0.444444,0.875,1,1.13889,1.65278c0.263889,0.666667,0.388889,1.40278,0.388889,2.22222c0,0.777778,-0.125,1.5,-0.361111,2.19444c-0.236111,0.694444,-0.569444,1.38889,-0.972222,2.05556c-0.430556,0.666667,-0.916667,1.34722,-1.51389,2.02778c-0.569444,0.680556,-1.20833,1.38889,-1.88889,2.11111L-171.111,74.5833l0,0.111111l9.34722,0L-161.764,76.9444z"/>
</g>
</g>
</g>
</g>
</g>
<g id="connector1pin">
<path fill="#787878" d="M137.5,107.861c-2.68056,0,-4.86111,-2.18056,-4.86111,-4.86111l0,-100c0,-2.68056,2.16667,-4.86111,4.86111,-4.86111s4.86111,2.18056,4.86111,4.86111l0,100C142.347,105.681,140.181,107.861,137.5,107.861z"/>
</g>
<g id="connector1terminal">
<polygon fill="none" points="137.5,3,137.514,3,137.514,3"/>
</g>
<g transform="matrix(1, 0, 0, 1, 47.625, 18.6972)">
<g>
<g transform="rotate(270)">
<g>
<g enable-background="new    ">
<path fill="#787878" d="M-36.3333,76.9444l-2.38889,0L-38.7222,64.5556c0,-0.388889,0,-0.805556,0,-1.25s0.0138889,-0.875,0.0277778,-1.31944c0.0138889,-0.444444,0.0277778,-0.875,0.0416667,-1.27778c0.0138889,-0.388889,0.0277778,-0.75,0.0277778,-1.05556c-0.152778,0.166667,-0.291667,0.291667,-0.402778,0.416667s-0.236111,0.236111,-0.361111,0.333333s-0.25,0.222222,-0.388889,0.347222c-0.138889,0.111111,-0.291667,0.263889,-0.486111,0.416667l-2.01389,1.63889l-1.30556,-1.66667l5.19444,-4.05556l2.02778,0L-36.3611,76.9444z"/>
</g>
</g>
</g>
</g>
</g>
<g>
<path d="M2.5,188l15,-35.0139l20,19.9722L2.5,188z"/>
</g>
<g>
<path d="M7.5,233l15,-35.0139l19.9722,19.9722L7.5,233z"/>
</g>
</g>
</g></g></g><g partID='90430'><g transform='translate(5301.07,2203.75)' ><g transform='matrix(0,1,-1,0,0,0)'  ><g id="schematic">
<g>
<path d="M187.5,207.861L137.5,207.861c-2.68056,0,-4.86111,-2.16667,-4.86111,-4.86111s2.16667,-4.86111,4.86111,-4.86111L187.5,198.139c2.68056,0,4.86111,2.16667,4.86111,4.86111S190.194,207.861,187.5,207.861z"/>
</g>
<g>
<path d="M137.5,207.861L87.5,207.861c-2.68056,0,-4.86111,-2.16667,-4.86111,-4.86111s2.18056,-4.86111,4.86111,-4.86111l50,0c2.68056,0,4.86111,2.16667,4.86111,4.86111S140.181,207.861,137.5,207.861z"/>
</g>
<g>
<polygon fill="#FFFFFF" points="137.5,203,87.5,103,137.5,103,187.5,103"/>
<path d="M137.5,213.861L79.6389,98.1389l115.736,0L137.5,213.861zM95.3611,107.861L137.5,192.139l42.1389,-84.2778L95.3611,107.861z"/>
</g>
<g>
<path d="M137.5,206.125c-1.72222,0,-3.125,-1.40278,-3.125,-3.125l0,-100c0,-1.72222,1.40278,-3.125,3.125,-3.125s3.125,1.40278,3.125,3.125l0,100C140.611,204.722,139.222,206.125,137.5,206.125z"/>
</g>
<g>
<path d="M25,168.625c-0.805556,0,-1.59722,-0.291667,-2.20833,-0.902778c-1.22222,-1.22222,-1.22222,-3.19444,0,-4.41667l32.5,-32.5139c1.22222,-1.22222,3.19444,-1.22222,4.41667,0s1.22222,3.19444,0,4.41667l-32.5,32.5139C26.5972,168.333,25.8056,168.625,25,168.625z"/>
</g>
<g>
<path d="M30,213.625c-0.805556,0,-1.59722,-0.291667,-2.20833,-0.902778c-1.22222,-1.22222,-1.22222,-3.19444,0,-4.41667l32.5,-32.5c1.22222,-1.22222,3.19444,-1.22222,4.41667,0s1.22222,3.19444,0,4.41667l-32.5,32.5C31.6111,213.319,30.8056,213.625,30,213.625z"/>
</g>
<g id="connector0pin">
<path fill="#787878" d="M137.5,307.861c-2.68056,0,-4.86111,-2.16667,-4.86111,-4.86111l0,-100c0,-2.68056,2.16667,-4.86111,4.86111,-4.86111s4.86111,2.16667,4.86111,4.86111l0,100C142.347,305.694,140.181,307.861,137.5,307.861z"/>
</g>
<g id="connector0terminal">
<rect width="0.0138889" x="137.5" y="303" fill="none" height="0.0138889"/>
</g>
<g transform="matrix(1, 0, 0, 1, 47.625, 89.2528)">
<g>
<g transform="rotate(270)">
<g>
<g enable-background="new    ">
<path fill="#787878" d="M-161.764,76.9444l-12.375,0L-174.139,74.8333l4.75,-5.16667c0.680556,-0.736111,1.29167,-1.40278,1.81944,-2.01389s0.986111,-1.19444,1.375,-1.77778c0.361111,-0.583333,0.652778,-1.16667,0.861111,-1.73611c0.208333,-0.597222,0.291667,-1.22222,0.291667,-1.91667c0,-0.527778,-0.0694444,-1,-0.236111,-1.41667s-0.375,-0.75,-0.652778,-1.04167c-0.291667,-0.277778,-0.625,-0.486111,-1.01389,-0.638889s-0.833333,-0.222222,-1.30556,-0.222222c-0.861111,0,-1.63889,0.180556,-2.31944,0.527778c-0.708333,0.333333,-1.36111,0.791667,-1.98611,1.33333l-1.38889,-1.61111c0.347222,-0.319444,0.763889,-0.638889,1.16667,-0.902778c0.402778,-0.291667,0.875,-0.541667,1.34722,-0.75s0.986111,-0.361111,1.51389,-0.5c0.527778,-0.111111,1.09722,-0.180556,1.68056,-0.180556c0.875,0,1.65278,0.125,2.34722,0.361111c0.708333,0.25,1.30556,0.597222,1.79167,1.05556c0.486111,0.444444,0.875,1,1.13889,1.65278c0.263889,0.666667,0.388889,1.40278,0.388889,2.22222c0,0.777778,-0.125,1.5,-0.361111,2.19444c-0.236111,0.694444,-0.569444,1.38889,-0.972222,2.05556c-0.430556,0.666667,-0.916667,1.34722,-1.51389,2.02778c-0.569444,0.680556,-1.20833,1.38889,-1.88889,2.11111L-171.111,74.5833l0,0.111111l9.34722,0L-161.764,76.9444z"/>
</g>
</g>
</g>
</g>
</g>
<g id="connector1pin">
<path fill="#787878" d="M137.5,107.861c-2.68056,0,-4.86111,-2.18056,-4.86111,-4.86111l0,-100c0,-2.68056,2.16667,-4.86111,4.86111,-4.86111s4.86111,2.18056,4.86111,4.86111l0,100C142.347,105.681,140.181,107.861,137.5,107.861z"/>
</g>
<g id="connector1terminal">
<polygon fill="none" points="137.5,3,137.514,3,137.514,3"/>
</g>
<g transform="matrix(1, 0, 0, 1, 47.625, 18.6972)">
<g>
<g transform="rotate(270)">
<g>
<g enable-background="new    ">
<path fill="#787878" d="M-36.3333,76.9444l-2.38889,0L-38.7222,64.5556c0,-0.388889,0,-0.805556,0,-1.25s0.0138889,-0.875,0.0277778,-1.31944c0.0138889,-0.444444,0.0277778,-0.875,0.0416667,-1.27778c0.0138889,-0.388889,0.0277778,-0.75,0.0277778,-1.05556c-0.152778,0.166667,-0.291667,0.291667,-0.402778,0.416667s-0.236111,0.236111,-0.361111,0.333333s-0.25,0.222222,-0.388889,0.347222c-0.138889,0.111111,-0.291667,0.263889,-0.486111,0.416667l-2.01389,1.63889l-1.30556,-1.66667l5.19444,-4.05556l2.02778,0L-36.3611,76.9444z"/>
</g>
</g>
</g>
</g>
</g>
<g>
<path d="M2.5,188l15,-35.0139l20,19.9722L2.5,188z"/>
</g>
<g>
<path d="M7.5,233l15,-35.0139l19.9722,19.9722L7.5,233z"/>
</g>
</g>
</g></g></g><g partID='12410'><g transform='translate(4119.97,2203.75)' ><g transform='matrix(0,1,-1,0,0,0)'  ><g id="schematic">
<g>
<path d="M187.5,207.861L137.5,207.861c-2.68056,0,-4.86111,-2.16667,-4.86111,-4.86111s2.16667,-4.86111,4.86111,-4.86111L187.5,198.139c2.68056,0,4.86111,2.16667,4.86111,4.86111S190.194,207.861,187.5,207.861z"/>
</g>
<g>
<path d="M137.5,207.861L87.5,207.861c-2.68056,0,-4.86111,-2.16667,-4.86111,-4.86111s2.18056,-4.86111,4.86111,-4.86111l50,0c2.68056,0,4.86111,2.16667,4.86111,4.86111S140.181,207.861,137.5,207.861z"/>
</g>
<g>
<polygon fill="#FFFFFF" points="137.5,203,87.5,103,137.5,103,187.5,103"/>
<path d="M137.5,213.861L79.6389,98.1389l115.736,0L137.5,213.861zM95.3611,107.861L137.5,192.139l42.1389,-84.2778L95.3611,107.861z"/>
</g>
<g>
<path d="M137.5,206.125c-1.72222,0,-3.125,-1.40278,-3.125,-3.125l0,-100c0,-1.72222,1.40278,-3.125,3.125,-3.125s3.125,1.40278,3.125,3.125l0,100C140.611,204.722,139.222,206.125,137.5,206.125z"/>
</g>
<g>
<path d="M25,168.625c-0.805556,0,-1.59722,-0.291667,-2.20833,-0.902778c-1.22222,-1.22222,-1.22222,-3.19444,0,-4.41667l32.5,-32.5139c1.22222,-1.22222,3.19444,-1.22222,4.41667,0s1.22222,3.19444,0,4.41667l-32.5,32.5139C26.5972,168.333,25.8056,168.625,25,168.625z"/>
</g>
<g>
<path d="M30,213.625c-0.805556,0,-1.59722,-0.291667,-2.20833,-0.902778c-1.22222,-1.22222,-1.22222,-3.19444,0,-4.41667l32.5,-32.5c1.22222,-1.22222,3.19444,-1.22222,4.41667,0s1.22222,3.19444,0,4.41667l-32.5,32.5C31.6111,213.319,30.8056,213.625,30,213.625z"/>
</g>
<g id="connector0pin">
<path fill="#787878" d="M137.5,307.861c-2.68056,0,-4.86111,-2.16667,-4.86111,-4.86111l0,-100c0,-2.68056,2.16667,-4.86111,4.86111,-4.86111s4.86111,2.16667,4.86111,4.86111l0,100C142.347,305.694,140.181,307.861,137.5,307.861z"/>
</g>
<g id="connector0terminal">
<rect width="0.0138889" x="137.5" y="303" fill="none" height="0.0138889"/>
</g>
<g transform="matrix(1, 0, 0, 1, 47.625, 89.2528)">
<g>
<g transform="rotate(270)">
<g>
<g enable-background="new    ">
<path fill="#787878" d="M-161.764,76.9444l-12.375,0L-174.139,74.8333l4.75,-5.16667c0.680556,-0.736111,1.29167,-1.40278,1.81944,-2.01389s0.986111,-1.19444,1.375,-1.77778c0.361111,-0.583333,0.652778,-1.16667,0.861111,-1.73611c0.208333,-0.597222,0.291667,-1.22222,0.291667,-1.91667c0,-0.527778,-0.0694444,-1,-0.236111,-1.41667s-0.375,-0.75,-0.652778,-1.04167c-0.291667,-0.277778,-0.625,-0.486111,-1.01389,-0.638889s-0.833333,-0.222222,-1.30556,-0.222222c-0.861111,0,-1.63889,0.180556,-2.31944,0.527778c-0.708333,0.333333,-1.36111,0.791667,-1.98611,1.33333l-1.38889,-1.61111c0.347222,-0.319444,0.763889,-0.638889,1.16667,-0.902778c0.402778,-0.291667,0.875,-0.541667,1.34722,-0.75s0.986111,-0.361111,1.51389,-0.5c0.527778,-0.111111,1.09722,-0.180556,1.68056,-0.180556c0.875,0,1.65278,0.125,2.34722,0.361111c0.708333,0.25,1.30556,0.597222,1.79167,1.05556c0.486111,0.444444,0.875,1,1.13889,1.65278c0.263889,0.666667,0.388889,1.40278,0.388889,2.22222c0,0.777778,-0.125,1.5,-0.361111,2.19444c-0.236111,0.694444,-0.569444,1.38889,-0.972222,2.05556c-0.430556,0.666667,-0.916667,1.34722,-1.51389,2.02778c-0.569444,0.680556,-1.20833,1.38889,-1.88889,2.11111L-171.111,74.5833l0,0.111111l9.34722,0L-161.764,76.9444z"/>
</g>
</g>
</g>
</g>
</g>
<g id="connector1pin">
<path fill="#787878" d="M137.5,107.861c-2.68056,0,-4.86111,-2.18056,-4.86111,-4.86111l0,-100c0,-2.68056,2.16667,-4.86111,4.86111,-4.86111s4.86111,2.18056,4.86111,4.86111l0,100C142.347,105.681,140.181,107.861,137.5,107.861z"/>
</g>
<g id="connector1terminal">
<polygon fill="none" points="137.5,3,137.514,3,137.514,3"/>
</g>
<g transform="matrix(1, 0, 0, 1, 47.625, 18.6972)">
<g>
<g transform="rotate(270)">
<g>
<g enable-background="new    ">
<path fill="#787878" d="M-36.3333,76.9444l-2.38889,0L-38.7222,64.5556c0,-0.388889,0,-0.805556,0,-1.25s0.0138889,-0.875,0.0277778,-1.31944c0.0138889,-0.444444,0.0277778,-0.875,0.0416667,-1.27778c0.0138889,-0.388889,0.0277778,-0.75,0.0277778,-1.05556c-0.152778,0.166667,-0.291667,0.291667,-0.402778,0.416667s-0.236111,0.236111,-0.361111,0.333333s-0.25,0.222222,-0.388889,0.347222c-0.138889,0.111111,-0.291667,0.263889,-0.486111,0.416667l-2.01389,1.63889l-1.30556,-1.66667l5.19444,-4.05556l2.02778,0L-36.3611,76.9444z"/>
</g>
</g>
</g>
</g>
</g>
<g>
<path d="M2.5,188l15,-35.0139l20,19.9722L2.5,188z"/>
</g>
<g>
<path d="M7.5,233l15,-35.0139l19.9722,19.9722L7.5,233z"/>
</g>
</g>
</g></g></g><g partID='12440'><g transform='translate(2938.86,3975.41)' ><g transform='matrix(0,1,-1,0,0,0)'  ><g id="schematic">
<g>
<path d="M187.5,207.861L137.5,207.861c-2.68056,0,-4.86111,-2.16667,-4.86111,-4.86111s2.16667,-4.86111,4.86111,-4.86111L187.5,198.139c2.68056,0,4.86111,2.16667,4.86111,4.86111S190.194,207.861,187.5,207.861z"/>
</g>
<g>
<path d="M137.5,207.861L87.5,207.861c-2.68056,0,-4.86111,-2.16667,-4.86111,-4.86111s2.18056,-4.86111,4.86111,-4.86111l50,0c2.68056,0,4.86111,2.16667,4.86111,4.86111S140.181,207.861,137.5,207.861z"/>
</g>
<g>
<polygon fill="#FFFFFF" points="137.5,203,87.5,103,137.5,103,187.5,103"/>
<path d="M137.5,213.861L79.6389,98.1389l115.736,0L137.5,213.861zM95.3611,107.861L137.5,192.139l42.1389,-84.2778L95.3611,107.861z"/>
</g>
<g>
<path d="M137.5,206.125c-1.72222,0,-3.125,-1.40278,-3.125,-3.125l0,-100c0,-1.72222,1.40278,-3.125,3.125,-3.125s3.125,1.40278,3.125,3.125l0,100C140.611,204.722,139.222,206.125,137.5,206.125z"/>
</g>
<g>
<path d="M25,168.625c-0.805556,0,-1.59722,-0.291667,-2.20833,-0.902778c-1.22222,-1.22222,-1.22222,-3.19444,0,-4.41667l32.5,-32.5139c1.22222,-1.22222,3.19444,-1.22222,4.41667,0s1.22222,3.19444,0,4.41667l-32.5,32.5139C26.5972,168.333,25.8056,168.625,25,168.625z"/>
</g>
<g>
<path d="M30,213.625c-0.805556,0,-1.59722,-0.291667,-2.20833,-0.902778c-1.22222,-1.22222,-1.22222,-3.19444,0,-4.41667l32.5,-32.5c1.22222,-1.22222,3.19444,-1.22222,4.41667,0s1.22222,3.19444,0,4.41667l-32.5,32.5C31.6111,213.319,30.8056,213.625,30,213.625z"/>
</g>
<g id="connector0pin">
<path fill="#787878" d="M137.5,307.861c-2.68056,0,-4.86111,-2.16667,-4.86111,-4.86111l0,-100c0,-2.68056,2.16667,-4.86111,4.86111,-4.86111s4.86111,2.16667,4.86111,4.86111l0,100C142.347,305.694,140.181,307.861,137.5,307.861z"/>
</g>
<g id="connector0terminal">
<rect width="0.0138889" x="137.5" y="303" fill="none" height="0.0138889"/>
</g>
<g transform="matrix(1, 0, 0, 1, 47.625, 89.2528)">
<g>
<g transform="rotate(270)">
<g>
<g enable-background="new    ">
<path fill="#787878" d="M-161.764,76.9444l-12.375,0L-174.139,74.8333l4.75,-5.16667c0.680556,-0.736111,1.29167,-1.40278,1.81944,-2.01389s0.986111,-1.19444,1.375,-1.77778c0.361111,-0.583333,0.652778,-1.16667,0.861111,-1.73611c0.208333,-0.597222,0.291667,-1.22222,0.291667,-1.91667c0,-0.527778,-0.0694444,-1,-0.236111,-1.41667s-0.375,-0.75,-0.652778,-1.04167c-0.291667,-0.277778,-0.625,-0.486111,-1.01389,-0.638889s-0.833333,-0.222222,-1.30556,-0.222222c-0.861111,0,-1.63889,0.180556,-2.31944,0.527778c-0.708333,0.333333,-1.36111,0.791667,-1.98611,1.33333l-1.38889,-1.61111c0.347222,-0.319444,0.763889,-0.638889,1.16667,-0.902778c0.402778,-0.291667,0.875,-0.541667,1.34722,-0.75s0.986111,-0.361111,1.51389,-0.5c0.527778,-0.111111,1.09722,-0.180556,1.68056,-0.180556c0.875,0,1.65278,0.125,2.34722,0.361111c0.708333,0.25,1.30556,0.597222,1.79167,1.05556c0.486111,0.444444,0.875,1,1.13889,1.65278c0.263889,0.666667,0.388889,1.40278,0.388889,2.22222c0,0.777778,-0.125,1.5,-0.361111,2.19444c-0.236111,0.694444,-0.569444,1.38889,-0.972222,2.05556c-0.430556,0.666667,-0.916667,1.34722,-1.51389,2.02778c-0.569444,0.680556,-1.20833,1.38889,-1.88889,2.11111L-171.111,74.5833l0,0.111111l9.34722,0L-161.764,76.9444z"/>
</g>
</g>
</g>
</g>
</g>
<g id="connector1pin">
<path fill="#787878" d="M137.5,107.861c-2.68056,0,-4.86111,-2.18056,-4.86111,-4.86111l0,-100c0,-2.68056,2.16667,-4.86111,4.86111,-4.86111s4.86111,2.18056,4.86111,4.86111l0,100C142.347,105.681,140.181,107.861,137.5,107.861z"/>
</g>
<g id="connector1terminal">
<polygon fill="none" points="137.5,3,137.514,3,137.514,3"/>
</g>
<g transform="matrix(1, 0, 0, 1, 47.625, 18.6972)">
<g>
<g transform="rotate(270)">
<g>
<g enable-background="new    ">
<path fill="#787878" d="M-36.3333,76.9444l-2.38889,0L-38.7222,64.5556c0,-0.388889,0,-0.805556,0,-1.25s0.0138889,-0.875,0.0277778,-1.31944c0.0138889,-0.444444,0.0277778,-0.875,0.0416667,-1.27778c0.0138889,-0.388889,0.0277778,-0.75,0.0277778,-1.05556c-0.152778,0.166667,-0.291667,0.291667,-0.402778,0.416667s-0.236111,0.236111,-0.361111,0.333333s-0.25,0.222222,-0.388889,0.347222c-0.138889,0.111111,-0.291667,0.263889,-0.486111,0.416667l-2.01389,1.63889l-1.30556,-1.66667l5.19444,-4.05556l2.02778,0L-36.3611,76.9444z"/>
</g>
</g>
</g>
</g>
</g>
<g>
<path d="M2.5,188l15,-35.0139l20,19.9722L2.5,188z"/>
</g>
<g>
<path d="M7.5,233l15,-35.0139l19.9722,19.9722L7.5,233z"/>
</g>
</g>
</g></g></g><g partID='12470'><g transform='translate(4119.97,3975.41)' ><g transform='matrix(0,1,-1,0,0,0)'  ><g id="schematic">
<g>
<path d="M187.5,207.861L137.5,207.861c-2.68056,0,-4.86111,-2.16667,-4.86111,-4.86111s2.16667,-4.86111,4.86111,-4.86111L187.5,198.139c2.68056,0,4.86111,2.16667,4.86111,4.86111S190.194,207.861,187.5,207.861z"/>
</g>
<g>
<path d="M137.5,207.861L87.5,207.861c-2.68056,0,-4.86111,-2.16667,-4.86111,-4.86111s2.18056,-4.86111,4.86111,-4.86111l50,0c2.68056,0,4.86111,2.16667,4.86111,4.86111S140.181,207.861,137.5,207.861z"/>
</g>
<g>
<polygon fill="#FFFFFF" points="137.5,203,87.5,103,137.5,103,187.5,103"/>
<path d="M137.5,213.861L79.6389,98.1389l115.736,0L137.5,213.861zM95.3611,107.861L137.5,192.139l42.1389,-84.2778L95.3611,107.861z"/>
</g>
<g>
<path d="M137.5,206.125c-1.72222,0,-3.125,-1.40278,-3.125,-3.125l0,-100c0,-1.72222,1.40278,-3.125,3.125,-3.125s3.125,1.40278,3.125,3.125l0,100C140.611,204.722,139.222,206.125,137.5,206.125z"/>
</g>
<g>
<path d="M25,168.625c-0.805556,0,-1.59722,-0.291667,-2.20833,-0.902778c-1.22222,-1.22222,-1.22222,-3.19444,0,-4.41667l32.5,-32.5139c1.22222,-1.22222,3.19444,-1.22222,4.41667,0s1.22222,3.19444,0,4.41667l-32.5,32.5139C26.5972,168.333,25.8056,168.625,25,168.625z"/>
</g>
<g>
<path d="M30,213.625c-0.805556,0,-1.59722,-0.291667,-2.20833,-0.902778c-1.22222,-1.22222,-1.22222,-3.19444,0,-4.41667l32.5,-32.5c1.22222,-1.22222,3.19444,-1.22222,4.41667,0s1.22222,3.19444,0,4.41667l-32.5,32.5C31.6111,213.319,30.8056,213.625,30,213.625z"/>
</g>
<g id="connector0pin">
<path fill="#787878" d="M137.5,307.861c-2.68056,0,-4.86111,-2.16667,-4.86111,-4.86111l0,-100c0,-2.68056,2.16667,-4.86111,4.86111,-4.86111s4.86111,2.16667,4.86111,4.86111l0,100C142.347,305.694,140.181,307.861,137.5,307.861z"/>
</g>
<g id="connector0terminal">
<rect width="0.0138889" x="137.5" y="303" fill="none" height="0.0138889"/>
</g>
<g transform="matrix(1, 0, 0, 1, 47.625, 89.2528)">
<g>
<g transform="rotate(270)">
<g>
<g enable-background="new    ">
<path fill="#787878" d="M-161.764,76.9444l-12.375,0L-174.139,74.8333l4.75,-5.16667c0.680556,-0.736111,1.29167,-1.40278,1.81944,-2.01389s0.986111,-1.19444,1.375,-1.77778c0.361111,-0.583333,0.652778,-1.16667,0.861111,-1.73611c0.208333,-0.597222,0.291667,-1.22222,0.291667,-1.91667c0,-0.527778,-0.0694444,-1,-0.236111,-1.41667s-0.375,-0.75,-0.652778,-1.04167c-0.291667,-0.277778,-0.625,-0.486111,-1.01389,-0.638889s-0.833333,-0.222222,-1.30556,-0.222222c-0.861111,0,-1.63889,0.180556,-2.31944,0.527778c-0.708333,0.333333,-1.36111,0.791667,-1.98611,1.33333l-1.38889,-1.61111c0.347222,-0.319444,0.763889,-0.638889,1.16667,-0.902778c0.402778,-0.291667,0.875,-0.541667,1.34722,-0.75s0.986111,-0.361111,1.51389,-0.5c0.527778,-0.111111,1.09722,-0.180556,1.68056,-0.180556c0.875,0,1.65278,0.125,2.34722,0.361111c0.708333,0.25,1.30556,0.597222,1.79167,1.05556c0.486111,0.444444,0.875,1,1.13889,1.65278c0.263889,0.666667,0.388889,1.40278,0.388889,2.22222c0,0.777778,-0.125,1.5,-0.361111,2.19444c-0.236111,0.694444,-0.569444,1.38889,-0.972222,2.05556c-0.430556,0.666667,-0.916667,1.34722,-1.51389,2.02778c-0.569444,0.680556,-1.20833,1.38889,-1.88889,2.11111L-171.111,74.5833l0,0.111111l9.34722,0L-161.764,76.9444z"/>
</g>
</g>
</g>
</g>
</g>
<g id="connector1pin">
<path fill="#787878" d="M137.5,107.861c-2.68056,0,-4.86111,-2.18056,-4.86111,-4.86111l0,-100c0,-2.68056,2.16667,-4.86111,4.86111,-4.86111s4.86111,2.18056,4.86111,4.86111l0,100C142.347,105.681,140.181,107.861,137.5,107.861z"/>
</g>
<g id="connector1terminal">
<polygon fill="none" points="137.5,3,137.514,3,137.514,3"/>
</g>
<g transform="matrix(1, 0, 0, 1, 47.625, 18.6972)">
<g>
<g transform="rotate(270)">
<g>
<g enable-background="new    ">
<path fill="#787878" d="M-36.3333,76.9444l-2.38889,0L-38.7222,64.5556c0,-0.388889,0,-0.805556,0,-1.25s0.0138889,-0.875,0.0277778,-1.31944c0.0138889,-0.444444,0.0277778,-0.875,0.0416667,-1.27778c0.0138889,-0.388889,0.0277778,-0.75,0.0277778,-1.05556c-0.152778,0.166667,-0.291667,0.291667,-0.402778,0.416667s-0.236111,0.236111,-0.361111,0.333333s-0.25,0.222222,-0.388889,0.347222c-0.138889,0.111111,-0.291667,0.263889,-0.486111,0.416667l-2.01389,1.63889l-1.30556,-1.66667l5.19444,-4.05556l2.02778,0L-36.3611,76.9444z"/>
</g>
</g>
</g>
</g>
</g>
<g>
<path d="M2.5,188l15,-35.0139l20,19.9722L2.5,188z"/>
</g>
<g>
<path d="M7.5,233l15,-35.0139l19.9722,19.9722L7.5,233z"/>
</g>
</g>
</g></g></g><g partID='12500'><g transform='translate(2938.86,2203.75)' ><g transform='matrix(0,1,-1,0,0,0)'  ><g id="schematic">
<g>
<path d="M187.5,207.861L137.5,207.861c-2.68056,0,-4.86111,-2.16667,-4.86111,-4.86111s2.16667,-4.86111,4.86111,-4.86111L187.5,198.139c2.68056,0,4.86111,2.16667,4.86111,4.86111S190.194,207.861,187.5,207.861z"/>
</g>
<g>
<path d="M137.5,207.861L87.5,207.861c-2.68056,0,-4.86111,-2.16667,-4.86111,-4.86111s2.18056,-4.86111,4.86111,-4.86111l50,0c2.68056,0,4.86111,2.16667,4.86111,4.86111S140.181,207.861,137.5,207.861z"/>
</g>
<g>
<polygon fill="#FFFFFF" points="137.5,203,87.5,103,137.5,103,187.5,103"/>
<path d="M137.5,213.861L79.6389,98.1389l115.736,0L137.5,213.861zM95.3611,107.861L137.5,192.139l42.1389,-84.2778L95.3611,107.861z"/>
</g>
<g>
<path d="M137.5,206.125c-1.72222,0,-3.125,-1.40278,-3.125,-3.125l0,-100c0,-1.72222,1.40278,-3.125,3.125,-3.125s3.125,1.40278,3.125,3.125l0,100C140.611,204.722,139.222,206.125,137.5,206.125z"/>
</g>
<g>
<path d="M25,168.625c-0.805556,0,-1.59722,-0.291667,-2.20833,-0.902778c-1.22222,-1.22222,-1.22222,-3.19444,0,-4.41667l32.5,-32.5139c1.22222,-1.22222,3.19444,-1.22222,4.41667,0s1.22222,3.19444,0,4.41667l-32.5,32.5139C26.5972,168.333,25.8056,168.625,25,168.625z"/>
</g>
<g>
<path d="M30,213.625c-0.805556,0,-1.59722,-0.291667,-2.20833,-0.902778c-1.22222,-1.22222,-1.22222,-3.19444,0,-4.41667l32.5,-32.5c1.22222,-1.22222,3.19444,-1.22222,4.41667,0s1.22222,3.19444,0,4.41667l-32.5,32.5C31.6111,213.319,30.8056,213.625,30,213.625z"/>
</g>
<g id="connector0pin">
<path fill="#787878" d="M137.5,307.861c-2.68056,0,-4.86111,-2.16667,-4.86111,-4.86111l0,-100c0,-2.68056,2.16667,-4.86111,4.86111,-4.86111s4.86111,2.16667,4.86111,4.86111l0,100C142.347,305.694,140.181,307.861,137.5,307.861z"/>
</g>
<g id="connector0terminal">
<rect width="0.0138889" x="137.5" y="303" fill="none" height="0.0138889"/>
</g>
<g transform="matrix(1, 0, 0, 1, 47.625, 89.2528)">
<g>
<g transform="rotate(270)">
<g>
<g enable-background="new    ">
<path fill="#787878" d="M-161.764,76.9444l-12.375,0L-174.139,74.8333l4.75,-5.16667c0.680556,-0.736111,1.29167,-1.40278,1.81944,-2.01389s0.986111,-1.19444,1.375,-1.77778c0.361111,-0.583333,0.652778,-1.16667,0.861111,-1.73611c0.208333,-0.597222,0.291667,-1.22222,0.291667,-1.91667c0,-0.527778,-0.0694444,-1,-0.236111,-1.41667s-0.375,-0.75,-0.652778,-1.04167c-0.291667,-0.277778,-0.625,-0.486111,-1.01389,-0.638889s-0.833333,-0.222222,-1.30556,-0.222222c-0.861111,0,-1.63889,0.180556,-2.31944,0.527778c-0.708333,0.333333,-1.36111,0.791667,-1.98611,1.33333l-1.38889,-1.61111c0.347222,-0.319444,0.763889,-0.638889,1.16667,-0.902778c0.402778,-0.291667,0.875,-0.541667,1.34722,-0.75s0.986111,-0.361111,1.51389,-0.5c0.527778,-0.111111,1.09722,-0.180556,1.68056,-0.180556c0.875,0,1.65278,0.125,2.34722,0.361111c0.708333,0.25,1.30556,0.597222,1.79167,1.05556c0.486111,0.444444,0.875,1,1.13889,1.65278c0.263889,0.666667,0.388889,1.40278,0.388889,2.22222c0,0.777778,-0.125,1.5,-0.361111,2.19444c-0.236111,0.694444,-0.569444,1.38889,-0.972222,2.05556c-0.430556,0.666667,-0.916667,1.34722,-1.51389,2.02778c-0.569444,0.680556,-1.20833,1.38889,-1.88889,2.11111L-171.111,74.5833l0,0.111111l9.34722,0L-161.764,76.9444z"/>
</g>
</g>
</g>
</g>
</g>
<g id="connector1pin">
<path fill="#787878" d="M137.5,107.861c-2.68056,0,-4.86111,-2.18056,-4.86111,-4.86111l0,-100c0,-2.68056,2.16667,-4.86111,4.86111,-4.86111s4.86111,2.18056,4.86111,4.86111l0,100C142.347,105.681,140.181,107.861,137.5,107.861z"/>
</g>
<g id="connector1terminal">
<polygon fill="none" points="137.5,3,137.514,3,137.514,3"/>
</g>
<g transform="matrix(1, 0, 0, 1, 47.625, 18.6972)">
<g>
<g transform="rotate(270)">
<g>
<g enable-background="new    ">
<path fill="#787878" d="M-36.3333,76.9444l-2.38889,0L-38.7222,64.5556c0,-0.388889,0,-0.805556,0,-1.25s0.0138889,-0.875,0.0277778,-1.31944c0.0138889,-0.444444,0.0277778,-0.875,0.0416667,-1.27778c0.0138889,-0.388889,0.0277778,-0.75,0.0277778,-1.05556c-0.152778,0.166667,-0.291667,0.291667,-0.402778,0.416667s-0.236111,0.236111,-0.361111,0.333333s-0.25,0.222222,-0.388889,0.347222c-0.138889,0.111111,-0.291667,0.263889,-0.486111,0.416667l-2.01389,1.63889l-1.30556,-1.66667l5.19444,-4.05556l2.02778,0L-36.3611,76.9444z"/>
</g>
</g>
</g>
</g>
</g>
<g>
<path d="M2.5,188l15,-35.0139l20,19.9722L2.5,188z"/>
</g>
<g>
<path d="M7.5,233l15,-35.0139l19.9722,19.9722L7.5,233z"/>
</g>
</g>
</g></g></g><g partID='88300'><g transform='translate(6466.39,1922.78)' ><g xmlns="http://www.w3.org/2000/svg" id="schematic">
<line fill="none" xmlns="http://www.w3.org/2000/svg" stroke="#000000" stroke-linejoin="round" id="connector0pin" stroke-linecap="round" y1="50" stroke-width="9.72222" x1="4.86111" y2="50" x2="102.028"/>
<g width="7.58333" x="-3.5" y="48.6667" fill="none" xmlns="http://www.w3.org/2000/svg" height="2.88889" id="connector0terminal"/>
<polyline fill="none" points="195.833,77.1806,137.889,50,195.833,22.8194" xmlns="http://www.w3.org/2000/svg" stroke="#000000" stroke-linejoin="round" stroke-linecap="round" stroke-width="9.72222"/>
<line fill="none" xmlns="http://www.w3.org/2000/svg" stroke="#000000" stroke-linejoin="round" id="line" stroke-linecap="round" y1="50" stroke-width="9.72222" x1="140.417" y2="50" x2="66.7222"/>
<text x="70.1389" y="35.8333" class="text" font-family="'Droid Sans'" fill="#8c8c8c" xmlns="http://www.w3.org/2000/svg" text-anchor="middle" stroke="none" stroke-width="0" font-size="34.7222">1</text>
<line fill="none" xmlns="http://www.w3.org/2000/svg" stroke="#000000" stroke-linejoin="round" id="connector1pin" stroke-linecap="round" y1="150" stroke-width="9.72222" x1="4.86111" y2="150" x2="102.028"/>
<g width="7.58333" x="-3.5" y="148.667" fill="none" xmlns="http://www.w3.org/2000/svg" height="2.88889" id="connector1terminal"/>
<polyline fill="none" points="195.833,177.181,137.889,150,195.833,122.819" xmlns="http://www.w3.org/2000/svg" stroke="#000000" stroke-linejoin="round" stroke-linecap="round" stroke-width="9.72222"/>
<line fill="none" xmlns="http://www.w3.org/2000/svg" stroke="#000000" stroke-linejoin="round" id="line" stroke-linecap="round" y1="150" stroke-width="9.72222" x1="140.417" y2="150" x2="66.7222"/>
<text x="70.1389" y="135.833" class="text" font-family="'Droid Sans'" fill="#8c8c8c" xmlns="http://www.w3.org/2000/svg" text-anchor="middle" stroke="none" stroke-width="0" font-size="34.7222">2</text>
<line fill="none" xmlns="http://www.w3.org/2000/svg" stroke="#000000" stroke-linejoin="round" id="connector2pin" stroke-linecap="round" y1="250" stroke-width="9.72222" x1="4.86111" y2="250" x2="102.028"/>
<g width="7.58333" x="-3.5" y="248.667" fill="none" xmlns="http://www.w3.org/2000/svg" height="2.88889" id="connector2terminal"/>
<polyline fill="none" points="195.833,277.181,137.889,250,195.833,222.819" xmlns="http://www.w3.org/2000/svg" stroke="#000000" stroke-linejoin="round" stroke-linecap="round" stroke-width="9.72222"/>
<line fill="none" xmlns="http://www.w3.org/2000/svg" stroke="#000000" stroke-linejoin="round" id="line" stroke-linecap="round" y1="250" stroke-width="9.72222" x1="140.417" y2="250" x2="66.7222"/>
<text x="70.1389" y="235.833" class="text" font-family="'Droid Sans'" fill="#8c8c8c" xmlns="http://www.w3.org/2000/svg" text-anchor="middle" stroke="none" stroke-width="0" font-size="34.7222">3</text>
</g>
</g></g><g partID='89330'><g transform='translate(870,1922.78)' ><g transform='matrix(-1,0,0,1,0,0)'  ><g xmlns="http://www.w3.org/2000/svg" id="schematic">
<line fill="none" xmlns="http://www.w3.org/2000/svg" stroke="#000000" stroke-linejoin="round" id="connector0pin" stroke-linecap="round" y1="50" stroke-width="9.72222" x1="4.86111" y2="50" x2="102.028"/>
<g width="7.58333" x="-3.5" y="48.6667" fill="none" xmlns="http://www.w3.org/2000/svg" height="2.88889" id="connector0terminal"/>
<polyline fill="none" points="195.833,77.1806,137.889,50,195.833,22.8194" xmlns="http://www.w3.org/2000/svg" stroke="#000000" stroke-linejoin="round" stroke-linecap="round" stroke-width="9.72222"/>
<line fill="none" xmlns="http://www.w3.org/2000/svg" stroke="#000000" stroke-linejoin="round" id="line" stroke-linecap="round" y1="50" stroke-width="9.72222" x1="140.417" y2="50" x2="66.7222"/>
<text x="70.1389" y="35.8333" class="text" font-family="'Droid Sans'" fill="#8c8c8c" xmlns="http://www.w3.org/2000/svg" text-anchor="middle" stroke="none" stroke-width="0" font-size="34.7222">1</text>
<line fill="none" xmlns="http://www.w3.org/2000/svg" stroke="#000000" stroke-linejoin="round" id="connector1pin" stroke-linecap="round" y1="150" stroke-width="9.72222" x1="4.86111" y2="150" x2="102.028"/>
<g width="7.58333" x="-3.5" y="148.667" fill="none" xmlns="http://www.w3.org/2000/svg" height="2.88889" id="connector1terminal"/>
<polyline fill="none" points="195.833,177.181,137.889,150,195.833,122.819" xmlns="http://www.w3.org/2000/svg" stroke="#000000" stroke-linejoin="round" stroke-linecap="round" stroke-width="9.72222"/>
<line fill="none" xmlns="http://www.w3.org/2000/svg" stroke="#000000" stroke-linejoin="round" id="line" stroke-linecap="round" y1="150" stroke-width="9.72222" x1="140.417" y2="150" x2="66.7222"/>
<text x="70.1389" y="135.833" class="text" font-family="'Droid Sans'" fill="#8c8c8c" xmlns="http://www.w3.org/2000/svg" text-anchor="middle" stroke="none" stroke-width="0" font-size="34.7222">2</text>
<line fill="none" xmlns="http://www.w3.org/2000/svg" stroke="#000000" stroke-linejoin="round" id="connector2pin" stroke-linecap="round" y1="250" stroke-width="9.72222" x1="4.86111" y2="250" x2="102.028"/>
<g width="7.58333" x="-3.5" y="248.667" fill="none" xmlns="http://www.w3.org/2000/svg" height="2.88889" id="connector2terminal"/>
<polyline fill="none" points="195.833,277.181,137.889,250,195.833,222.819" xmlns="http://www.w3.org/2000/svg" stroke="#000000" stroke-linejoin="round" stroke-linecap="round" stroke-width="9.72222"/>
<line fill="none" xmlns="http://www.w3.org/2000/svg" stroke="#000000" stroke-linejoin="round" id="line" stroke-linecap="round" y1="250" stroke-width="9.72222" x1="140.417" y2="250" x2="66.7222"/>
<text x="70.1389" y="235.833" class="text" font-family="'Droid Sans'" fill="#8c8c8c" xmlns="http://www.w3.org/2000/svg" text-anchor="middle" stroke="none" stroke-width="0" font-size="34.7222">3</text>
</g>
</g></g></g><g partID='13320'><line stroke-linecap='round' stroke='#404040' x1='4406.38' y1='581.433' x2='4111.23' y2='581.211' stroke-width='33.3333' /></g><g partID='13390'><line stroke-linecap='round' stroke='#404040' x1='3225.28' y1='581.433' x2='2930.13' y2='581.211' stroke-width='33.3333' /></g><g partID='14690'><line stroke-linecap='round' stroke='#404040' x1='4406.38' y1='2353.09' x2='4111.23' y2='2352.87' stroke-width='33.3333' /></g><g partID='14780'><line stroke-linecap='round' stroke='#404040' x1='3225.28' y1='2353.09' x2='2930.13' y2='2352.87' stroke-width='33.3333' /></g><g partID='14850'><line stroke-linecap='round' stroke='#404040' x1='3225.28' y1='4124.74' x2='2930.13' y2='4124.52' stroke-width='33.3333' /></g><g partID='14920'><line stroke-linecap='round' stroke='#404040' x1='4406.38' y1='4124.74' x2='4111.23' y2='4124.52' stroke-width='33.3333' /></g><g partID='90710'><line stroke-linecap='round' stroke='#404040' x1='5886.96' y1='576.444' x2='6473.31' y2='2057.81' stroke-width='33.3333' /></g><g partID='90720'><line stroke-linecap='round' stroke='#404040' x1='5292.33' y1='581.211' x2='5886.96' y2='576.444' stroke-width='33.3333' /></g><g partID='90770'><line stroke-linecap='round' stroke='#404040' x1='5886.96' y1='2354.22' x2='6473.31' y2='2353.09' stroke-width='33.3333' /></g><g partID='90780'><line stroke-linecap='round' stroke='#404040' x1='5292.33' y1='2352.87' x2='5886.96' y2='2354.22' stroke-width='33.3333' /></g><g partID='90850'><line stroke-linecap='round' stroke='#404040' x1='5886.96' y1='4120.89' x2='6473.31' y2='2648.37' stroke-width='33.3333' /></g><g partID='90860'><line stroke-linecap='round' stroke='#404040' x1='5292.33' y1='4124.52' x2='5886.96' y2='4120.89' stroke-width='33.3333' /></g><g partID='91120'><line stroke-linecap='round' stroke='#404040' x1='1453.62' y1='576.444' x2='863.07' y2='2057.81' stroke-width='33.3333' /></g><g partID='91130'><line stroke-linecap='round' stroke='#404040' x1='2044.17' y1='581.433' x2='1453.62' y2='576.444' stroke-width='33.3333' /></g><g partID='91200'><line stroke-linecap='round' stroke='#404040' x1='1453.62' y1='4120.89' x2='863.07' y2='2648.37' stroke-width='33.3333' /></g><g partID='91210'><line stroke-linecap='round' stroke='#404040' x1='2044.17' y1='4124.74' x2='1453.62' y2='4120.89' stroke-width='33.3333' /></g><g partID='91280'><line stroke-linecap='round' stroke='#404040' x1='1453.62' y1='2354.22' x2='863.07' y2='2353.09' stroke-width='33.3333' /></g><g partID='91290'><line stroke-linecap='round' stroke='#404040' x1='2044.17' y1='2353.09' x2='1453.62' y2='2354.22' stroke-width='33.3333' /></g><g partID='12180' id='partLabel'><g transform='translate(2051.21,22.2222)' ><g font-size='125' font-style='normal' font-weight='normal' fill='#000000' font-family="'DroidSans'" id='schematicLabel' fill-opacity='1' stroke='none' ><text x='0' y='93.75'>LED1</text><text x='0' y='218.75'>Red (635nm)</text></g></g></g><g partID='12210' id='partLabel'><g transform='translate(3221.2,0)' ><g font-size='125' font-style='normal' font-weight='normal' fill='#000000' font-family="'DroidSans'" id='schematicLabel' fill-opacity='1' stroke='none' ><text x='0' y='93.75'>LED2</text><text x='0' y='218.75'>Red (635nm)</text></g></g></g><g partID='12240' id='partLabel'><g transform='translate(4357.87,3554.42)' ><g font-size='125' font-style='normal' font-weight='normal' fill='#000000' font-family="'DroidSans'" id='schematicLabel' fill-opacity='1' stroke='none' ><text x='0' y='93.75'>LED9</text><text x='0' y='218.75'>Blue (470nm)</text></g></g></g><g partID='12270' id='partLabel'><g transform='translate(4402.31,0)' ><g font-size='125' font-style='normal' font-weight='normal' fill='#000000' font-family="'DroidSans'" id='schematicLabel' fill-opacity='1' stroke='none' ><text x='0' y='93.75'>LED3</text><text x='0' y='218.75'>Red (635nm)</text></g></g></g><g partID='12410' id='partLabel'><g transform='translate(3243.42,1782.77)' ><g font-size='125' font-style='normal' font-weight='normal' fill='#000000' font-family="'DroidSans'" id='schematicLabel' fill-opacity='1' stroke='none' ><text x='0' y='93.75'>LED5</text><text x='0' y='218.75'>Green (560nm)</text></g></g></g><g partID='12440' id='partLabel'><g transform='translate(2051.21,3521.09)' ><g font-size='125' font-style='normal' font-weight='normal' fill='#000000' font-family="'DroidSans'" id='schematicLabel' fill-opacity='1' stroke='none' ><text x='0' y='93.75'>LED7</text><text x='0' y='218.75'>Blue (470nm)</text></g></g></g><g partID='12470' id='partLabel'><g transform='translate(3143.42,3532.2)' ><g font-size='125' font-style='normal' font-weight='normal' fill='#000000' font-family="'DroidSans'" id='schematicLabel' fill-opacity='1' stroke='none' ><text x='0' y='93.75'>LED8</text><text x='0' y='218.75'>Blue (470nm)</text></g></g></g><g partID='12500' id='partLabel'><g transform='translate(2028.99,1793.88)' ><g font-size='125' font-style='normal' font-weight='normal' fill='#000000' font-family="'DroidSans'" id='schematicLabel' fill-opacity='1' stroke='none' ><text x='0' y='93.75'>LED4</text><text x='0' y='218.75'>Green (560nm)</text></g></g></g><g partID='88300' id='partLabel'><g transform='translate(7336.39,1767.22)' ><g font-size='125' font-style='normal' font-weight='normal' fill='#000000' font-family="'DroidSans'" id='schematicLabel' fill-opacity='1' stroke='none' ><text x='0' y='93.75'>J1</text></g></g></g><g partID='89330' id='partLabel'><g transform='translate(870.001,1767.22)' ><g font-size='125' font-style='normal' font-weight='normal' fill='#000000' font-family="'DroidSans'" id='schematicLabel' fill-opacity='1' stroke='none' ><text x='0' y='93.75'>J2</text></g></g></g><g partID='90430' id='partLabel'><g transform='translate(4457.87,1738.32)' ><g font-size='125' font-style='normal' font-weight='normal' fill='#000000' font-family="'DroidSans'" id='schematicLabel' fill-opacity='1' stroke='none' ><text x='0' y='93.75'>LED6</text><text x='0' y='218.75'>Green (560nm)</text></g></g></g></svg>