<?xml version='1.0' encoding='UTF-8' standalone='no'?>
<!-- Created with Fritzing (http://www.fritzing.org/) -->
<svg xmlns:svg='http://www.w3.org/2000/svg' xmlns='http://www.w3.org/2000/svg' version='1.2' baseProfile='tiny' x='0in' y='0in' width='2.2in' height='2.90009in' viewBox='0 0 2200 2900.09' >
<path stroke='#8c8c8c' stroke-width='29.88' stroke-linecap='round' stroke-linejoin='round' fill='none' d='M750.014,405.65L750.014,747.54' />
<path stroke='#8c8c8c' stroke-width='29.88' stroke-linecap='round' stroke-linejoin='round' fill='none' d='M850.044,405.65L850.044,747.54' />
<g partID='12180'><g transform='translate(687.144,0)' ><g xmlns="http://www.w3.org/2000/svg" id="breadboard">
 <rect xmlns="http://www.w3.org/2000/svg" width="29.89" x="47.93" y="353.07" fill="none" height="10" id="connector0pin"/>
 <rect xmlns="http://www.w3.org/2000/svg" width="29.92" x="147.93" y="353.07" fill="none" height="10" id="connector1pin"/>
 <g xmlns="http://www.w3.org/2000/svg" fill="none" stroke="#8C8C8C" id="connector0leg" stroke-linecap="round" y1="40.565" x1="6.287" y2="74.754" stroke-width="29.88" x2="6.287"/>
 <g xmlns="http://www.w3.org/2000/svg" fill="none" stroke="#8C8C8C" id="connector1leg" stroke-linecap="round" y1="40.565" x1="16.29" y2="74.754" stroke-width="29.88" x2="16.29"/>
 <rect xmlns="http://www.w3.org/2000/svg" width="29.88" x="47.93" y="269.16" fill="#8C8C8C" height="136.49"/>
 <path xmlns="http://www.w3.org/2000/svg" fill="#8C8C8C" d="M177.84,405.65c0,-16.3,-14.79,-29.2,-29,-41.55c-5.78,-5.1,-16.66,-13.91,-16.66,-19.79l0,-75.98l-30.02,0l0,80.28c0,14.7,13.16,26.09,27.03,38.17c6.17,5.22,18.73,17.36,18.73,24.58"/>
 <g xmlns="http://www.w3.org/2000/svg" id="g12">
  <path xmlns="http://www.w3.org/2000/svg" opacity="0.3" fill="#ff0000" id="color_path14" d="M196.85,180.57L196.85,98.45C196.85,44.1,152.85,0,98.44,0C44.1,0,0,44.02,0,98.45l0,189.57c20.47,22.93,56.9,38.23,98.44,38.23c64.16,0,116.23,-36.36,116.23,-81.38l0,-21.16C214.66,207.84,208.08,193.1,196.85,180.57z"/>
  <path xmlns="http://www.w3.org/2000/svg" opacity="0.5" fill="#E6E6E6" id="path16" d="M196.85,180.57L196.85,98.45C196.85,44.1,152.85,0,98.44,0C44.1,0,0,44.02,0,98.45l0,189.57c20.47,22.93,56.9,38.23,98.44,38.23c64.16,0,116.23,-36.36,116.23,-81.38l0,-21.16C214.66,207.84,208.08,193.1,196.85,180.57z"/>
  <path xmlns="http://www.w3.org/2000/svg" opacity="0.9" fill="#D1D1D1" id="path18" d="M196.85,180.57l0,43.13c0,38.04,-43.97,68.96,-98.41,68.96C44.1,292.66,0,261.84,0,223.7l0,43.13L0,288c20.47,22.94,56.9,38.23,98.44,38.23c64.16,0,116.23,-36.36,116.23,-81.37L214.67,223.7C214.66,207.84,208.08,193.1,196.85,180.57z"/>
  <path xmlns="http://www.w3.org/2000/svg" opacity="0.7" fill="#ff0000" id="color_path20" d="M196.85,180.57l0,43.13c0,38.04,-43.97,68.96,-98.41,68.96C44.1,292.66,0,261.84,0,223.7l0,43.13L0,288c20.47,22.94,56.9,38.23,98.44,38.23c64.16,0,116.23,-36.36,116.23,-81.37L214.67,223.7C214.66,207.84,208.08,193.1,196.85,180.57z"/>
  <path xmlns="http://www.w3.org/2000/svg" opacity="0.25" fill="#ff0000" id="color_path22" d="M196.85,180.57l0,43.13c0,38.04,-43.97,68.96,-98.41,68.96C44.1,292.66,0,261.84,0,223.7l0,43.13c20.47,22.92,56.9,38.23,98.44,38.23c64.16,0,116.23,-36.36,116.23,-81.37C214.66,207.84,208.08,193.1,196.85,180.57z"/>
  <ellipse xmlns="http://www.w3.org/2000/svg" opacity="0.25" fill="#E6E6E6" cx="98.44" cy="223.7" rx="98.43" ry="68.9" id="ellipse24"/>
  <ellipse xmlns="http://www.w3.org/2000/svg" opacity="0.25" fill="#ff0000" cx="98.44" cy="223.7" rx="98.43" ry="68.9" id="color_ellipse26"/>
  <polygon xmlns="http://www.w3.org/2000/svg" fill="#666666" points="30.6,134,30.6,223.71,44.39,223.71,44.39,181.87,83.55,181.87,139.06,122.29,47.32,122.29" id="polygon28"/>
  <polygon xmlns="http://www.w3.org/2000/svg" fill="#666666" points="149.7,118.39,155.76,125.47,102.94,181.87,153.61,181.87,153.61,223.71,166.3,223.71,166.3,118.39" id="polygon30"/>
  <path xmlns="http://www.w3.org/2000/svg" opacity="0.65" fill="#ff0000" id="color_path32" d="M196.85,180.57L196.85,98.45C196.85,44.1,152.85,0,98.44,0C44.1,0,0,44.02,0,98.45l0,189.57c20.47,22.93,56.9,38.23,98.44,38.23c64.16,0,116.23,-36.36,116.23,-81.38l0,-21.16C214.66,207.84,208.08,193.1,196.85,180.57z"/>
  <path xmlns="http://www.w3.org/2000/svg" opacity="0.5" fill="#FFFFFF" id="path34" d="M144.28,52.14l19.95,-3.8c-11.69,-15.72,-28.92,-27.19,-49.19,-31.09l3.53,15.01C129.18,36.02,138.11,43.1,144.28,52.14z"/>
  <path xmlns="http://www.w3.org/2000/svg" opacity="0.5" fill="#FFFFFF" id="path36" d="M10.67,276.75l0,21.11c9.01,7.35,19.91,13.56,32.05,18.29l0,-21.18C30.52,290.3,19.71,284.11,10.67,276.75z"/>
  <path xmlns="http://www.w3.org/2000/svg" opacity="0.5" fill="#FFFFFF" id="path38" d="M153.79,280.69c-3.55,1.7,-7.36,3.19,-11.19,4.58c-0.81,0.27,-1.63,0.56,-2.47,0.81c-7.83,2.49,-16.13,4.43,-24.93,5.48c-1.04,0.13,-2.1,0.26,-3.12,0.27c-4.45,0.42,-8.94,0.81,-13.48,0.81c-2.06,0,-4.27,-0.21,-6.55,-0.33c-16.67,-0.79,-32.37,-4.37,-45.8,-10.27L46.25,165.52L46.25,98.5c0,-20.43,11.78,-37.91,28.8,-46.52L74.74,51.24l-17.33,-21c-23.19,13.93,-38.75,39.2,-38.75,68.22l0,165.35c-0.69,-0.69,-4.28,-4.29,-6.67,-7.36l-4.27,9.55c19.46,20.58,52.9,34.19,90.87,34.19c23.33,0,44.96,-5.19,62.66,-13.92l-7.32,-5.68C153.79,280.69,153.79,280.69,153.79,280.69z"/>
 </g>
</g>
</g></g><path stroke='#8c8c8c' stroke-width='29.88' stroke-linecap='round' stroke-linejoin='round' fill='none' d='M1050.01,405.65L1050.01,747.54' />
<path stroke='#8c8c8c' stroke-width='29.88' stroke-linecap='round' stroke-linejoin='round' fill='none' d='M1150.04,405.65L1150.04,747.54' />
<g partID='12210'><g transform='translate(987.144,0)' ><g xmlns="http://www.w3.org/2000/svg" id="breadboard">
 <rect xmlns="http://www.w3.org/2000/svg" width="29.89" x="47.93" y="353.07" fill="none" height="10" id="connector0pin"/>
 <rect xmlns="http://www.w3.org/2000/svg" width="29.92" x="147.93" y="353.07" fill="none" height="10" id="connector1pin"/>
 <g xmlns="http://www.w3.org/2000/svg" fill="none" stroke="#8C8C8C" id="connector0leg" stroke-linecap="round" y1="40.565" x1="6.287" y2="74.754" stroke-width="29.88" x2="6.287"/>
 <g xmlns="http://www.w3.org/2000/svg" fill="none" stroke="#8C8C8C" id="connector1leg" stroke-linecap="round" y1="40.565" x1="16.29" y2="74.754" stroke-width="29.88" x2="16.29"/>
 <rect xmlns="http://www.w3.org/2000/svg" width="29.88" x="47.93" y="269.16" fill="#8C8C8C" height="136.49"/>
 <path xmlns="http://www.w3.org/2000/svg" fill="#8C8C8C" d="M177.84,405.65c0,-16.3,-14.79,-29.2,-29,-41.55c-5.78,-5.1,-16.66,-13.91,-16.66,-19.79l0,-75.98l-30.02,0l0,80.28c0,14.7,13.16,26.09,27.03,38.17c6.17,5.22,18.73,17.36,18.73,24.58"/>
 <g xmlns="http://www.w3.org/2000/svg" id="g12">
  <path xmlns="http://www.w3.org/2000/svg" opacity="0.3" fill="#ff0000" id="color_path14" d="M196.85,180.57L196.85,98.45C196.85,44.1,152.85,0,98.44,0C44.1,0,0,44.02,0,98.45l0,189.57c20.47,22.93,56.9,38.23,98.44,38.23c64.16,0,116.23,-36.36,116.23,-81.38l0,-21.16C214.66,207.84,208.08,193.1,196.85,180.57z"/>
  <path xmlns="http://www.w3.org/2000/svg" opacity="0.5" fill="#E6E6E6" id="path16" d="M196.85,180.57L196.85,98.45C196.85,44.1,152.85,0,98.44,0C44.1,0,0,44.02,0,98.45l0,189.57c20.47,22.93,56.9,38.23,98.44,38.23c64.16,0,116.23,-36.36,116.23,-81.38l0,-21.16C214.66,207.84,208.08,193.1,196.85,180.57z"/>
  <path xmlns="http://www.w3.org/2000/svg" opacity="0.9" fill="#D1D1D1" id="path18" d="M196.85,180.57l0,43.13c0,38.04,-43.97,68.96,-98.41,68.96C44.1,292.66,0,261.84,0,223.7l0,43.13L0,288c20.47,22.94,56.9,38.23,98.44,38.23c64.16,0,116.23,-36.36,116.23,-81.37L214.67,223.7C214.66,207.84,208.08,193.1,196.85,180.57z"/>
  <path xmlns="http://www.w3.org/2000/svg" opacity="0.7" fill="#ff0000" id="color_path20" d="M196.85,180.57l0,43.13c0,38.04,-43.97,68.96,-98.41,68.96C44.1,292.66,0,261.84,0,223.7l0,43.13L0,288c20.47,22.94,56.9,38.23,98.44,38.23c64.16,0,116.23,-36.36,116.23,-81.37L214.67,223.7C214.66,207.84,208.08,193.1,196.85,180.57z"/>
  <path xmlns="http://www.w3.org/2000/svg" opacity="0.25" fill="#ff0000" id="color_path22" d="M196.85,180.57l0,43.13c0,38.04,-43.97,68.96,-98.41,68.96C44.1,292.66,0,261.84,0,223.7l0,43.13c20.47,22.92,56.9,38.23,98.44,38.23c64.16,0,116.23,-36.36,116.23,-81.37C214.66,207.84,208.08,193.1,196.85,180.57z"/>
  <ellipse xmlns="http://www.w3.org/2000/svg" opacity="0.25" fill="#E6E6E6" cx="98.44" cy="223.7" rx="98.43" ry="68.9" id="ellipse24"/>
  <ellipse xmlns="http://www.w3.org/2000/svg" opacity="0.25" fill="#ff0000" cx="98.44" cy="223.7" rx="98.43" ry="68.9" id="color_ellipse26"/>
  <polygon xmlns="http://www.w3.org/2000/svg" fill="#666666" points="30.6,134,30.6,223.71,44.39,223.71,44.39,181.87,83.55,181.87,139.06,122.29,47.32,122.29" id="polygon28"/>
  <polygon xmlns="http://www.w3.org/2000/svg" fill="#666666" points="149.7,118.39,155.76,125.47,102.94,181.87,153.61,181.87,153.61,223.71,166.3,223.71,166.3,118.39" id="polygon30"/>
  <path xmlns="http://www.w3.org/2000/svg" opacity="0.65" fill="#ff0000" id="color_path32" d="M196.85,180.57L196.85,98.45C196.85,44.1,152.85,0,98.44,0C44.1,0,0,44.02,0,98.45l0,189.57c20.47,22.93,56.9,38.23,98.44,38.23c64.16,0,116.23,-36.36,116.23,-81.38l0,-21.16C214.66,207.84,208.08,193.1,196.85,180.57z"/>
  <path xmlns="http://www.w3.org/2000/svg" opacity="0.5" fill="#FFFFFF" id="path34" d="M144.28,52.14l19.95,-3.8c-11.69,-15.72,-28.92,-27.19,-49.19,-31.09l3.53,15.01C129.18,36.02,138.11,43.1,144.28,52.14z"/>
  <path xmlns="http://www.w3.org/2000/svg" opacity="0.5" fill="#FFFFFF" id="path36" d="M10.67,276.75l0,21.11c9.01,7.35,19.91,13.56,32.05,18.29l0,-21.18C30.52,290.3,19.71,284.11,10.67,276.75z"/>
  <path xmlns="http://www.w3.org/2000/svg" opacity="0.5" fill="#FFFFFF" id="path38" d="M153.79,280.69c-3.55,1.7,-7.36,3.19,-11.19,4.58c-0.81,0.27,-1.63,0.56,-2.47,0.81c-7.83,2.49,-16.13,4.43,-24.93,5.48c-1.04,0.13,-2.1,0.26,-3.12,0.27c-4.45,0.42,-8.94,0.81,-13.48,0.81c-2.06,0,-4.27,-0.21,-6.55,-0.33c-16.67,-0.79,-32.37,-4.37,-45.8,-10.27L46.25,165.52L46.25,98.5c0,-20.43,11.78,-37.91,28.8,-46.52L74.74,51.24l-17.33,-21c-23.19,13.93,-38.75,39.2,-38.75,68.22l0,165.35c-0.69,-0.69,-4.28,-4.29,-6.67,-7.36l-4.27,9.55c19.46,20.58,52.9,34.19,90.87,34.19c23.33,0,44.96,-5.19,62.66,-13.92l-7.32,-5.68C153.79,280.69,153.79,280.69,153.79,280.69z"/>
 </g>
</g>
</g></g><path stroke='#8c8c8c' stroke-width='29.88' stroke-linecap='round' stroke-linejoin='round' fill='none' d='M1350.01,2405.65L1350.01,2747.54' />
<path stroke='#8c8c8c' stroke-width='29.88' stroke-linecap='round' stroke-linejoin='round' fill='none' d='M1450.04,2405.65L1450.04,2747.54' />
<g partID='12240'><g transform='translate(1287.14,2000)' ><g xmlns="http://www.w3.org/2000/svg" id="breadboard">
 <rect xmlns="http://www.w3.org/2000/svg" width="29.89" x="47.93" y="353.07" fill="none" height="10" id="connector0pin"/>
 <rect xmlns="http://www.w3.org/2000/svg" width="29.92" x="147.93" y="353.07" fill="none" height="10" id="connector1pin"/>
 <g xmlns="http://www.w3.org/2000/svg" fill="none" stroke="#8C8C8C" id="connector0leg" stroke-linecap="round" y1="40.565" x1="6.287" y2="74.754" stroke-width="29.88" x2="6.287"/>
 <g xmlns="http://www.w3.org/2000/svg" fill="none" stroke="#8C8C8C" id="connector1leg" stroke-linecap="round" y1="40.565" x1="16.29" y2="74.754" stroke-width="29.88" x2="16.29"/>
 <rect xmlns="http://www.w3.org/2000/svg" width="29.88" x="47.93" y="269.16" fill="#8C8C8C" height="136.49"/>
 <path xmlns="http://www.w3.org/2000/svg" fill="#8C8C8C" d="M177.84,405.65c0,-16.3,-14.79,-29.2,-29,-41.55c-5.78,-5.1,-16.66,-13.91,-16.66,-19.79l0,-75.98l-30.02,0l0,80.28c0,14.7,13.16,26.09,27.03,38.17c6.17,5.22,18.73,17.36,18.73,24.58"/>
 <g xmlns="http://www.w3.org/2000/svg" id="g12">
  <path xmlns="http://www.w3.org/2000/svg" opacity="0.3" fill="#3851fe" id="color_path14" d="M196.85,180.57L196.85,98.45C196.85,44.1,152.85,0,98.44,0C44.1,0,0,44.02,0,98.45l0,189.57c20.47,22.93,56.9,38.23,98.44,38.23c64.16,0,116.23,-36.36,116.23,-81.38l0,-21.16C214.66,207.84,208.08,193.1,196.85,180.57z"/>
  <path xmlns="http://www.w3.org/2000/svg" opacity="0.5" fill="#E6E6E6" id="path16" d="M196.85,180.57L196.85,98.45C196.85,44.1,152.85,0,98.44,0C44.1,0,0,44.02,0,98.45l0,189.57c20.47,22.93,56.9,38.23,98.44,38.23c64.16,0,116.23,-36.36,116.23,-81.38l0,-21.16C214.66,207.84,208.08,193.1,196.85,180.57z"/>
  <path xmlns="http://www.w3.org/2000/svg" opacity="0.9" fill="#D1D1D1" id="path18" d="M196.85,180.57l0,43.13c0,38.04,-43.97,68.96,-98.41,68.96C44.1,292.66,0,261.84,0,223.7l0,43.13L0,288c20.47,22.94,56.9,38.23,98.44,38.23c64.16,0,116.23,-36.36,116.23,-81.37L214.67,223.7C214.66,207.84,208.08,193.1,196.85,180.57z"/>
  <path xmlns="http://www.w3.org/2000/svg" opacity="0.7" fill="#3851fe" id="color_path20" d="M196.85,180.57l0,43.13c0,38.04,-43.97,68.96,-98.41,68.96C44.1,292.66,0,261.84,0,223.7l0,43.13L0,288c20.47,22.94,56.9,38.23,98.44,38.23c64.16,0,116.23,-36.36,116.23,-81.37L214.67,223.7C214.66,207.84,208.08,193.1,196.85,180.57z"/>
  <path xmlns="http://www.w3.org/2000/svg" opacity="0.25" fill="#3851fe" id="color_path22" d="M196.85,180.57l0,43.13c0,38.04,-43.97,68.96,-98.41,68.96C44.1,292.66,0,261.84,0,223.7l0,43.13c20.47,22.92,56.9,38.23,98.44,38.23c64.16,0,116.23,-36.36,116.23,-81.37C214.66,207.84,208.08,193.1,196.85,180.57z"/>
  <ellipse xmlns="http://www.w3.org/2000/svg" opacity="0.25" fill="#E6E6E6" cx="98.44" cy="223.7" rx="98.43" ry="68.9" id="ellipse24"/>
  <ellipse xmlns="http://www.w3.org/2000/svg" opacity="0.25" fill="#3851fe" cx="98.44" cy="223.7" rx="98.43" ry="68.9" id="color_ellipse26"/>
  <polygon xmlns="http://www.w3.org/2000/svg" fill="#666666" points="30.6,134,30.6,223.71,44.39,223.71,44.39,181.87,83.55,181.87,139.06,122.29,47.32,122.29" id="polygon28"/>
  <polygon xmlns="http://www.w3.org/2000/svg" fill="#666666" points="149.7,118.39,155.76,125.47,102.94,181.87,153.61,181.87,153.61,223.71,166.3,223.71,166.3,118.39" id="polygon30"/>
  <path xmlns="http://www.w3.org/2000/svg" opacity="0.65" fill="#3851fe" id="color_path32" d="M196.85,180.57L196.85,98.45C196.85,44.1,152.85,0,98.44,0C44.1,0,0,44.02,0,98.45l0,189.57c20.47,22.93,56.9,38.23,98.44,38.23c64.16,0,116.23,-36.36,116.23,-81.38l0,-21.16C214.66,207.84,208.08,193.1,196.85,180.57z"/>
  <path xmlns="http://www.w3.org/2000/svg" opacity="0.5" fill="#FFFFFF" id="path34" d="M144.28,52.14l19.95,-3.8c-11.69,-15.72,-28.92,-27.19,-49.19,-31.09l3.53,15.01C129.18,36.02,138.11,43.1,144.28,52.14z"/>
  <path xmlns="http://www.w3.org/2000/svg" opacity="0.5" fill="#FFFFFF" id="path36" d="M10.67,276.75l0,21.11c9.01,7.35,19.91,13.56,32.05,18.29l0,-21.18C30.52,290.3,19.71,284.11,10.67,276.75z"/>
  <path xmlns="http://www.w3.org/2000/svg" opacity="0.5" fill="#FFFFFF" id="path38" d="M153.79,280.69c-3.55,1.7,-7.36,3.19,-11.19,4.58c-0.81,0.27,-1.63,0.56,-2.47,0.81c-7.83,2.49,-16.13,4.43,-24.93,5.48c-1.04,0.13,-2.1,0.26,-3.12,0.27c-4.45,0.42,-8.94,0.81,-13.48,0.81c-2.06,0,-4.27,-0.21,-6.55,-0.33c-16.67,-0.79,-32.37,-4.37,-45.8,-10.27L46.25,165.52L46.25,98.5c0,-20.43,11.78,-37.91,28.8,-46.52L74.74,51.24l-17.33,-21c-23.19,13.93,-38.75,39.2,-38.75,68.22l0,165.35c-0.69,-0.69,-4.28,-4.29,-6.67,-7.36l-4.27,9.55c19.46,20.58,52.9,34.19,90.87,34.19c23.33,0,44.96,-5.19,62.66,-13.92l-7.32,-5.68C153.79,280.69,153.79,280.69,153.79,280.69z"/>
 </g>
</g>
</g></g><path stroke='#8c8c8c' stroke-width='29.88' stroke-linecap='round' stroke-linejoin='round' fill='none' d='M1350.01,405.65L1350.01,747.54' />
<path stroke='#8c8c8c' stroke-width='29.88' stroke-linecap='round' stroke-linejoin='round' fill='none' d='M1450.04,405.65L1450.04,747.54' />
<g partID='12270'><g transform='translate(1287.14,0)' ><g xmlns="http://www.w3.org/2000/svg" id="breadboard">
 <rect xmlns="http://www.w3.org/2000/svg" width="29.89" x="47.93" y="353.07" fill="none" height="10" id="connector0pin"/>
 <rect xmlns="http://www.w3.org/2000/svg" width="29.92" x="147.93" y="353.07" fill="none" height="10" id="connector1pin"/>
 <g xmlns="http://www.w3.org/2000/svg" fill="none" stroke="#8C8C8C" id="connector0leg" stroke-linecap="round" y1="40.565" x1="6.287" y2="74.754" stroke-width="29.88" x2="6.287"/>
 <g xmlns="http://www.w3.org/2000/svg" fill="none" stroke="#8C8C8C" id="connector1leg" stroke-linecap="round" y1="40.565" x1="16.29" y2="74.754" stroke-width="29.88" x2="16.29"/>
 <rect xmlns="http://www.w3.org/2000/svg" width="29.88" x="47.93" y="269.16" fill="#8C8C8C" height="136.49"/>
 <path xmlns="http://www.w3.org/2000/svg" fill="#8C8C8C" d="M177.84,405.65c0,-16.3,-14.79,-29.2,-29,-41.55c-5.78,-5.1,-16.66,-13.91,-16.66,-19.79l0,-75.98l-30.02,0l0,80.28c0,14.7,13.16,26.09,27.03,38.17c6.17,5.22,18.73,17.36,18.73,24.58"/>
 <g xmlns="http://www.w3.org/2000/svg" id="g12">
  <path xmlns="http://www.w3.org/2000/svg" opacity="0.3" fill="#ff0000" id="color_path14" d="M196.85,180.57L196.85,98.45C196.85,44.1,152.85,0,98.44,0C44.1,0,0,44.02,0,98.45l0,189.57c20.47,22.93,56.9,38.23,98.44,38.23c64.16,0,116.23,-36.36,116.23,-81.38l0,-21.16C214.66,207.84,208.08,193.1,196.85,180.57z"/>
  <path xmlns="http://www.w3.org/2000/svg" opacity="0.5" fill="#E6E6E6" id="path16" d="M196.85,180.57L196.85,98.45C196.85,44.1,152.85,0,98.44,0C44.1,0,0,44.02,0,98.45l0,189.57c20.47,22.93,56.9,38.23,98.44,38.23c64.16,0,116.23,-36.36,116.23,-81.38l0,-21.16C214.66,207.84,208.08,193.1,196.85,180.57z"/>
  <path xmlns="http://www.w3.org/2000/svg" opacity="0.9" fill="#D1D1D1" id="path18" d="M196.85,180.57l0,43.13c0,38.04,-43.97,68.96,-98.41,68.96C44.1,292.66,0,261.84,0,223.7l0,43.13L0,288c20.47,22.94,56.9,38.23,98.44,38.23c64.16,0,116.23,-36.36,116.23,-81.37L214.67,223.7C214.66,207.84,208.08,193.1,196.85,180.57z"/>
  <path xmlns="http://www.w3.org/2000/svg" opacity="0.7" fill="#ff0000" id="color_path20" d="M196.85,180.57l0,43.13c0,38.04,-43.97,68.96,-98.41,68.96C44.1,292.66,0,261.84,0,223.7l0,43.13L0,288c20.47,22.94,56.9,38.23,98.44,38.23c64.16,0,116.23,-36.36,116.23,-81.37L214.67,223.7C214.66,207.84,208.08,193.1,196.85,180.57z"/>
  <path xmlns="http://www.w3.org/2000/svg" opacity="0.25" fill="#ff0000" id="color_path22" d="M196.85,180.57l0,43.13c0,38.04,-43.97,68.96,-98.41,68.96C44.1,292.66,0,261.84,0,223.7l0,43.13c20.47,22.92,56.9,38.23,98.44,38.23c64.16,0,116.23,-36.36,116.23,-81.37C214.66,207.84,208.08,193.1,196.85,180.57z"/>
  <ellipse xmlns="http://www.w3.org/2000/svg" opacity="0.25" fill="#E6E6E6" cx="98.44" cy="223.7" rx="98.43" ry="68.9" id="ellipse24"/>
  <ellipse xmlns="http://www.w3.org/2000/svg" opacity="0.25" fill="#ff0000" cx="98.44" cy="223.7" rx="98.43" ry="68.9" id="color_ellipse26"/>
  <polygon xmlns="http://www.w3.org/2000/svg" fill="#666666" points="30.6,134,30.6,223.71,44.39,223.71,44.39,181.87,83.55,181.87,139.06,122.29,47.32,122.29" id="polygon28"/>
  <polygon xmlns="http://www.w3.org/2000/svg" fill="#666666" points="149.7,118.39,155.76,125.47,102.94,181.87,153.61,181.87,153.61,223.71,166.3,223.71,166.3,118.39" id="polygon30"/>
  <path xmlns="http://www.w3.org/2000/svg" opacity="0.65" fill="#ff0000" id="color_path32" d="M196.85,180.57L196.85,98.45C196.85,44.1,152.85,0,98.44,0C44.1,0,0,44.02,0,98.45l0,189.57c20.47,22.93,56.9,38.23,98.44,38.23c64.16,0,116.23,-36.36,116.23,-81.38l0,-21.16C214.66,207.84,208.08,193.1,196.85,180.57z"/>
  <path xmlns="http://www.w3.org/2000/svg" opacity="0.5" fill="#FFFFFF" id="path34" d="M144.28,52.14l19.95,-3.8c-11.69,-15.72,-28.92,-27.19,-49.19,-31.09l3.53,15.01C129.18,36.02,138.11,43.1,144.28,52.14z"/>
  <path xmlns="http://www.w3.org/2000/svg" opacity="0.5" fill="#FFFFFF" id="path36" d="M10.67,276.75l0,21.11c9.01,7.35,19.91,13.56,32.05,18.29l0,-21.18C30.52,290.3,19.71,284.11,10.67,276.75z"/>
  <path xmlns="http://www.w3.org/2000/svg" opacity="0.5" fill="#FFFFFF" id="path38" d="M153.79,280.69c-3.55,1.7,-7.36,3.19,-11.19,4.58c-0.81,0.27,-1.63,0.56,-2.47,0.81c-7.83,2.49,-16.13,4.43,-24.93,5.48c-1.04,0.13,-2.1,0.26,-3.12,0.27c-4.45,0.42,-8.94,0.81,-13.48,0.81c-2.06,0,-4.27,-0.21,-6.55,-0.33c-16.67,-0.79,-32.37,-4.37,-45.8,-10.27L46.25,165.52L46.25,98.5c0,-20.43,11.78,-37.91,28.8,-46.52L74.74,51.24l-17.33,-21c-23.19,13.93,-38.75,39.2,-38.75,68.22l0,165.35c-0.69,-0.69,-4.28,-4.29,-6.67,-7.36l-4.27,9.55c19.46,20.58,52.9,34.19,90.87,34.19c23.33,0,44.96,-5.19,62.66,-13.92l-7.32,-5.68C153.79,280.69,153.79,280.69,153.79,280.69z"/>
 </g>
</g>
</g></g><path stroke='#8c8c8c' stroke-width='29.88' stroke-linecap='round' stroke-linejoin='round' fill='none' d='M1350.01,1405.65L1350.01,1747.54' />
<path stroke='#8c8c8c' stroke-width='29.88' stroke-linecap='round' stroke-linejoin='round' fill='none' d='M1450.04,1405.65L1450.04,1747.54' />
<g partID='90430'><g transform='translate(1287.14,1000)' ><g xmlns="http://www.w3.org/2000/svg" id="breadboard">
 <rect xmlns="http://www.w3.org/2000/svg" width="29.89" x="47.93" y="353.07" fill="none" height="10" id="connector0pin"/>
 <rect xmlns="http://www.w3.org/2000/svg" width="29.92" x="147.93" y="353.07" fill="none" height="10" id="connector1pin"/>
 <g xmlns="http://www.w3.org/2000/svg" fill="none" stroke="#8C8C8C" id="connector0leg" stroke-linecap="round" y1="40.565" x1="6.287" y2="74.754" stroke-width="29.88" x2="6.287"/>
 <g xmlns="http://www.w3.org/2000/svg" fill="none" stroke="#8C8C8C" id="connector1leg" stroke-linecap="round" y1="40.565" x1="16.29" y2="74.754" stroke-width="29.88" x2="16.29"/>
 <rect xmlns="http://www.w3.org/2000/svg" width="29.88" x="47.93" y="269.16" fill="#8C8C8C" height="136.49"/>
 <path xmlns="http://www.w3.org/2000/svg" fill="#8C8C8C" d="M177.84,405.65c0,-16.3,-14.79,-29.2,-29,-41.55c-5.78,-5.1,-16.66,-13.91,-16.66,-19.79l0,-75.98l-30.02,0l0,80.28c0,14.7,13.16,26.09,27.03,38.17c6.17,5.22,18.73,17.36,18.73,24.58"/>
 <g xmlns="http://www.w3.org/2000/svg" id="g12">
  <path xmlns="http://www.w3.org/2000/svg" opacity="0.3" fill="#00cc80" id="color_path14" d="M196.85,180.57L196.85,98.45C196.85,44.1,152.85,0,98.44,0C44.1,0,0,44.02,0,98.45l0,189.57c20.47,22.93,56.9,38.23,98.44,38.23c64.16,0,116.23,-36.36,116.23,-81.38l0,-21.16C214.66,207.84,208.08,193.1,196.85,180.57z"/>
  <path xmlns="http://www.w3.org/2000/svg" opacity="0.5" fill="#E6E6E6" id="path16" d="M196.85,180.57L196.85,98.45C196.85,44.1,152.85,0,98.44,0C44.1,0,0,44.02,0,98.45l0,189.57c20.47,22.93,56.9,38.23,98.44,38.23c64.16,0,116.23,-36.36,116.23,-81.38l0,-21.16C214.66,207.84,208.08,193.1,196.85,180.57z"/>
  <path xmlns="http://www.w3.org/2000/svg" opacity="0.9" fill="#D1D1D1" id="path18" d="M196.85,180.57l0,43.13c0,38.04,-43.97,68.96,-98.41,68.96C44.1,292.66,0,261.84,0,223.7l0,43.13L0,288c20.47,22.94,56.9,38.23,98.44,38.23c64.16,0,116.23,-36.36,116.23,-81.37L214.67,223.7C214.66,207.84,208.08,193.1,196.85,180.57z"/>
  <path xmlns="http://www.w3.org/2000/svg" opacity="0.7" fill="#00cc80" id="color_path20" d="M196.85,180.57l0,43.13c0,38.04,-43.97,68.96,-98.41,68.96C44.1,292.66,0,261.84,0,223.7l0,43.13L0,288c20.47,22.94,56.9,38.23,98.44,38.23c64.16,0,116.23,-36.36,116.23,-81.37L214.67,223.7C214.66,207.84,208.08,193.1,196.85,180.57z"/>
  <path xmlns="http://www.w3.org/2000/svg" opacity="0.25" fill="#00cc80" id="color_path22" d="M196.85,180.57l0,43.13c0,38.04,-43.97,68.96,-98.41,68.96C44.1,292.66,0,261.84,0,223.7l0,43.13c20.47,22.92,56.9,38.23,98.44,38.23c64.16,0,116.23,-36.36,116.23,-81.37C214.66,207.84,208.08,193.1,196.85,180.57z"/>
  <ellipse xmlns="http://www.w3.org/2000/svg" opacity="0.25" fill="#E6E6E6" cx="98.44" cy="223.7" rx="98.43" ry="68.9" id="ellipse24"/>
  <ellipse xmlns="http://www.w3.org/2000/svg" opacity="0.25" fill="#00cc80" cx="98.44" cy="223.7" rx="98.43" ry="68.9" id="color_ellipse26"/>
  <polygon xmlns="http://www.w3.org/2000/svg" fill="#666666" points="30.6,134,30.6,223.71,44.39,223.71,44.39,181.87,83.55,181.87,139.06,122.29,47.32,122.29" id="polygon28"/>
  <polygon xmlns="http://www.w3.org/2000/svg" fill="#666666" points="149.7,118.39,155.76,125.47,102.94,181.87,153.61,181.87,153.61,223.71,166.3,223.71,166.3,118.39" id="polygon30"/>
  <path xmlns="http://www.w3.org/2000/svg" opacity="0.65" fill="#00cc80" id="color_path32" d="M196.85,180.57L196.85,98.45C196.85,44.1,152.85,0,98.44,0C44.1,0,0,44.02,0,98.45l0,189.57c20.47,22.93,56.9,38.23,98.44,38.23c64.16,0,116.23,-36.36,116.23,-81.38l0,-21.16C214.66,207.84,208.08,193.1,196.85,180.57z"/>
  <path xmlns="http://www.w3.org/2000/svg" opacity="0.5" fill="#FFFFFF" id="path34" d="M144.28,52.14l19.95,-3.8c-11.69,-15.72,-28.92,-27.19,-49.19,-31.09l3.53,15.01C129.18,36.02,138.11,43.1,144.28,52.14z"/>
  <path xmlns="http://www.w3.org/2000/svg" opacity="0.5" fill="#FFFFFF" id="path36" d="M10.67,276.75l0,21.11c9.01,7.35,19.91,13.56,32.05,18.29l0,-21.18C30.52,290.3,19.71,284.11,10.67,276.75z"/>
  <path xmlns="http://www.w3.org/2000/svg" opacity="0.5" fill="#FFFFFF" id="path38" d="M153.79,280.69c-3.55,1.7,-7.36,3.19,-11.19,4.58c-0.81,0.27,-1.63,0.56,-2.47,0.81c-7.83,2.49,-16.13,4.43,-24.93,5.48c-1.04,0.13,-2.1,0.26,-3.12,0.27c-4.45,0.42,-8.94,0.81,-13.48,0.81c-2.06,0,-4.27,-0.21,-6.55,-0.33c-16.67,-0.79,-32.37,-4.37,-45.8,-10.27L46.25,165.52L46.25,98.5c0,-20.43,11.78,-37.91,28.8,-46.52L74.74,51.24l-17.33,-21c-23.19,13.93,-38.75,39.2,-38.75,68.22l0,165.35c-0.69,-0.69,-4.28,-4.29,-6.67,-7.36l-4.27,9.55c19.46,20.58,52.9,34.19,90.87,34.19c23.33,0,44.96,-5.19,62.66,-13.92l-7.32,-5.68C153.79,280.69,153.79,280.69,153.79,280.69z"/>
 </g>
</g>
</g></g><path stroke='#8c8c8c' stroke-width='29.88' stroke-linecap='round' stroke-linejoin='round' fill='none' d='M1050.01,1405.65L1050.01,1747.54' />
<path stroke='#8c8c8c' stroke-width='29.88' stroke-linecap='round' stroke-linejoin='round' fill='none' d='M1150.04,1405.65L1150.04,1747.54' />
<g partID='12410'><g transform='translate(987.144,1000)' ><g xmlns="http://www.w3.org/2000/svg" id="breadboard">
 <rect xmlns="http://www.w3.org/2000/svg" width="29.89" x="47.93" y="353.07" fill="none" height="10" id="connector0pin"/>
 <rect xmlns="http://www.w3.org/2000/svg" width="29.92" x="147.93" y="353.07" fill="none" height="10" id="connector1pin"/>
 <g xmlns="http://www.w3.org/2000/svg" fill="none" stroke="#8C8C8C" id="connector0leg" stroke-linecap="round" y1="40.565" x1="6.287" y2="74.754" stroke-width="29.88" x2="6.287"/>
 <g xmlns="http://www.w3.org/2000/svg" fill="none" stroke="#8C8C8C" id="connector1leg" stroke-linecap="round" y1="40.565" x1="16.29" y2="74.754" stroke-width="29.88" x2="16.29"/>
 <rect xmlns="http://www.w3.org/2000/svg" width="29.88" x="47.93" y="269.16" fill="#8C8C8C" height="136.49"/>
 <path xmlns="http://www.w3.org/2000/svg" fill="#8C8C8C" d="M177.84,405.65c0,-16.3,-14.79,-29.2,-29,-41.55c-5.78,-5.1,-16.66,-13.91,-16.66,-19.79l0,-75.98l-30.02,0l0,80.28c0,14.7,13.16,26.09,27.03,38.17c6.17,5.22,18.73,17.36,18.73,24.58"/>
 <g xmlns="http://www.w3.org/2000/svg" id="g12">
  <path xmlns="http://www.w3.org/2000/svg" opacity="0.3" fill="#00cc80" id="color_path14" d="M196.85,180.57L196.85,98.45C196.85,44.1,152.85,0,98.44,0C44.1,0,0,44.02,0,98.45l0,189.57c20.47,22.93,56.9,38.23,98.44,38.23c64.16,0,116.23,-36.36,116.23,-81.38l0,-21.16C214.66,207.84,208.08,193.1,196.85,180.57z"/>
  <path xmlns="http://www.w3.org/2000/svg" opacity="0.5" fill="#E6E6E6" id="path16" d="M196.85,180.57L196.85,98.45C196.85,44.1,152.85,0,98.44,0C44.1,0,0,44.02,0,98.45l0,189.57c20.47,22.93,56.9,38.23,98.44,38.23c64.16,0,116.23,-36.36,116.23,-81.38l0,-21.16C214.66,207.84,208.08,193.1,196.85,180.57z"/>
  <path xmlns="http://www.w3.org/2000/svg" opacity="0.9" fill="#D1D1D1" id="path18" d="M196.85,180.57l0,43.13c0,38.04,-43.97,68.96,-98.41,68.96C44.1,292.66,0,261.84,0,223.7l0,43.13L0,288c20.47,22.94,56.9,38.23,98.44,38.23c64.16,0,116.23,-36.36,116.23,-81.37L214.67,223.7C214.66,207.84,208.08,193.1,196.85,180.57z"/>
  <path xmlns="http://www.w3.org/2000/svg" opacity="0.7" fill="#00cc80" id="color_path20" d="M196.85,180.57l0,43.13c0,38.04,-43.97,68.96,-98.41,68.96C44.1,292.66,0,261.84,0,223.7l0,43.13L0,288c20.47,22.94,56.9,38.23,98.44,38.23c64.16,0,116.23,-36.36,116.23,-81.37L214.67,223.7C214.66,207.84,208.08,193.1,196.85,180.57z"/>
  <path xmlns="http://www.w3.org/2000/svg" opacity="0.25" fill="#00cc80" id="color_path22" d="M196.85,180.57l0,43.13c0,38.04,-43.97,68.96,-98.41,68.96C44.1,292.66,0,261.84,0,223.7l0,43.13c20.47,22.92,56.9,38.23,98.44,38.23c64.16,0,116.23,-36.36,116.23,-81.37C214.66,207.84,208.08,193.1,196.85,180.57z"/>
  <ellipse xmlns="http://www.w3.org/2000/svg" opacity="0.25" fill="#E6E6E6" cx="98.44" cy="223.7" rx="98.43" ry="68.9" id="ellipse24"/>
  <ellipse xmlns="http://www.w3.org/2000/svg" opacity="0.25" fill="#00cc80" cx="98.44" cy="223.7" rx="98.43" ry="68.9" id="color_ellipse26"/>
  <polygon xmlns="http://www.w3.org/2000/svg" fill="#666666" points="30.6,134,30.6,223.71,44.39,223.71,44.39,181.87,83.55,181.87,139.06,122.29,47.32,122.29" id="polygon28"/>
  <polygon xmlns="http://www.w3.org/2000/svg" fill="#666666" points="149.7,118.39,155.76,125.47,102.94,181.87,153.61,181.87,153.61,223.71,166.3,223.71,166.3,118.39" id="polygon30"/>
  <path xmlns="http://www.w3.org/2000/svg" opacity="0.65" fill="#00cc80" id="color_path32" d="M196.85,180.57L196.85,98.45C196.85,44.1,152.85,0,98.44,0C44.1,0,0,44.02,0,98.45l0,189.57c20.47,22.93,56.9,38.23,98.44,38.23c64.16,0,116.23,-36.36,116.23,-81.38l0,-21.16C214.66,207.84,208.08,193.1,196.85,180.57z"/>
  <path xmlns="http://www.w3.org/2000/svg" opacity="0.5" fill="#FFFFFF" id="path34" d="M144.28,52.14l19.95,-3.8c-11.69,-15.72,-28.92,-27.19,-49.19,-31.09l3.53,15.01C129.18,36.02,138.11,43.1,144.28,52.14z"/>
  <path xmlns="http://www.w3.org/2000/svg" opacity="0.5" fill="#FFFFFF" id="path36" d="M10.67,276.75l0,21.11c9.01,7.35,19.91,13.56,32.05,18.29l0,-21.18C30.52,290.3,19.71,284.11,10.67,276.75z"/>
  <path xmlns="http://www.w3.org/2000/svg" opacity="0.5" fill="#FFFFFF" id="path38" d="M153.79,280.69c-3.55,1.7,-7.36,3.19,-11.19,4.58c-0.81,0.27,-1.63,0.56,-2.47,0.81c-7.83,2.49,-16.13,4.43,-24.93,5.48c-1.04,0.13,-2.1,0.26,-3.12,0.27c-4.45,0.42,-8.94,0.81,-13.48,0.81c-2.06,0,-4.27,-0.21,-6.55,-0.33c-16.67,-0.79,-32.37,-4.37,-45.8,-10.27L46.25,165.52L46.25,98.5c0,-20.43,11.78,-37.91,28.8,-46.52L74.74,51.24l-17.33,-21c-23.19,13.93,-38.75,39.2,-38.75,68.22l0,165.35c-0.69,-0.69,-4.28,-4.29,-6.67,-7.36l-4.27,9.55c19.46,20.58,52.9,34.19,90.87,34.19c23.33,0,44.96,-5.19,62.66,-13.92l-7.32,-5.68C153.79,280.69,153.79,280.69,153.79,280.69z"/>
 </g>
</g>
</g></g><path stroke='#8c8c8c' stroke-width='29.88' stroke-linecap='round' stroke-linejoin='round' fill='none' d='M750.014,2405.65L750.014,2747.54' />
<path stroke='#8c8c8c' stroke-width='29.88' stroke-linecap='round' stroke-linejoin='round' fill='none' d='M850.044,2405.65L850.044,2747.54' />
<g partID='12440'><g transform='translate(687.144,2000)' ><g xmlns="http://www.w3.org/2000/svg" id="breadboard">
 <rect xmlns="http://www.w3.org/2000/svg" width="29.89" x="47.93" y="353.07" fill="none" height="10" id="connector0pin"/>
 <rect xmlns="http://www.w3.org/2000/svg" width="29.92" x="147.93" y="353.07" fill="none" height="10" id="connector1pin"/>
 <g xmlns="http://www.w3.org/2000/svg" fill="none" stroke="#8C8C8C" id="connector0leg" stroke-linecap="round" y1="40.565" x1="6.287" y2="74.754" stroke-width="29.88" x2="6.287"/>
 <g xmlns="http://www.w3.org/2000/svg" fill="none" stroke="#8C8C8C" id="connector1leg" stroke-linecap="round" y1="40.565" x1="16.29" y2="74.754" stroke-width="29.88" x2="16.29"/>
 <rect xmlns="http://www.w3.org/2000/svg" width="29.88" x="47.93" y="269.16" fill="#8C8C8C" height="136.49"/>
 <path xmlns="http://www.w3.org/2000/svg" fill="#8C8C8C" d="M177.84,405.65c0,-16.3,-14.79,-29.2,-29,-41.55c-5.78,-5.1,-16.66,-13.91,-16.66,-19.79l0,-75.98l-30.02,0l0,80.28c0,14.7,13.16,26.09,27.03,38.17c6.17,5.22,18.73,17.36,18.73,24.58"/>
 <g xmlns="http://www.w3.org/2000/svg" id="g12">
  <path xmlns="http://www.w3.org/2000/svg" opacity="0.3" fill="#3851fe" id="color_path14" d="M196.85,180.57L196.85,98.45C196.85,44.1,152.85,0,98.44,0C44.1,0,0,44.02,0,98.45l0,189.57c20.47,22.93,56.9,38.23,98.44,38.23c64.16,0,116.23,-36.36,116.23,-81.38l0,-21.16C214.66,207.84,208.08,193.1,196.85,180.57z"/>
  <path xmlns="http://www.w3.org/2000/svg" opacity="0.5" fill="#E6E6E6" id="path16" d="M196.85,180.57L196.85,98.45C196.85,44.1,152.85,0,98.44,0C44.1,0,0,44.02,0,98.45l0,189.57c20.47,22.93,56.9,38.23,98.44,38.23c64.16,0,116.23,-36.36,116.23,-81.38l0,-21.16C214.66,207.84,208.08,193.1,196.85,180.57z"/>
  <path xmlns="http://www.w3.org/2000/svg" opacity="0.9" fill="#D1D1D1" id="path18" d="M196.85,180.57l0,43.13c0,38.04,-43.97,68.96,-98.41,68.96C44.1,292.66,0,261.84,0,223.7l0,43.13L0,288c20.47,22.94,56.9,38.23,98.44,38.23c64.16,0,116.23,-36.36,116.23,-81.37L214.67,223.7C214.66,207.84,208.08,193.1,196.85,180.57z"/>
  <path xmlns="http://www.w3.org/2000/svg" opacity="0.7" fill="#3851fe" id="color_path20" d="M196.85,180.57l0,43.13c0,38.04,-43.97,68.96,-98.41,68.96C44.1,292.66,0,261.84,0,223.7l0,43.13L0,288c20.47,22.94,56.9,38.23,98.44,38.23c64.16,0,116.23,-36.36,116.23,-81.37L214.67,223.7C214.66,207.84,208.08,193.1,196.85,180.57z"/>
  <path xmlns="http://www.w3.org/2000/svg" opacity="0.25" fill="#3851fe" id="color_path22" d="M196.85,180.57l0,43.13c0,38.04,-43.97,68.96,-98.41,68.96C44.1,292.66,0,261.84,0,223.7l0,43.13c20.47,22.92,56.9,38.23,98.44,38.23c64.16,0,116.23,-36.36,116.23,-81.37C214.66,207.84,208.08,193.1,196.85,180.57z"/>
  <ellipse xmlns="http://www.w3.org/2000/svg" opacity="0.25" fill="#E6E6E6" cx="98.44" cy="223.7" rx="98.43" ry="68.9" id="ellipse24"/>
  <ellipse xmlns="http://www.w3.org/2000/svg" opacity="0.25" fill="#3851fe" cx="98.44" cy="223.7" rx="98.43" ry="68.9" id="color_ellipse26"/>
  <polygon xmlns="http://www.w3.org/2000/svg" fill="#666666" points="30.6,134,30.6,223.71,44.39,223.71,44.39,181.87,83.55,181.87,139.06,122.29,47.32,122.29" id="polygon28"/>
  <polygon xmlns="http://www.w3.org/2000/svg" fill="#666666" points="149.7,118.39,155.76,125.47,102.94,181.87,153.61,181.87,153.61,223.71,166.3,223.71,166.3,118.39" id="polygon30"/>
  <path xmlns="http://www.w3.org/2000/svg" opacity="0.65" fill="#3851fe" id="color_path32" d="M196.85,180.57L196.85,98.45C196.85,44.1,152.85,0,98.44,0C44.1,0,0,44.02,0,98.45l0,189.57c20.47,22.93,56.9,38.23,98.44,38.23c64.16,0,116.23,-36.36,116.23,-81.38l0,-21.16C214.66,207.84,208.08,193.1,196.85,180.57z"/>
  <path xmlns="http://www.w3.org/2000/svg" opacity="0.5" fill="#FFFFFF" id="path34" d="M144.28,52.14l19.95,-3.8c-11.69,-15.72,-28.92,-27.19,-49.19,-31.09l3.53,15.01C129.18,36.02,138.11,43.1,144.28,52.14z"/>
  <path xmlns="http://www.w3.org/2000/svg" opacity="0.5" fill="#FFFFFF" id="path36" d="M10.67,276.75l0,21.11c9.01,7.35,19.91,13.56,32.05,18.29l0,-21.18C30.52,290.3,19.71,284.11,10.67,276.75z"/>
  <path xmlns="http://www.w3.org/2000/svg" opacity="0.5" fill="#FFFFFF" id="path38" d="M153.79,280.69c-3.55,1.7,-7.36,3.19,-11.19,4.58c-0.81,0.27,-1.63,0.56,-2.47,0.81c-7.83,2.49,-16.13,4.43,-24.93,5.48c-1.04,0.13,-2.1,0.26,-3.12,0.27c-4.45,0.42,-8.94,0.81,-13.48,0.81c-2.06,0,-4.27,-0.21,-6.55,-0.33c-16.67,-0.79,-32.37,-4.37,-45.8,-10.27L46.25,165.52L46.25,98.5c0,-20.43,11.78,-37.91,28.8,-46.52L74.74,51.24l-17.33,-21c-23.19,13.93,-38.75,39.2,-38.75,68.22l0,165.35c-0.69,-0.69,-4.28,-4.29,-6.67,-7.36l-4.27,9.55c19.46,20.58,52.9,34.19,90.87,34.19c23.33,0,44.96,-5.19,62.66,-13.92l-7.32,-5.68C153.79,280.69,153.79,280.69,153.79,280.69z"/>
 </g>
</g>
</g></g><path stroke='#8c8c8c' stroke-width='29.88' stroke-linecap='round' stroke-linejoin='round' fill='none' d='M1050.01,2405.65L1050.01,2747.54' />
<path stroke='#8c8c8c' stroke-width='29.88' stroke-linecap='round' stroke-linejoin='round' fill='none' d='M1150.04,2405.65L1150.04,2747.54' />
<g partID='12470'><g transform='translate(987.144,2000)' ><g xmlns="http://www.w3.org/2000/svg" id="breadboard">
 <rect xmlns="http://www.w3.org/2000/svg" width="29.89" x="47.93" y="353.07" fill="none" height="10" id="connector0pin"/>
 <rect xmlns="http://www.w3.org/2000/svg" width="29.92" x="147.93" y="353.07" fill="none" height="10" id="connector1pin"/>
 <g xmlns="http://www.w3.org/2000/svg" fill="none" stroke="#8C8C8C" id="connector0leg" stroke-linecap="round" y1="40.565" x1="6.287" y2="74.754" stroke-width="29.88" x2="6.287"/>
 <g xmlns="http://www.w3.org/2000/svg" fill="none" stroke="#8C8C8C" id="connector1leg" stroke-linecap="round" y1="40.565" x1="16.29" y2="74.754" stroke-width="29.88" x2="16.29"/>
 <rect xmlns="http://www.w3.org/2000/svg" width="29.88" x="47.93" y="269.16" fill="#8C8C8C" height="136.49"/>
 <path xmlns="http://www.w3.org/2000/svg" fill="#8C8C8C" d="M177.84,405.65c0,-16.3,-14.79,-29.2,-29,-41.55c-5.78,-5.1,-16.66,-13.91,-16.66,-19.79l0,-75.98l-30.02,0l0,80.28c0,14.7,13.16,26.09,27.03,38.17c6.17,5.22,18.73,17.36,18.73,24.58"/>
 <g xmlns="http://www.w3.org/2000/svg" id="g12">
  <path xmlns="http://www.w3.org/2000/svg" opacity="0.3" fill="#3851fe" id="color_path14" d="M196.85,180.57L196.85,98.45C196.85,44.1,152.85,0,98.44,0C44.1,0,0,44.02,0,98.45l0,189.57c20.47,22.93,56.9,38.23,98.44,38.23c64.16,0,116.23,-36.36,116.23,-81.38l0,-21.16C214.66,207.84,208.08,193.1,196.85,180.57z"/>
  <path xmlns="http://www.w3.org/2000/svg" opacity="0.5" fill="#E6E6E6" id="path16" d="M196.85,180.57L196.85,98.45C196.85,44.1,152.85,0,98.44,0C44.1,0,0,44.02,0,98.45l0,189.57c20.47,22.93,56.9,38.23,98.44,38.23c64.16,0,116.23,-36.36,116.23,-81.38l0,-21.16C214.66,207.84,208.08,193.1,196.85,180.57z"/>
  <path xmlns="http://www.w3.org/2000/svg" opacity="0.9" fill="#D1D1D1" id="path18" d="M196.85,180.57l0,43.13c0,38.04,-43.97,68.96,-98.41,68.96C44.1,292.66,0,261.84,0,223.7l0,43.13L0,288c20.47,22.94,56.9,38.23,98.44,38.23c64.16,0,116.23,-36.36,116.23,-81.37L214.67,223.7C214.66,207.84,208.08,193.1,196.85,180.57z"/>
  <path xmlns="http://www.w3.org/2000/svg" opacity="0.7" fill="#3851fe" id="color_path20" d="M196.85,180.57l0,43.13c0,38.04,-43.97,68.96,-98.41,68.96C44.1,292.66,0,261.84,0,223.7l0,43.13L0,288c20.47,22.94,56.9,38.23,98.44,38.23c64.16,0,116.23,-36.36,116.23,-81.37L214.67,223.7C214.66,207.84,208.08,193.1,196.85,180.57z"/>
  <path xmlns="http://www.w3.org/2000/svg" opacity="0.25" fill="#3851fe" id="color_path22" d="M196.85,180.57l0,43.13c0,38.04,-43.97,68.96,-98.41,68.96C44.1,292.66,0,261.84,0,223.7l0,43.13c20.47,22.92,56.9,38.23,98.44,38.23c64.16,0,116.23,-36.36,116.23,-81.37C214.66,207.84,208.08,193.1,196.85,180.57z"/>
  <ellipse xmlns="http://www.w3.org/2000/svg" opacity="0.25" fill="#E6E6E6" cx="98.44" cy="223.7" rx="98.43" ry="68.9" id="ellipse24"/>
  <ellipse xmlns="http://www.w3.org/2000/svg" opacity="0.25" fill="#3851fe" cx="98.44" cy="223.7" rx="98.43" ry="68.9" id="color_ellipse26"/>
  <polygon xmlns="http://www.w3.org/2000/svg" fill="#666666" points="30.6,134,30.6,223.71,44.39,223.71,44.39,181.87,83.55,181.87,139.06,122.29,47.32,122.29" id="polygon28"/>
  <polygon xmlns="http://www.w3.org/2000/svg" fill="#666666" points="149.7,118.39,155.76,125.47,102.94,181.87,153.61,181.87,153.61,223.71,166.3,223.71,166.3,118.39" id="polygon30"/>
  <path xmlns="http://www.w3.org/2000/svg" opacity="0.65" fill="#3851fe" id="color_path32" d="M196.85,180.57L196.85,98.45C196.85,44.1,152.85,0,98.44,0C44.1,0,0,44.02,0,98.45l0,189.57c20.47,22.93,56.9,38.23,98.44,38.23c64.16,0,116.23,-36.36,116.23,-81.38l0,-21.16C214.66,207.84,208.08,193.1,196.85,180.57z"/>
  <path xmlns="http://www.w3.org/2000/svg" opacity="0.5" fill="#FFFFFF" id="path34" d="M144.28,52.14l19.95,-3.8c-11.69,-15.72,-28.92,-27.19,-49.19,-31.09l3.53,15.01C129.18,36.02,138.11,43.1,144.28,52.14z"/>
  <path xmlns="http://www.w3.org/2000/svg" opacity="0.5" fill="#FFFFFF" id="path36" d="M10.67,276.75l0,21.11c9.01,7.35,19.91,13.56,32.05,18.29l0,-21.18C30.52,290.3,19.71,284.11,10.67,276.75z"/>
  <path xmlns="http://www.w3.org/2000/svg" opacity="0.5" fill="#FFFFFF" id="path38" d="M153.79,280.69c-3.55,1.7,-7.36,3.19,-11.19,4.58c-0.81,0.27,-1.63,0.56,-2.47,0.81c-7.83,2.49,-16.13,4.43,-24.93,5.48c-1.04,0.13,-2.1,0.26,-3.12,0.27c-4.45,0.42,-8.94,0.81,-13.48,0.81c-2.06,0,-4.27,-0.21,-6.55,-0.33c-16.67,-0.79,-32.37,-4.37,-45.8,-10.27L46.25,165.52L46.25,98.5c0,-20.43,11.78,-37.91,28.8,-46.52L74.74,51.24l-17.33,-21c-23.19,13.93,-38.75,39.2,-38.75,68.22l0,165.35c-0.69,-0.69,-4.28,-4.29,-6.67,-7.36l-4.27,9.55c19.46,20.58,52.9,34.19,90.87,34.19c23.33,0,44.96,-5.19,62.66,-13.92l-7.32,-5.68C153.79,280.69,153.79,280.69,153.79,280.69z"/>
 </g>
</g>
</g></g><path stroke='#8c8c8c' stroke-width='29.88' stroke-linecap='round' stroke-linejoin='round' fill='none' d='M750.014,1405.65L750.014,1747.54' />
<path stroke='#8c8c8c' stroke-width='29.88' stroke-linecap='round' stroke-linejoin='round' fill='none' d='M850.044,1405.65L850.044,1747.54' />
<g partID='12500'><g transform='translate(687.144,1000)' ><g xmlns="http://www.w3.org/2000/svg" id="breadboard">
 <rect xmlns="http://www.w3.org/2000/svg" width="29.89" x="47.93" y="353.07" fill="none" height="10" id="connector0pin"/>
 <rect xmlns="http://www.w3.org/2000/svg" width="29.92" x="147.93" y="353.07" fill="none" height="10" id="connector1pin"/>
 <g xmlns="http://www.w3.org/2000/svg" fill="none" stroke="#8C8C8C" id="connector0leg" stroke-linecap="round" y1="40.565" x1="6.287" y2="74.754" stroke-width="29.88" x2="6.287"/>
 <g xmlns="http://www.w3.org/2000/svg" fill="none" stroke="#8C8C8C" id="connector1leg" stroke-linecap="round" y1="40.565" x1="16.29" y2="74.754" stroke-width="29.88" x2="16.29"/>
 <rect xmlns="http://www.w3.org/2000/svg" width="29.88" x="47.93" y="269.16" fill="#8C8C8C" height="136.49"/>
 <path xmlns="http://www.w3.org/2000/svg" fill="#8C8C8C" d="M177.84,405.65c0,-16.3,-14.79,-29.2,-29,-41.55c-5.78,-5.1,-16.66,-13.91,-16.66,-19.79l0,-75.98l-30.02,0l0,80.28c0,14.7,13.16,26.09,27.03,38.17c6.17,5.22,18.73,17.36,18.73,24.58"/>
 <g xmlns="http://www.w3.org/2000/svg" id="g12">
  <path xmlns="http://www.w3.org/2000/svg" opacity="0.3" fill="#00cc80" id="color_path14" d="M196.85,180.57L196.85,98.45C196.85,44.1,152.85,0,98.44,0C44.1,0,0,44.02,0,98.45l0,189.57c20.47,22.93,56.9,38.23,98.44,38.23c64.16,0,116.23,-36.36,116.23,-81.38l0,-21.16C214.66,207.84,208.08,193.1,196.85,180.57z"/>
  <path xmlns="http://www.w3.org/2000/svg" opacity="0.5" fill="#E6E6E6" id="path16" d="M196.85,180.57L196.85,98.45C196.85,44.1,152.85,0,98.44,0C44.1,0,0,44.02,0,98.45l0,189.57c20.47,22.93,56.9,38.23,98.44,38.23c64.16,0,116.23,-36.36,116.23,-81.38l0,-21.16C214.66,207.84,208.08,193.1,196.85,180.57z"/>
  <path xmlns="http://www.w3.org/2000/svg" opacity="0.9" fill="#D1D1D1" id="path18" d="M196.85,180.57l0,43.13c0,38.04,-43.97,68.96,-98.41,68.96C44.1,292.66,0,261.84,0,223.7l0,43.13L0,288c20.47,22.94,56.9,38.23,98.44,38.23c64.16,0,116.23,-36.36,116.23,-81.37L214.67,223.7C214.66,207.84,208.08,193.1,196.85,180.57z"/>
  <path xmlns="http://www.w3.org/2000/svg" opacity="0.7" fill="#00cc80" id="color_path20" d="M196.85,180.57l0,43.13c0,38.04,-43.97,68.96,-98.41,68.96C44.1,292.66,0,261.84,0,223.7l0,43.13L0,288c20.47,22.94,56.9,38.23,98.44,38.23c64.16,0,116.23,-36.36,116.23,-81.37L214.67,223.7C214.66,207.84,208.08,193.1,196.85,180.57z"/>
  <path xmlns="http://www.w3.org/2000/svg" opacity="0.25" fill="#00cc80" id="color_path22" d="M196.85,180.57l0,43.13c0,38.04,-43.97,68.96,-98.41,68.96C44.1,292.66,0,261.84,0,223.7l0,43.13c20.47,22.92,56.9,38.23,98.44,38.23c64.16,0,116.23,-36.36,116.23,-81.37C214.66,207.84,208.08,193.1,196.85,180.57z"/>
  <ellipse xmlns="http://www.w3.org/2000/svg" opacity="0.25" fill="#E6E6E6" cx="98.44" cy="223.7" rx="98.43" ry="68.9" id="ellipse24"/>
  <ellipse xmlns="http://www.w3.org/2000/svg" opacity="0.25" fill="#00cc80" cx="98.44" cy="223.7" rx="98.43" ry="68.9" id="color_ellipse26"/>
  <polygon xmlns="http://www.w3.org/2000/svg" fill="#666666" points="30.6,134,30.6,223.71,44.39,223.71,44.39,181.87,83.55,181.87,139.06,122.29,47.32,122.29" id="polygon28"/>
  <polygon xmlns="http://www.w3.org/2000/svg" fill="#666666" points="149.7,118.39,155.76,125.47,102.94,181.87,153.61,181.87,153.61,223.71,166.3,223.71,166.3,118.39" id="polygon30"/>
  <path xmlns="http://www.w3.org/2000/svg" opacity="0.65" fill="#00cc80" id="color_path32" d="M196.85,180.57L196.85,98.45C196.85,44.1,152.85,0,98.44,0C44.1,0,0,44.02,0,98.45l0,189.57c20.47,22.93,56.9,38.23,98.44,38.23c64.16,0,116.23,-36.36,116.23,-81.38l0,-21.16C214.66,207.84,208.08,193.1,196.85,180.57z"/>
  <path xmlns="http://www.w3.org/2000/svg" opacity="0.5" fill="#FFFFFF" id="path34" d="M144.28,52.14l19.95,-3.8c-11.69,-15.72,-28.92,-27.19,-49.19,-31.09l3.53,15.01C129.18,36.02,138.11,43.1,144.28,52.14z"/>
  <path xmlns="http://www.w3.org/2000/svg" opacity="0.5" fill="#FFFFFF" id="path36" d="M10.67,276.75l0,21.11c9.01,7.35,19.91,13.56,32.05,18.29l0,-21.18C30.52,290.3,19.71,284.11,10.67,276.75z"/>
  <path xmlns="http://www.w3.org/2000/svg" opacity="0.5" fill="#FFFFFF" id="path38" d="M153.79,280.69c-3.55,1.7,-7.36,3.19,-11.19,4.58c-0.81,0.27,-1.63,0.56,-2.47,0.81c-7.83,2.49,-16.13,4.43,-24.93,5.48c-1.04,0.13,-2.1,0.26,-3.12,0.27c-4.45,0.42,-8.94,0.81,-13.48,0.81c-2.06,0,-4.27,-0.21,-6.55,-0.33c-16.67,-0.79,-32.37,-4.37,-45.8,-10.27L46.25,165.52L46.25,98.5c0,-20.43,11.78,-37.91,28.8,-46.52L74.74,51.24l-17.33,-21c-23.19,13.93,-38.75,39.2,-38.75,68.22l0,165.35c-0.69,-0.69,-4.28,-4.29,-6.67,-7.36l-4.27,9.55c19.46,20.58,52.9,34.19,90.87,34.19c23.33,0,44.96,-5.19,62.66,-13.92l-7.32,-5.68C153.79,280.69,153.79,280.69,153.79,280.69z"/>
 </g>
</g>
</g></g><g partID='88300'><g transform='translate(2200,1297.57)' ><g transform='matrix(0,1,-1,0,0,0)'  ><g xmlns="http://www.w3.org/2000/svg" id="breadboard">
<rect width="300" fill="#404040" xmlns="http://www.w3.org/2000/svg" height="100"/>
<rect width="38.6544" x="30.6727" y="30.6727" fill="none" xmlns="http://www.w3.org/2000/svg" height="38.6544" id="connector0pin"/>
<g width="29.9763" x="34.977" y="34.3131" fill="none" xmlns="http://www.w3.org/2000/svg" height="31.3414" id="connector0terminal"/>
<rect width="38.6544" x="30.6727" y="30.6727" xmlns="http://www.w3.org/2000/svg" height="38.6544"/>
<polygon fill="#2A2A29" points="16.4507,16.4507,30.6727,30.6727,69.3272,30.6727,83.5631,16.4507" xmlns="http://www.w3.org/2000/svg"/>
<polygon fill="#474747" points="83.5631,16.4507,69.3272,30.6727,69.3272,69.3272,83.5631,83.5631" xmlns="http://www.w3.org/2000/svg"/>
<polygon fill="#595959" points="83.5631,83.5631,69.3272,69.3272,30.6727,69.3272,16.4507,83.5631" xmlns="http://www.w3.org/2000/svg"/>
<polygon fill="#373737" points="16.4507,83.5631,30.6727,69.3272,30.6727,30.6727,16.4507,16.4507" xmlns="http://www.w3.org/2000/svg"/>
<rect width="38.6544" x="130.673" y="30.6727" fill="none" xmlns="http://www.w3.org/2000/svg" height="38.6544" id="connector1pin"/>
<g width="29.9763" x="134.977" y="34.3131" fill="none" xmlns="http://www.w3.org/2000/svg" height="31.3414" id="connector1terminal"/>
<rect width="38.6544" x="130.673" y="30.6727" xmlns="http://www.w3.org/2000/svg" height="38.6544"/>
<polygon fill="#2A2A29" points="116.451,16.4507,130.673,30.6727,169.327,30.6727,183.563,16.4507" xmlns="http://www.w3.org/2000/svg"/>
<polygon fill="#474747" points="183.563,16.4507,169.327,30.6727,169.327,69.3272,183.563,83.5631" xmlns="http://www.w3.org/2000/svg"/>
<polygon fill="#595959" points="183.563,83.5631,169.327,69.3272,130.673,69.3272,116.451,83.5631" xmlns="http://www.w3.org/2000/svg"/>
<polygon fill="#373737" points="116.451,83.5631,130.673,69.3272,130.673,30.6727,116.451,16.4507" xmlns="http://www.w3.org/2000/svg"/>
<rect width="38.6544" x="230.673" y="30.6727" fill="none" xmlns="http://www.w3.org/2000/svg" height="38.6544" id="connector2pin"/>
<g width="29.9763" x="234.977" y="34.3131" fill="none" xmlns="http://www.w3.org/2000/svg" height="31.3414" id="connector2terminal"/>
<rect width="38.6544" x="230.673" y="30.6727" xmlns="http://www.w3.org/2000/svg" height="38.6544"/>
<polygon fill="#2A2A29" points="216.451,16.4507,230.673,30.6727,269.327,30.6727,283.563,16.4507" xmlns="http://www.w3.org/2000/svg"/>
<polygon fill="#474747" points="283.563,16.4507,269.327,30.6727,269.327,69.3272,283.563,83.5631" xmlns="http://www.w3.org/2000/svg"/>
<polygon fill="#595959" points="283.563,83.5631,269.327,69.3272,230.673,69.3272,216.451,83.5631" xmlns="http://www.w3.org/2000/svg"/>
<polygon fill="#373737" points="216.451,83.5631,230.673,69.3272,230.673,30.6727,216.451,16.4507" xmlns="http://www.w3.org/2000/svg"/>
</g>
</g></g></g><g partID='89330'><g transform='translate(100,1297.57)' ><g transform='matrix(0,1,-1,0,0,0)'  ><g xmlns="http://www.w3.org/2000/svg" id="breadboard">
<rect width="300" fill="#404040" xmlns="http://www.w3.org/2000/svg" height="100"/>
<rect width="38.6544" x="30.6727" y="30.6727" fill="none" xmlns="http://www.w3.org/2000/svg" height="38.6544" id="connector0pin"/>
<g width="29.9763" x="34.977" y="34.3131" fill="none" xmlns="http://www.w3.org/2000/svg" height="31.3414" id="connector0terminal"/>
<rect width="38.6544" x="30.6727" y="30.6727" xmlns="http://www.w3.org/2000/svg" height="38.6544"/>
<polygon fill="#2A2A29" points="16.4507,16.4507,30.6727,30.6727,69.3272,30.6727,83.5631,16.4507" xmlns="http://www.w3.org/2000/svg"/>
<polygon fill="#474747" points="83.5631,16.4507,69.3272,30.6727,69.3272,69.3272,83.5631,83.5631" xmlns="http://www.w3.org/2000/svg"/>
<polygon fill="#595959" points="83.5631,83.5631,69.3272,69.3272,30.6727,69.3272,16.4507,83.5631" xmlns="http://www.w3.org/2000/svg"/>
<polygon fill="#373737" points="16.4507,83.5631,30.6727,69.3272,30.6727,30.6727,16.4507,16.4507" xmlns="http://www.w3.org/2000/svg"/>
<rect width="38.6544" x="130.673" y="30.6727" fill="none" xmlns="http://www.w3.org/2000/svg" height="38.6544" id="connector1pin"/>
<g width="29.9763" x="134.977" y="34.3131" fill="none" xmlns="http://www.w3.org/2000/svg" height="31.3414" id="connector1terminal"/>
<rect width="38.6544" x="130.673" y="30.6727" xmlns="http://www.w3.org/2000/svg" height="38.6544"/>
<polygon fill="#2A2A29" points="116.451,16.4507,130.673,30.6727,169.327,30.6727,183.563,16.4507" xmlns="http://www.w3.org/2000/svg"/>
<polygon fill="#474747" points="183.563,16.4507,169.327,30.6727,169.327,69.3272,183.563,83.5631" xmlns="http://www.w3.org/2000/svg"/>
<polygon fill="#595959" points="183.563,83.5631,169.327,69.3272,130.673,69.3272,116.451,83.5631" xmlns="http://www.w3.org/2000/svg"/>
<polygon fill="#373737" points="116.451,83.5631,130.673,69.3272,130.673,30.6727,116.451,16.4507" xmlns="http://www.w3.org/2000/svg"/>
<rect width="38.6544" x="230.673" y="30.6727" fill="none" xmlns="http://www.w3.org/2000/svg" height="38.6544" id="connector2pin"/>
<g width="29.9763" x="234.977" y="34.3131" fill="none" xmlns="http://www.w3.org/2000/svg" height="31.3414" id="connector2terminal"/>
<rect width="38.6544" x="230.673" y="30.6727" xmlns="http://www.w3.org/2000/svg" height="38.6544"/>
<polygon fill="#2A2A29" points="216.451,16.4507,230.673,30.6727,269.327,30.6727,283.563,16.4507" xmlns="http://www.w3.org/2000/svg"/>
<polygon fill="#474747" points="283.563,16.4507,269.327,30.6727,269.327,69.3272,283.563,83.5631" xmlns="http://www.w3.org/2000/svg"/>
<polygon fill="#595959" points="283.563,83.5631,269.327,69.3272,230.673,69.3272,216.451,83.5631" xmlns="http://www.w3.org/2000/svg"/>
<polygon fill="#373737" points="216.451,83.5631,230.673,69.3272,230.673,30.6727,216.451,16.4507" xmlns="http://www.w3.org/2000/svg"/>
</g>
</g></g></g><g partID='15010'><line stroke-linecap='round' stroke='#1b5bb3' x1='850.011' y1='2851.24' x2='850.044' y2='2747.54' stroke-width='44.4444' /><line stroke-linecap='round' stroke='#418dd9' x1='850.011' y1='2851.24' x2='850.044' y2='2747.54' stroke-width='22.2222' /></g><g partID='15130'><line stroke-linecap='round' stroke='#1b5bb3' x1='1050.01' y1='2851.24' x2='850.011' y2='2851.24' stroke-width='44.4444' /><line stroke-linecap='round' stroke='#418dd9' x1='1050.01' y1='2851.24' x2='850.011' y2='2851.24' stroke-width='22.2222' /></g><g partID='15020'><line stroke-linecap='round' stroke='#1b5bb3' x1='1050.01' y1='2747.54' x2='1050.01' y2='2851.24' stroke-width='44.4444' /><line stroke-linecap='round' stroke='#418dd9' x1='1050.01' y1='2747.54' x2='1050.01' y2='2851.24' stroke-width='22.2222' /></g><g partID='15200'><line stroke-linecap='round' stroke='#1b5bb3' x1='1146.3' y1='2851.24' x2='1150.04' y2='2747.54' stroke-width='44.4444' /><line stroke-linecap='round' stroke='#418dd9' x1='1146.3' y1='2851.24' x2='1150.04' y2='2747.54' stroke-width='22.2222' /></g><g partID='15260'><line stroke-linecap='round' stroke='#1b5bb3' x1='1353.71' y1='2851.24' x2='1146.3' y2='2851.24' stroke-width='44.4444' /><line stroke-linecap='round' stroke='#418dd9' x1='1353.71' y1='2851.24' x2='1146.3' y2='2851.24' stroke-width='22.2222' /></g><g partID='15210'><line stroke-linecap='round' stroke='#1b5bb3' x1='1350.01' y1='2747.54' x2='1353.71' y2='2851.24' stroke-width='44.4444' /><line stroke-linecap='round' stroke='#418dd9' x1='1350.01' y1='2747.54' x2='1353.71' y2='2851.24' stroke-width='22.2222' /></g><g partID='15330'><line stroke-linecap='round' stroke='#00a527' x1='850.011' y1='1851.24' x2='850.044' y2='1747.54' stroke-width='44.4444' /><line stroke-linecap='round' stroke='#25cc35' x1='850.011' y1='1851.24' x2='850.044' y2='1747.54' stroke-width='22.2222' /></g><g partID='15390'><line stroke-linecap='round' stroke='#00a527' x1='1050.01' y1='1851.24' x2='850.011' y2='1851.24' stroke-width='44.4444' /><line stroke-linecap='round' stroke='#25cc35' x1='1050.01' y1='1851.24' x2='850.011' y2='1851.24' stroke-width='22.2222' /></g><g partID='15340'><line stroke-linecap='round' stroke='#00a527' x1='1050.01' y1='1747.54' x2='1050.01' y2='1851.24' stroke-width='44.4444' /><line stroke-linecap='round' stroke='#25cc35' x1='1050.01' y1='1747.54' x2='1050.01' y2='1851.24' stroke-width='22.2222' /></g><g partID='15460'><line stroke-linecap='round' stroke='#00a527' x1='1153.71' y1='1851.24' x2='1150.04' y2='1747.54' stroke-width='44.4444' /><line stroke-linecap='round' stroke='#25cc35' x1='1153.71' y1='1851.24' x2='1150.04' y2='1747.54' stroke-width='22.2222' /></g><g partID='15520'><line stroke-linecap='round' stroke='#00a527' x1='1353.71' y1='1851.24' x2='1153.71' y2='1851.24' stroke-width='44.4444' /><line stroke-linecap='round' stroke='#25cc35' x1='1353.71' y1='1851.24' x2='1153.71' y2='1851.24' stroke-width='22.2222' /></g><g partID='15470'><line stroke-linecap='round' stroke='#00a527' x1='1350.01' y1='1747.54' x2='1353.71' y2='1851.24' stroke-width='44.4444' /><line stroke-linecap='round' stroke='#25cc35' x1='1350.01' y1='1747.54' x2='1353.71' y2='1851.24' stroke-width='22.2222' /></g><g partID='15590'><line stroke-linecap='round' stroke='#8c0000' x1='1153.72' y1='851.243' x2='1150.04' y2='747.54' stroke-width='44.4444' /><line stroke-linecap='round' stroke='#cc1414' x1='1153.72' y1='851.243' x2='1150.04' y2='747.54' stroke-width='22.2222' /></g><g partID='15650'><line stroke-linecap='round' stroke='#8c0000' x1='1346.31' y1='851.243' x2='1153.72' y2='851.243' stroke-width='44.4444' /><line stroke-linecap='round' stroke='#cc1414' x1='1346.31' y1='851.243' x2='1153.72' y2='851.243' stroke-width='22.2222' /></g><g partID='15600'><line stroke-linecap='round' stroke='#8c0000' x1='1350.01' y1='747.54' x2='1346.31' y2='851.243' stroke-width='44.4444' /><line stroke-linecap='round' stroke='#cc1414' x1='1350.01' y1='747.54' x2='1346.31' y2='851.243' stroke-width='22.2222' /></g><g partID='15780'><line stroke-linecap='round' stroke='#8c0000' x1='850.011' y1='851.243' x2='850.044' y2='747.54' stroke-width='44.4444' /><line stroke-linecap='round' stroke='#cc1414' x1='850.011' y1='851.243' x2='850.044' y2='747.54' stroke-width='22.2222' /></g><g partID='15720'><line stroke-linecap='round' stroke='#8c0000' x1='1050.01' y1='851.243' x2='850.011' y2='851.243' stroke-width='44.4444' /><line stroke-linecap='round' stroke='#cc1414' x1='1050.01' y1='851.243' x2='850.011' y2='851.243' stroke-width='22.2222' /></g><g partID='15730'><line stroke-linecap='round' stroke='#8c0000' x1='1050.01' y1='747.54' x2='1050.01' y2='851.243' stroke-width='44.4444' /><line stroke-linecap='round' stroke='#cc1414' x1='1050.01' y1='747.54' x2='1050.01' y2='851.243' stroke-width='22.2222' /></g><g partID='89150'><line stroke-linecap='round' stroke='#00a527' x1='1850.01' y1='1451.24' x2='2150.01' y2='1447.54' stroke-width='44.4444' /><line stroke-linecap='round' stroke='#25cc35' x1='1850.01' y1='1451.24' x2='2150.01' y2='1447.54' stroke-width='22.2222' /></g><g partID='88920'><line stroke-linecap='round' stroke='#00a527' x1='1650.01' y1='1851.24' x2='1850.01' y2='1451.24' stroke-width='44.4444' /><line stroke-linecap='round' stroke='#25cc35' x1='1650.01' y1='1851.24' x2='1850.01' y2='1451.24' stroke-width='22.2222' /></g><g partID='88870'><line stroke-linecap='round' stroke='#00a527' x1='1450.01' y1='1851.24' x2='1650.01' y2='1851.24' stroke-width='44.4444' /><line stroke-linecap='round' stroke='#25cc35' x1='1450.01' y1='1851.24' x2='1650.01' y2='1851.24' stroke-width='22.2222' /></g><g partID='88550'><line stroke-linecap='round' stroke='#00a527' x1='1450.04' y1='1747.54' x2='1450.01' y2='1851.24' stroke-width='44.4444' /><line stroke-linecap='round' stroke='#25cc35' x1='1450.04' y1='1747.54' x2='1450.01' y2='1851.24' stroke-width='22.2222' /></g><g partID='88810'><line stroke-linecap='round' stroke='#8c0000' x1='1450.01' y1='851.243' x2='1450.04' y2='747.54' stroke-width='44.4444' /><line stroke-linecap='round' stroke='#cc1414' x1='1450.01' y1='851.243' x2='1450.04' y2='747.54' stroke-width='22.2222' /></g><g partID='89250'><line stroke-linecap='round' stroke='#8c0000' x1='1953.71' y1='1347.54' x2='1650.01' y2='851.243' stroke-width='44.4444' /><line stroke-linecap='round' stroke='#cc1414' x1='1953.71' y1='1347.54' x2='1650.01' y2='851.243' stroke-width='22.2222' /></g><g partID='88970'><line stroke-linecap='round' stroke='#8c0000' x1='1650.01' y1='851.243' x2='1450.01' y2='851.243' stroke-width='44.4444' /><line stroke-linecap='round' stroke='#cc1414' x1='1650.01' y1='851.243' x2='1450.01' y2='851.243' stroke-width='22.2222' /></g><g partID='88820'><line stroke-linecap='round' stroke='#8c0000' x1='2150.01' y1='1347.54' x2='1953.71' y2='1347.54' stroke-width='44.4444' /><line stroke-linecap='round' stroke='#cc1414' x1='2150.01' y1='1347.54' x2='1953.71' y2='1347.54' stroke-width='22.2222' /></g><g partID='89200'><line stroke-linecap='round' stroke='#1b5bb3' x1='1953.71' y1='1547.54' x2='2150.01' y2='1547.54' stroke-width='44.4444' /><line stroke-linecap='round' stroke='#418dd9' x1='1953.71' y1='1547.54' x2='2150.01' y2='1547.54' stroke-width='22.2222' /></g><g partID='89100'><line stroke-linecap='round' stroke='#1b5bb3' x1='1650.01' y1='2851.24' x2='1953.71' y2='1547.54' stroke-width='44.4444' /><line stroke-linecap='round' stroke='#418dd9' x1='1650.01' y1='2851.24' x2='1953.71' y2='1547.54' stroke-width='22.2222' /></g><g partID='89040'><line stroke-linecap='round' stroke='#1b5bb3' x1='1450.01' y1='2851.24' x2='1650.01' y2='2851.24' stroke-width='44.4444' /><line stroke-linecap='round' stroke='#418dd9' x1='1450.01' y1='2851.24' x2='1650.01' y2='2851.24' stroke-width='22.2222' /></g><g partID='89050'><line stroke-linecap='round' stroke='#1b5bb3' x1='1450.04' y1='2747.54' x2='1450.01' y2='2851.24' stroke-width='44.4444' /><line stroke-linecap='round' stroke='#418dd9' x1='1450.04' y1='2747.54' x2='1450.01' y2='2851.24' stroke-width='22.2222' /></g><g partID='89840'><line stroke-linecap='round' stroke='#000000' x1='250.011' y1='1347.54' x2='50.0111' y2='1347.54' stroke-width='44.4444' /><line stroke-linecap='round' stroke='#404040' x1='250.011' y1='1347.54' x2='50.0111' y2='1347.54' stroke-width='22.2222' /></g><g partID='89490'><line stroke-linecap='round' stroke='#000000' x1='553.711' y1='851.243' x2='250.008' y2='1347.54' stroke-width='44.4444' /><line stroke-linecap='round' stroke='#404040' x1='553.711' y1='851.243' x2='250.008' y2='1347.54' stroke-width='22.2222' /></g><g partID='89420'><line stroke-linecap='round' stroke='#000000' x1='753.711' y1='851.243' x2='553.711' y2='851.243' stroke-width='44.4444' /><line stroke-linecap='round' stroke='#404040' x1='753.711' y1='851.243' x2='553.711' y2='851.243' stroke-width='22.2222' /></g><g partID='89350'><line stroke-linecap='round' stroke='#000000' x1='750.014' y1='747.54' x2='753.711' y2='851.243' stroke-width='44.4444' /><line stroke-linecap='round' stroke='#404040' x1='750.014' y1='747.54' x2='753.711' y2='851.243' stroke-width='22.2222' /></g><g partID='89770'><line stroke-linecap='round' stroke='#000000' x1='353.711' y1='1451.24' x2='50.0078' y2='1447.54' stroke-width='44.4444' /><line stroke-linecap='round' stroke='#404040' x1='353.711' y1='1451.24' x2='50.0078' y2='1447.54' stroke-width='22.2222' /></g><g partID='89700'><line stroke-linecap='round' stroke='#000000' x1='553.711' y1='1851.24' x2='353.711' y2='1451.24' stroke-width='44.4444' /><line stroke-linecap='round' stroke='#404040' x1='553.711' y1='1851.24' x2='353.711' y2='1451.24' stroke-width='22.2222' /></g><g partID='89630'><line stroke-linecap='round' stroke='#000000' x1='746.311' y1='1851.24' x2='553.719' y2='1851.24' stroke-width='44.4444' /><line stroke-linecap='round' stroke='#404040' x1='746.311' y1='1851.24' x2='553.719' y2='1851.24' stroke-width='22.2222' /></g><g partID='89560'><line stroke-linecap='round' stroke='#000000' x1='750.014' y1='1747.54' x2='746.311' y2='1851.24' stroke-width='44.4444' /><line stroke-linecap='round' stroke='#404040' x1='750.014' y1='1747.54' x2='746.311' y2='1851.24' stroke-width='22.2222' /></g><g partID='90120'><line stroke-linecap='round' stroke='#000000' x1='250.011' y1='1547.54' x2='50.0111' y2='1547.54' stroke-width='44.4444' /><line stroke-linecap='round' stroke='#404040' x1='250.011' y1='1547.54' x2='50.0111' y2='1547.54' stroke-width='22.2222' /></g><g partID='90050'><line stroke-linecap='round' stroke='#000000' x1='553.711' y1='2851.24' x2='250.008' y2='1547.54' stroke-width='44.4444' /><line stroke-linecap='round' stroke='#404040' x1='553.711' y1='2851.24' x2='250.008' y2='1547.54' stroke-width='22.2222' /></g><g partID='89980'><line stroke-linecap='round' stroke='#000000' x1='753.711' y1='2851.24' x2='553.711' y2='2851.24' stroke-width='44.4444' /><line stroke-linecap='round' stroke='#404040' x1='753.711' y1='2851.24' x2='553.711' y2='2851.24' stroke-width='22.2222' /></g><g partID='89910'><line stroke-linecap='round' stroke='#000000' x1='750.014' y1='2747.54' x2='753.711' y2='2851.24' stroke-width='44.4444' /><line stroke-linecap='round' stroke='#404040' x1='750.014' y1='2747.54' x2='753.711' y2='2851.24' stroke-width='22.2222' /></g></svg>