<?xml version='1.0' encoding='UTF-8' standalone='no'?>
<!-- Created with Fritzing (http://www.fritzing.org/) -->
<svg xmlns="http://www.w3.org/2000/svg" width="8.283in" x="0in" version="1.2" y="0in"  height="14.6485in" viewBox="0 0 8283 14648.5" baseProfile="tiny" xmlns:svg="http://www.w3.org/2000/svg">
 <g  id="watermark">
  <g >
   <path fill="#8C8C8C"  d="M6785.54,14616.2L6758.81,14538.9L6758.32,14538.9c0.236111,2.97222,0.444444,5.93056,0.611111,8.88889c0.166667,2.54167,0.291667,5.20833,0.388889,7.97222c0.0972222,2.81944,0.152778,5.34722,0.152778,7.65278l0,52.7778L6749.08,14616.2L6749.08,14527.9l16.6528,0l24.875,71.9583l0.347222,0l25,-71.9583L6832.63,14527.9l0,88.25L6821.39,14616.2l0,-53.5278c0,-2.08333,0.0416667,-4.5,0.125,-7.19444s0.180556,-5.27778,0.291667,-7.73611c0.166667,-2.875,0.291667,-5.77778,0.402778,-8.68056L6821.76,14539L6794.76,14616.2L6785.54,14616.2z"/>
   <path fill="#8C8C8C"  d="M6892.49,14616.2l-2.22222,-9.18056l-0.486111,0c-1.31944,1.81944,-2.63889,3.375,-3.97222,4.69444c-1.31944,1.31944,-2.77778,2.38889,-4.34722,3.20833c-1.56944,0.861111,-3.31944,1.47222,-5.25,1.88889c-1.95833,0.388889,-4.16667,0.583333,-6.69444,0.583333c-2.77778,0,-5.33333,-0.361111,-7.66667,-1.16667c-2.33333,-0.791667,-4.36111,-2,-6.08333,-3.625c-1.69444,-1.61111,-3.04167,-3.68056,-4,-6.15278S6850.32,14601.1,6850.32,14597.7c0,-6.59722,2.31944,-11.6806,6.95833,-15.2083c4.65278,-3.55556,11.7361,-5.47222,21.2222,-5.80556l11.0972,-0.402778l0,-4.18056c0,-2.68056,-0.291667,-4.94444,-0.875,-6.75s-1.43056,-3.25,-2.54167,-4.36111s-2.47222,-1.91667,-4.09722,-2.38889c-1.625,-0.486111,-3.48611,-0.722222,-5.58333,-0.722222c-3.34722,0,-6.44444,0.472222,-9.31944,1.44444c-2.875,0.944444,-5.65278,2.11111,-8.29167,3.47222L6855.01,14554.5c2.97222,-1.625,6.29167,-3.01389,9.95833,-4.13889c3.66667,-1.09722,7.5,-1.66667,11.5278,-1.66667c4.11111,0,7.65278,0.402778,10.6667,1.25c3,0.819444,5.48611,2.09722,7.41667,3.88889c1.95833,1.80556,3.43056,4.08333,4.38889,6.86111c0.972222,2.76389,1.44444,6.11111,1.44444,10.0833l0,45.4028L6892.49,14616.2L6892.49,14616.2zM6872.33,14608.5c2.47222,0,4.73611,-0.388889,6.81944,-1.16667c2.06944,-0.763889,3.91667,-1.91667,5.43056,-3.45833c1.52778,-1.54167,2.72222,-3.5,3.58333,-5.86111c0.875,-2.36111,1.30556,-5.125,1.30556,-8.31944l0,-5.97222l-8.625,0.416667c-3.63889,0.166667,-6.66667,0.569444,-9.11111,1.19444c-2.43056,0.652778,-4.40278,1.56944,-5.875,2.68056c-1.45833,1.16667,-2.54167,2.56944,-3.18056,4.18056c-0.638889,1.625,-0.944444,3.47222,-0.944444,5.52778c0,3.72222,0.958333,6.41667,2.93056,8.13889C6866.6,14607.7,6869.15,14608.5,6872.33,14608.5z"/>
   <path fill="#8C8C8C"  d="M6961.68,14607.3l-0.472222,0c-0.875,1.375,-1.93056,2.65278,-3.11111,3.90278c-1.18056,1.22222,-2.55556,2.29167,-4.11111,3.20833c-1.54167,0.916667,-3.29167,1.63889,-5.22222,2.16667c-1.93056,0.513889,-4.09722,0.777778,-6.52778,0.777778c-3.76389,0,-7.18056,-0.708333,-10.25,-2.13889c-3.09722,-1.45833,-5.77778,-3.63889,-7.98611,-6.51389s-3.91667,-6.44444,-5.125,-10.7083c-1.20833,-4.29167,-1.80556,-9.22222,-1.80556,-14.8472c0,-5.66667,0.597222,-10.6528,1.80556,-14.9444c1.19444,-4.30556,2.90278,-7.875,5.125,-10.75c2.20833,-2.90278,4.88889,-5.09722,7.98611,-6.56944c3.08333,-1.45833,6.51389,-2.19444,10.25,-2.19444c2.375,0,4.54167,0.277778,6.47222,0.791667s3.66667,1.22222,5.22222,2.11111c1.55556,0.875,2.93056,1.90278,4.125,3.06944s2.26389,2.38889,3.15278,3.69444l0.722222,0c-0.125,-1.38889,-0.25,-2.65278,-0.361111,-3.93056c-0.0833333,-1.02778,-0.166667,-2.11111,-0.25,-3.22222c-0.0694444,-1.08333,-0.125,-1.98611,-0.125,-2.61111L6961.19,14522.3l11,0l0,93.9306l-8.90278,0L6961.68,14607.3zM6944.35,14608.3c3.06944,0,5.65278,-0.458333,7.77778,-1.41667c2.09722,-0.902778,3.80556,-2.33333,5.13889,-4.22222c1.30556,-1.88889,2.26389,-4.27778,2.90278,-7.11111c0.611111,-2.83333,0.958333,-6.13889,1.05556,-9.94444l0,-2.45833c0,-4.05556,-0.277778,-7.66667,-0.819444,-10.8333c-0.555556,-3.18056,-1.45833,-5.80556,-2.77778,-7.97222c-1.30556,-2.13889,-3.04167,-3.76389,-5.22222,-4.875c-2.16667,-1.11111,-4.88889,-1.65278,-8.13889,-1.65278c-5.43056,0,-9.43056,2.18056,-11.9583,6.58333c-2.56944,4.375,-3.84722,10.7083,-3.84722,18.875c0,8.40278,1.27778,14.6944,3.84722,18.8056C6934.81,14606.2,6938.83,14608.3,6944.35,14608.3z"/>
   <path fill="#8C8C8C"  d="M7019.38,14617.4c-4.41667,0,-8.45833,-0.736111,-12.1389,-2.22222c-3.65278,-1.47222,-6.80556,-3.66667,-9.44444,-6.51389c-2.63889,-2.875,-4.69444,-6.40278,-6.13889,-10.6389c-1.44444,-4.25,-2.16667,-9.04167,-2.16667,-14.5139s0.680556,-10.3333,2,-14.6528c1.33333,-4.31944,3.18056,-7.97222,5.625,-10.9583c2.41667,-3,5.30556,-5.29167,8.65278,-6.83333c3.34722,-1.56944,7.08333,-2.36111,11.1389,-2.36111c3.98611,0,7.56944,0.708333,10.7222,2.125c3.18056,1.44444,5.875,3.44444,8.09722,6.04167c2.20833,2.61111,3.91667,5.72222,5.09722,9.36111c1.20833,3.65278,1.80556,7.69444,1.80556,12.125l0,6.80556l-41.7778,0c0.208333,7.76389,1.84722,13.4861,4.91667,17.1389c3.08333,3.65278,7.65278,5.5,13.7083,5.5c2.06944,0,3.95833,-0.111111,5.70833,-0.291667s3.44444,-0.486111,5.06944,-0.875c1.63889,-0.361111,3.19444,-0.875,4.75,-1.44444s3.08333,-1.23611,4.63889,-1.97222l0,9.77778c-1.61111,0.763889,-3.18056,1.44444,-4.73611,2c-1.55556,0.569444,-3.13889,1.02778,-4.76389,1.41667c-1.625,0.333333,-3.31944,0.625,-5.06944,0.777778S7021.44,14617.4,7019.38,14617.4zM7016.67,14557.8c-4.59722,0,-8.22222,1.55556,-10.875,4.70833c-2.68056,3.15278,-4.26389,7.70833,-4.69444,13.6806l29.7222,0c0,-2.72222,-0.291667,-5.25,-0.833333,-7.51389c-0.541667,-2.27778,-1.38889,-4.22222,-2.54167,-5.81944s-2.59722,-2.84722,-4.375,-3.75C7021.29,14558.2,7019.17,14557.8,7016.67,14557.8z"/>
   <path fill="#8C8C8C"  d="M7141.79,14616.2l-10.125,-37.1944c-0.166667,-0.736111,-0.361111,-1.54167,-0.611111,-2.44444c-0.236111,-0.902778,-0.472222,-1.88889,-0.708333,-2.875c-0.263889,-1,-0.5,-2.02778,-0.763889,-3.09722c-0.277778,-1.02778,-0.513889,-2.05556,-0.763889,-3.08333c-0.569444,-2.34722,-1.15278,-4.73611,-1.75,-7.23611l-0.333333,0c-0.569444,2.52778,-1.11111,4.94444,-1.625,7.27778c-0.444444,2.02778,-0.916667,4.08333,-1.44444,6.22222c-0.513889,2.11111,-0.958333,3.93056,-1.43056,5.43056l-10.4167,36.9444l-12.7361,0l-16.9583,-66.2639l11.5278,0l7.91667,35.2639c0.402778,1.79167,0.819444,3.75,1.19444,5.875c0.388889,2.09722,0.791667,4.20833,1.13889,6.27778c0.361111,2.05556,0.694444,4,0.972222,5.84722c0.277778,1.83333,0.513889,3.30556,0.680556,4.47222l0.347222,0c0.208333,-1.02778,0.472222,-2.45833,0.819444,-4.19444c0.347222,-1.75,0.722222,-3.61111,1.15278,-5.54167c0.430556,-1.95833,0.875,-3.88889,1.29167,-5.79167c0.444444,-1.93056,0.875,-3.52778,1.26389,-4.875l10.8056,-37.3611l11.8472,0l10.3889,37.3611c0.347222,1.36111,0.777778,2.98611,1.23611,4.83333c0.458333,1.875,0.902778,3.75,1.36111,5.65278c0.444444,1.93056,0.847222,3.76389,1.20833,5.51389c0.347222,1.76389,0.625,3.20833,0.777778,4.375l0.361111,0c0.138889,-1.02778,0.305556,-2.45833,0.583333,-4.19444c0.277778,-1.75,0.583333,-3.68056,0.930556,-5.76389c0.347222,-2.06944,0.75,-4.25,1.16667,-6.44444c0.416667,-2.18056,0.861111,-4.25,1.30556,-6.11111L7160.68,14549.9l11.2361,0l-17.1389,66.2639L7141.79,14616.2L7141.79,14616.2z"/>
   <path fill="#8C8C8C"  d="M7182.83,14532c0,-2.43056,0.625,-4.16667,1.84722,-5.26389c1.22222,-1.08333,2.73611,-1.625,4.55556,-1.625c0.875,0,1.70833,0.152778,2.51389,0.388889c0.777778,0.263889,1.44444,0.680556,2.04167,1.23611c0.583333,0.569444,1.04167,1.27778,1.40278,2.13889c0.319444,0.875,0.513889,1.90278,0.513889,3.11111c0,2.33333,-0.625,4.06944,-1.91667,5.22222c-1.27778,1.15278,-2.77778,1.70833,-4.54167,1.70833c-1.81944,0,-3.33333,-0.555556,-4.55556,-1.66667C7183.47,14536.1,7182.83,14534.3,7182.83,14532zM7194.67,14616.2l-10.9861,0L7183.68,14549.9l10.9861,0L7194.67,14616.2z"/>
   <path fill="#8C8C8C"  d="M7235.72,14608.4c0.722222,0,1.54167,-0.0416667,2.44444,-0.138889c0.916667,-0.0833333,1.77778,-0.180556,2.625,-0.291667c0.847222,-0.125,1.61111,-0.263889,2.31944,-0.430556c0.708333,-0.152778,1.23611,-0.291667,1.59722,-0.388889l0,8.33333c-0.513889,0.236111,-1.18056,0.486111,-2,0.722222c-0.819444,0.25,-1.69444,0.458333,-2.65278,0.638889c-0.944444,0.208333,-1.97222,0.305556,-3.01389,0.416667s-2.05556,0.152778,-3.06944,0.152778c-2.5,0,-4.81944,-0.291667,-6.94444,-0.944444c-2.125,-0.666667,-3.97222,-1.75,-5.51389,-3.31944c-1.54167,-1.55556,-2.75,-3.70833,-3.65278,-6.36111c-0.875,-2.66667,-1.31944,-6.06944,-1.31944,-10.125L7216.54,14558.2l-9.36111,0L7207.18,14553.3l9.34722,-4.70833l4.70833,-13.875l6.33333,0l0,15.2222l16.6528,0l0,8.27778l-16.6528,0l0,38.4583c0,3.90278,0.625,6.83333,1.90278,8.83333C7230.75,14607.4,7232.82,14608.4,7235.72,14608.4z"/>
   <path fill="#8C8C8C"  d="M7298.99,14616.2l0,-42.6806c0,-5.23611,-1.05556,-9.15278,-3.16667,-11.7778c-2.11111,-2.61111,-5.43056,-3.91667,-9.93056,-3.91667c-3.25,0,-6.01389,0.513889,-8.22222,1.54167c-2.19444,1.05556,-3.97222,2.61111,-5.33333,4.66667c-1.34722,2.05556,-2.30556,4.55556,-2.88889,7.55556c-0.583333,2.97222,-0.875,6.40278,-0.875,10.2639l0,34.3472l-10.9861,0L7257.58,14522.3l10.9861,0l0,27.8889l-0.472222,8.69444l0.611111,0c1,-1.72222,2.19444,-3.22222,3.58333,-4.48611s2.90278,-2.31944,4.55556,-3.18056c1.63889,-0.847222,3.40278,-1.44444,5.25,-1.875c1.84722,-0.375,3.75,-0.597222,5.66667,-0.597222c7.375,0,12.9167,1.93056,16.6389,5.77778c3.72222,3.81944,5.56944,9.98611,5.56944,18.4167l0,43.2917L7298.99,14616.2L7298.99,14616.2z"/>
  </g>
  <g >
   <path fill="#8C8C8C"  d="M7601.21,14616l-18.3889,0L7582.82,14527.7l50.5833,0l0,15.3333l-32.1667,0l0,22.7639l29.9444,0l0,15.2778l-29.9444,0L7601.21,14616L7601.21,14616z"/>
   <path fill="#8C8C8C"  d="M7685,14547.2c0.486111,0,1.02778,0.0277778,1.61111,0.0277778c0.583333,0.0277778,1.15278,0.0833333,1.66667,0.138889c0.569444,0.0694444,1.05556,0.125,1.52778,0.194444c0.430556,0.0555556,0.819444,0.138889,1.04167,0.222222l0,17.2778c-0.305556,-0.111111,-0.777778,-0.166667,-1.31944,-0.25c-0.555556,-0.0972222,-1.15278,-0.166667,-1.77778,-0.25c-0.625,-0.0555556,-1.25,-0.0833333,-1.84722,-0.111111c-0.611111,-0.0277778,-1.11111,-0.0277778,-1.5,-0.0277778c-2.375,0,-4.55556,0.291667,-6.55556,0.888889c-2.02778,0.597222,-3.73611,1.56944,-5.13889,2.93056s-2.54167,3.125,-3.31944,5.31944c-0.791667,2.18056,-1.16667,4.88889,-1.16667,8.06944l0,34.3611l-18.4167,0L7649.81,14548.5l13.9583,0l2.69444,10.1389l0.916667,0c0.944444,-1.73611,2.01389,-3.30556,3.13889,-4.72222c1.125,-1.43056,2.38889,-2.625,3.77778,-3.59722c1.38889,-0.986111,2.94444,-1.75,4.69444,-2.29167C7680.74,14547.5,7682.76,14547.2,7685,14547.2z"/>
   <path fill="#8C8C8C"  d="M7703.31,14531c0,-1.73611,0.25,-3.16667,0.777778,-4.31944c0.527778,-1.16667,1.23611,-2.08333,2.13889,-2.77778c0.902778,-0.708333,1.97222,-1.19444,3.18056,-1.47222c1.22222,-0.277778,2.55556,-0.416667,3.90278,-0.416667c1.375,0,2.65278,0.138889,3.84722,0.416667c1.22222,0.277778,2.27778,0.763889,3.18056,1.47222c0.916667,0.694444,1.625,1.61111,2.16667,2.77778c0.555556,1.15278,0.819444,2.58333,0.819444,4.31944c0,1.69444,-0.263889,3.125,-0.819444,4.29167c-0.541667,1.16667,-1.25,2.09722,-2.16667,2.81944c-0.875,0.694444,-1.97222,1.19444,-3.18056,1.5c-1.19444,0.291667,-2.5,0.444444,-3.84722,0.444444c-1.375,0,-2.65278,-0.166667,-3.90278,-0.444444c-1.22222,-0.291667,-2.27778,-0.819444,-3.18056,-1.5c-0.902778,-0.708333,-1.61111,-1.65278,-2.13889,-2.81944C7703.57,14534.2,7703.31,14532.7,7703.31,14531zM7722.5,14616l-18.4028,0L7704.1,14548.5l18.4028,0L7722.5,14616z"/>
   <path fill="#8C8C8C"  d="M7769.85,14602.5c1.80556,0,3.52778,-0.222222,5.15278,-0.625c1.625,-0.375,3.26389,-0.888889,4.95833,-1.48611l0,13.6944c-1.72222,0.875,-3.86111,1.61111,-6.43056,2.18056c-2.55556,0.583333,-5.34722,0.875,-8.375,0.875c-2.93056,0,-5.66667,-0.333333,-8.19444,-1.01389c-2.56944,-0.694444,-4.75,-1.90278,-6.61111,-3.59722c-1.84722,-1.70833,-3.29167,-4,-4.34722,-6.875c-1.06944,-2.88889,-1.58333,-6.5,-1.58333,-10.8472L7744.42,14562.3l-8.83333,0L7735.58,14554.5l10.125,-6.15278l5.31944,-14.2222l11.7778,0l0,14.3611l16.4444,0l0,13.8194l-16.4444,0l0,32.5417c0,2.61111,0.666667,4.54167,1.95833,5.79167C7766.06,14601.9,7767.75,14602.5,7769.85,14602.5z"/>
   <path fill="#8C8C8C"  d="M7837.53,14616L7787.9,14616l0,-10.8472l27.5694,-42.5556l-25.7361,0L7789.74,14548.5l46.5972,0l0,11.9306l-26.6667,41.4583l27.8333,0L7837.53,14616L7837.53,14616z"/>
   <path fill="#8C8C8C"  d="M7850.57,14531c0,-1.73611,0.277778,-3.16667,0.791667,-4.31944c0.527778,-1.16667,1.25,-2.08333,2.125,-2.77778c0.902778,-0.708333,2,-1.19444,3.19444,-1.47222s2.52778,-0.416667,3.88889,-0.416667c1.36111,0,2.63889,0.138889,3.84722,0.416667c1.22222,0.277778,2.27778,0.763889,3.18056,1.47222c0.888889,0.694444,1.625,1.61111,2.16667,2.77778c0.527778,1.15278,0.819444,2.58333,0.819444,4.31944c0,1.69444,-0.291667,3.125,-0.819444,4.29167c-0.541667,1.16667,-1.27778,2.09722,-2.16667,2.81944c-0.888889,0.694444,-1.98611,1.19444,-3.18056,1.5c-1.19444,0.291667,-2.5,0.444444,-3.84722,0.444444c-1.375,0,-2.66667,-0.166667,-3.88889,-0.444444c-1.22222,-0.291667,-2.29167,-0.819444,-3.19444,-1.5c-0.875,-0.708333,-1.59722,-1.65278,-2.125,-2.81944C7850.83,14534.2,7850.57,14532.7,7850.57,14531zM7869.76,14616L7851.38,14616L7851.38,14548.5l18.3889,0L7869.76,14616z"/>
   <path fill="#8C8C8C"  d="M7948.24,14616L7929.85,14616l0,-39.4306c0,-4.875,-0.736111,-8.51389,-2.19444,-10.9306c-1.45833,-2.44444,-3.80556,-3.68056,-7.05556,-3.68056c-2.40278,0,-4.40278,0.486111,-6.02778,1.44444c-1.61111,0.972222,-2.90278,2.40278,-3.83333,4.30556c-0.916667,1.88889,-1.59722,4.22222,-2.02778,7c-0.402778,2.77778,-0.597222,5.95833,-0.597222,9.54167l0,31.75L7889.71,14616L7889.71,14548.5l14.0556,0l2.51389,8.625l1.01389,0c0.958333,-1.72222,2.125,-3.19444,3.51389,-4.45833c1.41667,-1.23611,2.91667,-2.26389,4.55556,-3.06944s3.40278,-1.43056,5.25,-1.77778c1.88889,-0.388889,3.76389,-0.597222,5.68056,-0.597222c3.29167,0,6.30556,0.458333,8.98611,1.44444c2.69444,0.930556,5,2.41667,6.94444,4.41667c1.95833,2.02778,3.43056,4.55556,4.45833,7.70833c1.04167,3.125,1.56944,6.83333,1.56944,11.2083l0,44L7948.24,14616L7948.24,14616z"/>
   <path fill="#8C8C8C"  d="M8023.65,14548.6l0,10.0278l-9.83333,3.06944c0.819444,1.38889,1.38889,2.79167,1.69444,4.27778c0.291667,1.47222,0.458333,3.05556,0.458333,4.76389c0,3.41667,-0.541667,6.54167,-1.61111,9.38889c-1.08333,2.81944,-2.68056,5.26389,-4.84722,7.25c-2.11111,2.02778,-4.80556,3.58333,-8.02778,4.68056c-3.19444,1.11111,-6.94444,1.65278,-11.2222,1.65278c-0.930556,0,-1.95833,-0.0416667,-3.02778,-0.166667c-1.08333,-0.0972222,-1.90278,-0.208333,-2.43056,-0.291667c-0.791667,0.680556,-1.44444,1.40278,-1.90278,2.11111c-0.458333,0.75,-0.680556,1.625,-0.680556,2.68056c0,0.847222,0.25,1.5,0.777778,2.02778s1.20833,0.902778,2.04167,1.20833c0.833333,0.305556,1.84722,0.5,2.97222,0.611111s2.29167,0.166667,3.48611,0.166667l10.5,0c3.27778,0,6.19444,0.347222,8.76389,1.125c2.58333,0.763889,4.75,1.875,6.55556,3.41667c1.79167,1.51389,3.18056,3.45833,4.15278,5.81944c0.958333,2.34722,1.44444,5.16667,1.44444,8.40278c0,3.81944,-0.75,7.26389,-2.27778,10.3472c-1.51389,3.11111,-3.80556,5.69444,-6.86111,7.84722c-3.04167,2.13889,-6.77778,3.79167,-11.2917,4.93056c-4.5,1.13889,-9.70833,1.70833,-15.6389,1.70833c-4.56944,0,-8.58333,-0.430556,-12,-1.30556c-3.43056,-0.875,-6.26389,-2.08333,-8.56944,-3.75c-2.29167,-1.61111,-4,-3.58333,-5.15278,-5.88889c-1.16667,-2.27778,-1.73611,-4.90278,-1.73611,-7.79167c0,-2.45833,0.430556,-4.58333,1.29167,-6.38889c0.847222,-1.81944,1.98611,-3.375,3.375,-4.66667c1.41667,-1.29167,3.02778,-2.33333,4.81944,-3.15278c1.79167,-0.805556,3.63889,-1.43056,5.5,-1.86111c-0.847222,-0.361111,-1.66667,-0.875,-2.51389,-1.51389c-0.819444,-0.652778,-1.56944,-1.38889,-2.23611,-2.20833c-0.652778,-0.875,-1.19444,-1.79167,-1.61111,-2.81944c-0.430556,-1,-0.652778,-2.08333,-0.652778,-3.19444c0,-1.29167,0.208333,-2.47222,0.555556,-3.5c0.402778,-1.05556,0.944444,-2.02778,1.66667,-2.94444c0.722222,-0.888889,1.625,-1.75,2.72222,-2.55556c1.08333,-0.833333,2.30556,-1.625,3.66667,-2.5c-3.52778,-1.52778,-6.33333,-3.98611,-8.38889,-7.36111c-2.08333,-3.38889,-3.125,-7.34722,-3.125,-11.9306c0,-3.61111,0.555556,-6.86111,1.68056,-9.70833c1.125,-2.875,2.77778,-5.29167,4.94444,-7.26389c2.15278,-2,4.86111,-3.5,8.08333,-4.55556c3.20833,-1.05556,6.93056,-1.56944,11.125,-1.56944c0.791667,0,1.69444,0.0555556,2.69444,0.166667s2.01389,0.25,3,0.347222c0.972222,0.138889,1.90278,0.291667,2.72222,0.458333c0.847222,0.138889,1.51389,0.291667,2.02778,0.402778L8023.65,14548.6L8023.65,14548.6zM7975.36,14625.5c0,1.01389,0.236111,2.01389,0.652778,2.93056c0.416667,0.944444,1.11111,1.79167,2.08333,2.52778c0.944444,0.722222,2.22222,1.30556,3.77778,1.72222c1.56944,0.416667,3.5,0.638889,5.79167,0.638889c6.27778,0,11,-0.875,14.1806,-2.65278c3.18056,-1.76389,4.76389,-4.13889,4.76389,-7.13889c0,-2.54167,-0.972222,-4.22222,-2.95833,-5.05556c-1.98611,-0.833333,-5.01389,-1.26389,-9.16667,-1.26389l-8.51389,0c-1.06944,0,-2.25,0.125,-3.5,0.375c-1.25,0.25,-2.38889,0.722222,-3.44444,1.375c-1.04167,0.638889,-1.93056,1.5,-2.61111,2.55556S7975.36,14623.9,7975.36,14625.5zM7982.01,14570.6c0,3.65278,0.680556,6.5,2.04167,8.5c1.36111,2.02778,3.44444,3.01389,6.20833,3.01389c2.90278,0,4.97222,-0.972222,6.26389,-3.01389c1.30556,-2.01389,1.94444,-4.86111,1.94444,-8.5c0,-3.625,-0.638889,-6.5,-1.90278,-8.63889c-1.27778,-2.11111,-3.375,-3.18056,-6.30556,-3.18056C7984.75,14558.8,7982.01,14562.7,7982.01,14570.6z"/>
   <path fill="#8C8C8C"  d="M8034.07,14607.3c0,-1.88889,0.277778,-3.48611,0.819444,-4.80556c0.555556,-1.31944,1.30556,-2.38889,2.26389,-3.18056c0.958333,-0.805556,2.06944,-1.40278,3.38889,-1.75c1.27778,-0.361111,2.65278,-0.541667,4.15278,-0.541667c1.41667,0,2.75,0.180556,4.01389,0.541667c1.27778,0.347222,2.38889,0.944444,3.36111,1.75c0.944444,0.791667,1.70833,1.86111,2.26389,3.18056c0.569444,1.31944,0.861111,2.91667,0.861111,4.80556c0,1.80556,-0.291667,3.36111,-0.861111,4.65278c-0.555556,1.29167,-1.31944,2.36111,-2.26389,3.18056c-0.972222,0.861111,-2.08333,1.44444,-3.36111,1.84722c-1.26389,0.375,-2.61111,0.583333,-4.01389,0.583333c-1.47222,0,-2.875,-0.208333,-4.15278,-0.583333c-1.31944,-0.375,-2.43056,-0.986111,-3.38889,-1.84722c-0.958333,-0.847222,-1.70833,-1.91667,-2.26389,-3.18056C8034.32,14610.7,8034.07,14609.2,8034.07,14607.3z"/>
   <path fill="#8C8C8C"  d="M8130.72,14582.1c0,5.63889,-0.722222,10.6528,-2.125,14.9861c-1.44444,4.34722,-3.48611,8,-6.15278,10.9722c-2.66667,2.98611,-5.94444,5.25,-9.77778,6.79167c-3.84722,1.54167,-8.15278,2.31944,-12.9583,2.31944c-4.45833,0,-8.56944,-0.777778,-12.3056,-2.31944c-3.76389,-1.55556,-6.98611,-3.80556,-9.69444,-6.79167c-2.70833,-2.97222,-4.86111,-6.65278,-6.36111,-10.9722c-1.52778,-4.34722,-2.29167,-9.34722,-2.29167,-14.9861c0,-5.58333,0.708333,-10.5556,2.13889,-14.8889c1.43056,-4.36111,3.47222,-8,6.13889,-10.9583C8080,14553.3,8083.25,14551,8087.07,14549.5s8.15278,-2.27778,13.0139,-2.27778c4.43056,0,8.54167,0.763889,12.3056,2.27778c3.75,1.54167,6.97222,3.76389,9.65278,6.72222c2.73611,2.95833,4.875,6.625,6.375,10.9583C8129.95,14571.5,8130.72,14576.5,8130.72,14582.1zM8087.86,14582.1c0,6.72222,0.944444,11.8194,2.84722,15.1806c1.90278,3.41667,4.95833,5.11111,9.22222,5.11111c4.25,0,7.27778,-1.70833,9.16667,-5.13889c1.90278,-3.40278,2.84722,-8.44444,2.84722,-15.1528s-0.944444,-11.75,-2.84722,-15.0556c-1.88889,-3.30556,-4.97222,-4.95833,-9.27778,-4.95833c-4.23611,0,-7.26389,1.65278,-9.15278,4.95833C8088.79,14570.4,8087.86,14575.4,8087.86,14582.1z"/>
   <path fill="#8C8C8C"  d="M8182.39,14547.2c0.486111,0,1.01389,0.0277778,1.59722,0.0277778c0.583333,0.0277778,1.15278,0.0833333,1.66667,0.138889c0.555556,0.0694444,1.05556,0.125,1.51389,0.194444c0.458333,0.0555556,0.819444,0.138889,1.05556,0.222222l0,17.2778c-0.319444,-0.111111,-0.763889,-0.166667,-1.31944,-0.25c-0.569444,-0.0972222,-1.15278,-0.166667,-1.80556,-0.25c-0.625,-0.0555556,-1.23611,-0.0833333,-1.83333,-0.111111c-0.625,-0.0277778,-1.11111,-0.0277778,-1.5,-0.0277778c-2.375,0,-4.55556,0.291667,-6.56944,0.888889c-2,0.597222,-3.70833,1.56944,-5.13889,2.93056c-1.41667,1.36111,-2.52778,3.125,-3.29167,5.31944c-0.805556,2.18056,-1.16667,4.88889,-1.16667,8.06944l0,34.3611l-18.4167,0L8147.18,14548.5l13.9444,0l2.70833,10.1389l0.902778,0c0.944444,-1.73611,2.02778,-3.30556,3.13889,-4.72222c1.125,-1.43056,2.38889,-2.625,3.76389,-3.59722c1.40278,-0.986111,2.95833,-1.75,4.70833,-2.29167C8178.14,14547.5,8180.14,14547.2,8182.39,14547.2z"/>
   <path fill="#8C8C8C"  d="M8256.11,14548.6l0,10.0278l-9.83333,3.06944c0.805556,1.38889,1.375,2.79167,1.68056,4.27778s0.472222,3.05556,0.472222,4.76389c0,3.41667,-0.541667,6.54167,-1.61111,9.38889c-1.09722,2.81944,-2.69444,5.26389,-4.84722,7.25c-2.125,2.02778,-4.83333,3.58333,-8.02778,4.68056c-3.22222,1.11111,-6.95833,1.65278,-11.2361,1.65278c-0.930556,0,-1.95833,-0.0416667,-3.04167,-0.166667c-1.08333,-0.0972222,-1.875,-0.208333,-2.40278,-0.291667c-0.805556,0.680556,-1.44444,1.40278,-1.90278,2.11111c-0.472222,0.75,-0.694444,1.625,-0.694444,2.68056c0,0.847222,0.263889,1.5,0.791667,2.02778c0.513889,0.513889,1.19444,0.902778,2.02778,1.20833c0.861111,0.291667,1.84722,0.5,2.98611,0.611111c1.11111,0.111111,2.27778,0.166667,3.48611,0.166667l10.5,0c3.25,0,6.18056,0.347222,8.75,1.125c2.58333,0.763889,4.76389,1.875,6.55556,3.41667c1.79167,1.51389,3.18056,3.45833,4.13889,5.81944c0.972222,2.34722,1.44444,5.16667,1.44444,8.40278c0,3.81944,-0.75,7.26389,-2.29167,10.3472c-1.51389,3.11111,-3.81944,5.69444,-6.84722,7.84722c-3.04167,2.13889,-6.79167,3.79167,-11.3194,4.93056c-4.48611,1.13889,-9.69444,1.70833,-15.625,1.70833c-4.56944,0,-8.56944,-0.430556,-12,-1.30556c-3.41667,-0.875,-6.26389,-2.08333,-8.56944,-3.75c-2.27778,-1.61111,-3.98611,-3.58333,-5.15278,-5.88889c-1.15278,-2.27778,-1.72222,-4.90278,-1.72222,-7.79167c0,-2.45833,0.416667,-4.58333,1.26389,-6.38889c0.875,-1.81944,2,-3.375,3.38889,-4.66667c1.43056,-1.29167,3.01389,-2.33333,4.80556,-3.15278c1.79167,-0.805556,3.65278,-1.43056,5.52778,-1.86111c-0.861111,-0.361111,-1.68056,-0.875,-2.52778,-1.51389c-0.833333,-0.652778,-1.56944,-1.38889,-2.22222,-2.20833c-0.652778,-0.875,-1.20833,-1.79167,-1.625,-2.81944c-0.416667,-1.01389,-0.625,-2.09722,-0.625,-3.20833c0,-1.29167,0.194444,-2.47222,0.555556,-3.5c0.375,-1.05556,0.930556,-2.02778,1.66667,-2.94444c0.708333,-0.888889,1.625,-1.75,2.69444,-2.55556c1.08333,-0.833333,2.30556,-1.625,3.69444,-2.5c-3.54167,-1.51389,-6.33333,-3.98611,-8.41667,-7.34722c-2.05556,-3.38889,-3.09722,-7.375,-3.09722,-11.9583c0,-3.61111,0.541667,-6.84722,1.68056,-9.69444c1.125,-2.875,2.76389,-5.30556,4.91667,-7.27778c2.16667,-1.98611,4.875,-3.5,8.09722,-4.55556c3.20833,-1.02778,6.93056,-1.54167,11.1111,-1.54167c0.819444,0,1.70833,0.0416667,2.70833,0.152778s2.02778,0.236111,2.98611,0.361111c1,0.125,1.91667,0.291667,2.75,0.430556c0.861111,0.166667,1.5,0.291667,2.01389,0.416667L8256.11,14548.6L8256.11,14548.6zM8207.83,14625.5c0,1.01389,0.236111,2.01389,0.638889,2.93056c0.430556,0.944444,1.125,1.79167,2.06944,2.52778c0.972222,0.722222,2.23611,1.30556,3.79167,1.72222c1.58333,0.416667,3.5,0.638889,5.80556,0.638889c6.26389,0,11,-0.875,14.1806,-2.65278c3.18056,-1.76389,4.76389,-4.13889,4.76389,-7.13889c0,-2.54167,-0.986111,-4.22222,-2.97222,-5.05556s-5.01389,-1.26389,-9.16667,-1.26389l-8.5,0c-1.09722,0,-2.26389,0.125,-3.5,0.375c-1.25,0.263889,-2.40278,0.722222,-3.44444,1.375c-1.05556,0.638889,-1.93056,1.5,-2.61111,2.55556C8208.19,14622.6,8207.83,14623.9,8207.83,14625.5zM8214.46,14570.6c0,3.65278,0.680556,6.5,2.05556,8.5c1.375,2.02778,3.44444,3.01389,6.20833,3.01389c2.90278,0,4.97222,-0.972222,6.26389,-3.01389c1.30556,-2.01389,1.95833,-4.86111,1.95833,-8.5c0,-3.625,-0.638889,-6.5,-1.91667,-8.63889c-1.27778,-2.11111,-3.375,-3.18056,-6.30556,-3.18056C8217.21,14558.8,8214.46,14562.7,8214.46,14570.6z"/>
  </g>
  <g >
   <path fill="#8C8C8C"  d="M7500.47,14508.6l-113.139,0c-7.38889,0,-13.4028,6,-13.4028,13.3889l0,113.139c0,7.375,6.01389,13.3889,13.4028,13.3889l77.0833,0l49.4028,-49.4167L7513.82,14522C7513.86,14514.6,7507.86,14508.6,7500.47,14508.6zM7477.18,14560.4l-14.9306,0l0,5.56944l14.9306,0l0,22.2361l-30.5,0l0,28.5833l-35.7222,0l0,-64.8611l13.7222,-13.75l52.4861,0l0,22.2639l0.0138889,0L7477.18,14560.4z"/>
  </g>
 </g>
 <g partID="21590">
  <g transform="translate(5466.57,2539.77)">
   <g transform="matrix(1,0,0,-1,0,0)">
    <g transform="matrix(1, 0, 0, 1, 250, 0)">
     <g id="schematic">
      <g transform="matrix(1, 0, 0, 1, -250, 0)">
       <g>
        <rect width="26.3056" x="592.125" y="17.1806" height="135.875" id="connector1pin"/>
        <g width="12.0278" x="599.194" y="12.1667" height="9.5" id="connector1terminal"/>
        <rect width="28.0972" x="582.889" y="730.111" height="135.847" id="connector2pin"/>
        <g width="12.0417" x="597.222" y="862.931" height="9.52778" id="connector2terminal"/>
        <rect width="135.847" x="28.5694" y="427.042" height="26.3056" id="connector0pin"/>
        <g width="9.52778" x="22.0972" y="434.278" height="12.0417" id="connector0terminal"/>
       </g>
      </g>
      <g transform="matrix(1, 0, 0, 1, -6.44444, 0)">
       <g id="g10">
        <path id="path12" d="M339.778,859.847L339.778,611.167c0,-8.54167,6.91667,-15.4306,15.4444,-15.4306l0,0c8.54167,0,15.4583,6.88889,15.4583,15.4306l0,0l0,248.681c0,8.52778,-6.91667,15.4444,-15.4583,15.4444l0,0C346.694,875.292,339.778,868.375,339.778,859.847L339.778,859.847z"/>
       </g>
      </g>
      <g id="g14">
       <path id="path16" d="M339.764,274.986L339.764,24.1944c0,-8.55556,6.91667,-15.4722,15.4861,-15.4722l0,0c8.52778,0,15.4444,6.91667,15.4444,15.4722l0,0l0,250.792c0,8.54167,-6.91667,15.4583,-15.4444,15.4583l0,0C346.681,290.444,339.764,283.528,339.764,274.986L339.764,274.986z"/>
      </g>
      <g id="g18">
       <polygon points="162.319,588.597,162.319,296.736,193.264,296.736,193.264,588.597" id="polygon20"/>
      </g>
      <circle fill="none" cx="229.972" cy="441.764" stroke="#000000" id="circle22" r="207.681" stroke-width="25.6931"/>
      <g transform="matrix(1.03724, 0, 0, 1, 8.58376, 0)">
       <g id="g24">
        <path id="path26" d="M-213.125,458.333c-9.56944,0,-17.3472,-7.76389,-17.3472,-17.3194l0,0c0,-9.58333,7.77778,-17.3472,17.3472,-17.3472l0,0l356.639,0c9.56944,0,17.3472,7.76389,17.3472,17.3472l0,0c0,9.55556,-7.77778,17.3194,-17.3472,17.3194l0,0L-213.125,458.333L-213.125,458.333z"/>
       </g>
      </g>
      <g id="g28">
       <g id="g30">
        <path id="path32" d="M0,0"/>
       </g>
       <g transform="matrix(0.971221, 0, 0, 0.905517, 33.2824, 51.8371)">
        <g id="g34">
         <polygon points="132.347,463.917,150.639,443.014,258.958,537.806,240.667,558.708" id="polygon36"/>
        </g>
       </g>
       <g id="g38">
        <polygon points="287.222,501.389,360.014,622.264,230.528,566.181" id="polygon40"/>
       </g>
      </g>
      <g id="g42">
       <polygon points="166.736,413.361,348.222,265.056,363.625,284.597,182.111,432.889" id="polygon44"/>
      </g>
     </g>
    </g>
   </g>
  </g>
 </g>
 <g partID="21100">
  <g transform="translate(0,1048.22)">
   <g  id="schematic">
    <rect width="3248.03" x="311.942" y="311.942" fill="none"  height="12696.9" stroke="#000000" stroke-linejoin="round" stroke-linecap="round" stroke-width="33.3334"/>
    <text x="1935.96" y="902.493" font-family="Droid Sans" fill="#000000"  text-anchor="middle" stroke="none" id="label" font-size="250">Arduino</text>
    <text x="1935.96" y="1197.77" font-family="Droid Sans" fill="#000000"  text-anchor="middle" stroke="none" id="label" font-size="250">Mega</text>
    <text x="1935.96" y="1493.04" font-family="Droid Sans" fill="#000000"  text-anchor="middle" stroke="none" id="label" font-size="250">2560</text>
    <text x="1935.96" y="1788.32" font-family="Droid Sans" fill="#000000"  text-anchor="middle" stroke="none" id="label" font-size="250">(Rev3)</text>
    <line fill="none"  stroke="#000000" stroke-linejoin="round" stroke-linecap="round" y1="902.493" stroke-width="33.3334" x1="16.6667" y2="902.493" x2="295.277"/>
    <rect width="295.277" x="0" y="885.827" fill="none"  height="33.3333" id="connector256pin" stroke-width="0" connectorName="RESET"/>
    <g width="33.3334" x="0" y="885.827" fill="none"  height="33.3333" id="connector256terminal" stroke-width="0"/>
    <text x="385.277" y="935.827" font-family="Droid Sans" fill="#000000"  text-anchor="start" stroke="none" id="label256" font-size="138">RESET</text>
    <line fill="none"  stroke="#000000" stroke-linejoin="round" stroke-linecap="round" y1="1197.77" stroke-width="33.3334" x1="16.6667" y2="1197.77" x2="295.277"/>
    <rect width="295.277" x="0" y="1181.1" fill="none"  height="33.3333" id="connector236pin" stroke-width="0" connectorName="AREF"/>
    <g width="33.3334" x="0" y="1181.1" fill="none"  height="33.3333" id="connector236terminal" stroke-width="0"/>
    <text x="385.277" y="1231.1" font-family="Droid Sans" fill="#000000"  text-anchor="start" stroke="none" id="label236" font-size="138">AREF</text>
    <line fill="none"  stroke="#000000" stroke-linejoin="round" stroke-linecap="round" y1="1493.04" stroke-width="33.3334" x1="16.6667" y2="1493.04" x2="295.277"/>
    <rect width="295.277" x="0" y="1476.38" fill="none"  height="33.3333" id="connector254pin" stroke-width="0" connectorName="IOREF"/>
    <g width="33.3334" x="0" y="1476.38" fill="none"  height="33.3333" id="connector254terminal" stroke-width="0"/>
    <text x="385.277" y="1526.38" font-family="Droid Sans" fill="#000000"  text-anchor="start" stroke="none" id="label254" font-size="138">IOREF</text>
    <line fill="none"  stroke="#000000" stroke-linejoin="round" stroke-linecap="round" y1="1788.32" stroke-width="33.3334" x1="16.6667" y2="1788.32" x2="295.277"/>
    <rect width="295.277" x="0" y="1771.65" fill="none"  height="33.3333" id="connector255pin" stroke-width="0" connectorName="IOREF"/>
    <g width="33.3334" x="0" y="1771.65" fill="none"  height="33.3333" id="connector255terminal" stroke-width="0"/>
    <text x="385.277" y="1821.65" font-family="Droid Sans" fill="#000000"  text-anchor="start" stroke="none" id="label255" font-size="138">IOREF</text>
    <line fill="none"  stroke="#000000" stroke-linejoin="round" stroke-linecap="round" y1="2378.88" stroke-width="33.3334" x1="16.6667" y2="2378.88" x2="295.277"/>
    <rect width="295.277" x="0" y="2362.2" fill="none"  height="33.3333" id="connector8pin" stroke-width="0" connectorName="A0"/>
    <g width="33.3334" x="0" y="2362.2" fill="none"  height="33.3333" id="connector8terminal" stroke-width="0"/>
    <text x="385.277" y="2412.2" font-family="Droid Sans" fill="#000000"  text-anchor="start" stroke="none" id="label8" font-size="138">A0</text>
    <line fill="none"  stroke="#000000" stroke-linejoin="round" stroke-linecap="round" y1="2674.15" stroke-width="33.3334" x1="16.6667" y2="2674.15" x2="295.277"/>
    <rect width="295.277" x="0" y="2657.49" fill="none"  height="33.3333" id="connector9pin" stroke-width="0" connectorName="A1"/>
    <g width="33.3334" x="0" y="2657.49" fill="none"  height="33.3333" id="connector9terminal" stroke-width="0"/>
    <text x="385.277" y="2707.49" font-family="Droid Sans" fill="#000000"  text-anchor="start" stroke="none" id="label9" font-size="138">A1</text>
    <line fill="none"  stroke="#000000" stroke-linejoin="round" stroke-linecap="round" y1="2969.42" stroke-width="33.3334" x1="16.6667" y2="2969.42" x2="295.277"/>
    <rect width="295.277" x="0" y="2952.77" fill="none"  height="33.3333" id="connector10pin" stroke-width="0" connectorName="A2"/>
    <g width="33.3334" x="0" y="2952.77" fill="none"  height="33.3333" id="connector10terminal" stroke-width="0"/>
    <text x="385.277" y="3002.77" font-family="Droid Sans" fill="#000000"  text-anchor="start" stroke="none" id="label10" font-size="138">A2</text>
    <line fill="none"  stroke="#000000" stroke-linejoin="round" stroke-linecap="round" y1="3264.7" stroke-width="33.3334" x1="16.6667" y2="3264.7" x2="295.277"/>
    <rect width="295.277" x="0" y="3248.03" fill="none"  height="33.3333" id="connector11pin" stroke-width="0" connectorName="A3"/>
    <g width="33.3334" x="0" y="3248.03" fill="none"  height="33.3333" id="connector11terminal" stroke-width="0"/>
    <text x="385.277" y="3298.03" font-family="Droid Sans" fill="#000000"  text-anchor="start" stroke="none" id="label11" font-size="138">A3</text>
    <line fill="none"  stroke="#000000" stroke-linejoin="round" stroke-linecap="round" y1="3559.97" stroke-width="33.3334" x1="16.6667" y2="3559.97" x2="295.277"/>
    <rect width="295.277" x="0" y="3543.31" fill="none"  height="33.3333" id="connector12pin" stroke-width="0" connectorName="A4"/>
    <g width="33.3334" x="0" y="3543.31" fill="none"  height="33.3333" id="connector12terminal" stroke-width="0"/>
    <text x="385.277" y="3593.31" font-family="Droid Sans" fill="#000000"  text-anchor="start" stroke="none" id="label12" font-size="138">A4</text>
    <line fill="none"  stroke="#000000" stroke-linejoin="round" stroke-linecap="round" y1="3855.25" stroke-width="33.3334" x1="16.6667" y2="3855.25" x2="295.277"/>
    <rect width="295.277" x="0" y="3838.58" fill="none"  height="33.3333" id="connector13pin" stroke-width="0" connectorName="A5"/>
    <g width="33.3334" x="0" y="3838.58" fill="none"  height="33.3333" id="connector13terminal" stroke-width="0"/>
    <text x="385.277" y="3888.58" font-family="Droid Sans" fill="#000000"  text-anchor="start" stroke="none" id="label13" font-size="138">A5</text>
    <line fill="none"  stroke="#000000" stroke-linejoin="round" stroke-linecap="round" y1="4445.81" stroke-width="33.3334" x1="16.6667" y2="4445.81" x2="295.277"/>
    <rect width="295.277" x="0" y="4429.13" fill="none"  height="33.3333" id="connector14pin" stroke-width="0" connectorName="A6"/>
    <g width="33.3334" x="0" y="4429.13" fill="none"  height="33.3333" id="connector14terminal" stroke-width="0"/>
    <text x="385.277" y="4479.13" font-family="Droid Sans" fill="#000000"  text-anchor="start" stroke="none" id="label14" font-size="138">A6</text>
    <line fill="none"  stroke="#000000" stroke-linejoin="round" stroke-linecap="round" y1="4741.09" stroke-width="33.3334" x1="16.6667" y2="4741.09" x2="295.277"/>
    <rect width="295.277" x="0" y="4724.42" fill="none"  height="33.3333" id="connector15pin" stroke-width="0" connectorName="A7"/>
    <g width="33.3334" x="0" y="4724.42" fill="none"  height="33.3333" id="connector15terminal" stroke-width="0"/>
    <text x="385.277" y="4774.42" font-family="Droid Sans" fill="#000000"  text-anchor="start" stroke="none" id="label15" font-size="138">A7</text>
    <line fill="none"  stroke="#000000" stroke-linejoin="round" stroke-linecap="round" y1="5036.35" stroke-width="33.3334" x1="16.6667" y2="5036.35" x2="295.277"/>
    <rect width="295.277" x="0" y="5019.7" fill="none"  height="33.3333" id="connector0pin" stroke-width="0" connectorName="A8"/>
    <g width="33.3334" x="0" y="5019.7" fill="none"  height="33.3333" id="connector0terminal" stroke-width="0"/>
    <text x="385.277" y="5069.7" font-family="Droid Sans" fill="#000000"  text-anchor="start" stroke="none" id="label0" font-size="138">A8</text>
    <line fill="none"  stroke="#000000" stroke-linejoin="round" stroke-linecap="round" y1="5331.63" stroke-width="33.3334" x1="16.6667" y2="5331.63" x2="295.277"/>
    <rect width="295.277" x="0" y="5314.96" fill="none"  height="33.3333" id="connector1pin" stroke-width="0" connectorName="A9"/>
    <g width="33.3334" x="0" y="5314.96" fill="none"  height="33.3333" id="connector1terminal" stroke-width="0"/>
    <text x="385.277" y="5364.96" font-family="Droid Sans" fill="#000000"  text-anchor="start" stroke="none" id="label1" font-size="138">A9</text>
    <line fill="none"  stroke="#000000" stroke-linejoin="round" stroke-linecap="round" y1="5626.91" stroke-width="33.3334" x1="16.6667" y2="5626.91" x2="295.277"/>
    <rect width="295.277" x="0" y="5610.24" fill="none"  height="33.3333" id="connector2pin" stroke-width="0" connectorName="A10"/>
    <g width="33.3334" x="0" y="5610.24" fill="none"  height="33.3333" id="connector2terminal" stroke-width="0"/>
    <text x="385.277" y="5660.24" font-family="Droid Sans" fill="#000000"  text-anchor="start" stroke="none" id="label2" font-size="138">A10</text>
    <line fill="none"  stroke="#000000" stroke-linejoin="round" stroke-linecap="round" y1="5922.18" stroke-width="33.3334" x1="16.6667" y2="5922.18" x2="295.277"/>
    <rect width="295.277" x="0" y="5905.52" fill="none"  height="33.3333" id="connector3pin" stroke-width="0" connectorName="A11"/>
    <g width="33.3334" x="0" y="5905.52" fill="none"  height="33.3333" id="connector3terminal" stroke-width="0"/>
    <text x="385.277" y="5955.52" font-family="Droid Sans" fill="#000000"  text-anchor="start" stroke="none" id="label3" font-size="138">A11</text>
    <line fill="none"  stroke="#000000" stroke-linejoin="round" stroke-linecap="round" y1="6217.45" stroke-width="33.3334" x1="16.6667" y2="6217.45" x2="295.277"/>
    <rect width="295.277" x="0" y="6200.79" fill="none"  height="33.3333" id="connector4pin" stroke-width="0" connectorName="A12"/>
    <g width="33.3334" x="0" y="6200.79" fill="none"  height="33.3333" id="connector4terminal" stroke-width="0"/>
    <text x="385.277" y="6250.79" font-family="Droid Sans" fill="#000000"  text-anchor="start" stroke="none" id="label4" font-size="138">A12</text>
    <line fill="none"  stroke="#000000" stroke-linejoin="round" stroke-linecap="round" y1="6512.74" stroke-width="33.3334" x1="16.6667" y2="6512.74" x2="295.277"/>
    <rect width="295.277" x="0" y="6496.06" fill="none"  height="33.3333" id="connector5pin" stroke-width="0" connectorName="A13"/>
    <g width="33.3334" x="0" y="6496.06" fill="none"  height="33.3333" id="connector5terminal" stroke-width="0"/>
    <text x="385.277" y="6546.06" font-family="Droid Sans" fill="#000000"  text-anchor="start" stroke="none" id="label5" font-size="138">A13</text>
    <line fill="none"  stroke="#000000" stroke-linejoin="round" stroke-linecap="round" y1="6808.02" stroke-width="33.3334" x1="16.6667" y2="6808.02" x2="295.277"/>
    <rect width="295.277" x="0" y="6791.34" fill="none"  height="33.3333" id="connector6pin" stroke-width="0" connectorName="A14"/>
    <g width="33.3334" x="0" y="6791.34" fill="none"  height="33.3333" id="connector6terminal" stroke-width="0"/>
    <text x="385.277" y="6841.34" font-family="Droid Sans" fill="#000000"  text-anchor="start" stroke="none" id="label6" font-size="138">A14</text>
    <line fill="none"  stroke="#000000" stroke-linejoin="round" stroke-linecap="round" y1="7103.28" stroke-width="33.3334" x1="16.6667" y2="7103.28" x2="295.277"/>
    <rect width="295.277" x="0" y="7086.61" fill="none"  height="33.3333" id="connector7pin" stroke-width="0" connectorName="A15"/>
    <g width="33.3334" x="0" y="7086.61" fill="none"  height="33.3333" id="connector7terminal" stroke-width="0"/>
    <text x="385.277" y="7136.61" font-family="Droid Sans" fill="#000000"  text-anchor="start" stroke="none" id="label7" font-size="138">A15</text>
    <line fill="none"  stroke="#000000" stroke-linejoin="round" stroke-linecap="round" y1="7989.11" stroke-width="33.3334" x1="16.6667" y2="7989.11" x2="295.277"/>
    <rect width="295.277" x="0" y="7972.45" fill="none"  height="33.3333" id="connector361pin" stroke-width="0" connectorName="D38"/>
    <g width="33.3334" x="0" y="7972.45" fill="none"  height="33.3333" id="connector361terminal" stroke-width="0"/>
    <text x="385.277" y="8022.45" font-family="Droid Sans" fill="#000000"  text-anchor="start" stroke="none" id="label361" font-size="138">D38</text>
    <line fill="none"  stroke="#000000" stroke-linejoin="round" stroke-linecap="round" y1="8284.38" stroke-width="33.3334" x1="16.6667" y2="8284.38" x2="295.277"/>
    <rect width="295.277" x="0" y="8267.73" fill="none"  height="33.3333" id="connector362pin" stroke-width="0" connectorName="D39"/>
    <g width="33.3334" x="0" y="8267.73" fill="none"  height="33.3333" id="connector362terminal" stroke-width="0"/>
    <text x="385.277" y="8317.73" font-family="Droid Sans" fill="#000000"  text-anchor="start" stroke="none" id="label362" font-size="138">D39</text>
    <line fill="none"  stroke="#000000" stroke-linejoin="round" stroke-linecap="round" y1="8579.67" stroke-width="33.3334" x1="16.6667" y2="8579.67" x2="295.277"/>
    <rect width="295.277" x="0" y="8562.99" fill="none"  height="33.3333" id="connector363pin" stroke-width="0" connectorName="D40"/>
    <g width="33.3334" x="0" y="8562.99" fill="none"  height="33.3333" id="connector363terminal" stroke-width="0"/>
    <text x="385.277" y="8612.99" font-family="Droid Sans" fill="#000000"  text-anchor="start" stroke="none" id="label363" font-size="138">D40</text>
    <line fill="none"  stroke="#000000" stroke-linejoin="round" stroke-linecap="round" y1="8874.93" stroke-width="33.3334" x1="16.6667" y2="8874.93" x2="295.277"/>
    <rect width="295.277" x="0" y="8858.27" fill="none"  height="33.3333" id="connector364pin" stroke-width="0" connectorName="D41"/>
    <g width="33.3334" x="0" y="8858.27" fill="none"  height="33.3333" id="connector364terminal" stroke-width="0"/>
    <text x="385.277" y="8908.27" font-family="Droid Sans" fill="#000000"  text-anchor="start" stroke="none" id="label364" font-size="138">D41</text>
    <line fill="none"  stroke="#000000" stroke-linejoin="round" stroke-linecap="round" y1="9170.21" stroke-width="33.3334" x1="16.6667" y2="9170.21" x2="295.277"/>
    <rect width="295.277" x="0" y="9153.55" fill="none"  height="33.3333" id="connector365pin" stroke-width="0" connectorName="D42"/>
    <g width="33.3334" x="0" y="9153.55" fill="none"  height="33.3333" id="connector365terminal" stroke-width="0"/>
    <text x="385.277" y="9203.55" font-family="Droid Sans" fill="#000000"  text-anchor="start" stroke="none" id="label365" font-size="138">D42</text>
    <line fill="none"  stroke="#000000" stroke-linejoin="round" stroke-linecap="round" y1="9465.49" stroke-width="33.3334" x1="16.6667" y2="9465.49" x2="295.277"/>
    <rect width="295.277" x="0" y="9448.82" fill="none"  height="33.3333" id="connector366pin" stroke-width="0" connectorName="D43"/>
    <g width="33.3334" x="0" y="9448.82" fill="none"  height="33.3333" id="connector366terminal" stroke-width="0"/>
    <text x="385.277" y="9498.82" font-family="Droid Sans" fill="#000000"  text-anchor="start" stroke="none" id="label366" font-size="138">D43</text>
    <line fill="none"  stroke="#000000" stroke-linejoin="round" stroke-linecap="round" y1="9760.77" stroke-width="33.3334" x1="16.6667" y2="9760.77" x2="295.277"/>
    <rect width="295.277" x="0" y="9744.09" fill="none"  height="33.3333" id="connector367pin" stroke-width="0" connectorName="D44"/>
    <g width="33.3334" x="0" y="9744.09" fill="none"  height="33.3333" id="connector367terminal" stroke-width="0"/>
    <text x="385.277" y="9794.09" font-family="Droid Sans" fill="#000000"  text-anchor="start" stroke="none" id="label367" font-size="138">D44</text>
    <line fill="none"  stroke="#000000" stroke-linejoin="round" stroke-linecap="round" y1="10056" stroke-width="33.3334" x1="16.6667" y2="10056" x2="295.277"/>
    <rect width="295.277" x="0" y="10039.4" fill="none"  height="33.3333" id="connector368pin" stroke-width="0" connectorName="D45"/>
    <g width="33.3334" x="0" y="10039.4" fill="none"  height="33.3333" id="connector368terminal" stroke-width="0"/>
    <text x="385.277" y="10089.4" font-family="Droid Sans" fill="#000000"  text-anchor="start" stroke="none" id="label368" font-size="138">D45</text>
    <line fill="none"  stroke="#000000" stroke-linejoin="round" stroke-linecap="round" y1="10351.3" stroke-width="33.3334" x1="16.6667" y2="10351.3" x2="295.277"/>
    <rect width="295.277" x="0" y="10334.6" fill="none"  height="33.3333" id="connector369pin" stroke-width="0" connectorName="D46"/>
    <g width="33.3334" x="0" y="10334.6" fill="none"  height="33.3333" id="connector369terminal" stroke-width="0"/>
    <text x="385.277" y="10384.6" font-family="Droid Sans" fill="#000000"  text-anchor="start" stroke="none" id="label369" font-size="138">D46</text>
    <line fill="none"  stroke="#000000" stroke-linejoin="round" stroke-linecap="round" y1="10646.6" stroke-width="33.3334" x1="16.6667" y2="10646.6" x2="295.277"/>
    <rect width="295.277" x="0" y="10629.9" fill="none"  height="33.3333" id="connector370pin" stroke-width="0" connectorName="D47"/>
    <g width="33.3334" x="0" y="10629.9" fill="none"  height="33.3333" id="connector370terminal" stroke-width="0"/>
    <text x="385.277" y="10679.9" font-family="Droid Sans" fill="#000000"  text-anchor="start" stroke="none" id="label370" font-size="138">D47</text>
    <line fill="none"  stroke="#000000" stroke-linejoin="round" stroke-linecap="round" y1="10941.9" stroke-width="33.3334" x1="16.6667" y2="10941.9" x2="295.277"/>
    <rect width="295.277" x="0" y="10925.2" fill="none"  height="33.3333" id="connector371pin" stroke-width="0" connectorName="D48"/>
    <g width="33.3334" x="0" y="10925.2" fill="none"  height="33.3333" id="connector371terminal" stroke-width="0"/>
    <text x="385.277" y="10975.2" font-family="Droid Sans" fill="#000000"  text-anchor="start" stroke="none" id="label371" font-size="138">D48</text>
    <line fill="none"  stroke="#000000" stroke-linejoin="round" stroke-linecap="round" y1="11237.1" stroke-width="33.3334" x1="16.6667" y2="11237.1" x2="295.277"/>
    <rect width="295.277" x="0" y="11220.5" fill="none"  height="33.3333" id="connector372pin" stroke-width="0" connectorName="D49"/>
    <g width="33.3334" x="0" y="11220.5" fill="none"  height="33.3333" id="connector372terminal" stroke-width="0"/>
    <text x="385.277" y="11270.5" font-family="Droid Sans" fill="#000000"  text-anchor="start" stroke="none" id="label372" font-size="138">D49</text>
    <line fill="none"  stroke="#000000" stroke-linejoin="round" stroke-linecap="round" y1="11532.4" stroke-width="33.3334" x1="16.6667" y2="11532.4" x2="295.277"/>
    <rect width="295.277" x="0" y="11515.7" fill="none"  height="33.3333" id="connector373pin" stroke-width="0" connectorName="D50"/>
    <g width="33.3334" x="0" y="11515.7" fill="none"  height="33.3333" id="connector373terminal" stroke-width="0"/>
    <text x="385.277" y="11565.7" font-family="Droid Sans" fill="#000000"  text-anchor="start" stroke="none" id="label373" font-size="138">D50</text>
    <line fill="none"  stroke="#000000" stroke-linejoin="round" stroke-linecap="round" y1="11827.7" stroke-width="33.3334" x1="16.6667" y2="11827.7" x2="295.277"/>
    <rect width="295.277" x="0" y="11811" fill="none"  height="33.3333" id="connector374pin" stroke-width="0" connectorName="D51"/>
    <g width="33.3334" x="0" y="11811" fill="none"  height="33.3333" id="connector374terminal" stroke-width="0"/>
    <text x="385.277" y="11861" font-family="Droid Sans" fill="#000000"  text-anchor="start" stroke="none" id="label374" font-size="138">D51</text>
    <line fill="none"  stroke="#000000" stroke-linejoin="round" stroke-linecap="round" y1="12123" stroke-width="33.3334" x1="16.6667" y2="12123" x2="295.277"/>
    <rect width="295.277" x="0" y="12106.3" fill="none"  height="33.3333" id="connector375pin" stroke-width="0" connectorName="D52"/>
    <g width="33.3334" x="0" y="12106.3" fill="none"  height="33.3333" id="connector375terminal" stroke-width="0"/>
    <text x="385.277" y="12156.3" font-family="Droid Sans" fill="#000000"  text-anchor="start" stroke="none" id="label375" font-size="138">D52</text>
    <line fill="none"  stroke="#000000" stroke-linejoin="round" stroke-linecap="round" y1="12418.2" stroke-width="33.3334" x1="16.6667" y2="12418.2" x2="295.277"/>
    <rect width="295.277" x="0" y="12401.6" fill="none"  height="33.3333" id="connector376pin" stroke-width="0" connectorName="D53"/>
    <g width="33.3334" x="0" y="12401.6" fill="none"  height="33.3333" id="connector376terminal" stroke-width="0"/>
    <text x="385.277" y="12451.6" font-family="Droid Sans" fill="#000000"  text-anchor="start" stroke="none" id="label376" font-size="138">D53</text>
    <line fill="none"  stroke="#000000" stroke-linejoin="round" stroke-linecap="round" y1="902.493" stroke-width="33.3334" x1="3559.98" y2="902.493" x2="3855.25"/>
    <rect width="295.277" x="3576.64" y="885.827" fill="none"  connectorname="D13 PWM" height="33.3333" id="connector238pin" stroke-width="0"/>
    <g width="33.3334" x="3838.59" y="885.827" fill="none"  height="33.3333" id="connector238terminal" stroke-width="0"/>
    <text x="3486.64" y="935.827" font-family="Droid Sans" fill="#000000"  text-anchor="end" stroke="none" id="label238" font-size="138">D13 PWM</text>
    <line fill="none"  stroke="#000000" stroke-linejoin="round" stroke-linecap="round" y1="1197.77" stroke-width="33.3334" x1="3559.98" y2="1197.77" x2="3855.25"/>
    <rect width="295.277" x="3576.64" y="1181.1" fill="none"  connectorname="D12 PWM" height="33.3333" id="connector239pin" stroke-width="0"/>
    <g width="33.3334" x="3838.59" y="1181.1" fill="none"  height="33.3333" id="connector239terminal" stroke-width="0"/>
    <text x="3486.64" y="1231.1" font-family="Droid Sans" fill="#000000"  text-anchor="end" stroke="none" id="label239" font-size="138">D12 PWM</text>
    <line fill="none"  stroke="#000000" stroke-linejoin="round" stroke-linecap="round" y1="1493.04" stroke-width="33.3334" x1="3559.98" y2="1493.04" x2="3855.25"/>
    <rect width="295.277" x="3576.64" y="1476.38" fill="none"  connectorname="D11 PWM" height="33.3333" id="connector240pin" stroke-width="0"/>
    <g width="33.3334" x="3838.59" y="1476.38" fill="none"  height="33.3333" id="connector240terminal" stroke-width="0"/>
    <text x="3486.64" y="1526.38" font-family="Droid Sans" fill="#000000"  text-anchor="end" stroke="none" id="label240" font-size="138">D11 PWM</text>
    <line fill="none"  stroke="#000000" stroke-linejoin="round" stroke-linecap="round" y1="1788.32" stroke-width="33.3334" x1="3559.98" y2="1788.32" x2="3855.25"/>
    <rect width="295.277" x="3576.64" y="1771.65" fill="none"  connectorname="D10 PWM" height="33.3333" id="connector241pin" stroke-width="0"/>
    <g width="33.3334" x="3838.59" y="1771.65" fill="none"  height="33.3333" id="connector241terminal" stroke-width="0"/>
    <text x="3486.64" y="1821.65" font-family="Droid Sans" fill="#000000"  text-anchor="end" stroke="none" id="label241" font-size="138">D10 PWM</text>
    <line fill="none"  stroke="#000000" stroke-linejoin="round" stroke-linecap="round" y1="2083.6" stroke-width="33.3334" x1="3559.98" y2="2083.6" x2="3855.25"/>
    <rect width="295.277" x="3576.64" y="2066.93" fill="none"  connectorname="D8 PWM" height="33.3333" id="connector243pin" stroke-width="0"/>
    <g width="33.3334" x="3838.59" y="2066.93" fill="none"  height="33.3333" id="connector243terminal" stroke-width="0"/>
    <text x="3486.64" y="2116.93" font-family="Droid Sans" fill="#000000"  text-anchor="end" stroke="none" id="label243" font-size="138">D8 PWM</text>
    <line fill="none"  stroke="#000000" stroke-linejoin="round" stroke-linecap="round" y1="2378.88" stroke-width="33.3334" x1="3559.98" y2="2378.88" x2="3855.25"/>
    <rect width="295.277" x="3576.64" y="2362.2" fill="none"  connectorname="D9 PWM" height="33.3333" id="connector242pin" stroke-width="0"/>
    <g width="33.3334" x="3838.59" y="2362.2" fill="none"  height="33.3333" id="connector242terminal" stroke-width="0"/>
    <text x="3486.64" y="2412.2" font-family="Droid Sans" fill="#000000"  text-anchor="end" stroke="none" id="label242" font-size="138">D9 PWM</text>
    <line fill="none"  stroke="#000000" stroke-linejoin="round" stroke-linecap="round" y1="2674.15" stroke-width="33.3334" x1="3559.98" y2="2674.15" x2="3855.25"/>
    <rect width="295.277" x="3576.64" y="2657.49" fill="none"  connectorname="D7 PWM" height="33.3333" id="connector269pin" stroke-width="0"/>
    <g width="33.3334" x="3838.59" y="2657.49" fill="none"  height="33.3333" id="connector269terminal" stroke-width="0"/>
    <text x="3486.64" y="2707.49" font-family="Droid Sans" fill="#000000"  text-anchor="end" stroke="none" id="label269" font-size="138">D7 PWM</text>
    <line fill="none"  stroke="#000000" stroke-linejoin="round" stroke-linecap="round" y1="2969.42" stroke-width="33.3334" x1="3559.98" y2="2969.42" x2="3855.25"/>
    <rect width="295.277" x="3576.64" y="2952.77" fill="none"  connectorname="D6 PWM" height="33.3333" id="connector268pin" stroke-width="0"/>
    <g width="33.3334" x="3838.59" y="2952.77" fill="none"  height="33.3333" id="connector268terminal" stroke-width="0"/>
    <text x="3486.64" y="3002.77" font-family="Droid Sans" fill="#000000"  text-anchor="end" stroke="none" id="label268" font-size="138">D6 PWM</text>
    <line fill="none"  stroke="#000000" stroke-linejoin="round" stroke-linecap="round" y1="3264.7" stroke-width="33.3334" x1="3559.98" y2="3264.7" x2="3855.25"/>
    <rect width="295.277" x="3576.64" y="3248.03" fill="none"  connectorname="D5 PWM" height="33.3333" id="connector267pin" stroke-width="0"/>
    <g width="33.3334" x="3838.59" y="3248.03" fill="none"  height="33.3333" id="connector267terminal" stroke-width="0"/>
    <text x="3486.64" y="3298.03" font-family="Droid Sans" fill="#000000"  text-anchor="end" stroke="none" id="label267" font-size="138">D5 PWM</text>
    <line fill="none"  stroke="#000000" stroke-linejoin="round" stroke-linecap="round" y1="3559.97" stroke-width="33.3334" x1="3559.98" y2="3559.97" x2="3855.25"/>
    <rect width="295.277" x="3576.64" y="3543.31" fill="none"  connectorname="D4 PWM" height="33.3333" id="connector266pin" stroke-width="0"/>
    <g width="33.3334" x="3838.59" y="3543.31" fill="none"  height="33.3333" id="connector266terminal" stroke-width="0"/>
    <text x="3486.64" y="3593.31" font-family="Droid Sans" fill="#000000"  text-anchor="end" stroke="none" id="label266" font-size="138">D4 PWM</text>
    <line fill="none"  stroke="#000000" stroke-linejoin="round" stroke-linecap="round" y1="3855.25" stroke-width="33.3334" x1="3559.98" y2="3855.25" x2="3855.25"/>
    <rect width="295.277" x="3576.64" y="3838.58" fill="none"  connectorname="D3 PWM" height="33.3333" id="connector265pin" stroke-width="0"/>
    <g width="33.3334" x="3838.59" y="3838.58" fill="none"  height="33.3333" id="connector265terminal" stroke-width="0"/>
    <text x="3486.64" y="3888.58" font-family="Droid Sans" fill="#000000"  text-anchor="end" stroke="none" id="label265" font-size="138">D3 PWM</text>
    <line fill="none"  stroke="#000000" stroke-linejoin="round" stroke-linecap="round" y1="4150.52" stroke-width="33.3334" x1="3559.98" y2="4150.52" x2="3855.25"/>
    <rect width="295.277" x="3576.64" y="4133.86" fill="none"  connectorname="D2 PWM" height="33.3333" id="connector264pin" stroke-width="0"/>
    <g width="33.3334" x="3838.59" y="4133.86" fill="none"  height="33.3333" id="connector264terminal" stroke-width="0"/>
    <text x="3486.64" y="4183.86" font-family="Droid Sans" fill="#000000"  text-anchor="end" stroke="none" id="label264" font-size="138">D2 PWM</text>
    <line fill="none"  stroke="#000000" stroke-linejoin="round" stroke-linecap="round" y1="4445.81" stroke-width="33.3334" x1="3559.98" y2="4445.81" x2="3855.25"/>
    <rect width="295.277" x="3576.64" y="4429.13" fill="none"  connectorname="D1 TX0" height="33.3333" id="connector263pin" stroke-width="0"/>
    <g width="33.3334" x="3838.59" y="4429.13" fill="none"  height="33.3333" id="connector263terminal" stroke-width="0"/>
    <text x="3486.64" y="4479.13" font-family="Droid Sans" fill="#000000"  text-anchor="end" stroke="none" id="label263" font-size="138">D1 TX0</text>
    <line fill="none"  stroke="#000000" stroke-linejoin="round" stroke-linecap="round" y1="4741.09" stroke-width="33.3334" x1="3559.98" y2="4741.09" x2="3855.25"/>
    <rect width="295.277" x="3576.64" y="4724.42" fill="none"  connectorname="D0 RX0" height="33.3333" id="connector262pin" stroke-width="0"/>
    <g width="33.3334" x="3838.59" y="4724.42" fill="none"  height="33.3333" id="connector262terminal" stroke-width="0"/>
    <text x="3486.64" y="4774.42" font-family="Droid Sans" fill="#000000"  text-anchor="end" stroke="none" id="label262" font-size="138">D0 RX0</text>
    <line fill="none"  stroke="#000000" stroke-linejoin="round" stroke-linecap="round" y1="5331.63" stroke-width="33.3334" x1="3559.98" y2="5331.63" x2="3855.25"/>
    <rect width="295.277" x="3576.64" y="5314.96" fill="none"  connectorname="D14/TX3" height="33.3333" id="connector53pin" stroke-width="0"/>
    <g width="33.3334" x="3838.59" y="5314.96" fill="none"  height="33.3333" id="connector53terminal" stroke-width="0"/>
    <text x="3486.64" y="5364.96" font-family="Droid Sans" fill="#000000"  text-anchor="end" stroke="none" id="label53" font-size="138">D14/TX3</text>
    <line fill="none"  stroke="#000000" stroke-linejoin="round" stroke-linecap="round" y1="5626.91" stroke-width="33.3334" x1="3559.98" y2="5626.91" x2="3855.25"/>
    <rect width="295.277" x="3576.64" y="5610.24" fill="none"  connectorname="D15/RX3" height="33.3333" id="connector52pin" stroke-width="0"/>
    <g width="33.3334" x="3838.59" y="5610.24" fill="none"  height="33.3333" id="connector52terminal" stroke-width="0"/>
    <text x="3486.64" y="5660.24" font-family="Droid Sans" fill="#000000"  text-anchor="end" stroke="none" id="label52" font-size="138">D15/RX3</text>
    <line fill="none"  stroke="#000000" stroke-linejoin="round" stroke-linecap="round" y1="5922.18" stroke-width="33.3334" x1="3559.98" y2="5922.18" x2="3855.25"/>
    <rect width="295.277" x="3576.64" y="5905.52" fill="none"  connectorname="D16 PWM/TX2" height="33.3333" id="connector51pin" stroke-width="0"/>
    <g width="33.3334" x="3838.59" y="5905.52" fill="none"  height="33.3333" id="connector51terminal" stroke-width="0"/>
    <text x="3486.64" y="5955.52" font-family="Droid Sans" fill="#000000"  text-anchor="end" stroke="none" id="label51" font-size="138">D16 PWM/TX2</text>
    <line fill="none"  stroke="#000000" stroke-linejoin="round" stroke-linecap="round" y1="6217.45" stroke-width="33.3334" x1="3559.98" y2="6217.45" x2="3855.25"/>
    <rect width="295.277" x="3576.64" y="6200.79" fill="none"  connectorname="D17 PWM/RX2" height="33.3333" id="connector50pin" stroke-width="0"/>
    <g width="33.3334" x="3838.59" y="6200.79" fill="none"  height="33.3333" id="connector50terminal" stroke-width="0"/>
    <text x="3486.64" y="6250.79" font-family="Droid Sans" fill="#000000"  text-anchor="end" stroke="none" id="label50" font-size="138">D17 PWM/RX2</text>
    <line fill="none"  stroke="#000000" stroke-linejoin="round" stroke-linecap="round" y1="6512.74" stroke-width="33.3334" x1="3559.98" y2="6512.74" x2="3855.25"/>
    <rect width="295.277" x="3576.64" y="6496.06" fill="none"  connectorname="D18/TX1" height="33.3333" id="connector49pin" stroke-width="0"/>
    <g width="33.3334" x="3838.59" y="6496.06" fill="none"  height="33.3333" id="connector49terminal" stroke-width="0"/>
    <text x="3486.64" y="6546.06" font-family="Droid Sans" fill="#000000"  text-anchor="end" stroke="none" id="label49" font-size="138">D18/TX1</text>
    <line fill="none"  stroke="#000000" stroke-linejoin="round" stroke-linecap="round" y1="6808.02" stroke-width="33.3334" x1="3559.98" y2="6808.02" x2="3855.25"/>
    <rect width="295.277" x="3576.64" y="6791.34" fill="none"  connectorname="D19/RX1" height="33.3333" id="connector48pin" stroke-width="0"/>
    <g width="33.3334" x="3838.59" y="6791.34" fill="none"  height="33.3333" id="connector48terminal" stroke-width="0"/>
    <text x="3486.64" y="6841.34" font-family="Droid Sans" fill="#000000"  text-anchor="end" stroke="none" id="label48" font-size="138">D19/RX1</text>
    <line fill="none"  stroke="#000000" stroke-linejoin="round" stroke-linecap="round" y1="7103.28" stroke-width="33.3334" x1="3559.98" y2="7103.28" x2="3855.25"/>
    <rect width="295.277" x="3576.64" y="7086.61" fill="none"  connectorname="D20/SDA" height="33.3333" id="connector47pin" stroke-width="0"/>
    <g width="33.3334" x="3838.59" y="7086.61" fill="none"  height="33.3333" id="connector47terminal" stroke-width="0"/>
    <text x="3486.64" y="7136.61" font-family="Droid Sans" fill="#000000"  text-anchor="end" stroke="none" id="label47" font-size="138">D20/SDA</text>
    <line fill="none"  stroke="#000000" stroke-linejoin="round" stroke-linecap="round" y1="7398.56" stroke-width="33.3334" x1="3559.98" y2="7398.56" x2="3855.25"/>
    <rect width="295.277" x="3576.64" y="7381.89" fill="none"  connectorname="D21/SCL" height="33.3333" id="connector46pin" stroke-width="0"/>
    <g width="33.3334" x="3838.59" y="7381.89" fill="none"  height="33.3333" id="connector46terminal" stroke-width="0"/>
    <text x="3486.64" y="7431.89" font-family="Droid Sans" fill="#000000"  text-anchor="end" stroke="none" id="label46" font-size="138">D21/SCL</text>
    <line fill="none"  stroke="#000000" stroke-linejoin="round" stroke-linecap="round" y1="7989.11" stroke-width="33.3334" x1="3559.98" y2="7989.11" x2="3855.25"/>
    <rect width="295.277" x="3576.64" y="7972.45" fill="none"  connectorname="D22" height="33.3333" id="connector345pin" stroke-width="0"/>
    <g width="33.3334" x="3838.59" y="7972.45" fill="none"  height="33.3333" id="connector345terminal" stroke-width="0"/>
    <text x="3486.64" y="8022.45" font-family="Droid Sans" fill="#000000"  text-anchor="end" stroke="none" id="label345" font-size="138">D22</text>
    <line fill="none"  stroke="#000000" stroke-linejoin="round" stroke-linecap="round" y1="8284.38" stroke-width="33.3334" x1="3559.98" y2="8284.38" x2="3855.25"/>
    <rect width="295.277" x="3576.64" y="8267.73" fill="none"  connectorname="D23" height="33.3333" id="connector346pin" stroke-width="0"/>
    <g width="33.3334" x="3838.59" y="8267.73" fill="none"  height="33.3333" id="connector346terminal" stroke-width="0"/>
    <text x="3486.64" y="8317.73" font-family="Droid Sans" fill="#000000"  text-anchor="end" stroke="none" id="label346" font-size="138">D23</text>
    <line fill="none"  stroke="#000000" stroke-linejoin="round" stroke-linecap="round" y1="8579.67" stroke-width="33.3334" x1="3559.98" y2="8579.67" x2="3855.25"/>
    <rect width="295.277" x="3576.64" y="8562.99" fill="none"  connectorname="D24" height="33.3333" id="connector347pin" stroke-width="0"/>
    <g width="33.3334" x="3838.59" y="8562.99" fill="none"  height="33.3333" id="connector347terminal" stroke-width="0"/>
    <text x="3486.64" y="8612.99" font-family="Droid Sans" fill="#000000"  text-anchor="end" stroke="none" id="label347" font-size="138">D24</text>
    <line fill="none"  stroke="#000000" stroke-linejoin="round" stroke-linecap="round" y1="8874.93" stroke-width="33.3334" x1="3559.98" y2="8874.93" x2="3855.25"/>
    <rect width="295.277" x="3576.64" y="8858.27" fill="none"  connectorname="D25" height="33.3333" id="connector348pin" stroke-width="0"/>
    <g width="33.3334" x="3838.59" y="8858.27" fill="none"  height="33.3333" id="connector348terminal" stroke-width="0"/>
    <text x="3486.64" y="8908.27" font-family="Droid Sans" fill="#000000"  text-anchor="end" stroke="none" id="label348" font-size="138">D25</text>
    <line fill="none"  stroke="#000000" stroke-linejoin="round" stroke-linecap="round" y1="9170.21" stroke-width="33.3334" x1="3559.98" y2="9170.21" x2="3855.25"/>
    <rect width="295.277" x="3576.64" y="9153.55" fill="none"  connectorname="D26" height="33.3333" id="connector349pin" stroke-width="0"/>
    <g width="33.3334" x="3838.59" y="9153.55" fill="none"  height="33.3333" id="connector349terminal" stroke-width="0"/>
    <text x="3486.64" y="9203.55" font-family="Droid Sans" fill="#000000"  text-anchor="end" stroke="none" id="label349" font-size="138">D26</text>
    <line fill="none"  stroke="#000000" stroke-linejoin="round" stroke-linecap="round" y1="9465.49" stroke-width="33.3334" x1="3559.98" y2="9465.49" x2="3855.25"/>
    <rect width="295.277" x="3576.64" y="9448.82" fill="none"  connectorname="D27" height="33.3333" id="connector350pin" stroke-width="0"/>
    <g width="33.3334" x="3838.59" y="9448.82" fill="none"  height="33.3333" id="connector350terminal" stroke-width="0"/>
    <text x="3486.64" y="9498.82" font-family="Droid Sans" fill="#000000"  text-anchor="end" stroke="none" id="label350" font-size="138">D27</text>
    <line fill="none"  stroke="#000000" stroke-linejoin="round" stroke-linecap="round" y1="9760.77" stroke-width="33.3334" x1="3559.98" y2="9760.77" x2="3855.25"/>
    <rect width="295.277" x="3576.64" y="9744.09" fill="none"  connectorname="D28" height="33.3333" id="connector351pin" stroke-width="0"/>
    <g width="33.3334" x="3838.59" y="9744.09" fill="none"  height="33.3333" id="connector351terminal" stroke-width="0"/>
    <text x="3486.64" y="9794.09" font-family="Droid Sans" fill="#000000"  text-anchor="end" stroke="none" id="label351" font-size="138">D28</text>
    <line fill="none"  stroke="#000000" stroke-linejoin="round" stroke-linecap="round" y1="10056" stroke-width="33.3334" x1="3559.98" y2="10056" x2="3855.25"/>
    <rect width="295.277" x="3576.64" y="10039.4" fill="none"  connectorname="D29" height="33.3333" id="connector352pin" stroke-width="0"/>
    <g width="33.3334" x="3838.59" y="10039.4" fill="none"  height="33.3333" id="connector352terminal" stroke-width="0"/>
    <text x="3486.64" y="10089.4" font-family="Droid Sans" fill="#000000"  text-anchor="end" stroke="none" id="label352" font-size="138">D29</text>
    <line fill="none"  stroke="#000000" stroke-linejoin="round" stroke-linecap="round" y1="10351.3" stroke-width="33.3334" x1="3559.98" y2="10351.3" x2="3855.25"/>
    <rect width="295.277" x="3576.64" y="10334.6" fill="none"  connectorname="D30" height="33.3333" id="connector353pin" stroke-width="0"/>
    <g width="33.3334" x="3838.59" y="10334.6" fill="none"  height="33.3333" id="connector353terminal" stroke-width="0"/>
    <text x="3486.64" y="10384.6" font-family="Droid Sans" fill="#000000"  text-anchor="end" stroke="none" id="label353" font-size="138">D30</text>
    <line fill="none"  stroke="#000000" stroke-linejoin="round" stroke-linecap="round" y1="10646.6" stroke-width="33.3334" x1="3559.98" y2="10646.6" x2="3855.25"/>
    <rect width="295.277" x="3576.64" y="10629.9" fill="none"  connectorname="D31" height="33.3333" id="connector354pin" stroke-width="0"/>
    <g width="33.3334" x="3838.59" y="10629.9" fill="none"  height="33.3333" id="connector354terminal" stroke-width="0"/>
    <text x="3486.64" y="10679.9" font-family="Droid Sans" fill="#000000"  text-anchor="end" stroke="none" id="label354" font-size="138">D31</text>
    <line fill="none"  stroke="#000000" stroke-linejoin="round" stroke-linecap="round" y1="10941.9" stroke-width="33.3334" x1="3559.98" y2="10941.9" x2="3855.25"/>
    <rect width="295.277" x="3576.64" y="10925.2" fill="none"  connectorname="D32" height="33.3333" id="connector355pin" stroke-width="0"/>
    <g width="33.3334" x="3838.59" y="10925.2" fill="none"  height="33.3333" id="connector355terminal" stroke-width="0"/>
    <text x="3486.64" y="10975.2" font-family="Droid Sans" fill="#000000"  text-anchor="end" stroke="none" id="label355" font-size="138">D32</text>
    <line fill="none"  stroke="#000000" stroke-linejoin="round" stroke-linecap="round" y1="11237.1" stroke-width="33.3334" x1="3559.98" y2="11237.1" x2="3855.25"/>
    <rect width="295.277" x="3576.64" y="11220.5" fill="none"  connectorname="D33" height="33.3333" id="connector356pin" stroke-width="0"/>
    <g width="33.3334" x="3838.59" y="11220.5" fill="none"  height="33.3333" id="connector356terminal" stroke-width="0"/>
    <text x="3486.64" y="11270.5" font-family="Droid Sans" fill="#000000"  text-anchor="end" stroke="none" id="label356" font-size="138">D33</text>
    <line fill="none"  stroke="#000000" stroke-linejoin="round" stroke-linecap="round" y1="11532.4" stroke-width="33.3334" x1="3559.98" y2="11532.4" x2="3855.25"/>
    <rect width="295.277" x="3576.64" y="11515.7" fill="none"  connectorname="D34" height="33.3333" id="connector357pin" stroke-width="0"/>
    <g width="33.3334" x="3838.59" y="11515.7" fill="none"  height="33.3333" id="connector357terminal" stroke-width="0"/>
    <text x="3486.64" y="11565.7" font-family="Droid Sans" fill="#000000"  text-anchor="end" stroke="none" id="label357" font-size="138">D34</text>
    <line fill="none"  stroke="#000000" stroke-linejoin="round" stroke-linecap="round" y1="11827.7" stroke-width="33.3334" x1="3559.98" y2="11827.7" x2="3855.25"/>
    <rect width="295.277" x="3576.64" y="11811" fill="none"  connectorname="D35" height="33.3333" id="connector358pin" stroke-width="0"/>
    <g width="33.3334" x="3838.59" y="11811" fill="none"  height="33.3333" id="connector358terminal" stroke-width="0"/>
    <text x="3486.64" y="11861" font-family="Droid Sans" fill="#000000"  text-anchor="end" stroke="none" id="label358" font-size="138">D35</text>
    <line fill="none"  stroke="#000000" stroke-linejoin="round" stroke-linecap="round" y1="12123" stroke-width="33.3334" x1="3559.98" y2="12123" x2="3855.25"/>
    <rect width="295.277" x="3576.64" y="12106.3" fill="none"  connectorname="D36" height="33.3333" id="connector359pin" stroke-width="0"/>
    <g width="33.3334" x="3838.59" y="12106.3" fill="none"  height="33.3333" id="connector359terminal" stroke-width="0"/>
    <text x="3486.64" y="12156.3" font-family="Droid Sans" fill="#000000"  text-anchor="end" stroke="none" id="label359" font-size="138">D36</text>
    <line fill="none"  stroke="#000000" stroke-linejoin="round" stroke-linecap="round" y1="12418.2" stroke-width="33.3334" x1="3559.98" y2="12418.2" x2="3855.25"/>
    <rect width="295.277" x="3576.64" y="12401.6" fill="none"  connectorname="D37" height="33.3333" id="connector360pin" stroke-width="0"/>
    <g width="33.3334" x="3838.59" y="12401.6" fill="none"  height="33.3333" id="connector360terminal" stroke-width="0"/>
    <text x="3486.64" y="12451.6" font-family="Droid Sans" fill="#000000"  text-anchor="end" stroke="none" id="label360" font-size="138">D37</text>
    <line fill="none"  stroke="#000000" stroke-linejoin="round" stroke-linecap="round" y1="16.6667" stroke-width="33.3334" x1="1493.04" y2="295.277" x2="1493.04"/>
    <rect width="33.3334" x="1476.38" y="0" fill="none"  connectorname="3V3" height="295.277" id="connector257pin" stroke-width="0"/>
    <g width="33.3334" x="1476.38" y="0" fill="none"  height="0" id="connector257terminal" stroke-width="0"/>
    <text x="1493.04" y="470.277" font-family="Droid Sans" fill="#000000"  text-anchor="middle" stroke="none" id="label257" font-size="138">3V3</text>
    <line fill="none"  stroke="#000000" stroke-linejoin="round" stroke-linecap="round" y1="16.6667" stroke-width="33.3334" x1="2378.88" y2="295.277" x2="2378.88"/>
    <rect width="33.3334" x="2362.2" y="0" fill="none"  connectorname="VIN" height="295.277" id="connector261pin" stroke-width="0"/>
    <g width="33.3334" x="2362.2" y="0" fill="none"  height="0" id="connector261terminal" stroke-width="0"/>
    <text x="2378.88" y="470.277" font-family="Droid Sans" fill="#000000"  text-anchor="middle" stroke="none" id="label261" font-size="138">VIN</text>
    <line fill="none"  stroke="#000000" stroke-linejoin="round" stroke-linecap="round" y1="13025.5" stroke-width="33.3334" x1="1935.96" y2="13304.1" x2="1935.96"/>
    <rect width="33.3334" x="1919.29" y="13025.5" fill="none"  connectorname="GND" height="295.277" id="connector237pin" stroke-width="0"/>
    <g width="33.3334" x="1919.29" y="13320.7" fill="none"  height="0" id="connector237terminal" stroke-width="0"/>
    <text x="1935.96" y="12945.5" font-family="Droid Sans" fill="#000000"  text-anchor="middle" stroke="none" id="label237" font-size="138">GND</text>
    <rect width="295.277" x="0" y="1771.65" fill="none"  height="33.3333" id="connector258pin" stroke-width="0" connectorName="IOREF"/>
    <g width="33.3334" x="0" y="1771.65" fill="none"  height="33.3333" id="connector258terminal" stroke-width="0"/>
    <rect width="295.277" x="0" y="1771.65" fill="none"  height="33.3333" id="connector343pin" stroke-width="0" connectorName="IOREF"/>
    <g width="33.3334" x="0" y="1771.65" fill="none"  height="33.3333" id="connector343terminal" stroke-width="0"/>
    <rect width="295.277" x="0" y="1771.65" fill="none"  height="33.3333" id="connector344pin" stroke-width="0" connectorName="IOREF"/>
    <g width="33.3334" x="0" y="1771.65" fill="none"  height="33.3333" id="connector344terminal" stroke-width="0"/>
    <rect width="33.3334" x="1919.29" y="13025.5" fill="none"  connectorname="GND" height="295.277" id="connector377pin" stroke-width="0"/>
    <g width="33.3334" x="1919.29" y="13320.7" fill="none"  height="0" id="connector377terminal" stroke-width="0"/>
    <rect width="33.3334" x="1919.29" y="13025.5" fill="none"  connectorname="GND" height="295.277" id="connector378pin" stroke-width="0"/>
    <g width="33.3334" x="1919.29" y="13320.7" fill="none"  height="0" id="connector378terminal" stroke-width="0"/>
    <rect width="33.3334" x="1919.29" y="13025.5" fill="none"  connectorname="GND" height="295.277" id="connector259pin" stroke-width="0"/>
    <g width="33.3334" x="1919.29" y="13320.7" fill="none"  height="0" id="connector259terminal" stroke-width="0"/>
    <rect width="33.3334" x="1919.29" y="13025.5" fill="none"  connectorname="GND" height="295.277" id="connector260pin" stroke-width="0"/>
    <g width="33.3334" x="1919.29" y="13320.7" fill="none"  height="0" id="connector260terminal" stroke-width="0"/>
    <rect width="295.277" x="3576.64" y="7381.89" fill="none"  connectorname="D21/SCL" height="33.3333" id="connector234pin" stroke-width="0"/>
    <g width="33.3334" x="3838.59" y="7381.89" fill="none"  height="33.3333" id="connector234terminal" stroke-width="0"/>
    <rect width="295.277" x="3576.64" y="7086.61" fill="none"  connectorname="D20/SDA" height="33.3333" id="connector235pin" stroke-width="0"/>
    <g width="33.3334" x="3838.59" y="7086.61" fill="none"  height="33.3333" id="connector235terminal" stroke-width="0"/>
   </g>
  </g>
 </g>
 <g partID="22210">
  <g transform="translate(7576.06,826.389)">
   <g transform="matrix(-1,0,0,-1,0,0)">
    <g id="schematic">
     <rect width="138.889" x="15.9722" y="321.528" fill="none" height="27.7778" id="connector0pin"/>
     <rect width="138.889" x="1377.08" y="321.528" fill="none" height="27.7778" id="connector1pin"/>
     <g width="27.7778" x="15.9722" y="321.528" fill="none" height="27.7778" id="connector0terminal"/>
     <g width="27.7778" x="1488.19" y="321.528" fill="none" height="27.7778" id="connector1terminal"/>
     <g id="diagram">
      <circle fill="none" cx="765.972" cy="335.417" stroke="#000000" r="319.444" stroke-width="31.9444"/>
      <line fill="none" stroke="#000000" stroke-linejoin="round" stroke-linecap="round" y1="335.417" stroke-width="31.9444" x1="15.9722" y2="335.417" x2="446.528"/>
      <line fill="none" stroke="#000000" stroke-linejoin="round" stroke-linecap="round" y1="335.417" stroke-width="31.9444" x1="1085.42" y2="335.417" x2="1515.97"/>
     </g>
     <g transform="matrix(1, 0, 0, 1, 627.096, 450.053)">
      <text font-family="'Droid Sans'" font-size="338.26">M</text>
     </g>
    </g>
   </g>
  </g>
 </g>
 <g partID="23520">
  <g transform="translate(7162.17,1931.09)">
   <g  id="schematic">
    <rect width="27.7778" x="370.139" y="1092.36" fill="none"  height="138.889" id="connector0pin"/>
    <rect width="27.7778" x="370.139" y="15.9722" fill="none"  height="138.889" id="connector1pin"/>
    <g width="27.7778" x="370.139" y="1203.47" fill="none"  height="27.7777" id="connector0terminal"/>
    <g width="27.7778" x="370.139" y="15.9722" fill="none"  height="27.7777" id="connector1terminal"/>
    <g  id="text">
     <g >
      <path  d="M268.195,730.79l15.4722,0l0,91.6248L268.195,822.415L268.195,730.79z"/>
     </g>
     <g >
      <path  d="M268.514,447.013l-32.5,0l0,-16.8194l32.5,0l0,-30.4861L283.333,399.708l0,30.4861l32.3056,0l0,16.8194L283.333,447.013l0,30.6527l-14.8056,0L268.514,447.013L268.514,447.013z"/>
     </g>
    </g>
    <g  id="diagram">
     <line fill="none"  stroke="#000000" stroke-linejoin="round" stroke-linecap="round" y1="15.9722" stroke-width="31.9445" x1="384.028" y2="538.721" x2="384.028"/>
     <line fill="none"  stroke="#000000" stroke-linejoin="round" stroke-linecap="round" y1="656.749" stroke-width="31.9445" x1="384.028" y2="1231.25" x2="384.028"/>
     <line fill="none"  stroke="#000000" stroke-linejoin="round" stroke-linecap="round" y1="538.721" stroke-width="31.9445" x1="738.195" y2="538.721" x2="15.9722"/>
     <line fill="none"  stroke="#000000" stroke-linejoin="round" stroke-linecap="round" y1="656.749" stroke-width="31.9445" x1="580.792" y2="656.749" x2="173.375"/>
     <path fill="none"  stroke="#000000" stroke-linejoin="round" stroke-linecap="round" stroke-width="31.9445" d="M173.375,656.749"/>
     <path fill="none"  stroke="#000000" stroke-linejoin="round" stroke-linecap="round" stroke-width="31.9445" d="M580.792,656.749"/>
    </g>
   </g>
  </g>
 </g>
 <g partID="25410">
  <g transform="translate(5194.39,1878.67)">
   <g transform="matrix(0,1,-1,0,0,0)">
    <g  id="schematic">
     <rect width="26.2917" x="76.0278" y="15.125"  height="135.875" id="connector0pin"/>
     <g width="12.0278" x="82.6667" y="5.63889"  height="9.52778" id="connector0terminal"/>
     <rect width="26.3056" x="76.0694" y="755.125"  height="135.875" id="connector1pin"/>
     <g width="12.0278" x="82.7222" y="890.028"  height="9.55556" id="connector1terminal"/>
     <g >
      <polyline fill="#FFFFFF" points="88.9583,15.7222,88.9583,283.222,137.569,309.097,36.875,365.153,137.569,421.167,36.875,477.208,137.569,533.222,36.875,589.264,88.9583,619.431,88.9583,886.958"  stroke="#000000" stroke-linecap="round" stroke-width="30.95"/>
     </g>
    </g>
   </g>
  </g>
 </g>
 <g partID="33420">
  <line stroke="#8c3b00" stroke-linecap="round" y1="3722.38" x1="3855.25" y2="1967.41" stroke-width="7.77778" x2="4299.59"/>
 </g>
 <g partID="24630">
  <line stroke="#404040" stroke-linecap="round" y1="14370.4" x1="6070.69" y2="14368.9" stroke-width="33.3333" x2="1935.96"/>
 </g>
 <g partID="23610">
  <line stroke="#404040" stroke-linecap="round" y1="2522.86" x1="6071.78" y2="14370.4" stroke-width="33.3333" x2="6070.69"/>
 </g>
 <g partID="24560">
  <line stroke="#404040" stroke-linecap="round" y1="14370.4" x1="7548.47" y2="3148.41" stroke-width="33.3333" x2="7546.2"/>
 </g>
 <g partID="23750">
  <line stroke="#404040" stroke-linecap="round" y1="14369" x1="1935.96" y2="14370.5" stroke-width="33.3333" x2="7548.47"/>
 </g>
 <g partID="23860">
  <line stroke="#404040" stroke-linecap="round" y1="490.972" x1="7546.19" y2="1960.95" stroke-width="33.3333" x2="7546.19"/>
 </g>
 <g partID="23930">
  <line stroke="#404040" stroke-linecap="round" y1="490.972" x1="6073.98" y2="1672.07" stroke-width="33.3333" x2="6069.82"/>
 </g>
 <g partID="25500">
  <line stroke="#404040" stroke-linecap="round" y1="2099.47" x1="5493.44" y2="1967.35" stroke-width="33.3333" x2="5183.99"/>
 </g>
 <g id="partLabel" partID="21100">
  <g transform="translate(3871.92,892.669)">
   <g fill="#000000" font-family="'DroidSans'" stroke="none" font-style="normal" fill-opacity="1" font-weight="normal" id="schematicLabel" font-size="125">
    <text x="0" y="93.75">Part1</text>
   </g>
  </g>
 </g>
 <g id="partLabel" partID="21590">
  <g transform="translate(6169.77,1508.92)">
   <g fill="#000000" font-family="'DroidSans'" stroke="none" font-style="normal" fill-opacity="1" font-weight="normal" id="schematicLabel" font-size="125">
    <text x="0" y="93.75">Q1</text>
   </g>
  </g>
 </g>
 <g id="partLabel" partID="22210">
  <g transform="translate(7576.06,0)">
   <g fill="#000000" font-family="'DroidSans'" stroke="none" font-style="normal" fill-opacity="1" font-weight="normal" id="schematicLabel" font-size="125">
    <text x="0" y="93.75">M1</text>
   </g>
  </g>
 </g>
 <g id="partLabel" partID="23520">
  <g transform="translate(7916.34,1653.32)">
   <g fill="#000000" font-family="'DroidSans'" stroke="none" font-style="normal" fill-opacity="1" font-weight="normal" id="schematicLabel" font-size="125">
    <text x="0" y="93.75">VCC1</text>
    <text x="0" y="218.75">9V</text>
   </g>
  </g>
 </g>
 <g id="partLabel" partID="25410">
  <g transform="translate(4829,1235.5)">
   <g fill="#000000" font-family="'DroidSans'" stroke="none" font-style="normal" fill-opacity="1" font-weight="normal" id="schematicLabel" font-size="125">
    <text x="0" y="93.75">R1</text>
    <text x="0" y="218.75">1k&#x3a9;</text>
   </g>
  </g>
 </g>
</svg>
