<?xml version='1.0' encoding='UTF-8' standalone='no'?>
<!-- Created with Fritzing (http://www.fritzing.org/) -->
<svg xmlns="http://www.w3.org/2000/svg" width="1.04022in" x="0in" version="1.2" y="0in"  height="2.69514in" viewBox="0 0 1040.22 2695.14" baseProfile="tiny" xmlns:svg="http://www.w3.org/2000/svg">
 <g  id="watermark">
  <g >
   <path fill="#8C8C8C"  d="M-457.238,2662.8L-483.974,2585.53L-484.461,2585.53c0.236111,2.97222,0.444444,5.93056,0.611111,8.88889c0.166667,2.54167,0.291667,5.20833,0.388889,7.97222c0.0972222,2.81944,0.152778,5.34722,0.152778,7.65278l0,52.7778L-493.697,2662.82L-493.697,2574.54l16.6528,0l24.875,71.9583l0.347222,0l25,-71.9583L-410.155,2574.54l0,88.25L-421.391,2662.79l0,-53.5278c0,-2.08333,0.0416667,-4.5,0.125,-7.19444s0.180556,-5.27778,0.291667,-7.73611c0.166667,-2.875,0.291667,-5.77778,0.402778,-8.68056L-421.016,2585.65L-448.016,2662.8L-457.238,2662.8z"/>
   <path fill="#8C8C8C"  d="M-350.294,2662.8l-2.22222,-9.18056l-0.486111,0c-1.31944,1.81944,-2.63889,3.375,-3.97222,4.69444c-1.31944,1.31944,-2.77778,2.38889,-4.34722,3.20833c-1.56944,0.861111,-3.31944,1.47222,-5.25,1.88889c-1.95833,0.388889,-4.16667,0.583333,-6.69444,0.583333c-2.77778,0,-5.33333,-0.361111,-7.66667,-1.16667c-2.33333,-0.791667,-4.36111,-2,-6.08333,-3.625c-1.69444,-1.61111,-3.04167,-3.68056,-4,-6.15278S-392.461,2647.67,-392.461,2644.26c0,-6.59722,2.31944,-11.6806,6.95833,-15.2083c4.65278,-3.55556,11.7361,-5.47222,21.2222,-5.80556l11.0972,-0.402778l0,-4.18056c0,-2.68056,-0.291667,-4.94444,-0.875,-6.75s-1.43056,-3.25,-2.54167,-4.36111s-2.47222,-1.91667,-4.09722,-2.38889c-1.625,-0.486111,-3.48611,-0.722222,-5.58333,-0.722222c-3.34722,0,-6.44444,0.472222,-9.31944,1.44444c-2.875,0.944444,-5.65278,2.11111,-8.29167,3.47222L-387.767,2601.12c2.97222,-1.625,6.29167,-3.01389,9.95833,-4.13889c3.66667,-1.09722,7.5,-1.66667,11.5278,-1.66667c4.11111,0,7.65278,0.402778,10.6667,1.25c3,0.819444,5.48611,2.09722,7.41667,3.88889c1.95833,1.80556,3.43056,4.08333,4.38889,6.86111c0.972222,2.76389,1.44444,6.11111,1.44444,10.0833l0,45.4028L-350.294,2662.8L-350.294,2662.8zM-370.447,2655.15c2.47222,0,4.73611,-0.388889,6.81944,-1.16667c2.06944,-0.763889,3.91667,-1.91667,5.43056,-3.45833c1.52778,-1.54167,2.72222,-3.5,3.58333,-5.86111c0.875,-2.36111,1.30556,-5.125,1.30556,-8.31944l0,-5.97222l-8.625,0.416667c-3.63889,0.166667,-6.66667,0.569444,-9.11111,1.19444c-2.43056,0.652778,-4.40278,1.56944,-5.875,2.68056c-1.45833,1.16667,-2.54167,2.56944,-3.18056,4.18056c-0.638889,1.625,-0.944444,3.47222,-0.944444,5.52778c0,3.72222,0.958333,6.41667,2.93056,8.13889C-376.183,2654.28,-373.628,2655.15,-370.447,2655.15z"/>
   <path fill="#8C8C8C"  d="M-281.1,2653.93l-0.472222,0c-0.875,1.375,-1.93056,2.65278,-3.11111,3.90278c-1.18056,1.22222,-2.55556,2.29167,-4.11111,3.20833c-1.54167,0.916667,-3.29167,1.63889,-5.22222,2.16667c-1.93056,0.513889,-4.09722,0.777778,-6.52778,0.777778c-3.76389,0,-7.18056,-0.708333,-10.25,-2.13889c-3.09722,-1.45833,-5.77778,-3.63889,-7.98611,-6.51389s-3.91667,-6.44444,-5.125,-10.7083c-1.20833,-4.29167,-1.80556,-9.22222,-1.80556,-14.8472c0,-5.66667,0.597222,-10.6528,1.80556,-14.9444c1.19444,-4.30556,2.90278,-7.875,5.125,-10.75c2.20833,-2.90278,4.88889,-5.09722,7.98611,-6.56944c3.08333,-1.45833,6.51389,-2.19444,10.25,-2.19444c2.375,0,4.54167,0.277778,6.47222,0.791667s3.66667,1.22222,5.22222,2.11111c1.55556,0.875,2.93056,1.90278,4.125,3.06944s2.26389,2.38889,3.15278,3.69444l0.722222,0c-0.125,-1.38889,-0.25,-2.65278,-0.361111,-3.93056c-0.0833333,-1.02778,-0.166667,-2.11111,-0.25,-3.22222c-0.0694444,-1.08333,-0.125,-1.98611,-0.125,-2.61111L-281.586,2568.87l11,0l0,93.9306l-8.90278,0L-281.1,2653.93zM-298.433,2654.92c3.06944,0,5.65278,-0.458333,7.77778,-1.41667c2.09722,-0.902778,3.80556,-2.33333,5.13889,-4.22222c1.30556,-1.88889,2.26389,-4.27778,2.90278,-7.11111c0.611111,-2.83333,0.958333,-6.13889,1.05556,-9.94444l0,-2.45833c0,-4.05556,-0.277778,-7.66667,-0.819444,-10.8333c-0.555556,-3.18056,-1.45833,-5.80556,-2.77778,-7.97222c-1.30556,-2.13889,-3.04167,-3.76389,-5.22222,-4.875c-2.16667,-1.11111,-4.88889,-1.65278,-8.13889,-1.65278c-5.43056,0,-9.43056,2.18056,-11.9583,6.58333c-2.56944,4.375,-3.84722,10.7083,-3.84722,18.875c0,8.40278,1.27778,14.6944,3.84722,18.8056C-307.975,2652.83,-303.947,2654.92,-298.433,2654.92z"/>
   <path fill="#8C8C8C"  d="M-223.405,2664c-4.41667,0,-8.45833,-0.736111,-12.1389,-2.22222c-3.65278,-1.47222,-6.80556,-3.66667,-9.44444,-6.51389c-2.63889,-2.875,-4.69444,-6.40278,-6.13889,-10.6389c-1.44444,-4.25,-2.16667,-9.04167,-2.16667,-14.5139s0.680556,-10.3333,2,-14.6528c1.33333,-4.31944,3.18056,-7.97222,5.625,-10.9583c2.41667,-3,5.30556,-5.29167,8.65278,-6.83333c3.34722,-1.56944,7.08333,-2.36111,11.1389,-2.36111c3.98611,0,7.56944,0.708333,10.7222,2.125c3.18056,1.44444,5.875,3.44444,8.09722,6.04167c2.20833,2.61111,3.91667,5.72222,5.09722,9.36111c1.20833,3.65278,1.80556,7.69444,1.80556,12.125l0,6.80556l-41.7778,0c0.208333,7.76389,1.84722,13.4861,4.91667,17.1389c3.08333,3.65278,7.65278,5.5,13.7083,5.5c2.06944,0,3.95833,-0.111111,5.70833,-0.291667s3.44444,-0.486111,5.06944,-0.875c1.63889,-0.361111,3.19444,-0.875,4.75,-1.44444s3.08333,-1.23611,4.63889,-1.97222l0,9.77778c-1.61111,0.763889,-3.18056,1.44444,-4.73611,2c-1.55556,0.569444,-3.13889,1.02778,-4.76389,1.41667c-1.625,0.333333,-3.31944,0.625,-5.06944,0.777778S-221.336,2664,-223.405,2664zM-226.114,2604.44c-4.59722,0,-8.22222,1.55556,-10.875,4.70833c-2.68056,3.15278,-4.26389,7.70833,-4.69444,13.6806l29.7222,0c0,-2.72222,-0.291667,-5.25,-0.833333,-7.51389c-0.541667,-2.27778,-1.38889,-4.22222,-2.54167,-5.81944s-2.59722,-2.84722,-4.375,-3.75C-221.489,2604.86,-223.614,2604.44,-226.114,2604.44z"/>
   <path fill="#8C8C8C"  d="M-100.989,2662.8l-10.125,-37.1944c-0.166667,-0.736111,-0.361111,-1.54167,-0.611111,-2.44444c-0.236111,-0.902778,-0.472222,-1.88889,-0.708333,-2.875c-0.263889,-1,-0.5,-2.02778,-0.763889,-3.09722c-0.277778,-1.02778,-0.513889,-2.05556,-0.763889,-3.08333c-0.569444,-2.34722,-1.15278,-4.73611,-1.75,-7.23611l-0.333333,0c-0.569444,2.52778,-1.11111,4.94444,-1.625,7.27778c-0.444444,2.02778,-0.916667,4.08333,-1.44444,6.22222c-0.513889,2.11111,-0.958333,3.93056,-1.43056,5.43056l-10.4167,36.9444l-12.7361,0l-16.9583,-66.2639l11.5278,0l7.91667,35.2639c0.402778,1.79167,0.819444,3.75,1.19444,5.875c0.388889,2.09722,0.791667,4.20833,1.13889,6.27778c0.361111,2.05556,0.694444,4,0.972222,5.84722c0.277778,1.83333,0.513889,3.30556,0.680556,4.47222l0.347222,0c0.208333,-1.02778,0.472222,-2.45833,0.819444,-4.19444c0.347222,-1.75,0.722222,-3.61111,1.15278,-5.54167c0.430556,-1.95833,0.875,-3.88889,1.29167,-5.79167c0.444444,-1.93056,0.875,-3.52778,1.26389,-4.875l10.8056,-37.3611l11.8472,0l10.3889,37.3611c0.347222,1.36111,0.777778,2.98611,1.23611,4.83333c0.458333,1.875,0.902778,3.75,1.36111,5.65278c0.444444,1.93056,0.847222,3.76389,1.20833,5.51389c0.347222,1.76389,0.625,3.20833,0.777778,4.375l0.361111,0c0.138889,-1.02778,0.305556,-2.45833,0.583333,-4.19444c0.277778,-1.75,0.583333,-3.68056,0.930556,-5.76389c0.347222,-2.06944,0.75,-4.25,1.16667,-6.44444c0.416667,-2.18056,0.861111,-4.25,1.30556,-6.11111L-82.0996,2596.51l11.2361,0l-17.1389,66.2639L-100.989,2662.78L-100.989,2662.8z"/>
   <path fill="#8C8C8C"  d="M-59.9466,2578.6c0,-2.43056,0.625,-4.16667,1.84722,-5.26389c1.22222,-1.08333,2.73611,-1.625,4.55556,-1.625c0.875,0,1.70833,0.152778,2.51389,0.388889c0.777778,0.263889,1.44444,0.680556,2.04167,1.23611c0.583333,0.569444,1.04167,1.27778,1.40278,2.13889c0.319444,0.875,0.513889,1.90278,0.513889,3.11111c0,2.33333,-0.625,4.06944,-1.91667,5.22222c-1.27778,1.15278,-2.77778,1.70833,-4.54167,1.70833c-1.81944,0,-3.33333,-0.555556,-4.55556,-1.66667C-59.3076,2582.72,-59.9466,2580.96,-59.9466,2578.6zM-48.1136,2662.8l-10.9861,0L-59.0996,2596.51l10.9861,0L-48.1136,2662.8z"/>
   <path fill="#8C8C8C"  d="M-7.05756,2655.01c0.722222,0,1.54167,-0.0416667,2.44444,-0.138889c0.916667,-0.0833333,1.77778,-0.180556,2.625,-0.291667c0.847222,-0.125,1.61111,-0.263889,2.31944,-0.430556c0.708333,-0.152778,1.23611,-0.291667,1.59722,-0.388889l0,8.33333c-0.513889,0.236111,-1.18056,0.486111,-2,0.722222c-0.819444,0.25,-1.69444,0.458333,-2.65278,0.638889c-0.944444,0.208333,-1.97222,0.305556,-3.01389,0.416667s-2.05556,0.152778,-3.06944,0.152778c-2.5,0,-4.81944,-0.291667,-6.94444,-0.944444c-2.125,-0.666667,-3.97222,-1.75,-5.51389,-3.31944c-1.54167,-1.55556,-2.75,-3.70833,-3.65278,-6.36111c-0.875,-2.66667,-1.31944,-6.06944,-1.31944,-10.125L-26.2386,2604.79l-9.36111,0L-35.5996,2599.9l9.34722,-4.70833l4.70833,-13.875l6.33333,0l0,15.2222l16.6528,0l0,8.27778l-16.6528,0l0,38.4583c0,3.90278,0.625,6.83333,1.90278,8.83333C-12.0296,2654.03,-9.96056,2655.01,-7.05756,2655.01z"/>
   <path fill="#8C8C8C"  d="M56.2064,2662.8l0,-42.6806c0,-5.23611,-1.05556,-9.15278,-3.16667,-11.7778c-2.11111,-2.61111,-5.43056,-3.91667,-9.93056,-3.91667c-3.25,0,-6.01389,0.513889,-8.22222,1.54167c-2.19444,1.05556,-3.97222,2.61111,-5.33333,4.66667c-1.34722,2.05556,-2.30556,4.55556,-2.88889,7.55556c-0.583333,2.97222,-0.875,6.40278,-0.875,10.2639l0,34.3472l-10.9861,0L14.8034,2568.87l10.9861,0l0,27.8889l-0.472222,8.69444l0.611111,0c1,-1.72222,2.19444,-3.22222,3.58333,-4.48611s2.90278,-2.31944,4.55556,-3.18056c1.63889,-0.847222,3.40278,-1.44444,5.25,-1.875c1.84722,-0.375,3.75,-0.597222,5.66667,-0.597222c7.375,0,12.9167,1.93056,16.6389,5.77778c3.72222,3.81944,5.56944,9.98611,5.56944,18.4167l0,43.2917L56.2064,2662.8L56.2064,2662.8z"/>
  </g>
  <g >
   <path fill="#8C8C8C"  d="M358.428,2662.58l-18.3889,0L340.039,2574.33l50.5833,0l0,15.3333l-32.1667,0l0,22.7639l29.9444,0l0,15.2778l-29.9444,0L358.428,2662.58L358.428,2662.58z"/>
   <path fill="#8C8C8C"  d="M442.22,2593.83c0.486111,0,1.02778,0.0277778,1.61111,0.0277778c0.583333,0.0277778,1.15278,0.0833333,1.66667,0.138889c0.569444,0.0694444,1.05556,0.125,1.52778,0.194444c0.430556,0.0555556,0.819444,0.138889,1.04167,0.222222l0,17.2778c-0.305556,-0.111111,-0.777778,-0.166667,-1.31944,-0.25c-0.555556,-0.0972222,-1.15278,-0.166667,-1.77778,-0.25c-0.625,-0.0555556,-1.25,-0.0833333,-1.84722,-0.111111c-0.611111,-0.0277778,-1.11111,-0.0277778,-1.5,-0.0277778c-2.375,0,-4.55556,0.291667,-6.55556,0.888889c-2.02778,0.597222,-3.73611,1.56944,-5.13889,2.93056s-2.54167,3.125,-3.31944,5.31944c-0.791667,2.18056,-1.16667,4.88889,-1.16667,8.06944l0,34.3611l-18.4167,0L407.025,2595.1l13.9583,0l2.69444,10.1389l0.916667,0c0.944444,-1.73611,2.01389,-3.30556,3.13889,-4.72222c1.125,-1.43056,2.38889,-2.625,3.77778,-3.59722c1.38889,-0.986111,2.94444,-1.75,4.69444,-2.29167C437.956,2594.11,439.983,2593.83,442.22,2593.83z"/>
   <path fill="#8C8C8C"  d="M460.525,2577.65c0,-1.73611,0.25,-3.16667,0.777778,-4.31944c0.527778,-1.16667,1.23611,-2.08333,2.13889,-2.77778c0.902778,-0.708333,1.97222,-1.19444,3.18056,-1.47222c1.22222,-0.277778,2.55556,-0.416667,3.90278,-0.416667c1.375,0,2.65278,0.138889,3.84722,0.416667c1.22222,0.277778,2.27778,0.763889,3.18056,1.47222c0.916667,0.694444,1.625,1.61111,2.16667,2.77778c0.555556,1.15278,0.819444,2.58333,0.819444,4.31944c0,1.69444,-0.263889,3.125,-0.819444,4.29167c-0.541667,1.16667,-1.25,2.09722,-2.16667,2.81944c-0.875,0.694444,-1.97222,1.19444,-3.18056,1.5c-1.19444,0.291667,-2.5,0.444444,-3.84722,0.444444c-1.375,0,-2.65278,-0.166667,-3.90278,-0.444444c-1.22222,-0.291667,-2.27778,-0.819444,-3.18056,-1.5c-0.902778,-0.708333,-1.61111,-1.65278,-2.13889,-2.81944C460.789,2580.78,460.525,2579.35,460.525,2577.65zM479.72,2662.58l-18.4028,0L461.317,2595.1l18.4028,0L479.72,2662.58z"/>
   <path fill="#8C8C8C"  d="M527.069,2649.12c1.80556,0,3.52778,-0.222222,5.15278,-0.625c1.625,-0.375,3.26389,-0.888889,4.95833,-1.48611l0,13.6944c-1.72222,0.875,-3.86111,1.61111,-6.43056,2.18056c-2.55556,0.583333,-5.34722,0.875,-8.375,0.875c-2.93056,0,-5.66667,-0.333333,-8.19444,-1.01389c-2.56944,-0.694444,-4.75,-1.90278,-6.61111,-3.59722c-1.84722,-1.70833,-3.29167,-4,-4.34722,-6.875c-1.06944,-2.88889,-1.58333,-6.5,-1.58333,-10.8472L501.639,2608.92l-8.83333,0L492.803,2601.12l10.125,-6.15278l5.31944,-14.2222l11.7778,0l0,14.3611l16.4444,0l0,13.8194l-16.4444,0l0,32.5417c0,2.61111,0.666667,4.54167,1.95833,5.79167C523.279,2648.5,524.969,2649.12,527.069,2649.12z"/>
   <path fill="#8C8C8C"  d="M594.749,2662.58L545.119,2662.58l0,-10.8472l27.5694,-42.5556l-25.7361,0L546.959,2595.1l46.5972,0l0,11.9306l-26.6667,41.4583l27.8333,0L594.749,2662.58L594.749,2662.58z"/>
   <path fill="#8C8C8C"  d="M607.789,2577.65c0,-1.73611,0.277778,-3.16667,0.791667,-4.31944c0.527778,-1.16667,1.25,-2.08333,2.125,-2.77778c0.902778,-0.708333,2,-1.19444,3.19444,-1.47222s2.52778,-0.416667,3.88889,-0.416667c1.36111,0,2.63889,0.138889,3.84722,0.416667c1.22222,0.277778,2.27778,0.763889,3.18056,1.47222c0.888889,0.694444,1.625,1.61111,2.16667,2.77778c0.527778,1.15278,0.819444,2.58333,0.819444,4.31944c0,1.69444,-0.291667,3.125,-0.819444,4.29167c-0.541667,1.16667,-1.27778,2.09722,-2.16667,2.81944c-0.888889,0.694444,-1.98611,1.19444,-3.18056,1.5c-1.19444,0.291667,-2.5,0.444444,-3.84722,0.444444c-1.375,0,-2.66667,-0.166667,-3.88889,-0.444444c-1.22222,-0.291667,-2.29167,-0.819444,-3.19444,-1.5c-0.875,-0.708333,-1.59722,-1.65278,-2.125,-2.81944C608.049,2580.78,607.789,2579.35,607.789,2577.65zM626.979,2662.58L608.599,2662.58L608.599,2595.1l18.3889,0L626.979,2662.58z"/>
   <path fill="#8C8C8C"  d="M705.459,2662.58L687.069,2662.58l0,-39.4306c0,-4.875,-0.736111,-8.51389,-2.19444,-10.9306c-1.45833,-2.44444,-3.80556,-3.68056,-7.05556,-3.68056c-2.40278,0,-4.40278,0.486111,-6.02778,1.44444c-1.61111,0.972222,-2.90278,2.40278,-3.83333,4.30556c-0.916667,1.88889,-1.59722,4.22222,-2.02778,7c-0.402778,2.77778,-0.597222,5.95833,-0.597222,9.54167l0,31.75L646.929,2662.58L646.929,2595.1l14.0556,0l2.51389,8.625l1.01389,0c0.958333,-1.72222,2.125,-3.19444,3.51389,-4.45833c1.41667,-1.23611,2.91667,-2.26389,4.55556,-3.06944s3.40278,-1.43056,5.25,-1.77778c1.88889,-0.388889,3.76389,-0.597222,5.68056,-0.597222c3.29167,0,6.30556,0.458333,8.98611,1.44444c2.69444,0.930556,5,2.41667,6.94444,4.41667c1.95833,2.02778,3.43056,4.55556,4.45833,7.70833c1.04167,3.125,1.56944,6.83333,1.56944,11.2083l0,44L705.459,2662.58L705.459,2662.58z"/>
   <path fill="#8C8C8C"  d="M780.869,2595.22l0,10.0278l-9.83333,3.06944c0.819444,1.38889,1.38889,2.79167,1.69444,4.27778c0.291667,1.47222,0.458333,3.05556,0.458333,4.76389c0,3.41667,-0.541667,6.54167,-1.61111,9.38889c-1.08333,2.81944,-2.68056,5.26389,-4.84722,7.25c-2.11111,2.02778,-4.80556,3.58333,-8.02778,4.68056c-3.19444,1.11111,-6.94444,1.65278,-11.2222,1.65278c-0.930556,0,-1.95833,-0.0416667,-3.02778,-0.166667c-1.08333,-0.0972222,-1.90278,-0.208333,-2.43056,-0.291667c-0.791667,0.680556,-1.44444,1.40278,-1.90278,2.11111c-0.458333,0.75,-0.680556,1.625,-0.680556,2.68056c0,0.847222,0.25,1.5,0.777778,2.02778s1.20833,0.902778,2.04167,1.20833c0.833333,0.305556,1.84722,0.5,2.97222,0.611111s2.29167,0.166667,3.48611,0.166667l10.5,0c3.27778,0,6.19444,0.347222,8.76389,1.125c2.58333,0.763889,4.75,1.875,6.55556,3.41667c1.79167,1.51389,3.18056,3.45833,4.15278,5.81944c0.958333,2.34722,1.44444,5.16667,1.44444,8.40278c0,3.81944,-0.75,7.26389,-2.27778,10.3472c-1.51389,3.11111,-3.80556,5.69444,-6.86111,7.84722c-3.04167,2.13889,-6.77778,3.79167,-11.2917,4.93056c-4.5,1.13889,-9.70833,1.70833,-15.6389,1.70833c-4.56944,0,-8.58333,-0.430556,-12,-1.30556c-3.43056,-0.875,-6.26389,-2.08333,-8.56944,-3.75c-2.29167,-1.61111,-4,-3.58333,-5.15278,-5.88889c-1.16667,-2.27778,-1.73611,-4.90278,-1.73611,-7.79167c0,-2.45833,0.430556,-4.58333,1.29167,-6.38889c0.847222,-1.81944,1.98611,-3.375,3.375,-4.66667c1.41667,-1.29167,3.02778,-2.33333,4.81944,-3.15278c1.79167,-0.805556,3.63889,-1.43056,5.5,-1.86111c-0.847222,-0.361111,-1.66667,-0.875,-2.51389,-1.51389c-0.819444,-0.652778,-1.56944,-1.38889,-2.23611,-2.20833c-0.652778,-0.875,-1.19444,-1.79167,-1.61111,-2.81944c-0.430556,-1,-0.652778,-2.08333,-0.652778,-3.19444c0,-1.29167,0.208333,-2.47222,0.555556,-3.5c0.402778,-1.05556,0.944444,-2.02778,1.66667,-2.94444c0.722222,-0.888889,1.625,-1.75,2.72222,-2.55556c1.08333,-0.833333,2.30556,-1.625,3.66667,-2.5c-3.52778,-1.52778,-6.33333,-3.98611,-8.38889,-7.36111c-2.08333,-3.38889,-3.125,-7.34722,-3.125,-11.9306c0,-3.61111,0.555556,-6.86111,1.68056,-9.70833c1.125,-2.875,2.77778,-5.29167,4.94444,-7.26389c2.15278,-2,4.86111,-3.5,8.08333,-4.55556c3.20833,-1.05556,6.93056,-1.56944,11.125,-1.56944c0.791667,0,1.69444,0.0555556,2.69444,0.166667s2.01389,0.25,3,0.347222c0.972222,0.138889,1.90278,0.291667,2.72222,0.458333c0.847222,0.138889,1.51389,0.291667,2.02778,0.402778L780.869,2595.22L780.869,2595.22zM732.579,2672.12c0,1.01389,0.236111,2.01389,0.652778,2.93056c0.416667,0.944444,1.11111,1.79167,2.08333,2.52778c0.944444,0.722222,2.22222,1.30556,3.77778,1.72222c1.56944,0.416667,3.5,0.638889,5.79167,0.638889c6.27778,0,11,-0.875,14.1806,-2.65278c3.18056,-1.76389,4.76389,-4.13889,4.76389,-7.13889c0,-2.54167,-0.972222,-4.22222,-2.95833,-5.05556c-1.98611,-0.833333,-5.01389,-1.26389,-9.16667,-1.26389l-8.51389,0c-1.06944,0,-2.25,0.125,-3.5,0.375c-1.25,0.25,-2.38889,0.722222,-3.44444,1.375c-1.04167,0.638889,-1.93056,1.5,-2.61111,2.55556S732.579,2670.53,732.579,2672.12zM739.229,2617.19c0,3.65278,0.680556,6.5,2.04167,8.5c1.36111,2.02778,3.44444,3.01389,6.20833,3.01389c2.90278,0,4.97222,-0.972222,6.26389,-3.01389c1.30556,-2.01389,1.94444,-4.86111,1.94444,-8.5c0,-3.625,-0.638889,-6.5,-1.90278,-8.63889c-1.27778,-2.11111,-3.375,-3.18056,-6.30556,-3.18056C741.969,2605.36,739.229,2609.29,739.229,2617.19z"/>
   <path fill="#8C8C8C"  d="M791.289,2653.96c0,-1.88889,0.277778,-3.48611,0.819444,-4.80556c0.555556,-1.31944,1.30556,-2.38889,2.26389,-3.18056c0.958333,-0.805556,2.06944,-1.40278,3.38889,-1.75c1.27778,-0.361111,2.65278,-0.541667,4.15278,-0.541667c1.41667,0,2.75,0.180556,4.01389,0.541667c1.27778,0.347222,2.38889,0.944444,3.36111,1.75c0.944444,0.791667,1.70833,1.86111,2.26389,3.18056c0.569444,1.31944,0.861111,2.91667,0.861111,4.80556c0,1.80556,-0.291667,3.36111,-0.861111,4.65278c-0.555556,1.29167,-1.31944,2.36111,-2.26389,3.18056c-0.972222,0.861111,-2.08333,1.44444,-3.36111,1.84722c-1.26389,0.375,-2.61111,0.583333,-4.01389,0.583333c-1.47222,0,-2.875,-0.208333,-4.15278,-0.583333c-1.31944,-0.375,-2.43056,-0.986111,-3.38889,-1.84722c-0.958333,-0.847222,-1.70833,-1.91667,-2.26389,-3.18056C791.539,2657.32,791.289,2655.76,791.289,2653.96z"/>
   <path fill="#8C8C8C"  d="M887.939,2628.71c0,5.63889,-0.722222,10.6528,-2.125,14.9861c-1.44444,4.34722,-3.48611,8,-6.15278,10.9722c-2.66667,2.98611,-5.94444,5.25,-9.77778,6.79167c-3.84722,1.54167,-8.15278,2.31944,-12.9583,2.31944c-4.45833,0,-8.56944,-0.777778,-12.3056,-2.31944c-3.76389,-1.55556,-6.98611,-3.80556,-9.69444,-6.79167c-2.70833,-2.97222,-4.86111,-6.65278,-6.36111,-10.9722c-1.52778,-4.34722,-2.29167,-9.34722,-2.29167,-14.9861c0,-5.58333,0.708333,-10.5556,2.13889,-14.8889c1.43056,-4.36111,3.47222,-8,6.13889,-10.9583C837.219,2599.89,840.469,2597.65,844.289,2596.14s8.15278,-2.27778,13.0139,-2.27778c4.43056,0,8.54167,0.763889,12.3056,2.27778c3.75,1.54167,6.97222,3.76389,9.65278,6.72222c2.73611,2.95833,4.875,6.625,6.375,10.9583C887.169,2618.15,887.939,2623.12,887.939,2628.71zM845.079,2628.71c0,6.72222,0.944444,11.8194,2.84722,15.1806c1.90278,3.41667,4.95833,5.11111,9.22222,5.11111c4.25,0,7.27778,-1.70833,9.16667,-5.13889c1.90278,-3.40278,2.84722,-8.44444,2.84722,-15.1528s-0.944444,-11.75,-2.84722,-15.0556c-1.88889,-3.30556,-4.97222,-4.95833,-9.27778,-4.95833c-4.23611,0,-7.26389,1.65278,-9.15278,4.95833C846.009,2616.97,845.079,2622.01,845.079,2628.71z"/>
   <path fill="#8C8C8C"  d="M939.609,2593.83c0.486111,0,1.01389,0.0277778,1.59722,0.0277778c0.583333,0.0277778,1.15278,0.0833333,1.66667,0.138889c0.555556,0.0694444,1.05556,0.125,1.51389,0.194444c0.458333,0.0555556,0.819444,0.138889,1.05556,0.222222l0,17.2778c-0.319444,-0.111111,-0.763889,-0.166667,-1.31944,-0.25c-0.569444,-0.0972222,-1.15278,-0.166667,-1.80556,-0.25c-0.625,-0.0555556,-1.23611,-0.0833333,-1.83333,-0.111111c-0.625,-0.0277778,-1.11111,-0.0277778,-1.5,-0.0277778c-2.375,0,-4.55556,0.291667,-6.56944,0.888889c-2,0.597222,-3.70833,1.56944,-5.13889,2.93056c-1.41667,1.36111,-2.52778,3.125,-3.29167,5.31944c-0.805556,2.18056,-1.16667,4.88889,-1.16667,8.06944l0,34.3611l-18.4167,0L904.399,2595.1l13.9444,0l2.70833,10.1389l0.902778,0c0.944444,-1.73611,2.02778,-3.30556,3.13889,-4.72222c1.125,-1.43056,2.38889,-2.625,3.76389,-3.59722c1.40278,-0.986111,2.95833,-1.75,4.70833,-2.29167C935.359,2594.11,937.359,2593.83,939.609,2593.83z"/>
   <path fill="#8C8C8C"  d="M1013.33,2595.22l0,10.0278l-9.83333,3.06944c0.805556,1.38889,1.375,2.79167,1.68056,4.27778s0.472222,3.05556,0.472222,4.76389c0,3.41667,-0.541667,6.54167,-1.61111,9.38889c-1.09722,2.81944,-2.69444,5.26389,-4.84722,7.25c-2.125,2.02778,-4.83333,3.58333,-8.02778,4.68056c-3.22222,1.11111,-6.95833,1.65278,-11.2361,1.65278c-0.930556,0,-1.95833,-0.0416667,-3.04167,-0.166667c-1.08333,-0.0972222,-1.875,-0.208333,-2.40278,-0.291667c-0.805556,0.680556,-1.44444,1.40278,-1.90278,2.11111c-0.472222,0.75,-0.694444,1.625,-0.694444,2.68056c0,0.847222,0.263889,1.5,0.791667,2.02778c0.513889,0.513889,1.19444,0.902778,2.02778,1.20833c0.861111,0.291667,1.84722,0.5,2.98611,0.611111c1.11111,0.111111,2.27778,0.166667,3.48611,0.166667l10.5,0c3.25,0,6.18056,0.347222,8.75,1.125c2.58333,0.763889,4.76389,1.875,6.55556,3.41667c1.79167,1.51389,3.18056,3.45833,4.13889,5.81944c0.972222,2.34722,1.44444,5.16667,1.44444,8.40278c0,3.81944,-0.75,7.26389,-2.29167,10.3472c-1.51389,3.11111,-3.81944,5.69444,-6.84722,7.84722c-3.04167,2.13889,-6.79167,3.79167,-11.3194,4.93056c-4.48611,1.13889,-9.69444,1.70833,-15.625,1.70833c-4.56944,0,-8.56944,-0.430556,-12,-1.30556c-3.41667,-0.875,-6.26389,-2.08333,-8.56944,-3.75c-2.27778,-1.61111,-3.98611,-3.58333,-5.15278,-5.88889c-1.15278,-2.27778,-1.72222,-4.90278,-1.72222,-7.79167c0,-2.45833,0.416667,-4.58333,1.26389,-6.38889c0.875,-1.81944,2,-3.375,3.38889,-4.66667c1.43056,-1.29167,3.01389,-2.33333,4.80556,-3.15278c1.79167,-0.805556,3.65278,-1.43056,5.52778,-1.86111c-0.861111,-0.361111,-1.68056,-0.875,-2.52778,-1.51389c-0.833333,-0.652778,-1.56944,-1.38889,-2.22222,-2.20833c-0.652778,-0.875,-1.20833,-1.79167,-1.625,-2.81944c-0.416667,-1.01389,-0.625,-2.09722,-0.625,-3.20833c0,-1.29167,0.194444,-2.47222,0.555556,-3.5c0.375,-1.05556,0.930556,-2.02778,1.66667,-2.94444c0.708333,-0.888889,1.625,-1.75,2.69444,-2.55556c1.08333,-0.833333,2.30556,-1.625,3.69444,-2.5c-3.54167,-1.51389,-6.33333,-3.98611,-8.41667,-7.34722c-2.05556,-3.38889,-3.09722,-7.375,-3.09722,-11.9583c0,-3.61111,0.541667,-6.84722,1.68056,-9.69444c1.125,-2.875,2.76389,-5.30556,4.91667,-7.27778c2.16667,-1.98611,4.875,-3.5,8.09722,-4.55556c3.20833,-1.02778,6.93056,-1.54167,11.1111,-1.54167c0.819444,0,1.70833,0.0416667,2.70833,0.152778s2.02778,0.236111,2.98611,0.361111c1,0.125,1.91667,0.291667,2.75,0.430556c0.861111,0.166667,1.5,0.291667,2.01389,0.416667L1013.33,2595.21L1013.33,2595.22zM965.049,2672.12c0,1.01389,0.236111,2.01389,0.638889,2.93056c0.430556,0.944444,1.125,1.79167,2.06944,2.52778c0.972222,0.722222,2.23611,1.30556,3.79167,1.72222c1.58333,0.416667,3.5,0.638889,5.80556,0.638889c6.26389,0,11,-0.875,14.1806,-2.65278c3.18056,-1.76389,4.76389,-4.13889,4.76389,-7.13889c0,-2.54167,-0.986111,-4.22222,-2.97222,-5.05556s-5.01389,-1.26389,-9.16667,-1.26389l-8.5,0c-1.09722,0,-2.26389,0.125,-3.5,0.375c-1.25,0.263889,-2.40278,0.722222,-3.44444,1.375c-1.05556,0.638889,-1.93056,1.5,-2.61111,2.55556C965.409,2669.17,965.049,2670.53,965.049,2672.12zM971.679,2617.19c0,3.65278,0.680556,6.5,2.05556,8.5c1.375,2.02778,3.44444,3.01389,6.20833,3.01389c2.90278,0,4.97222,-0.972222,6.26389,-3.01389c1.30556,-2.01389,1.95833,-4.86111,1.95833,-8.5c0,-3.625,-0.638889,-6.5,-1.91667,-8.63889c-1.27778,-2.11111,-3.375,-3.18056,-6.30556,-3.18056C974.429,2605.36,971.679,2609.29,971.679,2617.19z"/>
  </g>
  <g >
   <path fill="#8C8C8C"  d="M257.692,2555.22l-113.139,0c-7.38889,0,-13.4028,6,-13.4028,13.3889l0,113.139c0,7.375,6.01389,13.3889,13.4028,13.3889l77.0833,0l49.4028,-49.4167L271.039,2568.61C271.081,2561.21,265.081,2555.22,257.692,2555.22zM234.4,2607.01l-14.9306,0l0,5.56944l14.9306,0l0,22.2361l-30.5,0l0,28.5833l-35.7222,0l0,-64.8611l13.7222,-13.75l52.4861,0l0,22.2639l0.0138889,0L234.4,2607.01z"/>
  </g>
 </g>
 <g partID="76220">
  <g transform="translate(88.4667,353.139)">
   <g  id="schematic">
    <rect width="26.2917" x="76.0278" y="15.125"  height="135.875" id="connector0pin"/>
    <g width="12.0278" x="82.6667" y="5.63889"  height="9.52778" id="connector0terminal"/>
    <rect width="26.3056" x="76.0694" y="755.125"  height="135.875" id="connector1pin"/>
    <g width="12.0278" x="82.7222" y="890.028"  height="9.55556" id="connector1terminal"/>
    <g >
     <polyline fill="#FFFFFF" points="88.9583,15.7222,88.9583,283.222,137.569,309.097,36.875,365.153,137.569,421.167,36.875,477.208,137.569,533.222,36.875,589.264,88.9583,619.431,88.9583,886.958"  stroke="#000000" stroke-linecap="round" stroke-width="30.95"/>
    </g>
   </g>
  </g>
 </g>
 <g partID="76740">
  <g transform="translate(88.4667,1238.97)">
   <g  id="schematic">
    <rect width="26.2917" x="76.0278" y="15.125"  height="135.875" id="connector0pin"/>
    <g width="12.0278" x="82.6667" y="5.63889"  height="9.52778" id="connector0terminal"/>
    <rect width="26.3056" x="76.0694" y="755.125"  height="135.875" id="connector1pin"/>
    <g width="12.0278" x="82.7222" y="890.028"  height="9.55556" id="connector1terminal"/>
    <g >
     <polyline fill="#FFFFFF" points="88.9583,15.7222,88.9583,283.222,137.569,309.097,36.875,365.153,137.569,421.167,36.875,477.208,137.569,533.222,36.875,589.264,88.9583,619.431,88.9583,886.958"  stroke="#000000" stroke-linecap="round" stroke-width="30.95"/>
    </g>
   </g>
  </g>
 </g>
 <g partID="76240">
  <g transform="translate(52.5667,2129.9)">
   <g  id="schematic">
    <path fill="none"  stroke="#000000" id="connector0pin" stroke-width="26.6667" d="M124.6,236.222L124.6,0"/>
    <g width="10.5" x="119.333" fill="none"  height="10.5889" id="connector0terminal"/>
    <path fill="none"  stroke="#000000" id="path4098" stroke-width="26.6667" d="M0,236.222l249.178,0"/>
    <path fill="none"  stroke="#000000" id="path4100" stroke-width="26.6667" d="M41.5111,280.056l166.133,0"/>
    <path fill="none"  stroke="#000000" id="path4102" stroke-width="26.6667" d="M166.056,323.867L83.0667,323.867"/>
   </g>
  </g>
 </g>
 <g partID="76270">
  <g  id="schematic">
   <rect width="33.3302" x="160.485" y="218.597" fill="#000000"  height="150.5" stroke="none" id="connector0pin" stroke-width="0"/>
   <g width="0" x="177.15" y="357.986"  height="11.1111" id="connector0terminal"/>
   <path fill="none"  stroke="#000000" stroke-width="33.3302" d="M0,218.597l354.3,0"/>
   <text x="20.8314" y="149.306" fill="#000000" font-family="Droid Sans"  id="label" font-size="124.988">5V</text>
  </g>
 </g>
 <g partID="76470">
  <g transform="translate(170.222,1114.33)">
   <g  id="schematic">
    <line fill="none"  stroke="#000000" stroke-linejoin="round" id="connector0pin" stroke-linecap="round" y1="135.028" stroke-width="27.7778" x1="13.8611" y2="135.028" x2="247.861"/>
    <g width="13.8611" x="0" y="121.167"  height="27.7362" id="connector0terminal"/>
    <polyline fill="none" points="856.125,227.862,647.181,135.028,856.125,42.139"  stroke="#000000" stroke-linejoin="round" stroke-linecap="round" stroke-width="27.7778"/>
    <line fill="none"  stroke="#000000" stroke-linejoin="round" id="line" stroke-linecap="round" y1="135.028" stroke-width="27.7778" x1="655.819" y2="135.028" x2="228.5"/>
   </g>
  </g>
 </g>
 <g partID="76320">
  <line stroke="#404040" stroke-linecap="round" y1="363.542" x1="177.144" y2="363.542" stroke-width="33.3333" x2="177.142"/>
 </g>
 <g partID="76490">
  <line stroke="#404040" stroke-linecap="round" y1="1247.94" x1="177.2" y2="1249.37" stroke-width="33.3333" x2="177.147"/>
 </g>
 <circle fill="black" cx="177.2" cy="1247.94" stroke="none" r="50" stroke-width="0"/>
 <g partID="76760">
  <line stroke="#404040" stroke-linecap="round" y1="1247.94" x1="177.2" y2="1249.37" stroke-width="33.3333" x2="177.144"/>
 </g>
 <circle fill="black" cx="177.2" cy="1247.94" stroke="none" r="50" stroke-width="0"/>
 <g partID="76940">
  <line stroke="#404040" stroke-linecap="round" y1="2133.78" x1="177.2" y2="2135.2" stroke-width="33.3333" x2="177.147"/>
 </g>
 <g id="partLabel" partID="76740">
  <g transform="translate(317.978,1629.3)">
   <g fill="#000000" font-family="'DroidSans'" stroke="none" font-style="normal" fill-opacity="1" font-weight="normal" id="schematicLabel" font-size="125">
    <text x="0" y="93.75">1M&#x3a9;</text>
   </g>
  </g>
 </g>
 <g id="partLabel" partID="76470">
  <g transform="translate(561.211,1077.3)">
   <g fill="#000000" font-family="'DroidSans'" stroke="none" font-style="normal" fill-opacity="1" font-weight="normal" id="schematicLabel" font-size="125">
    <text x="0" y="93.75">Pin</text>
   </g>
  </g>
 </g>
 <g id="partLabel" partID="76220">
  <g transform="translate(313.144,751.69)">
   <g fill="#000000" font-family="'DroidSans'" stroke="none" font-style="normal" fill-opacity="1" font-weight="normal" id="schematicLabel" font-size="125">
    <text x="0" y="93.75">1M&#x3a9;</text>
   </g>
  </g>
 </g>
</svg>
