<?xml version='1.0' encoding='UTF-8' standalone='no'?>
<!-- Created with Fritzing (http://www.fritzing.org/) -->
<svg xmlns="http://www.w3.org/2000/svg" width="13.3822in" x="0in" version="1.2" y="0in"  height="4.36757in" viewBox="0 0 13382.2 4367.57" baseProfile="tiny" xmlns:svg="http://www.w3.org/2000/svg">
 <g  id="watermark">
  <g >
   <path fill="#8C8C8C"  d="M11884.7,4335.23L11858,4257.96L11857.5,4257.96c0.236111,2.97222,0.444444,5.93056,0.611111,8.88889c0.166667,2.54167,0.291667,5.20833,0.388889,7.97222c0.0972222,2.81944,0.152778,5.34722,0.152778,7.65278l0,52.7778L11848.3,4335.25L11848.3,4246.97l16.6528,0l24.875,71.9583l0.347222,0l25,-71.9583L11931.8,4246.97l0,88.25L11920.6,4335.22l0,-53.5278c0,-2.08333,0.0416667,-4.5,0.125,-7.19444s0.180556,-5.27778,0.291667,-7.73611c0.166667,-2.875,0.291667,-5.77778,0.402778,-8.68056L11921,4258.08L11894,4335.23L11884.7,4335.23z"/>
   <path fill="#8C8C8C"  d="M11991.7,4335.23l-2.22222,-9.18056l-0.486111,0c-1.31944,1.81944,-2.63889,3.375,-3.97222,4.69444c-1.31944,1.31944,-2.77778,2.38889,-4.34722,3.20833c-1.56944,0.861111,-3.31944,1.47222,-5.25,1.88889c-1.95833,0.388889,-4.16667,0.583333,-6.69444,0.583333c-2.77778,0,-5.33333,-0.361111,-7.66667,-1.16667c-2.33333,-0.791667,-4.36111,-2,-6.08333,-3.625c-1.69444,-1.61111,-3.04167,-3.68056,-4,-6.15278S11949.5,4320.1,11949.5,4316.69c0,-6.59722,2.31944,-11.6806,6.95833,-15.2083c4.65278,-3.55556,11.7361,-5.47222,21.2222,-5.80556l11.0972,-0.402778l0,-4.18056c0,-2.68056,-0.291667,-4.94444,-0.875,-6.75s-1.43056,-3.25,-2.54167,-4.36111s-2.47222,-1.91667,-4.09722,-2.38889c-1.625,-0.486111,-3.48611,-0.722222,-5.58333,-0.722222c-3.34722,0,-6.44444,0.472222,-9.31944,1.44444c-2.875,0.944444,-5.65278,2.11111,-8.29167,3.47222L11954.2,4273.55c2.97222,-1.625,6.29167,-3.01389,9.95833,-4.13889c3.66667,-1.09722,7.5,-1.66667,11.5278,-1.66667c4.11111,0,7.65278,0.402778,10.6667,1.25c3,0.819444,5.48611,2.09722,7.41667,3.88889c1.95833,1.80556,3.43056,4.08333,4.38889,6.86111c0.972222,2.76389,1.44444,6.11111,1.44444,10.0833l0,45.4028L11991.7,4335.23L11991.7,4335.23zM11971.5,4327.58c2.47222,0,4.73611,-0.388889,6.81944,-1.16667c2.06944,-0.763889,3.91667,-1.91667,5.43056,-3.45833c1.52778,-1.54167,2.72222,-3.5,3.58333,-5.86111c0.875,-2.36111,1.30556,-5.125,1.30556,-8.31944l0,-5.97222l-8.625,0.416667c-3.63889,0.166667,-6.66667,0.569444,-9.11111,1.19444c-2.43056,0.652778,-4.40278,1.56944,-5.875,2.68056c-1.45833,1.16667,-2.54167,2.56944,-3.18056,4.18056c-0.638889,1.625,-0.944444,3.47222,-0.944444,5.52778c0,3.72222,0.958333,6.41667,2.93056,8.13889C11965.8,4326.71,11968.4,4327.58,11971.5,4327.58z"/>
   <path fill="#8C8C8C"  d="M12060.9,4326.36l-0.472222,0c-0.875,1.375,-1.93056,2.65278,-3.11111,3.90278c-1.18056,1.22222,-2.55556,2.29167,-4.11111,3.20833c-1.54167,0.916667,-3.29167,1.63889,-5.22222,2.16667c-1.93056,0.513889,-4.09722,0.777778,-6.52778,0.777778c-3.76389,0,-7.18056,-0.708333,-10.25,-2.13889c-3.09722,-1.45833,-5.77778,-3.63889,-7.98611,-6.51389s-3.91667,-6.44444,-5.125,-10.7083c-1.20833,-4.29167,-1.80556,-9.22222,-1.80556,-14.8472c0,-5.66667,0.597222,-10.6528,1.80556,-14.9444c1.19444,-4.30556,2.90278,-7.875,5.125,-10.75c2.20833,-2.90278,4.88889,-5.09722,7.98611,-6.56944c3.08333,-1.45833,6.51389,-2.19444,10.25,-2.19444c2.375,0,4.54167,0.277778,6.47222,0.791667s3.66667,1.22222,5.22222,2.11111c1.55556,0.875,2.93056,1.90278,4.125,3.06944s2.26389,2.38889,3.15278,3.69444l0.722222,0c-0.125,-1.38889,-0.25,-2.65278,-0.361111,-3.93056c-0.0833333,-1.02778,-0.166667,-2.11111,-0.25,-3.22222c-0.0694444,-1.08333,-0.125,-1.98611,-0.125,-2.61111L12060.4,4241.3l11,0l0,93.9306l-8.90278,0L12060.9,4326.36zM12043.5,4327.35c3.06944,0,5.65278,-0.458333,7.77778,-1.41667c2.09722,-0.902778,3.80556,-2.33333,5.13889,-4.22222c1.30556,-1.88889,2.26389,-4.27778,2.90278,-7.11111c0.611111,-2.83333,0.958333,-6.13889,1.05556,-9.94444l0,-2.45833c0,-4.05556,-0.277778,-7.66667,-0.819444,-10.8333c-0.555556,-3.18056,-1.45833,-5.80556,-2.77778,-7.97222c-1.30556,-2.13889,-3.04167,-3.76389,-5.22222,-4.875c-2.16667,-1.11111,-4.88889,-1.65278,-8.13889,-1.65278c-5.43056,0,-9.43056,2.18056,-11.9583,6.58333c-2.56944,4.375,-3.84722,10.7083,-3.84722,18.875c0,8.40278,1.27778,14.6944,3.84722,18.8056C12034,4325.26,12038,4327.35,12043.5,4327.35z"/>
   <path fill="#8C8C8C"  d="M12118.6,4336.43c-4.41667,0,-8.45833,-0.736111,-12.1389,-2.22222c-3.65278,-1.47222,-6.80556,-3.66667,-9.44444,-6.51389c-2.63889,-2.875,-4.69444,-6.40278,-6.13889,-10.6389c-1.44444,-4.25,-2.16667,-9.04167,-2.16667,-14.5139s0.680556,-10.3333,2,-14.6528c1.33333,-4.31944,3.18056,-7.97222,5.625,-10.9583c2.41667,-3,5.30556,-5.29167,8.65278,-6.83333c3.34722,-1.56944,7.08333,-2.36111,11.1389,-2.36111c3.98611,0,7.56944,0.708333,10.7222,2.125c3.18056,1.44444,5.875,3.44444,8.09722,6.04167c2.20833,2.61111,3.91667,5.72222,5.09722,9.36111c1.20833,3.65278,1.80556,7.69444,1.80556,12.125l0,6.80556l-41.7778,0c0.208333,7.76389,1.84722,13.4861,4.91667,17.1389c3.08333,3.65278,7.65278,5.5,13.7083,5.5c2.06944,0,3.95833,-0.111111,5.70833,-0.291667s3.44444,-0.486111,5.06944,-0.875c1.63889,-0.361111,3.19444,-0.875,4.75,-1.44444s3.08333,-1.23611,4.63889,-1.97222l0,9.77778c-1.61111,0.763889,-3.18056,1.44444,-4.73611,2c-1.55556,0.569444,-3.13889,1.02778,-4.76389,1.41667c-1.625,0.333333,-3.31944,0.625,-5.06944,0.777778S12120.6,4336.43,12118.6,4336.43zM12115.9,4276.87c-4.59722,0,-8.22222,1.55556,-10.875,4.70833c-2.68056,3.15278,-4.26389,7.70833,-4.69444,13.6806l29.7222,0c0,-2.72222,-0.291667,-5.25,-0.833333,-7.51389c-0.541667,-2.27778,-1.38889,-4.22222,-2.54167,-5.81944s-2.59722,-2.84722,-4.375,-3.75C12120.5,4277.29,12118.4,4276.87,12115.9,4276.87z"/>
   <path fill="#8C8C8C"  d="M12241,4335.23l-10.125,-37.1944c-0.166667,-0.736111,-0.361111,-1.54167,-0.611111,-2.44444c-0.236111,-0.902778,-0.472222,-1.88889,-0.708333,-2.875c-0.263889,-1,-0.5,-2.02778,-0.763889,-3.09722c-0.277778,-1.02778,-0.513889,-2.05556,-0.763889,-3.08333c-0.569444,-2.34722,-1.15278,-4.73611,-1.75,-7.23611l-0.333333,0c-0.569444,2.52778,-1.11111,4.94444,-1.625,7.27778c-0.444444,2.02778,-0.916667,4.08333,-1.44444,6.22222c-0.513889,2.11111,-0.958333,3.93056,-1.43056,5.43056l-10.4167,36.9444l-12.7361,0l-16.9583,-66.2639l11.5278,0l7.91667,35.2639c0.402778,1.79167,0.819444,3.75,1.19444,5.875c0.388889,2.09722,0.791667,4.20833,1.13889,6.27778c0.361111,2.05556,0.694444,4,0.972222,5.84722c0.277778,1.83333,0.513889,3.30556,0.680556,4.47222l0.347222,0c0.208333,-1.02778,0.472222,-2.45833,0.819444,-4.19444c0.347222,-1.75,0.722222,-3.61111,1.15278,-5.54167c0.430556,-1.95833,0.875,-3.88889,1.29167,-5.79167c0.444444,-1.93056,0.875,-3.52778,1.26389,-4.875l10.8056,-37.3611l11.8472,0l10.3889,37.3611c0.347222,1.36111,0.777778,2.98611,1.23611,4.83333c0.458333,1.875,0.902778,3.75,1.36111,5.65278c0.444444,1.93056,0.847222,3.76389,1.20833,5.51389c0.347222,1.76389,0.625,3.20833,0.777778,4.375l0.361111,0c0.138889,-1.02778,0.305556,-2.45833,0.583333,-4.19444c0.277778,-1.75,0.583333,-3.68056,0.930556,-5.76389c0.347222,-2.06944,0.75,-4.25,1.16667,-6.44444c0.416667,-2.18056,0.861111,-4.25,1.30556,-6.11111L12259.9,4268.94l11.2361,0l-17.1389,66.2639L12241,4335.21L12241,4335.23z"/>
   <path fill="#8C8C8C"  d="M12282,4251.03c0,-2.43056,0.625,-4.16667,1.84722,-5.26389c1.22222,-1.08333,2.73611,-1.625,4.55556,-1.625c0.875,0,1.70833,0.152778,2.51389,0.388889c0.777778,0.263889,1.44444,0.680556,2.04167,1.23611c0.583333,0.569444,1.04167,1.27778,1.40278,2.13889c0.319444,0.875,0.513889,1.90278,0.513889,3.11111c0,2.33333,-0.625,4.06944,-1.91667,5.22222c-1.27778,1.15278,-2.77778,1.70833,-4.54167,1.70833c-1.81944,0,-3.33333,-0.555556,-4.55556,-1.66667C12282.7,4255.15,12282,4253.39,12282,4251.03zM12293.9,4335.23l-10.9861,0L12282.9,4268.94l10.9861,0L12293.9,4335.23z"/>
   <path fill="#8C8C8C"  d="M12334.9,4327.44c0.722222,0,1.54167,-0.0416667,2.44444,-0.138889c0.916667,-0.0833333,1.77778,-0.180556,2.625,-0.291667c0.847222,-0.125,1.61111,-0.263889,2.31944,-0.430556c0.708333,-0.152778,1.23611,-0.291667,1.59722,-0.388889l0,8.33333c-0.513889,0.236111,-1.18056,0.486111,-2,0.722222c-0.819444,0.25,-1.69444,0.458333,-2.65278,0.638889c-0.944444,0.208333,-1.97222,0.305556,-3.01389,0.416667s-2.05556,0.152778,-3.06944,0.152778c-2.5,0,-4.81944,-0.291667,-6.94444,-0.944444c-2.125,-0.666667,-3.97222,-1.75,-5.51389,-3.31944c-1.54167,-1.55556,-2.75,-3.70833,-3.65278,-6.36111c-0.875,-2.66667,-1.31944,-6.06944,-1.31944,-10.125L12315.7,4277.22l-9.36111,0L12306.4,4272.33l9.34722,-4.70833l4.70833,-13.875l6.33333,0l0,15.2222l16.6528,0l0,8.27778l-16.6528,0l0,38.4583c0,3.90278,0.625,6.83333,1.90278,8.83333C12330,4326.46,12332,4327.44,12334.9,4327.44z"/>
   <path fill="#8C8C8C"  d="M12398.2,4335.23l0,-42.6806c0,-5.23611,-1.05556,-9.15278,-3.16667,-11.7778c-2.11111,-2.61111,-5.43056,-3.91667,-9.93056,-3.91667c-3.25,0,-6.01389,0.513889,-8.22222,1.54167c-2.19444,1.05556,-3.97222,2.61111,-5.33333,4.66667c-1.34722,2.05556,-2.30556,4.55556,-2.88889,7.55556c-0.583333,2.97222,-0.875,6.40278,-0.875,10.2639l0,34.3472l-10.9861,0L12356.8,4241.3l10.9861,0l0,27.8889l-0.472222,8.69444l0.611111,0c1,-1.72222,2.19444,-3.22222,3.58333,-4.48611s2.90278,-2.31944,4.55556,-3.18056c1.63889,-0.847222,3.40278,-1.44444,5.25,-1.875c1.84722,-0.375,3.75,-0.597222,5.66667,-0.597222c7.375,0,12.9167,1.93056,16.6389,5.77778c3.72222,3.81944,5.56944,9.98611,5.56944,18.4167l0,43.2917L12398.2,4335.23L12398.2,4335.23z"/>
  </g>
  <g >
   <path fill="#8C8C8C"  d="M12700.4,4335.01l-18.3889,0L12682,4246.76l50.5833,0l0,15.3333l-32.1667,0l0,22.7639l29.9444,0l0,15.2778l-29.9444,0L12700.4,4335.01L12700.4,4335.01z"/>
   <path fill="#8C8C8C"  d="M12784.2,4266.26c0.486111,0,1.02778,0.0277778,1.61111,0.0277778c0.583333,0.0277778,1.15278,0.0833333,1.66667,0.138889c0.569444,0.0694444,1.05556,0.125,1.52778,0.194444c0.430556,0.0555556,0.819444,0.138889,1.04167,0.222222l0,17.2778c-0.305556,-0.111111,-0.777778,-0.166667,-1.31944,-0.25c-0.555556,-0.0972222,-1.15278,-0.166667,-1.77778,-0.25c-0.625,-0.0555556,-1.25,-0.0833333,-1.84722,-0.111111c-0.611111,-0.0277778,-1.11111,-0.0277778,-1.5,-0.0277778c-2.375,0,-4.55556,0.291667,-6.55556,0.888889c-2.02778,0.597222,-3.73611,1.56944,-5.13889,2.93056s-2.54167,3.125,-3.31944,5.31944c-0.791667,2.18056,-1.16667,4.88889,-1.16667,8.06944l0,34.3611l-18.4167,0L12749,4267.53l13.9583,0l2.69444,10.1389l0.916667,0c0.944444,-1.73611,2.01389,-3.30556,3.13889,-4.72222c1.125,-1.43056,2.38889,-2.625,3.77778,-3.59722c1.38889,-0.986111,2.94444,-1.75,4.69444,-2.29167C12779.9,4266.54,12782,4266.26,12784.2,4266.26z"/>
   <path fill="#8C8C8C"  d="M12802.5,4250.08c0,-1.73611,0.25,-3.16667,0.777778,-4.31944c0.527778,-1.16667,1.23611,-2.08333,2.13889,-2.77778c0.902778,-0.708333,1.97222,-1.19444,3.18056,-1.47222c1.22222,-0.277778,2.55556,-0.416667,3.90278,-0.416667c1.375,0,2.65278,0.138889,3.84722,0.416667c1.22222,0.277778,2.27778,0.763889,3.18056,1.47222c0.916667,0.694444,1.625,1.61111,2.16667,2.77778c0.555556,1.15278,0.819444,2.58333,0.819444,4.31944c0,1.69444,-0.263889,3.125,-0.819444,4.29167c-0.541667,1.16667,-1.25,2.09722,-2.16667,2.81944c-0.875,0.694444,-1.97222,1.19444,-3.18056,1.5c-1.19444,0.291667,-2.5,0.444444,-3.84722,0.444444c-1.375,0,-2.65278,-0.166667,-3.90278,-0.444444c-1.22222,-0.291667,-2.27778,-0.819444,-3.18056,-1.5c-0.902778,-0.708333,-1.61111,-1.65278,-2.13889,-2.81944C12802.8,4253.21,12802.5,4251.78,12802.5,4250.08zM12821.7,4335.01l-18.4028,0L12803.3,4267.53l18.4028,0L12821.7,4335.01z"/>
   <path fill="#8C8C8C"  d="M12869,4321.55c1.80556,0,3.52778,-0.222222,5.15278,-0.625c1.625,-0.375,3.26389,-0.888889,4.95833,-1.48611l0,13.6944c-1.72222,0.875,-3.86111,1.61111,-6.43056,2.18056c-2.55556,0.583333,-5.34722,0.875,-8.375,0.875c-2.93056,0,-5.66667,-0.333333,-8.19444,-1.01389c-2.56944,-0.694444,-4.75,-1.90278,-6.61111,-3.59722c-1.84722,-1.70833,-3.29167,-4,-4.34722,-6.875c-1.06944,-2.88889,-1.58333,-6.5,-1.58333,-10.8472L12843.6,4281.35l-8.83333,0L12834.8,4273.55l10.125,-6.15278l5.31944,-14.2222l11.7778,0l0,14.3611l16.4444,0l0,13.8194l-16.4444,0l0,32.5417c0,2.61111,0.666667,4.54167,1.95833,5.79167C12865.3,4320.93,12866.9,4321.55,12869,4321.55z"/>
   <path fill="#8C8C8C"  d="M12936.7,4335.01L12887.1,4335.01l0,-10.8472l27.5694,-42.5556l-25.7361,0L12888.9,4267.53l46.5972,0l0,11.9306l-26.6667,41.4583l27.8333,0L12936.7,4335.01L12936.7,4335.01z"/>
   <path fill="#8C8C8C"  d="M12949.8,4250.08c0,-1.73611,0.277778,-3.16667,0.791667,-4.31944c0.527778,-1.16667,1.25,-2.08333,2.125,-2.77778c0.902778,-0.708333,2,-1.19444,3.19444,-1.47222s2.52778,-0.416667,3.88889,-0.416667c1.36111,0,2.63889,0.138889,3.84722,0.416667c1.22222,0.277778,2.27778,0.763889,3.18056,1.47222c0.888889,0.694444,1.625,1.61111,2.16667,2.77778c0.527778,1.15278,0.819444,2.58333,0.819444,4.31944c0,1.69444,-0.291667,3.125,-0.819444,4.29167c-0.541667,1.16667,-1.27778,2.09722,-2.16667,2.81944c-0.888889,0.694444,-1.98611,1.19444,-3.18056,1.5c-1.19444,0.291667,-2.5,0.444444,-3.84722,0.444444c-1.375,0,-2.66667,-0.166667,-3.88889,-0.444444c-1.22222,-0.291667,-2.29167,-0.819444,-3.19444,-1.5c-0.875,-0.708333,-1.59722,-1.65278,-2.125,-2.81944C12950,4253.21,12949.8,4251.78,12949.8,4250.08zM12969,4335.01L12950.6,4335.01L12950.6,4267.53l18.3889,0L12969,4335.01z"/>
   <path fill="#8C8C8C"  d="M13047.4,4335.01L13029,4335.01l0,-39.4306c0,-4.875,-0.736111,-8.51389,-2.19444,-10.9306c-1.45833,-2.44444,-3.80556,-3.68056,-7.05556,-3.68056c-2.40278,0,-4.40278,0.486111,-6.02778,1.44444c-1.61111,0.972222,-2.90278,2.40278,-3.83333,4.30556c-0.916667,1.88889,-1.59722,4.22222,-2.02778,7c-0.402778,2.77778,-0.597222,5.95833,-0.597222,9.54167l0,31.75L12988.9,4335.01L12988.9,4267.53l14.0556,0l2.51389,8.625l1.01389,0c0.958333,-1.72222,2.125,-3.19444,3.51389,-4.45833c1.41667,-1.23611,2.91667,-2.26389,4.55556,-3.06944s3.40278,-1.43056,5.25,-1.77778c1.88889,-0.388889,3.76389,-0.597222,5.68056,-0.597222c3.29167,0,6.30556,0.458333,8.98611,1.44444c2.69444,0.930556,5,2.41667,6.94444,4.41667c1.95833,2.02778,3.43056,4.55556,4.45833,7.70833c1.04167,3.125,1.56944,6.83333,1.56944,11.2083l0,44L13047.4,4335.01L13047.4,4335.01z"/>
   <path fill="#8C8C8C"  d="M13122.8,4267.65l0,10.0278l-9.83333,3.06944c0.819444,1.38889,1.38889,2.79167,1.69444,4.27778c0.291667,1.47222,0.458333,3.05556,0.458333,4.76389c0,3.41667,-0.541667,6.54167,-1.61111,9.38889c-1.08333,2.81944,-2.68056,5.26389,-4.84722,7.25c-2.11111,2.02778,-4.80556,3.58333,-8.02778,4.68056c-3.19444,1.11111,-6.94444,1.65278,-11.2222,1.65278c-0.930556,0,-1.95833,-0.0416667,-3.02778,-0.166667c-1.08333,-0.0972222,-1.90278,-0.208333,-2.43056,-0.291667c-0.791667,0.680556,-1.44444,1.40278,-1.90278,2.11111c-0.458333,0.75,-0.680556,1.625,-0.680556,2.68056c0,0.847222,0.25,1.5,0.777778,2.02778s1.20833,0.902778,2.04167,1.20833c0.833333,0.305556,1.84722,0.5,2.97222,0.611111s2.29167,0.166667,3.48611,0.166667l10.5,0c3.27778,0,6.19444,0.347222,8.76389,1.125c2.58333,0.763889,4.75,1.875,6.55556,3.41667c1.79167,1.51389,3.18056,3.45833,4.15278,5.81944c0.958333,2.34722,1.44444,5.16667,1.44444,8.40278c0,3.81944,-0.75,7.26389,-2.27778,10.3472c-1.51389,3.11111,-3.80556,5.69444,-6.86111,7.84722c-3.04167,2.13889,-6.77778,3.79167,-11.2917,4.93056c-4.5,1.13889,-9.70833,1.70833,-15.6389,1.70833c-4.56944,0,-8.58333,-0.430556,-12,-1.30556c-3.43056,-0.875,-6.26389,-2.08333,-8.56944,-3.75c-2.29167,-1.61111,-4,-3.58333,-5.15278,-5.88889c-1.16667,-2.27778,-1.73611,-4.90278,-1.73611,-7.79167c0,-2.45833,0.430556,-4.58333,1.29167,-6.38889c0.847222,-1.81944,1.98611,-3.375,3.375,-4.66667c1.41667,-1.29167,3.02778,-2.33333,4.81944,-3.15278c1.79167,-0.805556,3.63889,-1.43056,5.5,-1.86111c-0.847222,-0.361111,-1.66667,-0.875,-2.51389,-1.51389c-0.819444,-0.652778,-1.56944,-1.38889,-2.23611,-2.20833c-0.652778,-0.875,-1.19444,-1.79167,-1.61111,-2.81944c-0.430556,-1,-0.652778,-2.08333,-0.652778,-3.19444c0,-1.29167,0.208333,-2.47222,0.555556,-3.5c0.402778,-1.05556,0.944444,-2.02778,1.66667,-2.94444c0.722222,-0.888889,1.625,-1.75,2.72222,-2.55556c1.08333,-0.833333,2.30556,-1.625,3.66667,-2.5c-3.52778,-1.52778,-6.33333,-3.98611,-8.38889,-7.36111c-2.08333,-3.38889,-3.125,-7.34722,-3.125,-11.9306c0,-3.61111,0.555556,-6.86111,1.68056,-9.70833c1.125,-2.875,2.77778,-5.29167,4.94444,-7.26389c2.15278,-2,4.86111,-3.5,8.08333,-4.55556c3.20833,-1.05556,6.93056,-1.56944,11.125,-1.56944c0.791667,0,1.69444,0.0555556,2.69444,0.166667s2.01389,0.25,3,0.347222c0.972222,0.138889,1.90278,0.291667,2.72222,0.458333c0.847222,0.138889,1.51389,0.291667,2.02778,0.402778L13122.8,4267.65L13122.8,4267.65zM13074.6,4344.55c0,1.01389,0.236111,2.01389,0.652778,2.93056c0.416667,0.944444,1.11111,1.79167,2.08333,2.52778c0.944444,0.722222,2.22222,1.30556,3.77778,1.72222c1.56944,0.416667,3.5,0.638889,5.79167,0.638889c6.27778,0,11,-0.875,14.1806,-2.65278c3.18056,-1.76389,4.76389,-4.13889,4.76389,-7.13889c0,-2.54167,-0.972222,-4.22222,-2.95833,-5.05556c-1.98611,-0.833333,-5.01389,-1.26389,-9.16667,-1.26389l-8.51389,0c-1.06944,0,-2.25,0.125,-3.5,0.375c-1.25,0.25,-2.38889,0.722222,-3.44444,1.375c-1.04167,0.638889,-1.93056,1.5,-2.61111,2.55556S13074.6,4342.96,13074.6,4344.55zM13081.2,4289.62c0,3.65278,0.680556,6.5,2.04167,8.5c1.36111,2.02778,3.44444,3.01389,6.20833,3.01389c2.90278,0,4.97222,-0.972222,6.26389,-3.01389c1.30556,-2.01389,1.94444,-4.86111,1.94444,-8.5c0,-3.625,-0.638889,-6.5,-1.90278,-8.63889c-1.27778,-2.11111,-3.375,-3.18056,-6.30556,-3.18056C13083.9,4277.79,13081.2,4281.72,13081.2,4289.62z"/>
   <path fill="#8C8C8C"  d="M13133.3,4326.39c0,-1.88889,0.277778,-3.48611,0.819444,-4.80556c0.555556,-1.31944,1.30556,-2.38889,2.26389,-3.18056c0.958333,-0.805556,2.06944,-1.40278,3.38889,-1.75c1.27778,-0.361111,2.65278,-0.541667,4.15278,-0.541667c1.41667,0,2.75,0.180556,4.01389,0.541667c1.27778,0.347222,2.38889,0.944444,3.36111,1.75c0.944444,0.791667,1.70833,1.86111,2.26389,3.18056c0.569444,1.31944,0.861111,2.91667,0.861111,4.80556c0,1.80556,-0.291667,3.36111,-0.861111,4.65278c-0.555556,1.29167,-1.31944,2.36111,-2.26389,3.18056c-0.972222,0.861111,-2.08333,1.44444,-3.36111,1.84722c-1.26389,0.375,-2.61111,0.583333,-4.01389,0.583333c-1.47222,0,-2.875,-0.208333,-4.15278,-0.583333c-1.31944,-0.375,-2.43056,-0.986111,-3.38889,-1.84722c-0.958333,-0.847222,-1.70833,-1.91667,-2.26389,-3.18056C13133.5,4329.75,13133.3,4328.19,13133.3,4326.39z"/>
   <path fill="#8C8C8C"  d="M13229.9,4301.14c0,5.63889,-0.722222,10.6528,-2.125,14.9861c-1.44444,4.34722,-3.48611,8,-6.15278,10.9722c-2.66667,2.98611,-5.94444,5.25,-9.77778,6.79167c-3.84722,1.54167,-8.15278,2.31944,-12.9583,2.31944c-4.45833,0,-8.56944,-0.777778,-12.3056,-2.31944c-3.76389,-1.55556,-6.98611,-3.80556,-9.69444,-6.79167c-2.70833,-2.97222,-4.86111,-6.65278,-6.36111,-10.9722c-1.52778,-4.34722,-2.29167,-9.34722,-2.29167,-14.9861c0,-5.58333,0.708333,-10.5556,2.13889,-14.8889c1.43056,-4.36111,3.47222,-8,6.13889,-10.9583C13179.2,4272.32,13182.4,4270.08,13186.3,4268.57s8.15278,-2.27778,13.0139,-2.27778c4.43056,0,8.54167,0.763889,12.3056,2.27778c3.75,1.54167,6.97222,3.76389,9.65278,6.72222c2.73611,2.95833,4.875,6.625,6.375,10.9583C13229.1,4290.58,13229.9,4295.55,13229.9,4301.14zM13187.1,4301.14c0,6.72222,0.944444,11.8194,2.84722,15.1806c1.90278,3.41667,4.95833,5.11111,9.22222,5.11111c4.25,0,7.27778,-1.70833,9.16667,-5.13889c1.90278,-3.40278,2.84722,-8.44444,2.84722,-15.1528s-0.944444,-11.75,-2.84722,-15.0556c-1.88889,-3.30556,-4.97222,-4.95833,-9.27778,-4.95833c-4.23611,0,-7.26389,1.65278,-9.15278,4.95833C13188,4289.4,13187.1,4294.44,13187.1,4301.14z"/>
   <path fill="#8C8C8C"  d="M13281.6,4266.26c0.486111,0,1.01389,0.0277778,1.59722,0.0277778c0.583333,0.0277778,1.15278,0.0833333,1.66667,0.138889c0.555556,0.0694444,1.05556,0.125,1.51389,0.194444c0.458333,0.0555556,0.819444,0.138889,1.05556,0.222222l0,17.2778c-0.319444,-0.111111,-0.763889,-0.166667,-1.31944,-0.25c-0.569444,-0.0972222,-1.15278,-0.166667,-1.80556,-0.25c-0.625,-0.0555556,-1.23611,-0.0833333,-1.83333,-0.111111c-0.625,-0.0277778,-1.11111,-0.0277778,-1.5,-0.0277778c-2.375,0,-4.55556,0.291667,-6.56944,0.888889c-2,0.597222,-3.70833,1.56944,-5.13889,2.93056c-1.41667,1.36111,-2.52778,3.125,-3.29167,5.31944c-0.805556,2.18056,-1.16667,4.88889,-1.16667,8.06944l0,34.3611l-18.4167,0L13246.4,4267.53l13.9444,0l2.70833,10.1389l0.902778,0c0.944444,-1.73611,2.02778,-3.30556,3.13889,-4.72222c1.125,-1.43056,2.38889,-2.625,3.76389,-3.59722c1.40278,-0.986111,2.95833,-1.75,4.70833,-2.29167C13277.3,4266.54,13279.3,4266.26,13281.6,4266.26z"/>
   <path fill="#8C8C8C"  d="M13355.3,4267.65l0,10.0278l-9.83333,3.06944c0.805556,1.38889,1.375,2.79167,1.68056,4.27778s0.472222,3.05556,0.472222,4.76389c0,3.41667,-0.541667,6.54167,-1.61111,9.38889c-1.09722,2.81944,-2.69444,5.26389,-4.84722,7.25c-2.125,2.02778,-4.83333,3.58333,-8.02778,4.68056c-3.22222,1.11111,-6.95833,1.65278,-11.2361,1.65278c-0.930556,0,-1.95833,-0.0416667,-3.04167,-0.166667c-1.08333,-0.0972222,-1.875,-0.208333,-2.40278,-0.291667c-0.805556,0.680556,-1.44444,1.40278,-1.90278,2.11111c-0.472222,0.75,-0.694444,1.625,-0.694444,2.68056c0,0.847222,0.263889,1.5,0.791667,2.02778c0.513889,0.513889,1.19444,0.902778,2.02778,1.20833c0.861111,0.291667,1.84722,0.5,2.98611,0.611111c1.11111,0.111111,2.27778,0.166667,3.48611,0.166667l10.5,0c3.25,0,6.18056,0.347222,8.75,1.125c2.58333,0.763889,4.76389,1.875,6.55556,3.41667c1.79167,1.51389,3.18056,3.45833,4.13889,5.81944c0.972222,2.34722,1.44444,5.16667,1.44444,8.40278c0,3.81944,-0.75,7.26389,-2.29167,10.3472c-1.51389,3.11111,-3.81944,5.69444,-6.84722,7.84722c-3.04167,2.13889,-6.79167,3.79167,-11.3194,4.93056c-4.48611,1.13889,-9.69444,1.70833,-15.625,1.70833c-4.56944,0,-8.56944,-0.430556,-12,-1.30556c-3.41667,-0.875,-6.26389,-2.08333,-8.56944,-3.75c-2.27778,-1.61111,-3.98611,-3.58333,-5.15278,-5.88889c-1.15278,-2.27778,-1.72222,-4.90278,-1.72222,-7.79167c0,-2.45833,0.416667,-4.58333,1.26389,-6.38889c0.875,-1.81944,2,-3.375,3.38889,-4.66667c1.43056,-1.29167,3.01389,-2.33333,4.80556,-3.15278c1.79167,-0.805556,3.65278,-1.43056,5.52778,-1.86111c-0.861111,-0.361111,-1.68056,-0.875,-2.52778,-1.51389c-0.833333,-0.652778,-1.56944,-1.38889,-2.22222,-2.20833c-0.652778,-0.875,-1.20833,-1.79167,-1.625,-2.81944c-0.416667,-1.01389,-0.625,-2.09722,-0.625,-3.20833c0,-1.29167,0.194444,-2.47222,0.555556,-3.5c0.375,-1.05556,0.930556,-2.02778,1.66667,-2.94444c0.708333,-0.888889,1.625,-1.75,2.69444,-2.55556c1.08333,-0.833333,2.30556,-1.625,3.69444,-2.5c-3.54167,-1.51389,-6.33333,-3.98611,-8.41667,-7.34722c-2.05556,-3.38889,-3.09722,-7.375,-3.09722,-11.9583c0,-3.61111,0.541667,-6.84722,1.68056,-9.69444c1.125,-2.875,2.76389,-5.30556,4.91667,-7.27778c2.16667,-1.98611,4.875,-3.5,8.09722,-4.55556c3.20833,-1.02778,6.93056,-1.54167,11.1111,-1.54167c0.819444,0,1.70833,0.0416667,2.70833,0.152778s2.02778,0.236111,2.98611,0.361111c1,0.125,1.91667,0.291667,2.75,0.430556c0.861111,0.166667,1.5,0.291667,2.01389,0.416667L13355.3,4267.64L13355.3,4267.65zM13307,4344.55c0,1.01389,0.236111,2.01389,0.638889,2.93056c0.430556,0.944444,1.125,1.79167,2.06944,2.52778c0.972222,0.722222,2.23611,1.30556,3.79167,1.72222c1.58333,0.416667,3.5,0.638889,5.80556,0.638889c6.26389,0,11,-0.875,14.1806,-2.65278c3.18056,-1.76389,4.76389,-4.13889,4.76389,-7.13889c0,-2.54167,-0.986111,-4.22222,-2.97222,-5.05556s-5.01389,-1.26389,-9.16667,-1.26389l-8.5,0c-1.09722,0,-2.26389,0.125,-3.5,0.375c-1.25,0.263889,-2.40278,0.722222,-3.44444,1.375c-1.05556,0.638889,-1.93056,1.5,-2.61111,2.55556C13307.4,4341.6,13307,4342.96,13307,4344.55zM13313.7,4289.62c0,3.65278,0.680556,6.5,2.05556,8.5c1.375,2.02778,3.44444,3.01389,6.20833,3.01389c2.90278,0,4.97222,-0.972222,6.26389,-3.01389c1.30556,-2.01389,1.95833,-4.86111,1.95833,-8.5c0,-3.625,-0.638889,-6.5,-1.91667,-8.63889c-1.27778,-2.11111,-3.375,-3.18056,-6.30556,-3.18056C13316.4,4277.79,13313.7,4281.72,13313.7,4289.62z"/>
  </g>
  <g >
   <path fill="#8C8C8C"  d="M12599.7,4227.65l-113.139,0c-7.38889,0,-13.4028,6,-13.4028,13.3889l0,113.139c0,7.375,6.01389,13.3889,13.4028,13.3889l77.0833,0l49.4028,-49.4167L12613,4241.04C12613.1,4233.64,12607.1,4227.65,12599.7,4227.65zM12576.4,4279.44l-14.9306,0l0,5.56944l14.9306,0l0,22.2361l-30.5,0l0,28.5833l-35.7222,0l0,-64.8611l13.7222,-13.75l52.4861,0l0,22.2639l0.0138889,0L12576.4,4279.44z"/>
  </g>
 </g>
 <g partID="75130">
  <g transform="translate(0,1917.32)">
   <g id="board">
    <rect width="6658.67" x="4" y="4" fill="#338040" height="2214.22" stroke="#338040" fill-opacity="0.5" id="boardoutline" stroke-width="8"/>
   </g>
  </g>
 </g>
 <g partID="75131">
  <g transform="translate(0,1917.32)">
   <g id="silkscreen0">
    <rect width="6658.67" x="4" y="4" fill="none" height="2214.22" stroke="#bbbbcc" stroke-width="8"/>
   </g>
  </g>
 </g>
 <g partID="76220">
  <g transform="translate(10685,321.222)">
   <g  id="copper0">
    <g  id="copper1">
     <rect width="55" x="10" y="15.5" fill="none"  height="55" stroke="rgb(255, 191, 0)" stroke-width="20"/>
     <circle fill="none" cx="37.5"  cy="43" stroke="rgb(255, 191, 0)" r="27.5" id="connector0pin" stroke-width="20"/>
     <circle fill="none" cx="437.5"  cy="43" stroke="rgb(255, 191, 0)" r="27.5" id="connector1pin" stroke-width="20"/>
    </g>
   </g>
  </g>
 </g>
 <g partID="76740">
  <g transform="translate(10685,321.222)">
   <g  id="copper0">
    <g  id="copper1">
     <rect width="55" x="10" y="15.5" fill="none"  height="55" stroke="rgb(255, 191, 0)" stroke-width="20"/>
     <circle fill="none" cx="37.5"  cy="43" stroke="rgb(255, 191, 0)" r="27.5" id="connector0pin" stroke-width="20"/>
     <circle fill="none" cx="437.5"  cy="43" stroke="rgb(255, 191, 0)" r="27.5" id="connector1pin" stroke-width="20"/>
    </g>
   </g>
  </g>
 </g>
 <g partID="76470">
  <g transform="translate(6067.7,77.7778)">
   <g transform="matrix(0,1,-1,0,0,0)">
    <g  id="copper0">
     <circle fill="none" cx="70"  cy="70" stroke="rgb(255, 191, 0)" id="connector0pin" r="29" stroke-width="20"/>
    </g>
   </g>
  </g>
 </g>
 <g partID="76221">
  <g transform="translate(10685,321.222)">
   <g  id="copper1">
    <rect width="55" x="10" y="15.5" fill="none"  height="55" stroke="rgb(255, 191, 0)" stroke-width="20"/>
    <circle fill="none" cx="37.5"  cy="43" stroke="rgb(255, 191, 0)" r="27.5" id="connector0pin" stroke-width="20"/>
    <circle fill="none" cx="437.5"  cy="43" stroke="rgb(255, 191, 0)" r="27.5" id="connector1pin" stroke-width="20"/>
   </g>
  </g>
 </g>
 <g partID="76741">
  <g transform="translate(10685,321.222)">
   <g  id="copper1">
    <rect width="55" x="10" y="15.5" fill="none"  height="55" stroke="rgb(255, 191, 0)" stroke-width="20"/>
    <circle fill="none" cx="37.5"  cy="43" stroke="rgb(255, 191, 0)" r="27.5" id="connector0pin" stroke-width="20"/>
    <circle fill="none" cx="437.5"  cy="43" stroke="rgb(255, 191, 0)" r="27.5" id="connector1pin" stroke-width="20"/>
   </g>
  </g>
 </g>
 <g partID="76471">
  <g transform="translate(6067.7,77.7778)">
   <g transform="matrix(0,1,-1,0,0,0)">
    <g  id="copper1">
     <g  id="copper0">
      <circle fill="none" cx="70"  cy="70" stroke="rgb(255, 191, 0)" id="connector0pin" r="29" stroke-width="20"/>
     </g>
    </g>
   </g>
  </g>
 </g>
 <g partID="77380">
  <line stroke="#157de6" stroke-linecap="round" y1="363.167" x1="10699.5" y2="148.901" stroke-width="7.77778" x2="6022.23"/>
 </g>
 <g partID="77400">
  <line stroke="#157de6" stroke-linecap="round" y1="364.222" x1="11099.5" y2="364.222" stroke-width="7.77778" x2="10745.6"/>
 </g>
 <g partID="76222">
  <g transform="translate(10685,321.222)">
   <g  id="silkscreen">
    <line  stroke="white" y1="43" x1="75" y2="43" stroke-width="10" x2="147"/>
    <line  stroke="white" y1="43" x1="347" y2="43" stroke-width="10" x2="400"/>
    <line  stroke="white" y1="10" x1="147" y2="10" stroke-width="10" x2="347"/>
    <line  stroke="white" y1="10" x1="347" y2="76" stroke-width="10" x2="347"/>
    <line  stroke="white" y1="76" x1="347" y2="76" stroke-width="10" x2="147"/>
    <line  stroke="white" y1="76" x1="147" y2="10" stroke-width="10" x2="147"/>
   </g>
  </g>
 </g>
 <g partID="76742">
  <g transform="translate(10685,321.222)">
   <g  id="silkscreen">
    <line  stroke="white" y1="43" x1="75" y2="43" stroke-width="10" x2="147"/>
    <line  stroke="white" y1="43" x1="347" y2="43" stroke-width="10" x2="400"/>
    <line  stroke="white" y1="10" x1="147" y2="10" stroke-width="10" x2="347"/>
    <line  stroke="white" y1="10" x1="347" y2="76" stroke-width="10" x2="347"/>
    <line  stroke="white" y1="76" x1="347" y2="76" stroke-width="10" x2="147"/>
    <line  stroke="white" y1="76" x1="147" y2="10" stroke-width="10" x2="147"/>
   </g>
  </g>
 </g>
 <g partID="75132">
  <g transform="translate(0,1917.32)">
   <g id="silkscreen">
    <rect width="6658.67" x="4" y="4" fill="none" height="2214.22" stroke="#ffffff" stroke-width="8"/>
   </g>
  </g>
 </g>
 <g partID="76472">
  <g transform="translate(6067.7,77.7778)">
   <g transform="matrix(0,1,-1,0,0,0)">
    <g  id="silkscreen">
     <line  stroke="white" y1="20" stroke-width="10" x1="20" y2="120" x2="20"/>
     <line  stroke="white" y1="120" stroke-width="10" x1="20" y2="120" x2="120"/>
     <line  stroke="white" y1="120" stroke-width="10" x1="120" y2="20" x2="120"/>
     <line  stroke="white" y1="20" stroke-width="10" x1="120" y2="20" x2="20"/>
     <line  stroke="white" y1="55" stroke-width="5" x1="20" y2="20" x2="55"/>
     <!-- 120 -->
    </g>
   </g>
  </g>
 </g>
 <g id="partLabel" partID="76470">
  <g transform="translate(6067.7,0)">
   <g fill="#ffffff" font-family="'OCRA'" stroke="none" font-style="normal" fill-opacity="1" font-weight="normal" id="silkscreenLabel" font-size="69.4444">
    <text x="0" y="52.0833">Pin</text>
   </g>
  </g>
 </g>
 <g id="partLabel" partID="76740">
  <g transform="translate(13282.2,2365.67)">
   <g fill="#ffffff" font-family="'OCRA'" stroke="none" font-style="normal" fill-opacity="1" font-weight="normal" id="silkscreenLabel" font-size="69.4444">
    <text x="0" y="52.0833">R2</text>
   </g>
  </g>
 </g>
 <g id="partLabel" partID="76220">
  <g transform="translate(11160,243.444)">
   <g fill="#ffffff" font-family="'OCRA'" stroke="none" font-style="normal" fill-opacity="1" font-weight="normal" id="silkscreenLabel" font-size="69.4444">
    <text x="0" y="52.0833">R1</text>
   </g>
  </g>
 </g>
</svg>
