<?xml version='1.0' encoding='UTF-8' standalone='no'?>
<!-- Created with Fritzing (http://www.fritzing.org/) -->
<svg xmlns:svg='http://www.w3.org/2000/svg' xmlns='http://www.w3.org/2000/svg' version='1.2' baseProfile='tiny' x='0in' y='0in' width='3.6486in' height='2.10933in' viewBox='0 0 3648.6 2109.33' >
<path stroke='#8c8c8c' stroke-width='29.1' stroke-linecap='round' stroke-linejoin='round' fill='none' d='M2814.92,462.317L2800.37,462.317' />
<path stroke='#8c8c8c' stroke-width='29.1' stroke-linecap='round' stroke-linejoin='round' fill='none' d='M3185.89,462.317L3200.44,462.317' />
<g partID='19270'><g transform='translate(2785.82,411.867)' ><g xmlns="http://www.w3.org/2000/svg" id="breadboard">
 <rect xmlns="http://www.w3.org/2000/svg" width="10" x="5" y="35.9" fill="none" height="10" id="connector0pin"/>
 <rect xmlns="http://www.w3.org/2000/svg" width="10" x="414.17" y="35.9" fill="none" height="10" id="connector1pin"/>
 <line xmlns="http://www.w3.org/2000/svg" fill="none" stroke="#8C8C8C" id="connector0leg" stroke-linecap="round" y1="50.45" x1="14.55" y2="50.45" stroke-width="29.1" x2="29.1"/>
 <line xmlns="http://www.w3.org/2000/svg" fill="none" stroke="#8C8C8C" id="connector1leg" stroke-linecap="round" y1="50.45" x1="414.62" y2="50.45" stroke-width="29.1" x2="400.07"/>
 <path xmlns="http://www.w3.org/2000/svg" fill="none" stroke="#8C8C8C" stroke-width="29.1" d="M14.55,50.45l393.98,0"/>
 <path xmlns="http://www.w3.org/2000/svg" fill="#D9B477" id="body" d="M142.33,6.88c-5,-2.3,-13.6,-4.1,-19.1,-4.1l-27.6,0c-5.5,0,-10,4.5,-10,10l0,74.39c0,5.51,4.5,10,10,10l27.6,0c5.5,0,14.1,-1.89,19.1,-4.1l1,-0.49c5,-2.3,13.6,-4.1,19.1,-4.1l99.8,0c5.51,0,14.09,1.89,19.09,4.1l1.01,0.49c5,2.3,13.58,4.1,19.1,4.1l27.6,0c5.52,0,10,-4.49,10,-10L339.03,12.78c0,-5.5,-4.48,-10,-10,-10l-27.6,0c-5.52,0,-14.1,1.9,-19.1,4.1l-1.01,0.5c-5,2.3,-13.58,4.1,-19.09,4.1l-99.8,0c-5.5,0,-14.1,-1.9,-19.1,-4.1L142.33,6.88z"/>
 <rect xmlns="http://www.w3.org/2000/svg" width="9.76" x="305.82" y="2.69" fill="#ad9f4e" height="94.38" id="gold_band"/>
 <rect xmlns="http://www.w3.org/2000/svg" width="25.7" x="224.62" y="11.48" fill="#8a3d06" height="76.9" id="band_rd_multiplier"/>
 <rect xmlns="http://www.w3.org/2000/svg" width="25.7" x="173.23" y="11.48" fill="#c40808" height="76.9" id="band_2_nd"/>
 <path xmlns="http://www.w3.org/2000/svg" fill="#c40808" id="band_1_st" d="M147.62,8.88c-1.6,-0.5,-3.1,-1,-4.3,-1.6l-1,-0.5c-5,-2.29,-13.6,-4.1,-19.1,-4.1l-1.2,0l0,94.39l1.2,0c5.5,0,14.1,-1.89,19.1,-4.1l1,-0.49c1.2,-0.62,2.7,-1.11,4.3,-1.6L147.62,8.88z"/>
 <path xmlns="http://www.w3.org/2000/svg" opacity="0.3" id="Shadow" d="M329.32,56.8L329.32,56.8c0,5.27,-1.81,9.71,-4.1,9.71l-26.7,0c-5.28,0,-13.58,-0.78,-18.51,-1.7L279,64.59c-4.79,-0.9,-13.18,-1.7,-18.52,-1.7L164,62.89c-5.3,0,-13.6,0.8,-18.5,1.7l-1,0.21c-4.8,0.91,-13.1,1.7,-18.5,1.7l-4.4,0l-13.9,0l-4.3,0c-5.3,0,-9.7,4.08,-9.7,8.96l0,3.43L93.7,81.1l0,2.4c0,5,4.4,8.96,9.7,8.96l22.5,0c5.3,0,13.6,-1.7,18.5,-3.71l1,-0.39c4.8,-1.96,13.2,-3.68,18.5,-3.68l96.48,0c5.27,0,13.57,1.72,18.53,3.69l1.03,0.39c4.79,2.01,13.12,3.71,18.52,3.71l30.9,0c5.29,0,9.71,-4.1,9.71,-8.96L339.07,76L339.07,62.49L339.07,36.88C335.22,38.38,329.32,42.58,329.32,56.8z"/>
 <rect xmlns="http://www.w3.org/2000/svg" width="9.76" x="305.82" opacity="0.4" y="48.38" height="43.79" id="ShadowExtra"/>
 <path xmlns="http://www.w3.org/2000/svg" opacity="0.25" fill="#FFFFFF" id="ReflexRight" d="M274.32,15.08c3.19,0,6.82,-1.4,9.2,-2.4c2.8,-1.1,8.01,-2,13.42,-2l20.29,0c3.12,0,3.12,3.4,3.12,5.2c0,1.8,-0.21,5.3,-3.12,5.3l-42.5,0c-1.49,0,-3.2,-1.6,-3.2,-3.11C271.62,16.88,272.62,15.08,274.32,15.08z"/>
 <circle xmlns="http://www.w3.org/2000/svg" opacity="0.35" fill="#FFFFFF" cx="97.22" cy="15.78" id="ReflexLeft" r="6"/>
 <rect xmlns="http://www.w3.org/2000/svg" width="9.76" x="305.82" opacity="0.5" y="5.88" fill="#FFFF33" height="22.5" id="Reflex_gold"/>
 <rect xmlns="http://www.w3.org/2000/svg" width="9.76" x="305.82" opacity="0.5" y="10.88" fill="#FFFFFF" height="10.4" id="Reflex_extra"/>
</g>
</g></g><path stroke='#000000' stroke-width='41.6667' stroke-linecap='round' stroke-linejoin='round' fill='none' d='M1323.18,245.139L1392.63,245.139' />
<path stroke='#ff0000' stroke-width='41.6667' stroke-linecap='round' stroke-linejoin='round' fill='none' d='M1323.18,145.416L1392.63,145.416' />
<g partID='23070'><g  id="breadboard">
 <rect  width="17.4445" x="1319.44" y="224.416" fill="none" height="41.6388" id="connector0pin"/>
 <rect  width="17.4445" x="1319.44" y="124.416" fill="none" height="41.6666" id="connector1pin"/>
 <g  fill="none" stroke="#000000" id="connector0leg" stroke-linecap="round" y1="17.65" x1="95.269" y2="17.65" stroke-width="41.6667" x2="100.269"/>
 <g  fill="none" stroke="#FF0000" id="connector1leg" stroke-linecap="round" y1="10.47" x1="95.269" y2="10.47" stroke-width="41.6667" x2="100.269"/>
 <g >
  <g >
   <path  fill="#939393" d="M132.944,192.736l200.792,0c4.33333,0,7.86111,-3.54166,7.86111,-7.87499L341.597,70.7082c0,-4.33333,-3.54167,-7.87499,-7.86111,-7.87499l-100.403,0L132.944,62.8332c-4.33333,0,-7.86111,3.54166,-7.86111,7.87499l0,114.153C125.083,189.208,128.625,192.736,132.944,192.736zM137.167,72.0554c0,-4.22222,3.44445,-7.66665,7.66667,-7.66665l88.5139,0l88.5139,0c4.22222,0,7.66667,3.44444,7.66667,7.66665l0,111.458c0,4.22222,-3.44445,7.66665,-7.66667,7.66665L144.833,191.18c-4.22222,0,-7.66667,-3.44444,-7.66667,-7.66665L137.167,72.0554z"/>
   <path  fill="#B2B2B2" d="M144.833,191.18l88.5139,0l88.5139,0c4.22222,0,7.66667,-3.44444,7.66667,-7.66665L329.528,72.0554c0,-4.22222,-3.44445,-7.66665,-7.66667,-7.66665l-88.5139,0l-88.5139,0c-4.22222,0,-7.66667,3.44444,-7.66667,7.66665l0,111.458C137.167,187.736,140.611,191.18,144.833,191.18z"/>
   <path  fill="#E6E6E6" d="M162.125,189.944l71.2222,0l71.2222,0c3.88889,0,7.08334,-3.18055,7.08334,-7.08332l0,-105.833c0,-3.90277,-3.18056,-7.08332,-7.08334,-7.08332l-55.2917,0c1.51389,1.30555,2.58333,3.22222,2.58333,5.49999l0,95.3471c0,3.90277,-2.91667,7.08332,-6.47222,7.08332l-12.0278,0l-34.3611,0c-3.55556,0,-6.47222,-3.18055,-6.47222,-7.08332L192.528,75.4582c0,-2.27777,1.05556,-4.20833,2.58333,-5.49999l-32.9722,0c-3.88889,0,-7.08334,3.18055,-7.08334,7.08332l0,105.833C155.042,186.777,158.236,189.944,162.125,189.944z"/>
   <path  opacity="0.9" fill="#FFFFFF" d="M267.236,79.986c0,-4.15277,-2.76389,-7.52777,-6.13889,-7.52777l30.1806,0c3.38889,0,6.15278,3.37499,6.15278,7.52777l0,101.069c0,4.15277,-2.76389,7.52777,-6.15278,7.52777l-30.1806,0c3.375,0,6.13889,-3.37499,6.13889,-7.52777L267.236,79.986z"/>
  </g>
  <rect  width="215.931" x="125.236" opacity="0.1" y="63.3888" height="21.4861"/>
 </g>
 <g >
  <path  fill="#919191" d="M376.667,108.028c-5.33334,-0.236111,-15.6389,9.34721,-15.6389,9.34721s-5.06945,-10.3194,-14.0556,-11c-40.0972,-3,-60.1111,-1.65278,-100.194,-1.65278c-5.41667,0,-11.2917,-0.194444,-13.8333,6.81943C230.445,104.528,224.583,104.722,219.153,104.722c-40.9028,0,-61.2917,-1.19444,-102.222,1.90277C107,107.361,102.806,117.597,102.806,117.597S96.9445,107.625,90.9723,107.889c-7.20834,0.138889,-13.9861,-0.402777,-14.5278,5.80555c-2.11111,24.0833,-4.09722,35.1111,-5.15278,56.7082c-0.902778,18.3889,5.43056,26.4027,5.43056,46.9166c0,14.125,12.5556,30.1388,23.2361,30.1388c37.7222,0,56.5834,-0.86111,94.3056,1.98611c16.75,1.26389,34.0417,-1.97222,38.6945,-17.0694c4.66667,15.1111,22.0139,18.375,38.7639,17.1111c37.7083,-2.83333,56.5556,-2.02777,94.2778,-2.02777c10.6667,0,21.3611,-17.1389,21.3611,-30.1527c0,0,9.48611,-29.25,7.97222,-51.0416S387.611,113.472,387.611,113.472C386.861,104.597,379.236,108.139,376.667,108.028z"/>
  <g >
   <path  fill="#F4F4F4" d="M77.9861,140.43c11.7917,-3.49999,20.0833,-6.83332,20.0833,-6.83332c-2.41667,24.9583,-3.83333,36.7499,0.0138889,57.8194c-7.22222,-1.27778,-13.9722,-2.43055,-20.5139,-3.47222C73.7222,169.889,76.6528,161.347,77.9861,140.43z"/>
   <path  fill="#B7B7B7" d="M81.4584,113.569c10.375,0.541666,17.6806,8.91665,16.6111,20.0139c0,0,-8.30556,3.33333,-20.0833,6.83332C78.6806,129.68,80.5139,124.319,81.4584,113.569z"/>
   <path  fill="#999999" d="M96.6389,178.861c0.208333,8.31943,1.31944,11.4166,2.61111,18.625c1.68056,9.44443,-7.01389,18.8055,-17.4722,19.5416c0,-12.8611,-1.81945,-17.9861,-4.19445,-29.0972C85.3473,187.944,96.8195,186.389,96.6389,178.861z"/>
  </g>
  <g >
   <path  fill="#F4F4F4" d="M108.639,132.889c0.861111,-11.5972,7.61111,-21.4305,14.7778,-21.9444c36.375,-2.625,54.2639,-1.40278,90.3889,-1.40278c7.15278,0,12.9444,9.37499,12.9444,20.9722c0,0,-2.59722,19.6666,-2.59722,31.1944s2.59722,29.9583,2.59722,29.9583c0,17.2083,-5.79167,29.2222,-12.9444,28.8194c-36.125,-2.04166,-54.1945,-3.33333,-90.3195,-3.33333c-7.125,0,-12.5417,-9.81943,-13.9028,-19.6666C106.347,173.875,106.556,160.736,108.639,132.889z"/>
   <g >
    <path  fill="#B7B7B7" d="M123.431,110.944c36.375,-2.625,54.2639,-1.40278,90.3889,-1.40278c7.15278,0,12.9444,9.37499,12.9444,20.9722c0,0,-38.1667,1.66666,-61.2361,1.66666c-24.8056,0,-56.875,0.708332,-56.875,0.708332C109.514,121.291,116.25,111.458,123.431,110.944z"/>
   </g>
   <g >
    <path  fill="#999999" d="M123.5,217.152c36.125,0,54.1945,1.29166,90.3195,3.33333c7.15278,0.402777,12.9444,-8.90276,12.9444,-20.4444c0,-3.40277,0,-5.1111,0,-8.51388c-16.9445,-5.49999,-38.1389,-8.91665,-61.2084,-8.93054c-24.9583,-0.0138889,-41.7917,8.31943,-57.9306,-4.93055c-0.0277778,8.95832,0.930556,12.2083,1.98611,19.8194C110.944,207.333,116.375,217.152,123.5,217.152z"/>
   </g>
  </g>
  <g >
   <path  fill="#F4F4F4" d="M387.931,140.389c-11.8194,-3.52777,-20.125,-6.8611,-20.125,-6.8611c2.375,24.9583,3.77778,36.8055,0,57.8888c7.22222,-1.27778,13.9444,-2.43055,20.5,-3.47222C392.111,169.889,389.278,161.305,387.931,140.389z"/>
   <path  fill="#B7B7B7" d="M384.486,113.528c-10.375,0.513888,-17.7361,8.88887,-16.6806,19.9861c0,0,8.31945,3.33333,20.125,6.8611C387.236,129.639,385.431,124.278,384.486,113.528z"/>
   <path  fill="#999999" d="M369.222,174.264c0.0833334,9.93054,-1,14.4028,-2.55556,23.2222c-1.65278,9.44443,7.02778,18.8055,17.4861,19.5416c0,-12.8611,1.79167,-17.9861,4.13889,-29.0972C382.431,187.944,369.292,183.305,369.222,174.264z"/>
  </g>
  <g >
   <path  fill="#F4F4F4" d="M357.25,132.805c-0.861111,-11.5972,-7.58334,-21.4027,-14.75,-21.9166c-36.3472,-2.59722,-54.2639,-1.34722,-90.375,-1.34722c-7.15278,0,-12.8889,9.37499,-12.8889,20.9722c0,0,2.34722,21.1389,2.34722,33.8194s-2.34722,27.3333,-2.34722,27.3333c0,11.5555,5.73611,29.2777,12.8889,28.8888c36.1111,-2,54.1806,-3.38888,90.2917,-3.38888c7.125,0,12.5556,-9.81943,13.875,-19.6666C359.472,173.875,359.278,160.653,357.25,132.805z"/>
   <g >
    <path  fill="#B7B7B7" d="M342.5,110.889c-36.3472,-2.59722,-54.2639,-1.34722,-90.375,-1.34722c-7.15278,0,-12.8889,9.37499,-12.8889,20.9722c0,0,38.1111,1.66666,61.1806,1.66666c24.8056,0,56.8195,0.624999,56.8195,0.624999C356.389,121.208,349.667,111.403,342.5,110.889z"/>
   </g>
   <g >
    <path  fill="#999999" d="M342.417,217.152c-36.1111,0,-54.1806,1.40278,-90.2917,3.38888c-7.15278,0.388888,-12.8889,-8.91665,-12.8889,-20.4722c0,-3.40277,0,-5.1111,0,-8.52776c16.9306,-5.4861,38.125,-8.91665,61.1806,-8.94443c24.9445,-0.0277777,44.4445,4.63888,57.8334,-7.87499c0.0138889,9.87498,-0.819445,14.1528,-1.97222,22.7639C354.986,207.333,349.542,217.152,342.417,217.152z"/>
   </g>
  </g>
 </g>
 <g >
  <path  fill="#939393" d="M835.042,101.972L634.25,101.972c-4.33333,0,-7.86111,3.54166,-7.86111,7.87499l0,114.153c0,4.33333,3.54167,7.87499,7.86111,7.87499l100.403,0l100.403,0c4.33333,0,7.86111,-3.54166,7.86111,-7.87499L842.917,109.861C842.903,105.514,839.375,101.972,835.042,101.972zM830.82,222.666c0,4.22222,-3.44445,7.66665,-7.66667,7.66665l-88.5139,0l-88.5139,0c-4.22222,0,-7.66667,-3.44444,-7.66667,-7.66665L638.459,111.194c0,-4.22222,3.44445,-7.66665,7.66667,-7.66665l177.028,0c4.22222,0,7.66667,3.44444,7.66667,7.66665L830.82,222.666z"/>
  <path  fill="#B2B2B2" d="M823.167,103.542l-88.5139,0l-88.5139,0c-4.22222,0,-7.66667,3.44444,-7.66667,7.66665l0,111.458c0,4.22222,3.44445,7.66665,7.66667,7.66665l88.5139,0l88.5139,0c4.22222,0,7.66667,-3.44444,7.66667,-7.66665L830.834,111.194C830.82,106.986,827.375,103.542,823.167,103.542z"/>
  <path  fill="#E6E6E6" d="M805.861,104.764l-71.2222,0l-71.2222,0c-3.88889,0,-7.08334,3.18055,-7.08334,7.08332l0,105.833c0,3.90277,3.18056,7.08332,7.08334,7.08332l55.2917,0c-1.51389,-1.30555,-2.58333,-3.22222,-2.58333,-5.49999L716.125,123.903c0,-3.90277,2.91667,-7.08332,6.47222,-7.08332l12.0278,0l34.3611,0c3.55556,0,6.47222,3.18055,6.47222,7.08332l0,95.3471c0,2.27777,-1.05556,4.20833,-2.58333,5.49999l32.9722,0c3.88889,0,7.08334,-3.18055,7.08334,-7.08332l0,-105.833C812.945,107.944,809.764,104.764,805.861,104.764z"/>
  <path  opacity="0.9" fill="#FFFFFF" d="M700.75,214.722c0,4.15277,2.76389,7.52777,6.13889,7.52777l-30.1806,0c-3.38889,0,-6.15278,-3.37499,-6.15278,-7.52777L670.556,113.653c0,-4.15277,2.76389,-7.52777,6.15278,-7.52777l30.1806,0c-3.375,0,-6.13889,3.37499,-6.13889,7.52777L700.75,214.722z"/>
 </g>
 <rect  width="215.931" x="626.834" y="209.847" fill="none" height="21.4861"/>
 <rect  width="313.778" x="74.75" opacity="0.1" y="209.847" height="21.4861"/>
 <path  fill="#353535" d="M78.75,2109.32l0.833334,0c-1.375,0,-2.70833,-0.0972221,-4.06945,-0.138889C76.5972,2109.22,77.6528,2109.32,78.75,2109.32z"/>
 <path  fill="#353535" d="M70.9861,2108.98c-0.291667,-0.0138889,-0.569445,-0.0555555,-0.861111,-0.0833332C70.4167,2108.93,70.7084,2108.97,70.9861,2108.98z"/>
 <path  opacity="0.35" d="M75.5139,2109.18c-1.5,-0.0555555,-3.04167,-0.0694443,-4.51389,-0.194444C72.4722,2109.09,73.9861,2109.12,75.5139,2109.18z"/>
 <path  fill="#353535" d="M982.32,2059.04c-8.41667,12.4444,-39.4861,21.75,-76.3611,21.75L79.5695,2080.79c-43.2917,0,-78.6945,-12.8333,-78.6945,-28.5l0,1.72222c5,28.8333,33.6111,51.6805,69.25,54.8749c0.291667,0.0277777,0.569445,0.0694443,0.861111,0.0833332c1.47222,0.125,3.01389,0.138889,4.51389,0.194444c1.36111,0.0416666,2.69445,0.138889,4.06945,0.138889l825.959,0C942.959,2109.32,974.431,2087.71,982.32,2059.04z"/>
 <path  opacity="0.35" d="M982.32,2059.04c-8.41667,12.4444,-39.4861,21.75,-76.3611,21.75L79.5695,2080.79c-43.2917,0,-78.6945,-12.8333,-78.6945,-28.5l0,1.72222c5,28.8333,33.6111,51.6805,69.25,54.8749c0.291667,0.0277777,0.569445,0.0694443,0.861111,0.0833332c1.47222,0.125,3.01389,0.138889,4.51389,0.194444c1.36111,0.0416666,2.69445,0.138889,4.06945,0.138889l825.959,0C942.959,2109.32,974.431,2087.71,982.32,2059.04z"/>
 <g >
  <g >
   <path  fill="#353535" d="M921.264,219.416c27.5695,0,63,23.6389,63,52.5416l0,1773.08c0,35.3472,-35.4306,64.2638,-78.7361,64.2638L78.75,2109.3c-43.3056,0,-78.7361,-28.9166,-78.7361,-64.2638L0.0138889,271.972c0,-28.9027,35.4306,-52.5416,94.4723,-52.5416L921.264,219.43z"/>
   <path  fill="#D18D52" d="M984.264,686.027L0.0138889,686.027L0.0138889,271.972c0,-28.8888,35.4306,-52.5416,94.4723,-52.5416l826.778,0c27.5695,0,63,23.6527,63,52.5416L984.264,686.027z"/>
  </g>
  <path  opacity="0.15" fill="#FFFFFF" d="M966.723,2052.3c0,7.9861,-22.1389,14.8194,-52.5417,17.1805L914.181,248.472c30.4028,1.93055,52.5417,7.51388,52.5417,14.0555L966.723,2052.3z"/>
  <path  opacity="0.15" fill="#FFFFFF" d="M15.9028,2052.3c0,7.9861,22.1389,14.8194,52.5417,17.1805L68.4445,248.472c-30.4028,1.93055,-52.5417,7.51388,-52.5417,14.0555L15.9028,2052.3z"/>
  <path  opacity="0.35" fill="#FFFFFF" d="M15.9028,262.361c0,-8.13888,34.2222,-14.7916,76.0695,-14.7916l798.709,0c41.8472,0,76.0695,6.65277,76.0695,14.7916l0,-3.02777c0,-14.6111,-34.2222,-26.5694,-76.0695,-26.5694L91.9584,232.764c-41.8472,0,-76.0695,11.9583,-76.0695,26.5694L15.8889,262.361z"/>
  <g  opacity="0.2">
   <path  d="M966.723,257.236c0,0,0,1790.19,0,1812.9c8.72223,-4.12499,8.72223,-4.12499,13.8889,-8.97221c0,-8.68054,0,-1753.05,0,-1759.46C980.611,286.916,970.792,266.138,966.723,257.236z"/>
  </g>
  <g  opacity="0.2">
   <path  d="M15.9028,257.236c0,0,0,1790.19,0,1812.9c-8.72223,-4.12499,-8.72223,-4.12499,-13.8889,-8.97221c0,-8.68054,0,-1753.05,0,-1759.46C2.01389,286.916,11.8333,266.138,15.9028,257.236z"/>
  </g>
 </g>
 <path  fill="none" stroke="#000000" stroke-width="41.6667" d="M940.459,61.3193c200.958,0,192.445,184.014,382.722,184.014"/>
 <path  fill="none" stroke="#FF0000" stroke-width="41.6667" d="M940.459,61.3471c239.708,0,223.667,83.8193,382.722,83.8193"/>
 <g >
  <path  fill="#919191" d="M591.236,199.944c5.33334,0.236111,15.6389,-9.34721,15.6389,-9.34721s5.06945,10.3194,14.0556,11c40.0972,3,60.1111,1.65278,100.194,1.65278c5.41667,0,11.2917,0.194444,13.8333,-6.81943c2.51389,7.01388,8.375,6.81943,13.7917,6.81943c40.9028,0,61.2917,1.19444,102.222,-1.90277c9.93056,-0.749999,14.125,-10.9861,14.125,-10.9861s5.86111,9.9861,11.8472,9.70832c7.20834,-0.138889,13.9861,0.402777,14.5278,-5.80555c2.11111,-24.0833,4.09722,-35.1111,5.15278,-56.7082c0.902778,-18.3889,-5.43056,-26.4027,-5.43056,-46.9166c0,-14.125,-12.5556,-30.1388,-23.2361,-30.1388c-37.7222,0,-56.5834,0.86111,-94.3056,-1.98611c-16.75,-1.26389,-34.0417,1.97222,-38.6945,17.0694c-4.66667,-15.1111,-22.0139,-18.375,-38.7639,-17.1111c-37.7083,2.83333,-56.5556,2.02777,-94.2778,2.02777c-10.6667,0,-21.3611,17.1389,-21.3611,30.1527c0,0,-9.48611,29.25,-7.97222,51.0416s7.72222,52.8055,7.72222,52.8055C581.056,203.375,588.681,199.833,591.236,199.944z"/>
  <g >
   <path  fill="#F4F4F4" d="M889.917,167.541c-11.7917,3.49999,-20.0833,6.83332,-20.0833,6.83332c2.41667,-24.9583,3.83333,-36.7499,-0.0138889,-57.8194c7.22222,1.27778,13.9722,2.43055,20.5139,3.47222C894.195,138.083,891.264,146.625,889.917,167.541z"/>
   <path  fill="#B7B7B7" d="M886.445,194.402c-10.375,-0.541666,-17.6806,-8.91665,-16.6111,-20.0139c0,0,8.30556,-3.33333,20.0833,-6.83332C889.223,178.277,887.403,183.652,886.445,194.402z"/>
   <path  fill="#999999" d="M871.264,129.097c-0.208333,-8.31943,-1.31944,-11.4166,-2.61111,-18.625c-1.68056,-9.44443,7.01389,-18.8055,17.4722,-19.5416c0,12.8611,1.81945,17.9861,4.19445,29.0972C882.57,120.028,871.098,121.569,871.264,129.097z"/>
  </g>
  <g >
   <path  fill="#F4F4F4" d="M859.264,175.083c-0.861111,11.5972,-7.61111,21.4305,-14.7778,21.9444c-36.375,2.625,-54.2639,1.40278,-90.3889,1.40278c-7.15278,0,-12.9444,-9.37499,-12.9444,-20.9722c0,0,2.59722,-19.6666,2.59722,-31.1944s-2.59722,-29.9583,-2.59722,-29.9583c0,-17.2083,5.79167,-29.2222,12.9444,-28.8194c36.125,2.04166,54.1945,3.33333,90.3195,3.33333c7.125,0,12.5417,9.81943,13.9028,19.6666C861.556,134.097,861.361,147.236,859.264,175.083z"/>
   <g >
    <path  fill="#B7B7B7" d="M844.486,197.027c-36.375,2.625,-54.2639,1.40278,-90.3889,1.40278c-7.15278,0,-12.9444,-9.37499,-12.9444,-20.9722c0,0,38.1667,-1.66666,61.2361,-1.66666c24.8056,0,56.875,-0.708332,56.875,-0.708332C858.403,186.68,851.653,196.514,844.486,197.027z"/>
   </g>
   <g >
    <path  fill="#999999" d="M844.417,90.8193c-36.125,0,-54.1945,-1.29166,-90.3195,-3.33333c-7.15278,-0.402777,-12.9444,8.90276,-12.9444,20.4444c0,3.40277,0,5.1111,0,8.51388c16.9445,5.49999,38.1389,8.91665,61.2084,8.93054c24.9583,0.0138889,41.7917,-8.31943,57.9306,4.93055c0.0277778,-8.95832,-0.930556,-12.2083,-1.98611,-19.8194C856.959,100.639,851.542,90.8193,844.417,90.8193z"/>
   </g>
  </g>
  <g >
   <path  fill="#F4F4F4" d="M579.986,167.583c11.8194,3.52777,20.125,6.8611,20.125,6.8611c-2.375,-24.9583,-3.77778,-36.8055,0,-57.8888c-7.22222,1.27778,-13.9444,2.43055,-20.5,3.47222C575.792,138.083,578.625,146.666,579.986,167.583z"/>
   <path  fill="#B7B7B7" d="M583.431,194.444c10.375,-0.513888,17.7361,-8.88887,16.6806,-19.9861c0,0,-8.31945,-3.33333,-20.125,-6.8611C580.681,178.319,582.472,183.694,583.431,194.444z"/>
   <path  fill="#999999" d="M598.681,133.694c-0.0833334,-9.93054,1,-14.4028,2.55556,-23.2222c1.65278,-9.44443,-7.02778,-18.8055,-17.4861,-19.5416c0,12.8611,-1.79167,17.9861,-4.13889,29.0972C585.472,120.028,598.625,124.666,598.681,133.694z"/>
  </g>
  <g >
   <path  fill="#F4F4F4" d="M610.667,175.166c0.861111,11.5972,7.58334,21.4027,14.75,21.9166c36.3472,2.59722,54.2639,1.34722,90.375,1.34722c7.15278,0,12.8889,-9.37499,12.8889,-20.9722c0,0,-2.34722,-21.1389,-2.34722,-33.8194s2.34722,-27.3333,2.34722,-27.3333c0,-11.5555,-5.73611,-29.2777,-12.8889,-28.8888c-36.1111,2,-54.1806,3.38888,-90.2917,3.38888c-7.125,0,-12.5556,9.81943,-13.875,19.6666C608.445,134.097,608.625,147.319,610.667,175.166z"/>
   <g >
    <path  fill="#B7B7B7" d="M625.403,197.083c36.3472,2.59722,54.2639,1.34722,90.375,1.34722c7.15278,0,12.8889,-9.37499,12.8889,-20.9722c0,0,-38.1111,-1.66666,-61.1806,-1.66666c-24.8056,0,-56.8195,-0.624999,-56.8195,-0.624999C611.514,186.764,618.25,196.569,625.403,197.083z"/>
   </g>
   <g >
    <path  fill="#999999" d="M625.486,90.8193c36.1111,0,54.1806,-1.40278,90.2917,-3.38888c7.15278,-0.388888,12.8889,8.91665,12.8889,20.4722c0,3.40277,0,5.1111,0,8.52776c-16.9306,5.4861,-38.125,8.91665,-61.1806,8.94443c-24.9445,0.0277777,-44.4445,-4.63888,-57.8334,7.87499c-0.0138889,-9.87498,0.819445,-14.1528,1.97222,-22.7639C612.931,100.639,618.361,90.8193,625.486,90.8193z"/>
   </g>
  </g>
 </g>
 <path  fill="#262626" d="M941.014,96.0693c0,0,0,-49.486,0,-62.2221C941.014,10.25,924.82,0,854.111,0L129.917,0C59.2084,0,43.0139,10.25,43.0139,33.8472c0,12.7361,0,62.2221,0,62.2221L941.014,96.0693z"/>
 <path  opacity="0.35" fill="#FFFFFF" d="M871.764,7.8611c50.125,0,59.125,11.9583,59.125,26.5694l0,3.02777c0,-8.13888,-20.0972,-14.7916,-59.125,-14.7916L112.25,22.6666c-39.0278,0,-59.125,6.65277,-59.125,14.7916L53.125,34.4305c0,-14.6111,8.98611,-26.5694,59.125,-26.5694L871.764,7.8611z"/>
 <path  opacity="0.15" fill="#FFFFFF" d="M77.5834,25.2083c-16,2.61111,-24.4583,7.08332,-24.4583,12.25l0,53.0138l24.4583,0L77.5834,25.2083z"/>
 <path  opacity="0.15" fill="#FFFFFF" d="M906.431,25.2083c16,2.61111,24.4583,7.08332,24.4583,12.25l0,53.0138l-24.4583,0L906.431,25.2083z"/>
 <g >
  <g transform="matrix(1, 0, 0, 1, 314.453, 1054.66)">
   <text  fill="#FFFFFF" font-family="Droid Sans" font-size="305.556">9</text>
  </g>
  <g transform="matrix(1, 0, 0, 1, 508.022, 1054.66)">
   <text  fill="#FFFFFF" font-family="Droid Sans" font-size="305.556">v</text>
  </g>
 </g>
</g>
</g><g partID='22770'><line stroke-linecap='round' stroke='#1b5bb3' x1='3600.37' y1='662.322' x2='1392.63' y2='245.139' stroke-width='44.4444' /><line stroke-linecap='round' stroke='#418dd9' x1='3600.37' y1='662.322' x2='1392.63' y2='245.139' stroke-width='22.2222' /></g><g partID='22830'><line stroke-linecap='round' stroke='#1b5bb3' x1='3600.37' y1='462.322' x2='3600.37' y2='662.322' stroke-width='44.4444' /><line stroke-linecap='round' stroke='#418dd9' x1='3600.37' y1='462.322' x2='3600.37' y2='662.322' stroke-width='22.2222' /></g><g partID='22780'><line stroke-linecap='round' stroke='#1b5bb3' x1='3200.44' y1='462.317' x2='3600.37' y2='462.322' stroke-width='44.4444' /><line stroke-linecap='round' stroke='#418dd9' x1='3200.44' y1='462.317' x2='3600.37' y2='462.322' stroke-width='22.2222' /></g><g partID='22900'><line stroke-linecap='round' stroke='#1b5bb3' x1='1392.63' y1='145.416' x2='2800.37' y2='462.317' stroke-width='44.4444' /><line stroke-linecap='round' stroke='#418dd9' x1='1392.63' y1='145.416' x2='2800.37' y2='462.317' stroke-width='22.2222' /></g></svg>