<?xml version='1.0' encoding='UTF-8' standalone='no'?>
<!-- Created with Fritzing (http://www.fritzing.org/) -->
<svg xmlns="http://www.w3.org/2000/svg" width="5.20065in" x="0in" version="1.2" y="0in"  height="1.51302in" viewBox="0 0 5200.65 1513.02" baseProfile="tiny" xmlns:svg="http://www.w3.org/2000/svg">
 <g  id="watermark">
  <g >
   <path fill="#8C8C8C"  d="M3703.19,1480.68L3676.46,1403.41L3675.97,1403.41c0.236111,2.97222,0.444444,5.93056,0.611111,8.88889c0.166667,2.54167,0.291667,5.20833,0.388889,7.97222c0.0972222,2.81944,0.152778,5.34722,0.152778,7.65278l0,52.7778L3666.73,1480.7L3666.73,1392.42l16.6528,0l24.875,71.9583l0.347222,0l25,-71.9583L3750.28,1392.42l0,88.25L3739.04,1480.67l0,-53.5278c0,-2.08333,0.0416667,-4.5,0.125,-7.19444s0.180556,-5.27778,0.291667,-7.73611c0.166667,-2.875,0.291667,-5.77778,0.402778,-8.68056L3739.41,1403.53L3712.41,1480.68L3703.19,1480.68z"/>
   <path fill="#8C8C8C"  d="M3810.14,1480.68l-2.22222,-9.18056l-0.486111,0c-1.31944,1.81944,-2.63889,3.375,-3.97222,4.69444c-1.31944,1.31944,-2.77778,2.38889,-4.34722,3.20833c-1.56944,0.861111,-3.31944,1.47222,-5.25,1.88889c-1.95833,0.388889,-4.16667,0.583333,-6.69444,0.583333c-2.77778,0,-5.33333,-0.361111,-7.66667,-1.16667c-2.33333,-0.791667,-4.36111,-2,-6.08333,-3.625c-1.69444,-1.61111,-3.04167,-3.68056,-4,-6.15278S3767.97,1465.55,3767.97,1462.14c0,-6.59722,2.31944,-11.6806,6.95833,-15.2083c4.65278,-3.55556,11.7361,-5.47222,21.2222,-5.80556l11.0972,-0.402778l0,-4.18056c0,-2.68056,-0.291667,-4.94444,-0.875,-6.75s-1.43056,-3.25,-2.54167,-4.36111s-2.47222,-1.91667,-4.09722,-2.38889c-1.625,-0.486111,-3.48611,-0.722222,-5.58333,-0.722222c-3.34722,0,-6.44444,0.472222,-9.31944,1.44444c-2.875,0.944444,-5.65278,2.11111,-8.29167,3.47222L3772.66,1419c2.97222,-1.625,6.29167,-3.01389,9.95833,-4.13889c3.66667,-1.09722,7.5,-1.66667,11.5278,-1.66667c4.11111,0,7.65278,0.402778,10.6667,1.25c3,0.819444,5.48611,2.09722,7.41667,3.88889c1.95833,1.80556,3.43056,4.08333,4.38889,6.86111c0.972222,2.76389,1.44444,6.11111,1.44444,10.0833l0,45.4028L3810.14,1480.68L3810.14,1480.68zM3789.98,1473.03c2.47222,0,4.73611,-0.388889,6.81944,-1.16667c2.06944,-0.763889,3.91667,-1.91667,5.43056,-3.45833c1.52778,-1.54167,2.72222,-3.5,3.58333,-5.86111c0.875,-2.36111,1.30556,-5.125,1.30556,-8.31944l0,-5.97222l-8.625,0.416667c-3.63889,0.166667,-6.66667,0.569444,-9.11111,1.19444c-2.43056,0.652778,-4.40278,1.56944,-5.875,2.68056c-1.45833,1.16667,-2.54167,2.56944,-3.18056,4.18056c-0.638889,1.625,-0.944444,3.47222,-0.944444,5.52778c0,3.72222,0.958333,6.41667,2.93056,8.13889C3784.25,1472.16,3786.8,1473.03,3789.98,1473.03z"/>
   <path fill="#8C8C8C"  d="M3879.33,1471.81l-0.472222,0c-0.875,1.375,-1.93056,2.65278,-3.11111,3.90278c-1.18056,1.22222,-2.55556,2.29167,-4.11111,3.20833c-1.54167,0.916667,-3.29167,1.63889,-5.22222,2.16667c-1.93056,0.513889,-4.09722,0.777778,-6.52778,0.777778c-3.76389,0,-7.18056,-0.708333,-10.25,-2.13889c-3.09722,-1.45833,-5.77778,-3.63889,-7.98611,-6.51389s-3.91667,-6.44444,-5.125,-10.7083c-1.20833,-4.29167,-1.80556,-9.22222,-1.80556,-14.8472c0,-5.66667,0.597222,-10.6528,1.80556,-14.9444c1.19444,-4.30556,2.90278,-7.875,5.125,-10.75c2.20833,-2.90278,4.88889,-5.09722,7.98611,-6.56944c3.08333,-1.45833,6.51389,-2.19444,10.25,-2.19444c2.375,0,4.54167,0.277778,6.47222,0.791667s3.66667,1.22222,5.22222,2.11111c1.55556,0.875,2.93056,1.90278,4.125,3.06944s2.26389,2.38889,3.15278,3.69444l0.722222,0c-0.125,-1.38889,-0.25,-2.65278,-0.361111,-3.93056c-0.0833333,-1.02778,-0.166667,-2.11111,-0.25,-3.22222c-0.0694444,-1.08333,-0.125,-1.98611,-0.125,-2.61111L3878.84,1386.75l11,0l0,93.9306l-8.90278,0L3879.33,1471.81zM3862,1472.8c3.06944,0,5.65278,-0.458333,7.77778,-1.41667c2.09722,-0.902778,3.80556,-2.33333,5.13889,-4.22222c1.30556,-1.88889,2.26389,-4.27778,2.90278,-7.11111c0.611111,-2.83333,0.958333,-6.13889,1.05556,-9.94444l0,-2.45833c0,-4.05556,-0.277778,-7.66667,-0.819444,-10.8333c-0.555556,-3.18056,-1.45833,-5.80556,-2.77778,-7.97222c-1.30556,-2.13889,-3.04167,-3.76389,-5.22222,-4.875c-2.16667,-1.11111,-4.88889,-1.65278,-8.13889,-1.65278c-5.43056,0,-9.43056,2.18056,-11.9583,6.58333c-2.56944,4.375,-3.84722,10.7083,-3.84722,18.875c0,8.40278,1.27778,14.6944,3.84722,18.8056C3852.46,1470.71,3856.48,1472.8,3862,1472.8z"/>
   <path fill="#8C8C8C"  d="M3937.03,1481.88c-4.41667,0,-8.45833,-0.736111,-12.1389,-2.22222c-3.65278,-1.47222,-6.80556,-3.66667,-9.44444,-6.51389c-2.63889,-2.875,-4.69444,-6.40278,-6.13889,-10.6389c-1.44444,-4.25,-2.16667,-9.04167,-2.16667,-14.5139s0.680556,-10.3333,2,-14.6528c1.33333,-4.31944,3.18056,-7.97222,5.625,-10.9583c2.41667,-3,5.30556,-5.29167,8.65278,-6.83333c3.34722,-1.56944,7.08333,-2.36111,11.1389,-2.36111c3.98611,0,7.56944,0.708333,10.7222,2.125c3.18056,1.44444,5.875,3.44444,8.09722,6.04167c2.20833,2.61111,3.91667,5.72222,5.09722,9.36111c1.20833,3.65278,1.80556,7.69444,1.80556,12.125l0,6.80556l-41.7778,0c0.208333,7.76389,1.84722,13.4861,4.91667,17.1389c3.08333,3.65278,7.65278,5.5,13.7083,5.5c2.06944,0,3.95833,-0.111111,5.70833,-0.291667s3.44444,-0.486111,5.06944,-0.875c1.63889,-0.361111,3.19444,-0.875,4.75,-1.44444s3.08333,-1.23611,4.63889,-1.97222l0,9.77778c-1.61111,0.763889,-3.18056,1.44444,-4.73611,2c-1.55556,0.569444,-3.13889,1.02778,-4.76389,1.41667c-1.625,0.333333,-3.31944,0.625,-5.06944,0.777778S3939.09,1481.88,3937.03,1481.88zM3934.32,1422.32c-4.59722,0,-8.22222,1.55556,-10.875,4.70833c-2.68056,3.15278,-4.26389,7.70833,-4.69444,13.6806l29.7222,0c0,-2.72222,-0.291667,-5.25,-0.833333,-7.51389c-0.541667,-2.27778,-1.38889,-4.22222,-2.54167,-5.81944s-2.59722,-2.84722,-4.375,-3.75C3938.94,1422.74,3936.82,1422.32,3934.32,1422.32z"/>
   <path fill="#8C8C8C"  d="M4059.44,1480.68l-10.125,-37.1944c-0.166667,-0.736111,-0.361111,-1.54167,-0.611111,-2.44444c-0.236111,-0.902778,-0.472222,-1.88889,-0.708333,-2.875c-0.263889,-1,-0.5,-2.02778,-0.763889,-3.09722c-0.277778,-1.02778,-0.513889,-2.05556,-0.763889,-3.08333c-0.569444,-2.34722,-1.15278,-4.73611,-1.75,-7.23611l-0.333333,0c-0.569444,2.52778,-1.11111,4.94444,-1.625,7.27778c-0.444444,2.02778,-0.916667,4.08333,-1.44444,6.22222c-0.513889,2.11111,-0.958333,3.93056,-1.43056,5.43056l-10.4167,36.9444l-12.7361,0l-16.9583,-66.2639l11.5278,0l7.91667,35.2639c0.402778,1.79167,0.819444,3.75,1.19444,5.875c0.388889,2.09722,0.791667,4.20833,1.13889,6.27778c0.361111,2.05556,0.694444,4,0.972222,5.84722c0.277778,1.83333,0.513889,3.30556,0.680556,4.47222l0.347222,0c0.208333,-1.02778,0.472222,-2.45833,0.819444,-4.19444c0.347222,-1.75,0.722222,-3.61111,1.15278,-5.54167c0.430556,-1.95833,0.875,-3.88889,1.29167,-5.79167c0.444444,-1.93056,0.875,-3.52778,1.26389,-4.875l10.8056,-37.3611l11.8472,0l10.3889,37.3611c0.347222,1.36111,0.777778,2.98611,1.23611,4.83333c0.458333,1.875,0.902778,3.75,1.36111,5.65278c0.444444,1.93056,0.847222,3.76389,1.20833,5.51389c0.347222,1.76389,0.625,3.20833,0.777778,4.375l0.361111,0c0.138889,-1.02778,0.305556,-2.45833,0.583333,-4.19444c0.277778,-1.75,0.583333,-3.68056,0.930556,-5.76389c0.347222,-2.06944,0.75,-4.25,1.16667,-6.44444c0.416667,-2.18056,0.861111,-4.25,1.30556,-6.11111L4078.33,1414.39l11.2361,0l-17.1389,66.2639L4059.44,1480.66L4059.44,1480.68z"/>
   <path fill="#8C8C8C"  d="M4100.48,1396.48c0,-2.43056,0.625,-4.16667,1.84722,-5.26389c1.22222,-1.08333,2.73611,-1.625,4.55556,-1.625c0.875,0,1.70833,0.152778,2.51389,0.388889c0.777778,0.263889,1.44444,0.680556,2.04167,1.23611c0.583333,0.569444,1.04167,1.27778,1.40278,2.13889c0.319444,0.875,0.513889,1.90278,0.513889,3.11111c0,2.33333,-0.625,4.06944,-1.91667,5.22222c-1.27778,1.15278,-2.77778,1.70833,-4.54167,1.70833c-1.81944,0,-3.33333,-0.555556,-4.55556,-1.66667C4101.12,1400.6,4100.48,1398.84,4100.48,1396.48zM4112.32,1480.68l-10.9861,0L4101.33,1414.39l10.9861,0L4112.32,1480.68z"/>
   <path fill="#8C8C8C"  d="M4153.37,1472.89c0.722222,0,1.54167,-0.0416667,2.44444,-0.138889c0.916667,-0.0833333,1.77778,-0.180556,2.625,-0.291667c0.847222,-0.125,1.61111,-0.263889,2.31944,-0.430556c0.708333,-0.152778,1.23611,-0.291667,1.59722,-0.388889l0,8.33333c-0.513889,0.236111,-1.18056,0.486111,-2,0.722222c-0.819444,0.25,-1.69444,0.458333,-2.65278,0.638889c-0.944444,0.208333,-1.97222,0.305556,-3.01389,0.416667s-2.05556,0.152778,-3.06944,0.152778c-2.5,0,-4.81944,-0.291667,-6.94444,-0.944444c-2.125,-0.666667,-3.97222,-1.75,-5.51389,-3.31944c-1.54167,-1.55556,-2.75,-3.70833,-3.65278,-6.36111c-0.875,-2.66667,-1.31944,-6.06944,-1.31944,-10.125L4134.19,1422.67l-9.36111,0L4124.83,1417.78l9.34722,-4.70833l4.70833,-13.875l6.33333,0l0,15.2222l16.6528,0l0,8.27778l-16.6528,0l0,38.4583c0,3.90278,0.625,6.83333,1.90278,8.83333C4148.4,1471.91,4150.47,1472.89,4153.37,1472.89z"/>
   <path fill="#8C8C8C"  d="M4216.64,1480.68l0,-42.6806c0,-5.23611,-1.05556,-9.15278,-3.16667,-11.7778c-2.11111,-2.61111,-5.43056,-3.91667,-9.93056,-3.91667c-3.25,0,-6.01389,0.513889,-8.22222,1.54167c-2.19444,1.05556,-3.97222,2.61111,-5.33333,4.66667c-1.34722,2.05556,-2.30556,4.55556,-2.88889,7.55556c-0.583333,2.97222,-0.875,6.40278,-0.875,10.2639l0,34.3472l-10.9861,0L4175.23,1386.75l10.9861,0l0,27.8889l-0.472222,8.69444l0.611111,0c1,-1.72222,2.19444,-3.22222,3.58333,-4.48611s2.90278,-2.31944,4.55556,-3.18056c1.63889,-0.847222,3.40278,-1.44444,5.25,-1.875c1.84722,-0.375,3.75,-0.597222,5.66667,-0.597222c7.375,0,12.9167,1.93056,16.6389,5.77778c3.72222,3.81944,5.56944,9.98611,5.56944,18.4167l0,43.2917L4216.64,1480.68L4216.64,1480.68z"/>
  </g>
  <g >
   <path fill="#8C8C8C"  d="M4518.86,1480.46l-18.3889,0L4500.47,1392.21l50.5833,0l0,15.3333l-32.1667,0l0,22.7639l29.9444,0l0,15.2778l-29.9444,0L4518.86,1480.46L4518.86,1480.46z"/>
   <path fill="#8C8C8C"  d="M4602.65,1411.71c0.486111,0,1.02778,0.0277778,1.61111,0.0277778c0.583333,0.0277778,1.15278,0.0833333,1.66667,0.138889c0.569444,0.0694444,1.05556,0.125,1.52778,0.194444c0.430556,0.0555556,0.819444,0.138889,1.04167,0.222222l0,17.2778c-0.305556,-0.111111,-0.777778,-0.166667,-1.31944,-0.25c-0.555556,-0.0972222,-1.15278,-0.166667,-1.77778,-0.25c-0.625,-0.0555556,-1.25,-0.0833333,-1.84722,-0.111111c-0.611111,-0.0277778,-1.11111,-0.0277778,-1.5,-0.0277778c-2.375,0,-4.55556,0.291667,-6.55556,0.888889c-2.02778,0.597222,-3.73611,1.56944,-5.13889,2.93056s-2.54167,3.125,-3.31944,5.31944c-0.791667,2.18056,-1.16667,4.88889,-1.16667,8.06944l0,34.3611l-18.4167,0L4567.46,1412.98l13.9583,0l2.69444,10.1389l0.916667,0c0.944444,-1.73611,2.01389,-3.30556,3.13889,-4.72222c1.125,-1.43056,2.38889,-2.625,3.77778,-3.59722c1.38889,-0.986111,2.94444,-1.75,4.69444,-2.29167C4598.39,1411.99,4600.41,1411.71,4602.65,1411.71z"/>
   <path fill="#8C8C8C"  d="M4620.96,1395.53c0,-1.73611,0.25,-3.16667,0.777778,-4.31944c0.527778,-1.16667,1.23611,-2.08333,2.13889,-2.77778c0.902778,-0.708333,1.97222,-1.19444,3.18056,-1.47222c1.22222,-0.277778,2.55556,-0.416667,3.90278,-0.416667c1.375,0,2.65278,0.138889,3.84722,0.416667c1.22222,0.277778,2.27778,0.763889,3.18056,1.47222c0.916667,0.694444,1.625,1.61111,2.16667,2.77778c0.555556,1.15278,0.819444,2.58333,0.819444,4.31944c0,1.69444,-0.263889,3.125,-0.819444,4.29167c-0.541667,1.16667,-1.25,2.09722,-2.16667,2.81944c-0.875,0.694444,-1.97222,1.19444,-3.18056,1.5c-1.19444,0.291667,-2.5,0.444444,-3.84722,0.444444c-1.375,0,-2.65278,-0.166667,-3.90278,-0.444444c-1.22222,-0.291667,-2.27778,-0.819444,-3.18056,-1.5c-0.902778,-0.708333,-1.61111,-1.65278,-2.13889,-2.81944C4621.22,1398.66,4620.96,1397.23,4620.96,1395.53zM4640.15,1480.46l-18.4028,0L4621.75,1412.98l18.4028,0L4640.15,1480.46z"/>
   <path fill="#8C8C8C"  d="M4687.5,1467c1.80556,0,3.52778,-0.222222,5.15278,-0.625c1.625,-0.375,3.26389,-0.888889,4.95833,-1.48611l0,13.6944c-1.72222,0.875,-3.86111,1.61111,-6.43056,2.18056c-2.55556,0.583333,-5.34722,0.875,-8.375,0.875c-2.93056,0,-5.66667,-0.333333,-8.19444,-1.01389c-2.56944,-0.694444,-4.75,-1.90278,-6.61111,-3.59722c-1.84722,-1.70833,-3.29167,-4,-4.34722,-6.875c-1.06944,-2.88889,-1.58333,-6.5,-1.58333,-10.8472L4662.07,1426.8l-8.83333,0L4653.23,1419l10.125,-6.15278l5.31944,-14.2222l11.7778,0l0,14.3611l16.4444,0l0,13.8194l-16.4444,0l0,32.5417c0,2.61111,0.666667,4.54167,1.95833,5.79167C4683.71,1466.38,4685.4,1467,4687.5,1467z"/>
   <path fill="#8C8C8C"  d="M4755.18,1480.46L4705.55,1480.46l0,-10.8472l27.5694,-42.5556l-25.7361,0L4707.39,1412.98l46.5972,0l0,11.9306l-26.6667,41.4583l27.8333,0L4755.18,1480.46L4755.18,1480.46z"/>
   <path fill="#8C8C8C"  d="M4768.22,1395.53c0,-1.73611,0.277778,-3.16667,0.791667,-4.31944c0.527778,-1.16667,1.25,-2.08333,2.125,-2.77778c0.902778,-0.708333,2,-1.19444,3.19444,-1.47222s2.52778,-0.416667,3.88889,-0.416667c1.36111,0,2.63889,0.138889,3.84722,0.416667c1.22222,0.277778,2.27778,0.763889,3.18056,1.47222c0.888889,0.694444,1.625,1.61111,2.16667,2.77778c0.527778,1.15278,0.819444,2.58333,0.819444,4.31944c0,1.69444,-0.291667,3.125,-0.819444,4.29167c-0.541667,1.16667,-1.27778,2.09722,-2.16667,2.81944c-0.888889,0.694444,-1.98611,1.19444,-3.18056,1.5c-1.19444,0.291667,-2.5,0.444444,-3.84722,0.444444c-1.375,0,-2.66667,-0.166667,-3.88889,-0.444444c-1.22222,-0.291667,-2.29167,-0.819444,-3.19444,-1.5c-0.875,-0.708333,-1.59722,-1.65278,-2.125,-2.81944C4768.48,1398.66,4768.22,1397.23,4768.22,1395.53zM4787.41,1480.46L4769.03,1480.46L4769.03,1412.98l18.3889,0L4787.41,1480.46z"/>
   <path fill="#8C8C8C"  d="M4865.89,1480.46L4847.5,1480.46l0,-39.4306c0,-4.875,-0.736111,-8.51389,-2.19444,-10.9306c-1.45833,-2.44444,-3.80556,-3.68056,-7.05556,-3.68056c-2.40278,0,-4.40278,0.486111,-6.02778,1.44444c-1.61111,0.972222,-2.90278,2.40278,-3.83333,4.30556c-0.916667,1.88889,-1.59722,4.22222,-2.02778,7c-0.402778,2.77778,-0.597222,5.95833,-0.597222,9.54167l0,31.75L4807.36,1480.46L4807.36,1412.98l14.0556,0l2.51389,8.625l1.01389,0c0.958333,-1.72222,2.125,-3.19444,3.51389,-4.45833c1.41667,-1.23611,2.91667,-2.26389,4.55556,-3.06944s3.40278,-1.43056,5.25,-1.77778c1.88889,-0.388889,3.76389,-0.597222,5.68056,-0.597222c3.29167,0,6.30556,0.458333,8.98611,1.44444c2.69444,0.930556,5,2.41667,6.94444,4.41667c1.95833,2.02778,3.43056,4.55556,4.45833,7.70833c1.04167,3.125,1.56944,6.83333,1.56944,11.2083l0,44L4865.89,1480.46L4865.89,1480.46z"/>
   <path fill="#8C8C8C"  d="M4941.3,1413.1l0,10.0278l-9.83333,3.06944c0.819444,1.38889,1.38889,2.79167,1.69444,4.27778c0.291667,1.47222,0.458333,3.05556,0.458333,4.76389c0,3.41667,-0.541667,6.54167,-1.61111,9.38889c-1.08333,2.81944,-2.68056,5.26389,-4.84722,7.25c-2.11111,2.02778,-4.80556,3.58333,-8.02778,4.68056c-3.19444,1.11111,-6.94444,1.65278,-11.2222,1.65278c-0.930556,0,-1.95833,-0.0416667,-3.02778,-0.166667c-1.08333,-0.0972222,-1.90278,-0.208333,-2.43056,-0.291667c-0.791667,0.680556,-1.44444,1.40278,-1.90278,2.11111c-0.458333,0.75,-0.680556,1.625,-0.680556,2.68056c0,0.847222,0.25,1.5,0.777778,2.02778s1.20833,0.902778,2.04167,1.20833c0.833333,0.305556,1.84722,0.5,2.97222,0.611111s2.29167,0.166667,3.48611,0.166667l10.5,0c3.27778,0,6.19444,0.347222,8.76389,1.125c2.58333,0.763889,4.75,1.875,6.55556,3.41667c1.79167,1.51389,3.18056,3.45833,4.15278,5.81944c0.958333,2.34722,1.44444,5.16667,1.44444,8.40278c0,3.81944,-0.75,7.26389,-2.27778,10.3472c-1.51389,3.11111,-3.80556,5.69444,-6.86111,7.84722c-3.04167,2.13889,-6.77778,3.79167,-11.2917,4.93056c-4.5,1.13889,-9.70833,1.70833,-15.6389,1.70833c-4.56944,0,-8.58333,-0.430556,-12,-1.30556c-3.43056,-0.875,-6.26389,-2.08333,-8.56944,-3.75c-2.29167,-1.61111,-4,-3.58333,-5.15278,-5.88889c-1.16667,-2.27778,-1.73611,-4.90278,-1.73611,-7.79167c0,-2.45833,0.430556,-4.58333,1.29167,-6.38889c0.847222,-1.81944,1.98611,-3.375,3.375,-4.66667c1.41667,-1.29167,3.02778,-2.33333,4.81944,-3.15278c1.79167,-0.805556,3.63889,-1.43056,5.5,-1.86111c-0.847222,-0.361111,-1.66667,-0.875,-2.51389,-1.51389c-0.819444,-0.652778,-1.56944,-1.38889,-2.23611,-2.20833c-0.652778,-0.875,-1.19444,-1.79167,-1.61111,-2.81944c-0.430556,-1,-0.652778,-2.08333,-0.652778,-3.19444c0,-1.29167,0.208333,-2.47222,0.555556,-3.5c0.402778,-1.05556,0.944444,-2.02778,1.66667,-2.94444c0.722222,-0.888889,1.625,-1.75,2.72222,-2.55556c1.08333,-0.833333,2.30556,-1.625,3.66667,-2.5c-3.52778,-1.52778,-6.33333,-3.98611,-8.38889,-7.36111c-2.08333,-3.38889,-3.125,-7.34722,-3.125,-11.9306c0,-3.61111,0.555556,-6.86111,1.68056,-9.70833c1.125,-2.875,2.77778,-5.29167,4.94444,-7.26389c2.15278,-2,4.86111,-3.5,8.08333,-4.55556c3.20833,-1.05556,6.93056,-1.56944,11.125,-1.56944c0.791667,0,1.69444,0.0555556,2.69444,0.166667s2.01389,0.25,3,0.347222c0.972222,0.138889,1.90278,0.291667,2.72222,0.458333c0.847222,0.138889,1.51389,0.291667,2.02778,0.402778L4941.3,1413.1L4941.3,1413.1zM4893.01,1490c0,1.01389,0.236111,2.01389,0.652778,2.93056c0.416667,0.944444,1.11111,1.79167,2.08333,2.52778c0.944444,0.722222,2.22222,1.30556,3.77778,1.72222c1.56944,0.416667,3.5,0.638889,5.79167,0.638889c6.27778,0,11,-0.875,14.1806,-2.65278c3.18056,-1.76389,4.76389,-4.13889,4.76389,-7.13889c0,-2.54167,-0.972222,-4.22222,-2.95833,-5.05556c-1.98611,-0.833333,-5.01389,-1.26389,-9.16667,-1.26389l-8.51389,0c-1.06944,0,-2.25,0.125,-3.5,0.375c-1.25,0.25,-2.38889,0.722222,-3.44444,1.375c-1.04167,0.638889,-1.93056,1.5,-2.61111,2.55556S4893.01,1488.41,4893.01,1490zM4899.66,1435.07c0,3.65278,0.680556,6.5,2.04167,8.5c1.36111,2.02778,3.44444,3.01389,6.20833,3.01389c2.90278,0,4.97222,-0.972222,6.26389,-3.01389c1.30556,-2.01389,1.94444,-4.86111,1.94444,-8.5c0,-3.625,-0.638889,-6.5,-1.90278,-8.63889c-1.27778,-2.11111,-3.375,-3.18056,-6.30556,-3.18056C4902.4,1423.24,4899.66,1427.17,4899.66,1435.07z"/>
   <path fill="#8C8C8C"  d="M4951.72,1471.84c0,-1.88889,0.277778,-3.48611,0.819444,-4.80556c0.555556,-1.31944,1.30556,-2.38889,2.26389,-3.18056c0.958333,-0.805556,2.06944,-1.40278,3.38889,-1.75c1.27778,-0.361111,2.65278,-0.541667,4.15278,-0.541667c1.41667,0,2.75,0.180556,4.01389,0.541667c1.27778,0.347222,2.38889,0.944444,3.36111,1.75c0.944444,0.791667,1.70833,1.86111,2.26389,3.18056c0.569444,1.31944,0.861111,2.91667,0.861111,4.80556c0,1.80556,-0.291667,3.36111,-0.861111,4.65278c-0.555556,1.29167,-1.31944,2.36111,-2.26389,3.18056c-0.972222,0.861111,-2.08333,1.44444,-3.36111,1.84722c-1.26389,0.375,-2.61111,0.583333,-4.01389,0.583333c-1.47222,0,-2.875,-0.208333,-4.15278,-0.583333c-1.31944,-0.375,-2.43056,-0.986111,-3.38889,-1.84722c-0.958333,-0.847222,-1.70833,-1.91667,-2.26389,-3.18056C4951.97,1475.2,4951.72,1473.64,4951.72,1471.84z"/>
   <path fill="#8C8C8C"  d="M5048.37,1446.59c0,5.63889,-0.722222,10.6528,-2.125,14.9861c-1.44444,4.34722,-3.48611,8,-6.15278,10.9722c-2.66667,2.98611,-5.94444,5.25,-9.77778,6.79167c-3.84722,1.54167,-8.15278,2.31944,-12.9583,2.31944c-4.45833,0,-8.56944,-0.777778,-12.3056,-2.31944c-3.76389,-1.55556,-6.98611,-3.80556,-9.69444,-6.79167c-2.70833,-2.97222,-4.86111,-6.65278,-6.36111,-10.9722c-1.52778,-4.34722,-2.29167,-9.34722,-2.29167,-14.9861c0,-5.58333,0.708333,-10.5556,2.13889,-14.8889c1.43056,-4.36111,3.47222,-8,6.13889,-10.9583C4997.65,1417.77,5000.9,1415.53,5004.72,1414.02s8.15278,-2.27778,13.0139,-2.27778c4.43056,0,8.54167,0.763889,12.3056,2.27778c3.75,1.54167,6.97222,3.76389,9.65278,6.72222c2.73611,2.95833,4.875,6.625,6.375,10.9583C5047.6,1436.03,5048.37,1441,5048.37,1446.59zM5005.51,1446.59c0,6.72222,0.944444,11.8194,2.84722,15.1806c1.90278,3.41667,4.95833,5.11111,9.22222,5.11111c4.25,0,7.27778,-1.70833,9.16667,-5.13889c1.90278,-3.40278,2.84722,-8.44444,2.84722,-15.1528s-0.944444,-11.75,-2.84722,-15.0556c-1.88889,-3.30556,-4.97222,-4.95833,-9.27778,-4.95833c-4.23611,0,-7.26389,1.65278,-9.15278,4.95833C5006.44,1434.85,5005.51,1439.89,5005.51,1446.59z"/>
   <path fill="#8C8C8C"  d="M5100.04,1411.71c0.486111,0,1.01389,0.0277778,1.59722,0.0277778c0.583333,0.0277778,1.15278,0.0833333,1.66667,0.138889c0.555556,0.0694444,1.05556,0.125,1.51389,0.194444c0.458333,0.0555556,0.819444,0.138889,1.05556,0.222222l0,17.2778c-0.319444,-0.111111,-0.763889,-0.166667,-1.31944,-0.25c-0.569444,-0.0972222,-1.15278,-0.166667,-1.80556,-0.25c-0.625,-0.0555556,-1.23611,-0.0833333,-1.83333,-0.111111c-0.625,-0.0277778,-1.11111,-0.0277778,-1.5,-0.0277778c-2.375,0,-4.55556,0.291667,-6.56944,0.888889c-2,0.597222,-3.70833,1.56944,-5.13889,2.93056c-1.41667,1.36111,-2.52778,3.125,-3.29167,5.31944c-0.805556,2.18056,-1.16667,4.88889,-1.16667,8.06944l0,34.3611l-18.4167,0L5064.83,1412.98l13.9444,0l2.70833,10.1389l0.902778,0c0.944444,-1.73611,2.02778,-3.30556,3.13889,-4.72222c1.125,-1.43056,2.38889,-2.625,3.76389,-3.59722c1.40278,-0.986111,2.95833,-1.75,4.70833,-2.29167C5095.79,1411.99,5097.79,1411.71,5100.04,1411.71z"/>
   <path fill="#8C8C8C"  d="M5173.76,1413.1l0,10.0278l-9.83333,3.06944c0.805556,1.38889,1.375,2.79167,1.68056,4.27778s0.472222,3.05556,0.472222,4.76389c0,3.41667,-0.541667,6.54167,-1.61111,9.38889c-1.09722,2.81944,-2.69444,5.26389,-4.84722,7.25c-2.125,2.02778,-4.83333,3.58333,-8.02778,4.68056c-3.22222,1.11111,-6.95833,1.65278,-11.2361,1.65278c-0.930556,0,-1.95833,-0.0416667,-3.04167,-0.166667c-1.08333,-0.0972222,-1.875,-0.208333,-2.40278,-0.291667c-0.805556,0.680556,-1.44444,1.40278,-1.90278,2.11111c-0.472222,0.75,-0.694444,1.625,-0.694444,2.68056c0,0.847222,0.263889,1.5,0.791667,2.02778c0.513889,0.513889,1.19444,0.902778,2.02778,1.20833c0.861111,0.291667,1.84722,0.5,2.98611,0.611111c1.11111,0.111111,2.27778,0.166667,3.48611,0.166667l10.5,0c3.25,0,6.18056,0.347222,8.75,1.125c2.58333,0.763889,4.76389,1.875,6.55556,3.41667c1.79167,1.51389,3.18056,3.45833,4.13889,5.81944c0.972222,2.34722,1.44444,5.16667,1.44444,8.40278c0,3.81944,-0.75,7.26389,-2.29167,10.3472c-1.51389,3.11111,-3.81944,5.69444,-6.84722,7.84722c-3.04167,2.13889,-6.79167,3.79167,-11.3194,4.93056c-4.48611,1.13889,-9.69444,1.70833,-15.625,1.70833c-4.56944,0,-8.56944,-0.430556,-12,-1.30556c-3.41667,-0.875,-6.26389,-2.08333,-8.56944,-3.75c-2.27778,-1.61111,-3.98611,-3.58333,-5.15278,-5.88889c-1.15278,-2.27778,-1.72222,-4.90278,-1.72222,-7.79167c0,-2.45833,0.416667,-4.58333,1.26389,-6.38889c0.875,-1.81944,2,-3.375,3.38889,-4.66667c1.43056,-1.29167,3.01389,-2.33333,4.80556,-3.15278c1.79167,-0.805556,3.65278,-1.43056,5.52778,-1.86111c-0.861111,-0.361111,-1.68056,-0.875,-2.52778,-1.51389c-0.833333,-0.652778,-1.56944,-1.38889,-2.22222,-2.20833c-0.652778,-0.875,-1.20833,-1.79167,-1.625,-2.81944c-0.416667,-1.01389,-0.625,-2.09722,-0.625,-3.20833c0,-1.29167,0.194444,-2.47222,0.555556,-3.5c0.375,-1.05556,0.930556,-2.02778,1.66667,-2.94444c0.708333,-0.888889,1.625,-1.75,2.69444,-2.55556c1.08333,-0.833333,2.30556,-1.625,3.69444,-2.5c-3.54167,-1.51389,-6.33333,-3.98611,-8.41667,-7.34722c-2.05556,-3.38889,-3.09722,-7.375,-3.09722,-11.9583c0,-3.61111,0.541667,-6.84722,1.68056,-9.69444c1.125,-2.875,2.76389,-5.30556,4.91667,-7.27778c2.16667,-1.98611,4.875,-3.5,8.09722,-4.55556c3.20833,-1.02778,6.93056,-1.54167,11.1111,-1.54167c0.819444,0,1.70833,0.0416667,2.70833,0.152778s2.02778,0.236111,2.98611,0.361111c1,0.125,1.91667,0.291667,2.75,0.430556c0.861111,0.166667,1.5,0.291667,2.01389,0.416667L5173.76,1413.09L5173.76,1413.1zM5125.48,1490c0,1.01389,0.236111,2.01389,0.638889,2.93056c0.430556,0.944444,1.125,1.79167,2.06944,2.52778c0.972222,0.722222,2.23611,1.30556,3.79167,1.72222c1.58333,0.416667,3.5,0.638889,5.80556,0.638889c6.26389,0,11,-0.875,14.1806,-2.65278c3.18056,-1.76389,4.76389,-4.13889,4.76389,-7.13889c0,-2.54167,-0.986111,-4.22222,-2.97222,-5.05556s-5.01389,-1.26389,-9.16667,-1.26389l-8.5,0c-1.09722,0,-2.26389,0.125,-3.5,0.375c-1.25,0.263889,-2.40278,0.722222,-3.44444,1.375c-1.05556,0.638889,-1.93056,1.5,-2.61111,2.55556C5125.84,1487.05,5125.48,1488.41,5125.48,1490zM5132.11,1435.07c0,3.65278,0.680556,6.5,2.05556,8.5c1.375,2.02778,3.44444,3.01389,6.20833,3.01389c2.90278,0,4.97222,-0.972222,6.26389,-3.01389c1.30556,-2.01389,1.95833,-4.86111,1.95833,-8.5c0,-3.625,-0.638889,-6.5,-1.91667,-8.63889c-1.27778,-2.11111,-3.375,-3.18056,-6.30556,-3.18056C5134.86,1423.24,5132.11,1427.17,5132.11,1435.07z"/>
  </g>
  <g >
   <path fill="#8C8C8C"  d="M4418.12,1373.1l-113.139,0c-7.38889,0,-13.4028,6,-13.4028,13.3889l0,113.139c0,7.375,6.01389,13.3889,13.4028,13.3889l77.0833,0l49.4028,-49.4167L4431.47,1386.49C4431.51,1379.09,4425.51,1373.1,4418.12,1373.1zM4394.83,1424.89l-14.9306,0l0,5.56944l14.9306,0l0,22.2361l-30.5,0l0,28.5833l-35.7222,0l0,-64.8611l13.7222,-13.75l52.4861,0l0,22.2639l0.0138889,0L4394.83,1424.89z"/>
  </g>
 </g>
 <path fill="none" stroke="#8c8c8c" stroke-linejoin="round" stroke-linecap="round" stroke-width="29.1" d="M4786.43,1238.34L4771.88,1238.34"/>
 <path fill="none" stroke="#8c8c8c" stroke-linejoin="round" stroke-linecap="round" stroke-width="29.1" d="M5157.4,1238.34L5171.95,1238.34"/>
 <g partID="76220">
  <g transform="translate(4757.33,1187.89)">
   <g  id="breadboard">
    <rect width="10" x="5" y="35.9" fill="none"  height="10" id="connector0pin"/>
    <rect width="10" x="414.17" y="35.9" fill="none"  height="10" id="connector1pin"/>
    <line fill="none"  stroke="#8C8C8C" id="connector0leg" stroke-linecap="round" y1="50.45" x1="14.55" y2="50.45" stroke-width="29.1" x2="29.1"/>
    <line fill="none"  stroke="#8C8C8C" id="connector1leg" stroke-linecap="round" y1="50.45" x1="414.62" y2="50.45" stroke-width="29.1" x2="400.07"/>
    <path fill="none"  stroke="#8C8C8C" stroke-width="29.1" d="M14.55,50.45l393.98,0"/>
    <path fill="#D9B477"  id="body" d="M142.33,6.88c-5,-2.3,-13.6,-4.1,-19.1,-4.1l-27.6,0c-5.5,0,-10,4.5,-10,10l0,74.39c0,5.51,4.5,10,10,10l27.6,0c5.5,0,14.1,-1.89,19.1,-4.1l1,-0.49c5,-2.3,13.6,-4.1,19.1,-4.1l99.8,0c5.51,0,14.09,1.89,19.09,4.1l1.01,0.49c5,2.3,13.58,4.1,19.1,4.1l27.6,0c5.52,0,10,-4.49,10,-10L339.03,12.78c0,-5.5,-4.48,-10,-10,-10l-27.6,0c-5.52,0,-14.1,1.9,-19.1,4.1l-1.01,0.5c-5,2.3,-13.58,4.1,-19.09,4.1l-99.8,0c-5.5,0,-14.1,-1.9,-19.1,-4.1L142.33,6.88z"/>
    <rect width="9.76" x="305.82" y="2.69" fill="#ad9f4e"  height="94.38" id="gold_band"/>
    <rect width="25.7" x="224.62" y="11.48" fill="#00a33d"  height="76.9" id="band_rd_multiplier"/>
    <rect width="25.7" x="173.23" y="11.48" fill="#000000"  height="76.9" id="band_2_nd"/>
    <path fill="#8a3d06"  id="band_1_st" d="M147.62,8.88c-1.6,-0.5,-3.1,-1,-4.3,-1.6l-1,-0.5c-5,-2.29,-13.6,-4.1,-19.1,-4.1l-1.2,0l0,94.39l1.2,0c5.5,0,14.1,-1.89,19.1,-4.1l1,-0.49c1.2,-0.62,2.7,-1.11,4.3,-1.6L147.62,8.88z"/>
    <path opacity="0.3"  id="Shadow" d="M329.32,56.8L329.32,56.8c0,5.27,-1.81,9.71,-4.1,9.71l-26.7,0c-5.28,0,-13.58,-0.78,-18.51,-1.7L279,64.59c-4.79,-0.9,-13.18,-1.7,-18.52,-1.7L164,62.89c-5.3,0,-13.6,0.8,-18.5,1.7l-1,0.21c-4.8,0.91,-13.1,1.7,-18.5,1.7l-4.4,0l-13.9,0l-4.3,0c-5.3,0,-9.7,4.08,-9.7,8.96l0,3.43L93.7,81.1l0,2.4c0,5,4.4,8.96,9.7,8.96l22.5,0c5.3,0,13.6,-1.7,18.5,-3.71l1,-0.39c4.8,-1.96,13.2,-3.68,18.5,-3.68l96.48,0c5.27,0,13.57,1.72,18.53,3.69l1.03,0.39c4.79,2.01,13.12,3.71,18.52,3.71l30.9,0c5.29,0,9.71,-4.1,9.71,-8.96L339.07,76L339.07,62.49L339.07,36.88C335.22,38.38,329.32,42.58,329.32,56.8z"/>
    <rect width="9.76" x="305.82" opacity="0.4" y="48.38"  height="43.79" id="ShadowExtra"/>
    <path opacity="0.25" fill="#FFFFFF"  id="ReflexRight" d="M274.32,15.08c3.19,0,6.82,-1.4,9.2,-2.4c2.8,-1.1,8.01,-2,13.42,-2l20.29,0c3.12,0,3.12,3.4,3.12,5.2c0,1.8,-0.21,5.3,-3.12,5.3l-42.5,0c-1.49,0,-3.2,-1.6,-3.2,-3.11C271.62,16.88,272.62,15.08,274.32,15.08z"/>
    <circle opacity="0.35" fill="#FFFFFF" cx="97.22"  cy="15.78" id="ReflexLeft" r="6"/>
    <rect width="9.76" x="305.82" opacity="0.5" y="5.88" fill="#FFFF33"  height="22.5" id="Reflex_gold"/>
    <rect width="9.76" x="305.82" opacity="0.5" y="10.88" fill="#FFFFFF"  height="10.4" id="Reflex_extra"/>
   </g>
  </g>
 </g>
 <g partID="76470">
  <g  id="breadboard">
   <rect width="100" fill="#404040"  height="100"/>
   <rect width="38.6544" x="30.6727" y="30.6727" fill="none"  height="38.6544" id="connector0pin"/>
   <g width="29.9763" x="34.977" y="34.3131" fill="none"  height="31.3414" id="connector0terminal"/>
   <rect width="38.6544" x="30.6727" y="30.6727"  height="38.6544"/>
   <polygon fill="#2A2A29" points="16.4507,16.4507,30.6727,30.6727,69.3272,30.6727,83.5631,16.4507" />
   <polygon fill="#474747" points="83.5631,16.4507,69.3272,30.6727,69.3272,69.3272,83.5631,83.5631" />
   <polygon fill="#595959" points="83.5631,83.5631,69.3272,69.3272,30.6727,69.3272,16.4507,83.5631" />
   <polygon fill="#373737" points="16.4507,83.5631,30.6727,69.3272,30.6727,30.6727,16.4507,16.4507" />
  </g>
 </g>
 <g partID="78100">
  <line stroke="#ab58a2" stroke-linecap="round" y1="1238.34" x1="5171.95" y2="49.9838" stroke-width="7.77778" x2="49.9652"/>
 </g>
</svg>
