<?xml version='1.0' encoding='UTF-8' standalone='no'?>
<!-- Created with Fritzing (http://www.fritzing.org/) -->
<svg xmlns:svg='http://www.w3.org/2000/svg' xmlns='http://www.w3.org/2000/svg' version='1.2' baseProfile='tiny' x='0in' y='0in' width='6.96385in' height='3.37685in' viewBox='0 0 6963.85 3376.85' >
<path stroke='#8c8c8c' stroke-width='29.1' stroke-linecap='round' stroke-linejoin='round' fill='none' d='M2143.47,345.139L2128.92,345.139' />
<path stroke='#8c8c8c' stroke-width='29.1' stroke-linecap='round' stroke-linejoin='round' fill='none' d='M2514.44,345.139L2528.99,345.139' />
<g partID='42260'><g transform='translate(2114.37,294.689)' ><g xmlns="http://www.w3.org/2000/svg" id="breadboard">
 <rect xmlns="http://www.w3.org/2000/svg" width="10" x="5" y="35.9" fill="none" height="10" id="connector0pin"/>
 <rect xmlns="http://www.w3.org/2000/svg" width="10" x="414.17" y="35.9" fill="none" height="10" id="connector1pin"/>
 <line xmlns="http://www.w3.org/2000/svg" fill="none" stroke="#8C8C8C" id="connector0leg" stroke-linecap="round" y1="50.45" x1="14.55" y2="50.45" stroke-width="29.1" x2="29.1"/>
 <line xmlns="http://www.w3.org/2000/svg" fill="none" stroke="#8C8C8C" id="connector1leg" stroke-linecap="round" y1="50.45" x1="414.62" y2="50.45" stroke-width="29.1" x2="400.07"/>
 <path xmlns="http://www.w3.org/2000/svg" fill="none" stroke="#8C8C8C" stroke-width="29.1" d="M14.55,50.45l393.98,0"/>
 <path xmlns="http://www.w3.org/2000/svg" fill="#D9B477" id="body" d="M142.33,6.88c-5,-2.3,-13.6,-4.1,-19.1,-4.1l-27.6,0c-5.5,0,-10,4.5,-10,10l0,74.39c0,5.51,4.5,10,10,10l27.6,0c5.5,0,14.1,-1.89,19.1,-4.1l1,-0.49c5,-2.3,13.6,-4.1,19.1,-4.1l99.8,0c5.51,0,14.09,1.89,19.09,4.1l1.01,0.49c5,2.3,13.58,4.1,19.1,4.1l27.6,0c5.52,0,10,-4.49,10,-10L339.03,12.78c0,-5.5,-4.48,-10,-10,-10l-27.6,0c-5.52,0,-14.1,1.9,-19.1,4.1l-1.01,0.5c-5,2.3,-13.58,4.1,-19.09,4.1l-99.8,0c-5.5,0,-14.1,-1.9,-19.1,-4.1L142.33,6.88z"/>
 <rect xmlns="http://www.w3.org/2000/svg" width="9.76" x="305.82" y="2.69" fill="#ad9f4e" height="94.38" id="gold_band"/>
 <rect xmlns="http://www.w3.org/2000/svg" width="25.7" x="224.62" y="11.48" fill="#8a3d06" height="76.9" id="band_rd_multiplier"/>
 <rect xmlns="http://www.w3.org/2000/svg" width="25.7" x="173.23" y="11.48" fill="#c40808" height="76.9" id="band_2_nd"/>
 <path xmlns="http://www.w3.org/2000/svg" fill="#c40808" id="band_1_st" d="M147.62,8.88c-1.6,-0.5,-3.1,-1,-4.3,-1.6l-1,-0.5c-5,-2.29,-13.6,-4.1,-19.1,-4.1l-1.2,0l0,94.39l1.2,0c5.5,0,14.1,-1.89,19.1,-4.1l1,-0.49c1.2,-0.62,2.7,-1.11,4.3,-1.6L147.62,8.88z"/>
 <path xmlns="http://www.w3.org/2000/svg" opacity="0.3" id="Shadow" d="M329.32,56.8L329.32,56.8c0,5.27,-1.81,9.71,-4.1,9.71l-26.7,0c-5.28,0,-13.58,-0.78,-18.51,-1.7L279,64.59c-4.79,-0.9,-13.18,-1.7,-18.52,-1.7L164,62.89c-5.3,0,-13.6,0.8,-18.5,1.7l-1,0.21c-4.8,0.91,-13.1,1.7,-18.5,1.7l-4.4,0l-13.9,0l-4.3,0c-5.3,0,-9.7,4.08,-9.7,8.96l0,3.43L93.7,81.1l0,2.4c0,5,4.4,8.96,9.7,8.96l22.5,0c5.3,0,13.6,-1.7,18.5,-3.71l1,-0.39c4.8,-1.96,13.2,-3.68,18.5,-3.68l96.48,0c5.27,0,13.57,1.72,18.53,3.69l1.03,0.39c4.79,2.01,13.12,3.71,18.52,3.71l30.9,0c5.29,0,9.71,-4.1,9.71,-8.96L339.07,76L339.07,62.49L339.07,36.88C335.22,38.38,329.32,42.58,329.32,56.8z"/>
 <rect xmlns="http://www.w3.org/2000/svg" width="9.76" x="305.82" opacity="0.4" y="48.38" height="43.79" id="ShadowExtra"/>
 <path xmlns="http://www.w3.org/2000/svg" opacity="0.25" fill="#FFFFFF" id="ReflexRight" d="M274.32,15.08c3.19,0,6.82,-1.4,9.2,-2.4c2.8,-1.1,8.01,-2,13.42,-2l20.29,0c3.12,0,3.12,3.4,3.12,5.2c0,1.8,-0.21,5.3,-3.12,5.3l-42.5,0c-1.49,0,-3.2,-1.6,-3.2,-3.11C271.62,16.88,272.62,15.08,274.32,15.08z"/>
 <circle xmlns="http://www.w3.org/2000/svg" opacity="0.35" fill="#FFFFFF" cx="97.22" cy="15.78" id="ReflexLeft" r="6"/>
 <rect xmlns="http://www.w3.org/2000/svg" width="9.76" x="305.82" opacity="0.5" y="5.88" fill="#FFFF33" height="22.5" id="Reflex_gold"/>
 <rect xmlns="http://www.w3.org/2000/svg" width="9.76" x="305.82" opacity="0.5" y="10.88" fill="#FFFFFF" height="10.4" id="Reflex_extra"/>
</g>
</g></g><path stroke='#8c8c8c' stroke-width='29.1' stroke-linecap='round' stroke-linejoin='round' fill='none' d='M43.4707,345.139L28.9207,345.139' />
<path stroke='#8c8c8c' stroke-width='29.1' stroke-linecap='round' stroke-linejoin='round' fill='none' d='M414.441,345.139L428.991,345.139' />
<g partID='42320'><g transform='translate(14.3707,294.689)' ><g xmlns="http://www.w3.org/2000/svg" id="breadboard">
 <rect xmlns="http://www.w3.org/2000/svg" width="10" x="5" y="35.9" fill="none" height="10" id="connector0pin"/>
 <rect xmlns="http://www.w3.org/2000/svg" width="10" x="414.17" y="35.9" fill="none" height="10" id="connector1pin"/>
 <line xmlns="http://www.w3.org/2000/svg" fill="none" stroke="#8C8C8C" id="connector0leg" stroke-linecap="round" y1="50.45" x1="14.55" y2="50.45" stroke-width="29.1" x2="29.1"/>
 <line xmlns="http://www.w3.org/2000/svg" fill="none" stroke="#8C8C8C" id="connector1leg" stroke-linecap="round" y1="50.45" x1="414.62" y2="50.45" stroke-width="29.1" x2="400.07"/>
 <path xmlns="http://www.w3.org/2000/svg" fill="none" stroke="#8C8C8C" stroke-width="29.1" d="M14.55,50.45l393.98,0"/>
 <path xmlns="http://www.w3.org/2000/svg" fill="#D9B477" id="body" d="M142.33,6.88c-5,-2.3,-13.6,-4.1,-19.1,-4.1l-27.6,0c-5.5,0,-10,4.5,-10,10l0,74.39c0,5.51,4.5,10,10,10l27.6,0c5.5,0,14.1,-1.89,19.1,-4.1l1,-0.49c5,-2.3,13.6,-4.1,19.1,-4.1l99.8,0c5.51,0,14.09,1.89,19.09,4.1l1.01,0.49c5,2.3,13.58,4.1,19.1,4.1l27.6,0c5.52,0,10,-4.49,10,-10L339.03,12.78c0,-5.5,-4.48,-10,-10,-10l-27.6,0c-5.52,0,-14.1,1.9,-19.1,4.1l-1.01,0.5c-5,2.3,-13.58,4.1,-19.09,4.1l-99.8,0c-5.5,0,-14.1,-1.9,-19.1,-4.1L142.33,6.88z"/>
 <rect xmlns="http://www.w3.org/2000/svg" width="9.76" x="305.82" y="2.69" fill="#ad9f4e" height="94.38" id="gold_band"/>
 <rect xmlns="http://www.w3.org/2000/svg" width="25.7" x="224.62" y="11.48" fill="#8a3d06" height="76.9" id="band_rd_multiplier"/>
 <rect xmlns="http://www.w3.org/2000/svg" width="25.7" x="173.23" y="11.48" fill="#c40808" height="76.9" id="band_2_nd"/>
 <path xmlns="http://www.w3.org/2000/svg" fill="#c40808" id="band_1_st" d="M147.62,8.88c-1.6,-0.5,-3.1,-1,-4.3,-1.6l-1,-0.5c-5,-2.29,-13.6,-4.1,-19.1,-4.1l-1.2,0l0,94.39l1.2,0c5.5,0,14.1,-1.89,19.1,-4.1l1,-0.49c1.2,-0.62,2.7,-1.11,4.3,-1.6L147.62,8.88z"/>
 <path xmlns="http://www.w3.org/2000/svg" opacity="0.3" id="Shadow" d="M329.32,56.8L329.32,56.8c0,5.27,-1.81,9.71,-4.1,9.71l-26.7,0c-5.28,0,-13.58,-0.78,-18.51,-1.7L279,64.59c-4.79,-0.9,-13.18,-1.7,-18.52,-1.7L164,62.89c-5.3,0,-13.6,0.8,-18.5,1.7l-1,0.21c-4.8,0.91,-13.1,1.7,-18.5,1.7l-4.4,0l-13.9,0l-4.3,0c-5.3,0,-9.7,4.08,-9.7,8.96l0,3.43L93.7,81.1l0,2.4c0,5,4.4,8.96,9.7,8.96l22.5,0c5.3,0,13.6,-1.7,18.5,-3.71l1,-0.39c4.8,-1.96,13.2,-3.68,18.5,-3.68l96.48,0c5.27,0,13.57,1.72,18.53,3.69l1.03,0.39c4.79,2.01,13.12,3.71,18.52,3.71l30.9,0c5.29,0,9.71,-4.1,9.71,-8.96L339.07,76L339.07,62.49L339.07,36.88C335.22,38.38,329.32,42.58,329.32,56.8z"/>
 <rect xmlns="http://www.w3.org/2000/svg" width="9.76" x="305.82" opacity="0.4" y="48.38" height="43.79" id="ShadowExtra"/>
 <path xmlns="http://www.w3.org/2000/svg" opacity="0.25" fill="#FFFFFF" id="ReflexRight" d="M274.32,15.08c3.19,0,6.82,-1.4,9.2,-2.4c2.8,-1.1,8.01,-2,13.42,-2l20.29,0c3.12,0,3.12,3.4,3.12,5.2c0,1.8,-0.21,5.3,-3.12,5.3l-42.5,0c-1.49,0,-3.2,-1.6,-3.2,-3.11C271.62,16.88,272.62,15.08,274.32,15.08z"/>
 <circle xmlns="http://www.w3.org/2000/svg" opacity="0.35" fill="#FFFFFF" cx="97.22" cy="15.78" id="ReflexLeft" r="6"/>
 <rect xmlns="http://www.w3.org/2000/svg" width="9.76" x="305.82" opacity="0.5" y="5.88" fill="#FFFF33" height="22.5" id="Reflex_gold"/>
 <rect xmlns="http://www.w3.org/2000/svg" width="9.76" x="305.82" opacity="0.5" y="10.88" fill="#FFFFFF" height="10.4" id="Reflex_extra"/>
</g>
</g></g><path stroke='#000000' stroke-width='34.7694' stroke-linecap='round' stroke-linejoin='round' fill='none' d='M6862.69,1423.68L6932.13,1423.68' />
<path stroke='#ff0000' stroke-width='34.7694' stroke-linecap='round' stroke-linejoin='round' fill='none' d='M6862.69,359.806L6932.13,359.806' />
<g partID='52660'><g transform='translate(4736.3,0)' ><g xmlns="http://www.w3.org/2000/svg" id="breadboard">
 <rect xmlns="http://www.w3.org/2000/svg" width="41.6528" x="2048.15" y="1423.68" fill="none" height="13.8889" id="connector0pin"/>
 <rect xmlns="http://www.w3.org/2000/svg" width="41.6667" x="2089.25" y="359.806" fill="none" height="13.8889" id="connector1pin"/>
 <g xmlns="http://www.w3.org/2000/svg" fill="none" stroke="#000000" id="connector0leg" stroke-linecap="round" y1="102.505" x1="153.1" y2="102.505" stroke-width="34.7694" x2="158.1"/>
 <g xmlns="http://www.w3.org/2000/svg" fill="none" stroke="#FF0000" id="connector1leg" stroke-linecap="round" y1="25.906" x1="153.1" y2="25.906" stroke-width="34.7694" x2="158.1"/>
 <path xmlns="http://www.w3.org/2000/svg" fill="#1A1A1A" d="M2047.92,1820.12c0,14.0833,-15.1944,23.8611,-28.5417,23.8611L28.5972,1843.99c-18.9167,0,-28.5694,-8,-28.5694,-23.8611L0.0277778,23.8194C0.0277778,11.25,11.8056,0,28.5972,0l1990.78,0c15.4583,0,28.5417,9.47222,28.5417,23.8194l0,878.167L2047.92,1820.12z"/>
 <path xmlns="http://www.w3.org/2000/svg" fill="none" stroke="#C9C9C9" stroke-width="11.5903" d="M29.7917,657.444L29.7917,101.389c0,-8.19444,5.38889,-15,11.9861,-15s11.9444,6.79167,11.9444,15l12.6806,271.208c0,8.25,5.43056,15,11.9861,15s11.9861,-6.75,11.9861,-15L103.056,162.486c0,-8.23611,5.40278,-15,11.9583,-15c6.59722,0,11.9583,6.76389,11.9583,15l0,165.097"/>
 <path xmlns="http://www.w3.org/2000/svg" fill="none" stroke="#C9C9C9" stroke-width="11.5903" d="M2009.93,144.042l0,200.778c0,8.25,8.09722,15,17.9861,15l20.3472,0"/>
 <rect xmlns="http://www.w3.org/2000/svg" width="48.0556" x="23.6944" y="598.042" fill="#C9C9C9" height="167.014"/>
 <rect xmlns="http://www.w3.org/2000/svg" width="40.9722" x="1970.4" y="144.931" fill="#C9C9C9" height="167.069"/>
 <g xmlns="http://www.w3.org/2000/svg">
  <path xmlns="http://www.w3.org/2000/svg" fill="#353535" d="M1934.35,402.153c0,24.7778,-24.2639,45,-53.9306,45L187,447.153c-29.6667,0,-53.9306,-20.2222,-53.9306,-45L133.069,72.1528c0,-24.7361,24.2639,-44.9861,53.9306,-44.9861L1880.42,27.1667c29.6806,0,53.9444,20.25,53.9444,44.9861L1934.35,402.153L1934.35,402.153z"/>
  <path xmlns="http://www.w3.org/2000/svg" fill="#CE925D" d="M1415.83,27.8472l468.181,0c29.6667,0,53.9306,20.2361,53.9306,45l0,330.083c0,24.75,-24.2639,45,-53.9306,45L1415.83,447.931L1415.83,27.8472z"/>
  <path xmlns="http://www.w3.org/2000/svg" opacity="0.35" enable-background="new    " d="M191.083,429.958c-22.3194,0,-50.8056,-17.25,-50.8056,-37.6944l0,-94.4583c0,20.4722,28.4861,52.5556,50.8056,52.5556l1681.13,0c22.3333,0,50.8194,-32.0833,50.8194,-52.5556l0,94.4722c0,20.4722,-28.4861,37.6944,-50.8194,37.6944L191.083,429.958L191.083,429.958z"/>
  <path xmlns="http://www.w3.org/2000/svg" fill="#B2B2B2" d="M1932.83,234.375c0,94.0833,-4.30556,170.319,-9.59722,170.319s-5.30556,-340.611,0,-340.611S1932.83,140.319,1932.83,234.375"/>
  <path xmlns="http://www.w3.org/2000/svg" fill="#7C7C7C" d="M1929.25,292.431c-3.52778,0,-3.52778,-125.847,0,-125.847l-0.111111,0c0,7.76389,7.54167,14.0417,16.8333,14.0417l7.625,0c9.27778,0,16.8194,6.29167,16.8194,14.0556l0,69.5972c0,7.73611,-7.54167,14.0556,-16.8194,14.0556l-7.625,0c-9.29167,0,-16.8333,6.27778,-16.8333,14.0278L1929.25,292.431L1929.25,292.431z"/>
  <g xmlns="http://www.w3.org/2000/svg">
   <g xmlns="http://www.w3.org/2000/svg">
    <path xmlns="http://www.w3.org/2000/svg" fill="#E0E0E0" d="M492.139,205.556l-7.15278,17.9861l-22.6667,0l37.875,-95.1667l32.25,0l38.625,95.1667l-22.2083,0L541.417,205.556L492.139,205.556zM516.917,142.361l-0.305556,0l-19.4583,49.375l39.3889,0L516.917,142.361z"/>
    <path xmlns="http://www.w3.org/2000/svg" fill="#E0E0E0" d="M381.556,205.556l-7.15278,17.9861l-22.6667,0l37.875,-95.1667l32.25,0l38.625,95.1667l-22.2083,0L430.847,205.556L381.556,205.556zM406.333,142.361l-0.305556,0l-19.4583,49.375l39.3889,0L406.333,142.361z"/>
    <path xmlns="http://www.w3.org/2000/svg" fill="#E0E0E0" d="M600.042,205.556l-7.15278,17.9861l-22.625,0l37.8333,-95.1667l32.25,0l38.6389,95.1667l-22.2083,0L649.333,205.556L600.042,205.556zM624.819,142.361l-0.291667,0l-19.4861,49.375l39.3889,0L624.819,142.361z"/>
    <path xmlns="http://www.w3.org/2000/svg" fill="#E0E0E0" d="M741.903,223.583L741.903,128.417l56.7778,0c22.3611,0,33.5694,3.77778,33.5694,24.7639c0,10.875,-2.40278,18.2778,-16.2361,21.0417l0,0.527778c15.9722,1.52778,19.0139,10.2917,19.0139,22.3056c0,21.0694,-10.3472,26.5417,-34.3889,26.5417L741.903,223.583L741.903,223.583zM763.806,168.25l31.4444,0c12.375,0,15.0694,-3.18056,15.0694,-13.3194c0,-10.1528,-4.875,-10.9167,-15.6667,-10.9167l-30.8889,0L763.806,168.25L763.806,168.25zM763.806,207.972l29.9722,0c13.0278,0,19.2917,-0.763889,19.2917,-12.4444c0,-10.4028,-2.73611,-13.4444,-15.625,-13.4444l-33.6111,0L763.806,207.972L763.806,207.972z"/>
    <path xmlns="http://www.w3.org/2000/svg" fill="#E0E0E0" d="M902.75,215.194l-0.458333,0c-3.80556,8.91667,-15.5139,9.13889,-24.8056,9.13889c-18.0972,0,-29.8056,-3.18056,-29.8056,-21.1944c0,-15.9861,10.0417,-20.4306,29.8056,-20.4306c9.75,0,19.3194,0.125,23.8889,7.61111l0.611111,0l0,-8.63889c0,-10.7917,-1.06944,-14.5972,-17.0417,-14.5972c-8.375,0,-15.0694,0.666667,-15.0694,9.26389L850.694,176.347c0,-19.4167,16.0139,-20.1528,34.2222,-20.1528c25.5972,0,36.1944,3.30556,36.1944,25.6389l0,41.7222l-19.1944,0L902.75,215.194zM866.847,203.139c0,9.38889,4.52778,10.2917,17.4861,10.2917c10.1806,0,17.6528,-0.736111,17.6528,-10.2917c0,-9.26389,-8.19444,-9.51389,-17.6528,-9.51389C874.597,193.625,866.847,193.625,866.847,203.139z"/>
    <path xmlns="http://www.w3.org/2000/svg" fill="#E0E0E0" d="M930.472,156.944l10.0556,0l0,-15.1111l19.1667,0L959.694,156.944l30.5694,0l0,12.1806l-30.5694,0l0,34.1389c0.180556,6.09722,0.180556,8.875,8.19444,8.875c10.8056,0,9.58333,-7.09722,9.58333,-14.0417l16.8889,0c0.305556,20.1389,-5.79167,26.2361,-26.4722,26.2361c-20.9861,0,-27.3889,-4.05556,-27.3889,-20.9444l0,-34.2639l-10.0556,0L930.472,156.944L930.472,156.944z"/>
    <path xmlns="http://www.w3.org/2000/svg" fill="#E0E0E0" d="M995.167,156.944l10.0417,0l0,-15.1111l19.1667,0L1024.38,156.944l30.5833,0l0,12.1806l-30.5833,0l0,34.1389c0.152778,6.09722,0.152778,8.875,8.19444,8.875c10.8194,0,9.59722,-7.09722,9.59722,-14.0417l16.8889,0c0.291667,20.1389,-5.79167,26.2361,-26.4861,26.2361c-20.9583,0,-27.3472,-4.05556,-27.3472,-20.9444l0,-34.2639l-10.0556,0L995.167,156.944L995.167,156.944z"/>
    <path xmlns="http://www.w3.org/2000/svg" fill="#E0E0E0" d="M1140.63,202.389c0,20.9444,-14.4722,21.9583,-37.2639,21.9583c-30.5833,0,-36.7639,-8.125,-36.7639,-33.875c0,-23.875,4.52778,-34.2361,36.7639,-34.2361c32.8889,0,37.2639,8,37.2639,37.0556l-54.9167,0c0,14.3333,0.458333,18.9167,17.6389,18.9167c10.6528,0,18.1389,0.125,18.1389,-9.80555L1140.63,202.389L1140.63,202.389zM1121.46,183.097c0,-13.7083,-2.43056,-14.75,-18.1389,-14.75c-16.5833,0,-17.6389,2.91667,-17.6389,14.75L1121.46,183.097z"/>
    <path xmlns="http://www.w3.org/2000/svg" fill="#E0E0E0" d="M1173.68,156.944l-0.416667,8.76389l0.763889,0c3.80556,-7.36111,12.0278,-9.5,21.2917,-9.5c16.8889,0,21,8.38889,21,20.9444l0,5.33333l-17.9444,0l0,-3.43056c0,-6.72222,-0.777778,-10.6667,-9.75,-10.6667c-11.4028,0,-14.75,5.5,-14.4722,14.0972l0,41.125l-19.1806,0l0,-66.6389L1173.68,156.944L1173.68,156.944z"/>
    <path xmlns="http://www.w3.org/2000/svg" fill="#E0E0E0" d="M1273.64,226.25c-4.44444,15.1111,-8.11111,26.875,-30.4167,26.875c-2.73611,0,-5.47222,-0.347222,-8.20833,-0.513889L1235.01,240.556c1.375,0.125,2.79167,0.388889,4.09722,0.388889c12.0139,0,13.8472,-9.65278,15.5556,-17.4167l-9.26389,0l-26.3194,-66.6389l19.8194,0l20.2222,56.7361l0.277778,0l15.5417,-56.7361l19.4722,0L1273.64,226.25z"/>
   </g>
  </g>
  <path xmlns="http://www.w3.org/2000/svg" opacity="0.35" fill="#FFFFFF" enable-background="new    " d="M1882.03,151.222c0,15,-19.5278,27.1667,-43.625,27.1667L223.458,178.389c-24.0556,0,-43.6111,-11.1111,-43.6111,-26.1111L179.847,70.4028c0,-15.0139,19.5278,-28.2361,43.6111,-28.2361l1614.93,0c24.0972,0,43.6528,12.1667,43.6528,27.1806L1882.04,151.222L1882.03,151.222z"/>
 </g>
 <g xmlns="http://www.w3.org/2000/svg">
  <path xmlns="http://www.w3.org/2000/svg" fill="#353535" d="M107.833,857.306c0,24.7361,24.25,45,53.9306,45l1693.39,0c29.6667,0,53.9306,-20.2639,53.9306,-45L1909.08,527.264c0,-24.7361,-24.2639,-45,-53.9306,-45L161.764,482.264c-29.6806,0,-53.9306,20.25,-53.9306,45L107.833,857.306z"/>
  <path xmlns="http://www.w3.org/2000/svg" fill="#CE925D" d="M629.944,482.306L161.764,482.306c-29.6806,0,-53.9306,20.25,-53.9306,44.9861l0,330.042c0,24.7361,24.25,45,53.9306,45l468.181,0L629.944,482.306L629.944,482.306z"/>
  <path xmlns="http://www.w3.org/2000/svg" opacity="0.35" enable-background="new    " d="M1851.08,885.125c22.3194,0,50.7917,-17.2778,50.7917,-37.7083l0,-94.4583c0,20.4583,-28.4722,52.5278,-50.7917,52.5278L169.931,805.486c-22.3194,0,-50.8056,-32.0694,-50.8056,-52.5278l0,94.4583c0,20.4722,28.4861,37.7083,50.8056,37.7083L1851.08,885.125z"/>
  <path xmlns="http://www.w3.org/2000/svg" fill="#B2B2B2" d="M109.347,689.514c0,94.0833,4.31944,170.319,9.625,170.319c5.31944,0,5.31944,-340.611,0,-340.611C113.653,519.222,109.347,595.472,109.347,689.514"/>
  <path xmlns="http://www.w3.org/2000/svg" fill="#7C7C7C" d="M112.931,747.597c3.51389,0,3.51389,-125.861,0,-125.861l0.0972222,0.0138889c0,7.75,-7.52778,14.0417,-16.7917,14.0417L88.5694,635.792c-9.25,0,-16.8333,6.31944,-16.8333,14.0556L71.7361,719.444c0,7.73611,7.58333,14.0556,16.8333,14.0556l7.65278,0c9.26389,0,16.7917,6.27778,16.7917,14.0556L112.931,747.597L112.931,747.597z"/>
  <g xmlns="http://www.w3.org/2000/svg">
   <g xmlns="http://www.w3.org/2000/svg">
    <path xmlns="http://www.w3.org/2000/svg" fill="#E0E0E0" d="M1560.93,696.764l7.16667,-18.0139l22.6667,0l-37.8889,95.1805l-32.25,0l-38.625,-95.1805l22.2222,0l7.45833,18.0139L1560.93,696.764zM1536.15,759.958l0.291667,0l19.4722,-49.375l-39.4028,0L1536.15,759.958z"/>
    <path xmlns="http://www.w3.org/2000/svg" fill="#E0E0E0" d="M1672.04,696.764l7.16667,-18.0139l22.6667,0l-37.8889,95.1805l-32.25,0l-38.625,-95.1805l22.2222,0l7.45833,18.0139L1672.04,696.764zM1647.26,759.958l0.291667,0l19.4722,-49.375l-39.4028,0L1647.26,759.958z"/>
    <path xmlns="http://www.w3.org/2000/svg" fill="#E0E0E0" d="M1453.03,696.764l7.15278,-18.0139l22.6806,0l-37.8889,95.1805l-32.25,0l-38.625,-95.1805l22.2083,0l7.45833,18.0139L1453.03,696.764zM1428.24,759.958l0.305556,0l19.4583,-49.375l-39.4167,0L1428.24,759.958z"/>
    <path xmlns="http://www.w3.org/2000/svg" fill="#E0E0E0" d="M1311.19,678.708l0,95.1805l-56.8056,0c-22.3472,0,-33.5694,-3.76389,-33.5694,-24.75c0,-10.8889,2.40278,-18.2778,16.2361,-21.0278l0,-0.541667c-15.9722,-1.52778,-19,-10.2917,-19,-22.3056c0,-21.0833,10.3056,-26.5278,34.4028,-26.5278L1311.19,678.708L1311.19,678.708zM1289.28,694.333l-29.9583,0c-13.0417,0,-19.3056,0.763889,-19.3056,12.4306c0,10.4028,2.75,13.4583,15.6528,13.4583l33.5833,0L1289.28,694.333L1289.28,694.333zM1289.28,734.056l-31.4722,0c-12.3611,0,-15.0556,3.16667,-15.0556,13.3333c0,10.1528,4.86111,10.9306,15.6528,10.9306l30.8889,0L1289.28,734.056L1289.28,734.056z"/>
    <path xmlns="http://www.w3.org/2000/svg" fill="#E0E0E0" d="M1150.33,687.097l0.458333,0c3.79167,-8.93056,15.5,-9.13889,24.7917,-9.13889c18.1111,0,29.8333,3.16667,29.8333,21.1806c0,16,-10.0417,20.4444,-29.8333,20.4444c-9.73611,0,-19.3056,-0.125,-23.8611,-7.625l-0.611111,0l0,8.63889c0,10.7917,1.06944,14.5833,17.0278,14.5833c8.375,0,15.0694,-0.638889,15.0694,-9.25l19.2222,0c0,19.4028,-15.9861,20.1389,-34.25,20.1389c-25.5278,0,-36.1806,-3.30556,-36.1806,-25.6528l0,-41.7361l19.1667,0L1150.33,687.097zM1186.22,699.153c0,-9.38889,-4.52778,-10.2778,-17.4861,-10.2778c-10.2083,0,-17.6528,0.722222,-17.6528,10.2778c0,9.26389,8.18056,9.52778,17.6528,9.52778C1178.49,708.681,1186.22,708.681,1186.22,699.153z"/>
    <path xmlns="http://www.w3.org/2000/svg" fill="#E0E0E0" d="M1122.61,745.361l-10.0417,0l0,15.0972l-19.1806,0l0,-15.0972l-30.5694,0L1062.82,733.194l30.5694,0L1093.39,699.028c-0.180556,-6.09722,-0.180556,-8.91667,-8.19444,-8.91667c-10.8056,0,-9.58333,7.125,-9.58333,14.1111l-16.875,0c-0.305556,-20.1667,5.79167,-26.25,26.4722,-26.25c20.9861,0,27.3889,4.05556,27.3889,20.9306l0,34.2639l10.0417,0L1122.61,745.361L1122.61,745.361z"/>
    <path xmlns="http://www.w3.org/2000/svg" fill="#E0E0E0" d="M1057.92,745.361l-10.0417,0l0,15.0972l-19.1667,0l0,-15.0972l-30.5833,0L998.125,733.194l30.5833,0L1028.71,699.028c-0.152778,-6.09722,-0.152778,-8.91667,-8.18056,-8.91667c-10.8333,0,-9.59722,7.125,-9.59722,14.1111l-16.9028,0c-0.277778,-20.1667,5.80556,-26.25,26.5,-26.25c20.9444,0,27.3472,4.05556,27.3472,20.9306l0,34.2639l10.0417,0L1057.92,745.361L1057.92,745.361z"/>
    <path xmlns="http://www.w3.org/2000/svg" fill="#E0E0E0" d="M912.458,699.917c0,-20.9444,14.4722,-21.9583,37.2639,-21.9583c30.5833,0,36.7639,8.125,36.7639,33.8889c0,23.8889,-4.52778,34.25,-36.7639,34.25c-32.8889,0,-37.2639,-8,-37.2639,-37.0694l54.9167,0c0,-14.3333,-0.458333,-18.9167,-17.6389,-18.9167c-10.6667,0,-18.1389,-0.125,-18.1389,9.80555L912.458,699.917L912.458,699.917zM931.625,719.208c0,13.7083,2.43056,14.7639,18.1389,14.7639c16.5972,0,17.6528,-2.90278,17.6528,-14.7639L931.625,719.208z"/>
    <path xmlns="http://www.w3.org/2000/svg" fill="#E0E0E0" d="M879.403,745.361l0.416667,-8.76389l-0.763889,0c-3.80556,7.375,-12.0278,9.5,-21.3056,9.5c-16.875,0,-20.9861,-8.38889,-20.9861,-20.9444l0,-5.33333l17.9444,0l0,3.43056c0,6.72222,0.763889,10.6667,9.73611,10.6667c11.4028,0,14.75,-5.5,14.4861,-14.0833l0,-41.125l19.1667,0l0,66.625L879.403,745.361L879.403,745.361z"/>
    <path xmlns="http://www.w3.org/2000/svg" fill="#E0E0E0" d="M779.444,676.028c4.44444,-15.1111,8.09722,-26.8889,30.4028,-26.8889c2.73611,0,5.48611,0.347222,8.22222,0.5l0,12.0694c-1.375,-0.125,-2.77778,-0.375,-4.11111,-0.375c-12.0278,0,-13.8472,9.65278,-15.5694,17.4167l9.27778,0l26.3194,66.6389l-19.8194,0l-20.2361,-56.7361l-0.291667,0l-15.5278,56.7361l-19.4722,0L779.444,676.028z"/>
   </g>
  </g>
  <path xmlns="http://www.w3.org/2000/svg" opacity="0.35" fill="#FFFFFF" enable-background="new    " d="M160.139,606.361c0,15.0278,19.5278,27.1528,43.5972,27.1528l1614.94,0c24.0556,0,43.625,-11.0972,43.625,-26.0972l0,-81.875c0,-15.0139,-19.5556,-28.2361,-43.625,-28.2361L203.764,497.306c-24.0556,0,-43.6111,12.1667,-43.6111,27.1806L160.139,606.361L160.139,606.361z"/>
 </g>
 <path xmlns="http://www.w3.org/2000/svg" fill="none" stroke="#C9C9C9" stroke-width="11.5903" d="M29.7917,1575.44L29.7917,1019.39c0,-8.20833,5.38889,-14.9861,11.9861,-14.9861s11.9444,6.77778,11.9444,14.9861l12.6806,271.208c0,8.26389,5.43056,15,11.9861,15s11.9861,-6.73611,11.9861,-15L103.056,1080.49c0,-8.25,5.40278,-15,11.9583,-15c6.59722,0,11.9583,6.75,11.9583,15l0,165.097"/>
 <path xmlns="http://www.w3.org/2000/svg" fill="none" stroke="#C9C9C9" stroke-width="11.5903" d="M1914.19,801.097L1914.19,636c0,-8.25,5.36111,-15,11.9583,-15c6.54167,0,11.9444,6.75,11.9444,15l12.6806,210.111c0,8.26389,5.43056,15,11.9861,15c6.55556,0,11.9861,-6.73611,11.9861,-15l12.6667,-271.208c0,-8.20833,5.375,-14.9861,11.9583,-14.9861s11.9722,6.77778,11.9722,14.9861L2011.35,1130.97"/>
 <path xmlns="http://www.w3.org/2000/svg" fill="none" stroke="#C9C9C9" stroke-width="11.5903" d="M1912.63,1545.31l0,165.097c0,8.25,5.41667,15.0139,11.9583,15.0139c6.61111,0,11.9722,-6.76389,11.9722,-15.0139l12.6944,-210.111c0,-8.25,5.375,-15,11.9583,-15s11.9444,6.75,11.9444,15l12.6806,271.222c0,8.22222,5.43056,14.9722,11.9722,14.9722c6.56944,0,11.9861,-6.75,11.9861,-14.9722l0,-332.847c0,-8.19444,8.11111,-14.9861,17.9861,-14.9861l20.3472,0"/>
 <rect xmlns="http://www.w3.org/2000/svg" width="48.0556" x="23.6944" y="1516.04" fill="#C9C9C9" height="167.014"/>
 <rect xmlns="http://www.w3.org/2000/svg" width="40.9722" x="1970.4" y="1062.93" fill="#C9C9C9" height="167.056"/>
 <g xmlns="http://www.w3.org/2000/svg">
  <path xmlns="http://www.w3.org/2000/svg" fill="#353535" d="M1934.35,1320.15c0,24.7639,-24.2639,45,-53.9306,45L187,1365.15c-29.6667,0,-53.9306,-20.2361,-53.9306,-45L133.069,990.153c0,-24.7361,24.2639,-44.9861,53.9306,-44.9861L1880.42,945.167c29.6806,0,53.9444,20.25,53.9444,44.9861L1934.35,1320.15L1934.35,1320.15z"/>
  <path xmlns="http://www.w3.org/2000/svg" fill="#CE925D" d="M1415.83,945.847l468.181,0c29.6667,0,53.9306,20.2222,53.9306,44.9861l0,330.083c0,24.75,-24.2639,45,-53.9306,45L1415.83,1365.92L1415.83,945.847z"/>
  <path xmlns="http://www.w3.org/2000/svg" opacity="0.35" enable-background="new    " d="M191.083,1347.94c-22.3194,0,-50.8056,-17.2361,-50.8056,-37.6944l0,-94.4583c0,20.4722,28.4861,52.5417,50.8056,52.5417l1681.13,0c22.3333,0,50.8194,-32.0833,50.8194,-52.5417l0,94.4722c0,20.4722,-28.4861,37.6944,-50.8194,37.6944L191.083,1347.94L191.083,1347.94z"/>
  <path xmlns="http://www.w3.org/2000/svg" fill="#B2B2B2" d="M1932.83,1152.36c0,94.0833,-4.30556,170.319,-9.59722,170.319s-5.30556,-340.597,0,-340.597S1932.83,1058.32,1932.83,1152.36"/>
  <path xmlns="http://www.w3.org/2000/svg" fill="#7C7C7C" d="M1929.25,1210.43c-3.52778,0,-3.52778,-125.861,0,-125.861l-0.111111,0.0138889c0,7.76389,7.54167,14.0417,16.8333,14.0417l7.625,0c9.27778,0,16.8194,6.27778,16.8194,14.0556l0,69.5972c0,7.73611,-7.54167,14.0694,-16.8194,14.0694l-7.625,0c-9.29167,0,-16.8333,6.27778,-16.8333,14.0417L1929.25,1210.43L1929.25,1210.43z"/>
  <g xmlns="http://www.w3.org/2000/svg">
   <g xmlns="http://www.w3.org/2000/svg">
    <path xmlns="http://www.w3.org/2000/svg" fill="#E0E0E0" d="M492.139,1123.54l-7.15278,18l-22.6667,0l37.875,-95.1667l32.25,0l38.625,95.1667l-22.2083,0l-7.44444,-18L492.139,1123.54zM516.917,1060.35l-0.305556,0l-19.4583,49.3889l39.3889,0L516.917,1060.35z"/>
    <path xmlns="http://www.w3.org/2000/svg" fill="#E0E0E0" d="M381.556,1123.54l-7.15278,18l-22.6667,0l37.875,-95.1667l32.25,0l38.625,95.1667l-22.2083,0l-7.44444,-18L381.556,1123.54zM406.333,1060.35l-0.305556,0l-19.4583,49.3889l39.3889,0L406.333,1060.35z"/>
    <path xmlns="http://www.w3.org/2000/svg" fill="#E0E0E0" d="M600.042,1123.54l-7.15278,18l-22.625,0l37.8333,-95.1667l32.25,0l38.6389,95.1667l-22.2083,0l-7.44444,-18L600.042,1123.54zM624.819,1060.35l-0.291667,0l-19.4861,49.3889l39.3889,0L624.819,1060.35z"/>
    <path xmlns="http://www.w3.org/2000/svg" fill="#E0E0E0" d="M741.903,1141.58l0,-95.1805l56.7778,0c22.3611,0,33.5694,3.77778,33.5694,24.75c0,10.875,-2.40278,18.2778,-16.2361,21.0556l0,0.527778c15.9722,1.52778,19.0139,10.2917,19.0139,22.3056c0,21.0833,-10.3472,26.5278,-34.3889,26.5278L741.903,1141.57L741.903,1141.58zM763.806,1086.24l31.4444,0c12.375,0,15.0694,-3.18056,15.0694,-13.3194s-4.875,-10.9167,-15.6667,-10.9167l-30.8889,0L763.806,1086.24L763.806,1086.24zM763.806,1125.96l29.9722,0c13.0278,0,19.2917,-0.763889,19.2917,-12.4306c0,-10.4028,-2.73611,-13.4583,-15.625,-13.4583l-33.6111,0L763.806,1125.96L763.806,1125.96z"/>
    <path xmlns="http://www.w3.org/2000/svg" fill="#E0E0E0" d="M902.75,1133.19l-0.458333,0c-3.80556,8.90278,-15.5139,9.125,-24.8056,9.125c-18.0972,0,-29.8056,-3.18056,-29.8056,-21.1944c0,-15.9861,10.0417,-20.4306,29.8056,-20.4306c9.75,0,19.3194,0.125,23.8889,7.61111l0.611111,0l0,-8.63889c0,-10.7778,-1.06944,-14.5972,-17.0417,-14.5972c-8.375,0,-15.0694,0.666667,-15.0694,9.26389L850.694,1094.33c0,-19.4028,16.0139,-20.1389,34.2222,-20.1389c25.5972,0,36.1944,3.29167,36.1944,25.6389l0,41.7222l-19.1944,0L902.75,1133.19zM866.847,1121.14c0,9.40278,4.52778,10.2917,17.4861,10.2917c10.1806,0,17.6528,-0.736111,17.6528,-10.2917c0,-9.26389,-8.19444,-9.51389,-17.6528,-9.51389C874.597,1111.62,866.847,1111.62,866.847,1121.14z"/>
    <path xmlns="http://www.w3.org/2000/svg" fill="#E0E0E0" d="M930.472,1074.94l10.0556,0l0,-15.1111l19.1667,0l0,15.1111l30.5694,0l0,12.1806l-30.5694,0l0,34.1389c0.180556,6.09722,0.180556,8.875,8.19444,8.875c10.8056,0,9.58333,-7.08333,9.58333,-14.0417l16.8889,0c0.305556,20.1389,-5.79167,26.2361,-26.4722,26.2361c-20.9861,0,-27.3889,-4.05556,-27.3889,-20.9583l0,-34.2639l-10.0556,0L930.472,1074.94L930.472,1074.94z"/>
    <path xmlns="http://www.w3.org/2000/svg" fill="#E0E0E0" d="M995.167,1074.94l10.0417,0l0,-15.1111l19.1667,0l0,15.1111l30.5833,0l0,12.1806l-30.5833,0l0,34.1389c0.152778,6.09722,0.152778,8.875,8.19444,8.875c10.8194,0,9.59722,-7.08333,9.59722,-14.0417l16.8889,0c0.291667,20.1389,-5.79167,26.2361,-26.4861,26.2361c-20.9583,0,-27.3472,-4.05556,-27.3472,-20.9583l0,-34.2639l-10.0556,0L995.167,1074.94L995.167,1074.94z"/>
    <path xmlns="http://www.w3.org/2000/svg" fill="#E0E0E0" d="M1140.63,1120.39c0,20.9444,-14.4722,21.9444,-37.2639,21.9444c-30.5833,0,-36.7639,-8.11111,-36.7639,-33.875c0,-23.875,4.52778,-34.2361,36.7639,-34.2361c32.8889,0,37.2639,8,37.2639,37.0556l-54.9167,0c0,14.3333,0.458333,18.9028,17.6389,18.9028c10.6528,0,18.1389,0.138889,18.1389,-9.79167L1140.63,1120.39L1140.63,1120.39zM1121.46,1101.1c0,-13.7083,-2.43056,-14.75,-18.1389,-14.75c-16.5833,0,-17.6389,2.91667,-17.6389,14.75L1121.46,1101.1z"/>
    <path xmlns="http://www.w3.org/2000/svg" fill="#E0E0E0" d="M1173.68,1074.94l-0.416667,8.76389l0.763889,0c3.80556,-7.36111,12.0278,-9.5,21.2917,-9.5c16.8889,0,21,8.38889,21,20.9444l0,5.33333l-17.9444,0l0,-3.41667c0,-6.72222,-0.777778,-10.6806,-9.75,-10.6806c-11.4028,0,-14.75,5.5,-14.4722,14.0972l0,41.125l-19.1806,0l0,-66.625L1173.68,1074.94L1173.68,1074.94z"/>
    <path xmlns="http://www.w3.org/2000/svg" fill="#E0E0E0" d="M1273.64,1144.24c-4.44444,15.1111,-8.11111,26.8889,-30.4167,26.8889c-2.73611,0,-5.47222,-0.347222,-8.20833,-0.513889l0,-12.0556c1.375,0.125,2.79167,0.388889,4.09722,0.388889c12.0139,0,13.8472,-9.65278,15.5556,-17.4306l-9.26389,0l-26.3194,-66.6389l19.8194,0l20.2222,56.7361l0.277778,0l15.5417,-56.7361l19.4722,0L1273.64,1144.24z"/>
   </g>
  </g>
  <path xmlns="http://www.w3.org/2000/svg" opacity="0.35" fill="#FFFFFF" enable-background="new    " d="M1882.03,1069.21c0,15,-19.5278,27.1667,-43.625,27.1667L223.458,1096.37c-24.0556,0,-43.6111,-11.1111,-43.6111,-26.1111l0,-81.875c0,-15,19.5278,-28.2361,43.6111,-28.2361l1614.93,0c24.0972,0,43.6528,12.1806,43.6528,27.1806L1882.04,1069.21L1882.03,1069.21z"/>
 </g>
 <g xmlns="http://www.w3.org/2000/svg">
  <path xmlns="http://www.w3.org/2000/svg" fill="#353535" d="M107.833,1775.31c0,24.7222,24.25,45,53.9306,45l1693.39,0c29.6667,0,53.9306,-20.2778,53.9306,-45l0,-330.042c0,-24.7361,-24.2639,-45,-53.9306,-45L161.764,1400.26c-29.6806,0,-53.9306,20.2639,-53.9306,45L107.833,1775.31z"/>
  <path xmlns="http://www.w3.org/2000/svg" fill="#CE925D" d="M629.944,1400.31L161.764,1400.31c-29.6806,0,-53.9306,20.25,-53.9306,44.9861l0,330.056c0,24.7361,24.25,44.9861,53.9306,44.9861l468.181,0L629.944,1400.31L629.944,1400.31z"/>
  <path xmlns="http://www.w3.org/2000/svg" opacity="0.35" enable-background="new    " d="M1851.08,1803.12c22.3194,0,50.7917,-17.2778,50.7917,-37.7083l0,-94.4722c0,20.4722,-28.4722,52.5278,-50.7917,52.5278L169.931,1723.47c-22.3194,0,-50.8056,-32.0694,-50.8056,-52.5278l0,94.4722c0,20.4722,28.4861,37.7083,50.8056,37.7083L1851.08,1803.12z"/>
  <path xmlns="http://www.w3.org/2000/svg" fill="#B2B2B2" d="M109.347,1607.51c0,94.0694,4.31944,170.333,9.625,170.333c5.31944,0,5.31944,-340.625,0,-340.625C113.653,1437.21,109.347,1513.46,109.347,1607.51"/>
  <path xmlns="http://www.w3.org/2000/svg" fill="#7C7C7C" d="M112.931,1665.58c3.51389,0,3.51389,-125.861,0,-125.861l0.0972222,0.0138889c0,7.76389,-7.52778,14.0417,-16.7917,14.0417L88.5694,1553.78c-9.25,0,-16.8333,6.31944,-16.8333,14.0556l0,69.6111c0,7.73611,7.58333,14.0556,16.8333,14.0556l7.65278,0c9.26389,0,16.7917,6.27778,16.7917,14.0694L112.931,1665.58L112.931,1665.58z"/>
  <g xmlns="http://www.w3.org/2000/svg">
   <g xmlns="http://www.w3.org/2000/svg">
    <path xmlns="http://www.w3.org/2000/svg" fill="#E0E0E0" d="M1560.93,1614.75l7.16667,-18.0139l22.6667,0l-37.8889,95.1805l-32.25,0l-38.625,-95.1805l22.2222,0l7.45833,18.0139L1560.93,1614.75zM1536.15,1677.96l0.291667,0l19.4722,-49.375l-39.4028,0L1536.15,1677.96z"/>
    <path xmlns="http://www.w3.org/2000/svg" fill="#E0E0E0" d="M1672.04,1614.75l7.16667,-18.0139l22.6667,0l-37.8889,95.1805l-32.25,0l-38.625,-95.1805l22.2222,0l7.45833,18.0139L1672.04,1614.75zM1647.26,1677.96l0.291667,0l19.4722,-49.375l-39.4028,0L1647.26,1677.96z"/>
    <path xmlns="http://www.w3.org/2000/svg" fill="#E0E0E0" d="M1453.03,1614.75l7.15278,-18.0139l22.6806,0l-37.8889,95.1805l-32.25,0l-38.625,-95.1805l22.2083,0l7.45833,18.0139L1453.03,1614.75zM1428.24,1677.96l0.305556,0l19.4583,-49.375l-39.4167,0L1428.24,1677.96z"/>
    <path xmlns="http://www.w3.org/2000/svg" fill="#E0E0E0" d="M1311.19,1596.71l0,95.1667l-56.8056,0c-22.3472,0,-33.5694,-3.76389,-33.5694,-24.7361c0,-10.8889,2.40278,-18.2778,16.2361,-21.0417l0,-0.541667c-15.9722,-1.52778,-19,-10.2917,-19,-22.3056c0,-21.0833,10.3056,-26.5278,34.4028,-26.5278L1311.19,1596.72L1311.19,1596.71zM1289.28,1612.33l-29.9583,0c-13.0417,0,-19.3056,0.763889,-19.3056,12.4306c0,10.4028,2.75,13.4583,15.6528,13.4583l33.5833,0L1289.28,1612.33L1289.28,1612.33zM1289.28,1652.06l-31.4722,0c-12.3611,0,-15.0556,3.18056,-15.0556,13.3333s4.86111,10.9167,15.6528,10.9167l30.8889,0L1289.28,1652.06L1289.28,1652.06z"/>
    <path xmlns="http://www.w3.org/2000/svg" fill="#E0E0E0" d="M1150.33,1605.1l0.458333,0c3.79167,-8.93056,15.5,-9.13889,24.7917,-9.13889c18.1111,0,29.8333,3.16667,29.8333,21.1806c0,15.9861,-10.0417,20.4444,-29.8333,20.4444c-9.73611,0,-19.3056,-0.125,-23.8611,-7.63889l-0.611111,0l0,8.65278c0,10.7778,1.06944,14.5833,17.0278,14.5833c8.375,0,15.0694,-0.638889,15.0694,-9.25l19.2222,0c0,19.4028,-15.9861,20.1389,-34.25,20.1389c-25.5278,0,-36.1806,-3.30556,-36.1806,-25.6528l0,-41.7361l19.1667,0L1150.33,1605.1zM1186.22,1617.14c0,-9.38889,-4.52778,-10.2639,-17.4861,-10.2639c-10.2083,0,-17.6528,0.722222,-17.6528,10.2639c0,9.27778,8.18056,9.52778,17.6528,9.52778C1178.49,1626.69,1186.22,1626.69,1186.22,1617.14z"/>
    <path xmlns="http://www.w3.org/2000/svg" fill="#E0E0E0" d="M1122.61,1663.36l-10.0417,0l0,15.0972l-19.1806,0l0,-15.0972l-30.5694,0l0,-12.1806l30.5694,0l0,-34.1528c-0.180556,-6.09722,-0.180556,-8.93056,-8.19444,-8.93056c-10.8056,0,-9.58333,7.13889,-9.58333,14.1111l-16.875,0c-0.305556,-20.1528,5.79167,-26.25,26.4722,-26.25c20.9861,0,27.3889,4.05556,27.3889,20.9306l0,34.2639l10.0417,0L1122.61,1663.36L1122.61,1663.36z"/>
    <path xmlns="http://www.w3.org/2000/svg" fill="#E0E0E0" d="M1057.92,1663.36l-10.0417,0l0,15.0972l-19.1667,0l0,-15.0972l-30.5833,0l0,-12.1806l30.5833,0l0,-34.1528c-0.152778,-6.09722,-0.152778,-8.93056,-8.18056,-8.93056c-10.8333,0,-9.59722,7.13889,-9.59722,14.1111l-16.9028,0c-0.277778,-20.1528,5.80556,-26.25,26.5,-26.25c20.9444,0,27.3472,4.05556,27.3472,20.9306l0,34.2639l10.0417,0L1057.92,1663.36L1057.92,1663.36z"/>
    <path xmlns="http://www.w3.org/2000/svg" fill="#E0E0E0" d="M912.458,1617.9c0,-20.9444,14.4722,-21.9444,37.2639,-21.9444c30.5833,0,36.7639,8.125,36.7639,33.875c0,23.9028,-4.52778,34.2639,-36.7639,34.2639c-32.8889,0,-37.2639,-8,-37.2639,-37.0833l54.9167,0c0,-14.3194,-0.458333,-18.9028,-17.6389,-18.9028c-10.6667,0,-18.1389,-0.138889,-18.1389,9.79167L912.458,1617.9L912.458,1617.9zM931.625,1637.21c0,13.6944,2.43056,14.75,18.1389,14.75c16.5972,0,17.6528,-2.90278,17.6528,-14.75L931.625,1637.21z"/>
    <path xmlns="http://www.w3.org/2000/svg" fill="#E0E0E0" d="M879.403,1663.36l0.416667,-8.76389l-0.763889,0c-3.80556,7.375,-12.0278,9.5,-21.3056,9.5c-16.875,0,-20.9861,-8.38889,-20.9861,-20.9444l0,-5.34722l17.9444,0l0,3.41667c0,6.72222,0.763889,10.6667,9.73611,10.6667c11.4028,0,14.75,-5.5,14.4861,-14.0833l0,-41.125l19.1667,0l0,66.625L879.403,1663.36L879.403,1663.36z"/>
    <path xmlns="http://www.w3.org/2000/svg" fill="#E0E0E0" d="M779.444,1594.03c4.44444,-15.1111,8.09722,-26.8889,30.4028,-26.8889c2.73611,0,5.48611,0.347222,8.22222,0.5l0,12.0556c-1.375,-0.125,-2.77778,-0.375,-4.11111,-0.375c-12.0278,0,-13.8472,9.65278,-15.5694,17.4167l9.27778,0l26.3194,66.6528l-19.8194,0l-20.2361,-56.75l-0.291667,0l-15.5278,56.75l-19.4722,0L779.444,1594.03z"/>
   </g>
  </g>
  <path xmlns="http://www.w3.org/2000/svg" opacity="0.35" fill="#FFFFFF" enable-background="new    " d="M160.139,1524.35c0,15.0278,19.5278,27.1528,43.5972,27.1528l1614.94,0c24.0556,0,43.625,-11.0972,43.625,-26.1111l0,-81.875c0,-15,-19.5556,-28.2361,-43.625,-28.2361L203.764,1415.28c-24.0556,0,-43.6111,12.1806,-43.6111,27.1806L160.139,1524.35L160.139,1524.35z"/>
 </g>
 <g xmlns="http://www.w3.org/2000/svg">
  <path xmlns="http://www.w3.org/2000/svg" fill="#1A1A1A" d="M102.181,1.51389l24.8611,16.1111c0,0,17.7222,16.75,33.1806,34.6111c9.20833,10.6528,16.9167,48.1389,28.2778,57.6528c11.4028,9.48611,27.6806,11.5417,41.4861,11.5417c3.84722,0,320.25,0,324.097,0c13.8194,0,30.0556,-2.01389,41.4722,-11.5417c11.3889,-9.51389,19.1389,-47,28.3194,-57.6528c15.4306,-17.8611,33.1806,-34.6111,33.1806,-34.6111l24.8611,-16.1111L102.181,1.51389z"/>
  <path xmlns="http://www.w3.org/2000/svg" opacity="0.2" fill="#FFFFFF" enable-background="new    " d="M138.069,13.6667l6.47222,2.01389c0,0,0,7.48611,14.4028,15.4306c8.65278,4.75,15.8056,6.83333,26.4444,11.0833c10.6667,4.23611,25.8056,5.13889,38.7639,5.13889c3.58333,0,332.194,0,335.847,0c12.9444,0,28.0694,-0.902778,38.7083,-5.13889c10.6667,-4.25,17.8611,-6.33333,26.4444,-11.0833c14.4583,-7.95833,14.4444,-15.4306,14.4444,-15.4306l6.36111,-2L138.069,13.6667z"/>
 </g>
 <g xmlns="http://www.w3.org/2000/svg">
  <path xmlns="http://www.w3.org/2000/svg" fill="#1A1A1A" d="M1366.31,1.51389l24.8611,16.1111c0,0,17.7222,16.75,33.1806,34.6111c9.20833,10.6528,16.9306,48.1389,28.2778,57.6528c11.3889,9.48611,27.6806,11.5417,41.4861,11.5417c3.86111,0,320.25,0,324.083,0c13.8333,0,30.0694,-2.01389,41.5,-11.5417c11.3611,-9.51389,19.1111,-47,28.2778,-57.6528c15.4444,-17.8611,33.1944,-34.6111,33.1944,-34.6111l24.8611,-16.1111L1366.31,1.51389z"/>
  <path xmlns="http://www.w3.org/2000/svg" opacity="0.2" fill="#FFFFFF" enable-background="new    " d="M1402.19,13.6667l6.5,2.01389c0,0,0,7.48611,14.3889,15.4306c8.65278,4.75,15.8056,6.83333,26.4444,11.0833c10.7083,4.23611,25.8056,5.13889,38.7639,5.13889c3.58333,0,332.208,0,335.861,0c12.9444,0,28.0694,-0.902778,38.7222,-5.13889c10.6667,-4.25,17.8333,-6.33333,26.4583,-11.0833c14.4306,-7.95833,14.4167,-15.4306,14.4167,-15.4306l6.36111,-2L1402.19,13.6667z"/>
 </g>
 <g xmlns="http://www.w3.org/2000/svg">
  <path xmlns="http://www.w3.org/2000/svg" fill="#1A1A1A" d="M102.181,1843.99l24.8611,-16.125c0,0,17.7222,-16.7361,33.1806,-34.6111c9.20833,-10.6389,16.9167,-48.1389,28.2778,-57.6389c11.4028,-9.51389,27.6806,-11.5278,41.4861,-11.5278c3.84722,0,320.25,0,324.097,0c13.8194,0,30.0556,1.98611,41.4722,11.5278c11.3889,9.51389,19.1389,47.0139,28.3194,57.6389c15.4306,17.875,33.1806,34.6111,33.1806,34.6111l24.8611,16.125L102.181,1843.99z"/>
  <path xmlns="http://www.w3.org/2000/svg" d="M138.069,1831.85l6.47222,-2.01389c0,0,0,-7.48611,14.4028,-15.4306c8.65278,-4.77778,15.8056,-6.83333,26.4444,-11.0833c10.6667,-4.25,25.8056,-5.13889,38.7639,-5.13889c3.58333,0,332.194,0,335.847,0c12.9444,0,28.0694,0.888889,38.7083,5.13889c10.6667,4.22222,17.8611,6.30556,26.4444,11.0833c14.4583,7.94444,14.4444,15.4306,14.4444,15.4306l6.36111,1.95833L138.069,1831.85z"/>
 </g>
 <g xmlns="http://www.w3.org/2000/svg">
  <path xmlns="http://www.w3.org/2000/svg" fill="#1A1A1A" d="M1366.31,1843.99l24.8611,-16.125c0,0,17.7222,-16.7361,33.1806,-34.6111c9.20833,-10.6389,16.9306,-48.1389,28.2778,-57.6389c11.3889,-9.51389,27.6806,-11.5278,41.4861,-11.5278c3.86111,0,320.25,0,324.083,0c13.8333,0,30.0694,1.98611,41.5,11.5278c11.375,9.52778,19.1111,47.0139,28.2778,57.6389c15.4444,17.875,33.1944,34.6111,33.1944,34.6111l24.8611,16.125L1366.31,1843.99z"/>
  <path xmlns="http://www.w3.org/2000/svg" d="M1402.19,1831.85l6.5,-2.01389c0,0,0,-7.48611,14.3889,-15.4306c8.65278,-4.77778,15.8056,-6.83333,26.4444,-11.0833c10.7083,-4.25,25.8056,-5.13889,38.7639,-5.13889c3.58333,0,332.208,0,335.861,0c12.9444,0,28.0694,0.888889,38.7222,5.13889c10.6667,4.22222,17.8333,6.30556,26.4583,11.0833c14.4306,7.94444,14.4167,15.4306,14.4167,15.4306l6.36111,1.95833L1402.19,1831.85z"/>
 </g>
 <path xmlns="http://www.w3.org/2000/svg" fill="none" stroke="#000000" stroke-width="34.7694" d="M2048.15,1423.68l78.2361,0"/>
 <path xmlns="http://www.w3.org/2000/svg" fill="none" stroke="#FF0000" stroke-width="34.7694" d="M2048.15,359.806l78.2361,0"/>
</g>
</g></g><path stroke='#000000' stroke-width='34.7694' stroke-linecap='round' stroke-linejoin='round' fill='none' d='M3862.69,1723.68L3932.13,1723.68' />
<path stroke='#ff0000' stroke-width='34.7694' stroke-linecap='round' stroke-linejoin='round' fill='none' d='M3862.69,659.806L3932.13,659.806' />
<g partID='52760'><g transform='translate(1736.3,300)' ><g xmlns="http://www.w3.org/2000/svg" id="breadboard">
 <rect xmlns="http://www.w3.org/2000/svg" width="41.6528" x="2048.15" y="1423.68" fill="none" height="13.8889" id="connector0pin"/>
 <rect xmlns="http://www.w3.org/2000/svg" width="41.6667" x="2089.25" y="359.806" fill="none" height="13.8889" id="connector1pin"/>
 <g xmlns="http://www.w3.org/2000/svg" fill="none" stroke="#000000" id="connector0leg" stroke-linecap="round" y1="102.505" x1="153.1" y2="102.505" stroke-width="34.7694" x2="158.1"/>
 <g xmlns="http://www.w3.org/2000/svg" fill="none" stroke="#FF0000" id="connector1leg" stroke-linecap="round" y1="25.906" x1="153.1" y2="25.906" stroke-width="34.7694" x2="158.1"/>
 <path xmlns="http://www.w3.org/2000/svg" fill="#1A1A1A" d="M2047.92,1820.12c0,14.0833,-15.1944,23.8611,-28.5417,23.8611L28.5972,1843.99c-18.9167,0,-28.5694,-8,-28.5694,-23.8611L0.0277778,23.8194C0.0277778,11.25,11.8056,0,28.5972,0l1990.78,0c15.4583,0,28.5417,9.47222,28.5417,23.8194l0,878.167L2047.92,1820.12z"/>
 <path xmlns="http://www.w3.org/2000/svg" fill="none" stroke="#C9C9C9" stroke-width="11.5903" d="M29.7917,657.444L29.7917,101.389c0,-8.19444,5.38889,-15,11.9861,-15s11.9444,6.79167,11.9444,15l12.6806,271.208c0,8.25,5.43056,15,11.9861,15s11.9861,-6.75,11.9861,-15L103.056,162.486c0,-8.23611,5.40278,-15,11.9583,-15c6.59722,0,11.9583,6.76389,11.9583,15l0,165.097"/>
 <path xmlns="http://www.w3.org/2000/svg" fill="none" stroke="#C9C9C9" stroke-width="11.5903" d="M2009.93,144.042l0,200.778c0,8.25,8.09722,15,17.9861,15l20.3472,0"/>
 <rect xmlns="http://www.w3.org/2000/svg" width="48.0556" x="23.6944" y="598.042" fill="#C9C9C9" height="167.014"/>
 <rect xmlns="http://www.w3.org/2000/svg" width="40.9722" x="1970.4" y="144.931" fill="#C9C9C9" height="167.069"/>
 <g xmlns="http://www.w3.org/2000/svg">
  <path xmlns="http://www.w3.org/2000/svg" fill="#353535" d="M1934.35,402.153c0,24.7778,-24.2639,45,-53.9306,45L187,447.153c-29.6667,0,-53.9306,-20.2222,-53.9306,-45L133.069,72.1528c0,-24.7361,24.2639,-44.9861,53.9306,-44.9861L1880.42,27.1667c29.6806,0,53.9444,20.25,53.9444,44.9861L1934.35,402.153L1934.35,402.153z"/>
  <path xmlns="http://www.w3.org/2000/svg" fill="#CE925D" d="M1415.83,27.8472l468.181,0c29.6667,0,53.9306,20.2361,53.9306,45l0,330.083c0,24.75,-24.2639,45,-53.9306,45L1415.83,447.931L1415.83,27.8472z"/>
  <path xmlns="http://www.w3.org/2000/svg" opacity="0.35" enable-background="new    " d="M191.083,429.958c-22.3194,0,-50.8056,-17.25,-50.8056,-37.6944l0,-94.4583c0,20.4722,28.4861,52.5556,50.8056,52.5556l1681.13,0c22.3333,0,50.8194,-32.0833,50.8194,-52.5556l0,94.4722c0,20.4722,-28.4861,37.6944,-50.8194,37.6944L191.083,429.958L191.083,429.958z"/>
  <path xmlns="http://www.w3.org/2000/svg" fill="#B2B2B2" d="M1932.83,234.375c0,94.0833,-4.30556,170.319,-9.59722,170.319s-5.30556,-340.611,0,-340.611S1932.83,140.319,1932.83,234.375"/>
  <path xmlns="http://www.w3.org/2000/svg" fill="#7C7C7C" d="M1929.25,292.431c-3.52778,0,-3.52778,-125.847,0,-125.847l-0.111111,0c0,7.76389,7.54167,14.0417,16.8333,14.0417l7.625,0c9.27778,0,16.8194,6.29167,16.8194,14.0556l0,69.5972c0,7.73611,-7.54167,14.0556,-16.8194,14.0556l-7.625,0c-9.29167,0,-16.8333,6.27778,-16.8333,14.0278L1929.25,292.431L1929.25,292.431z"/>
  <g xmlns="http://www.w3.org/2000/svg">
   <g xmlns="http://www.w3.org/2000/svg">
    <path xmlns="http://www.w3.org/2000/svg" fill="#E0E0E0" d="M492.139,205.556l-7.15278,17.9861l-22.6667,0l37.875,-95.1667l32.25,0l38.625,95.1667l-22.2083,0L541.417,205.556L492.139,205.556zM516.917,142.361l-0.305556,0l-19.4583,49.375l39.3889,0L516.917,142.361z"/>
    <path xmlns="http://www.w3.org/2000/svg" fill="#E0E0E0" d="M381.556,205.556l-7.15278,17.9861l-22.6667,0l37.875,-95.1667l32.25,0l38.625,95.1667l-22.2083,0L430.847,205.556L381.556,205.556zM406.333,142.361l-0.305556,0l-19.4583,49.375l39.3889,0L406.333,142.361z"/>
    <path xmlns="http://www.w3.org/2000/svg" fill="#E0E0E0" d="M600.042,205.556l-7.15278,17.9861l-22.625,0l37.8333,-95.1667l32.25,0l38.6389,95.1667l-22.2083,0L649.333,205.556L600.042,205.556zM624.819,142.361l-0.291667,0l-19.4861,49.375l39.3889,0L624.819,142.361z"/>
    <path xmlns="http://www.w3.org/2000/svg" fill="#E0E0E0" d="M741.903,223.583L741.903,128.417l56.7778,0c22.3611,0,33.5694,3.77778,33.5694,24.7639c0,10.875,-2.40278,18.2778,-16.2361,21.0417l0,0.527778c15.9722,1.52778,19.0139,10.2917,19.0139,22.3056c0,21.0694,-10.3472,26.5417,-34.3889,26.5417L741.903,223.583L741.903,223.583zM763.806,168.25l31.4444,0c12.375,0,15.0694,-3.18056,15.0694,-13.3194c0,-10.1528,-4.875,-10.9167,-15.6667,-10.9167l-30.8889,0L763.806,168.25L763.806,168.25zM763.806,207.972l29.9722,0c13.0278,0,19.2917,-0.763889,19.2917,-12.4444c0,-10.4028,-2.73611,-13.4444,-15.625,-13.4444l-33.6111,0L763.806,207.972L763.806,207.972z"/>
    <path xmlns="http://www.w3.org/2000/svg" fill="#E0E0E0" d="M902.75,215.194l-0.458333,0c-3.80556,8.91667,-15.5139,9.13889,-24.8056,9.13889c-18.0972,0,-29.8056,-3.18056,-29.8056,-21.1944c0,-15.9861,10.0417,-20.4306,29.8056,-20.4306c9.75,0,19.3194,0.125,23.8889,7.61111l0.611111,0l0,-8.63889c0,-10.7917,-1.06944,-14.5972,-17.0417,-14.5972c-8.375,0,-15.0694,0.666667,-15.0694,9.26389L850.694,176.347c0,-19.4167,16.0139,-20.1528,34.2222,-20.1528c25.5972,0,36.1944,3.30556,36.1944,25.6389l0,41.7222l-19.1944,0L902.75,215.194zM866.847,203.139c0,9.38889,4.52778,10.2917,17.4861,10.2917c10.1806,0,17.6528,-0.736111,17.6528,-10.2917c0,-9.26389,-8.19444,-9.51389,-17.6528,-9.51389C874.597,193.625,866.847,193.625,866.847,203.139z"/>
    <path xmlns="http://www.w3.org/2000/svg" fill="#E0E0E0" d="M930.472,156.944l10.0556,0l0,-15.1111l19.1667,0L959.694,156.944l30.5694,0l0,12.1806l-30.5694,0l0,34.1389c0.180556,6.09722,0.180556,8.875,8.19444,8.875c10.8056,0,9.58333,-7.09722,9.58333,-14.0417l16.8889,0c0.305556,20.1389,-5.79167,26.2361,-26.4722,26.2361c-20.9861,0,-27.3889,-4.05556,-27.3889,-20.9444l0,-34.2639l-10.0556,0L930.472,156.944L930.472,156.944z"/>
    <path xmlns="http://www.w3.org/2000/svg" fill="#E0E0E0" d="M995.167,156.944l10.0417,0l0,-15.1111l19.1667,0L1024.38,156.944l30.5833,0l0,12.1806l-30.5833,0l0,34.1389c0.152778,6.09722,0.152778,8.875,8.19444,8.875c10.8194,0,9.59722,-7.09722,9.59722,-14.0417l16.8889,0c0.291667,20.1389,-5.79167,26.2361,-26.4861,26.2361c-20.9583,0,-27.3472,-4.05556,-27.3472,-20.9444l0,-34.2639l-10.0556,0L995.167,156.944L995.167,156.944z"/>
    <path xmlns="http://www.w3.org/2000/svg" fill="#E0E0E0" d="M1140.63,202.389c0,20.9444,-14.4722,21.9583,-37.2639,21.9583c-30.5833,0,-36.7639,-8.125,-36.7639,-33.875c0,-23.875,4.52778,-34.2361,36.7639,-34.2361c32.8889,0,37.2639,8,37.2639,37.0556l-54.9167,0c0,14.3333,0.458333,18.9167,17.6389,18.9167c10.6528,0,18.1389,0.125,18.1389,-9.80555L1140.63,202.389L1140.63,202.389zM1121.46,183.097c0,-13.7083,-2.43056,-14.75,-18.1389,-14.75c-16.5833,0,-17.6389,2.91667,-17.6389,14.75L1121.46,183.097z"/>
    <path xmlns="http://www.w3.org/2000/svg" fill="#E0E0E0" d="M1173.68,156.944l-0.416667,8.76389l0.763889,0c3.80556,-7.36111,12.0278,-9.5,21.2917,-9.5c16.8889,0,21,8.38889,21,20.9444l0,5.33333l-17.9444,0l0,-3.43056c0,-6.72222,-0.777778,-10.6667,-9.75,-10.6667c-11.4028,0,-14.75,5.5,-14.4722,14.0972l0,41.125l-19.1806,0l0,-66.6389L1173.68,156.944L1173.68,156.944z"/>
    <path xmlns="http://www.w3.org/2000/svg" fill="#E0E0E0" d="M1273.64,226.25c-4.44444,15.1111,-8.11111,26.875,-30.4167,26.875c-2.73611,0,-5.47222,-0.347222,-8.20833,-0.513889L1235.01,240.556c1.375,0.125,2.79167,0.388889,4.09722,0.388889c12.0139,0,13.8472,-9.65278,15.5556,-17.4167l-9.26389,0l-26.3194,-66.6389l19.8194,0l20.2222,56.7361l0.277778,0l15.5417,-56.7361l19.4722,0L1273.64,226.25z"/>
   </g>
  </g>
  <path xmlns="http://www.w3.org/2000/svg" opacity="0.35" fill="#FFFFFF" enable-background="new    " d="M1882.03,151.222c0,15,-19.5278,27.1667,-43.625,27.1667L223.458,178.389c-24.0556,0,-43.6111,-11.1111,-43.6111,-26.1111L179.847,70.4028c0,-15.0139,19.5278,-28.2361,43.6111,-28.2361l1614.93,0c24.0972,0,43.6528,12.1667,43.6528,27.1806L1882.04,151.222L1882.03,151.222z"/>
 </g>
 <g xmlns="http://www.w3.org/2000/svg">
  <path xmlns="http://www.w3.org/2000/svg" fill="#353535" d="M107.833,857.306c0,24.7361,24.25,45,53.9306,45l1693.39,0c29.6667,0,53.9306,-20.2639,53.9306,-45L1909.08,527.264c0,-24.7361,-24.2639,-45,-53.9306,-45L161.764,482.264c-29.6806,0,-53.9306,20.25,-53.9306,45L107.833,857.306z"/>
  <path xmlns="http://www.w3.org/2000/svg" fill="#CE925D" d="M629.944,482.306L161.764,482.306c-29.6806,0,-53.9306,20.25,-53.9306,44.9861l0,330.042c0,24.7361,24.25,45,53.9306,45l468.181,0L629.944,482.306L629.944,482.306z"/>
  <path xmlns="http://www.w3.org/2000/svg" opacity="0.35" enable-background="new    " d="M1851.08,885.125c22.3194,0,50.7917,-17.2778,50.7917,-37.7083l0,-94.4583c0,20.4583,-28.4722,52.5278,-50.7917,52.5278L169.931,805.486c-22.3194,0,-50.8056,-32.0694,-50.8056,-52.5278l0,94.4583c0,20.4722,28.4861,37.7083,50.8056,37.7083L1851.08,885.125z"/>
  <path xmlns="http://www.w3.org/2000/svg" fill="#B2B2B2" d="M109.347,689.514c0,94.0833,4.31944,170.319,9.625,170.319c5.31944,0,5.31944,-340.611,0,-340.611C113.653,519.222,109.347,595.472,109.347,689.514"/>
  <path xmlns="http://www.w3.org/2000/svg" fill="#7C7C7C" d="M112.931,747.597c3.51389,0,3.51389,-125.861,0,-125.861l0.0972222,0.0138889c0,7.75,-7.52778,14.0417,-16.7917,14.0417L88.5694,635.792c-9.25,0,-16.8333,6.31944,-16.8333,14.0556L71.7361,719.444c0,7.73611,7.58333,14.0556,16.8333,14.0556l7.65278,0c9.26389,0,16.7917,6.27778,16.7917,14.0556L112.931,747.597L112.931,747.597z"/>
  <g xmlns="http://www.w3.org/2000/svg">
   <g xmlns="http://www.w3.org/2000/svg">
    <path xmlns="http://www.w3.org/2000/svg" fill="#E0E0E0" d="M1560.93,696.764l7.16667,-18.0139l22.6667,0l-37.8889,95.1805l-32.25,0l-38.625,-95.1805l22.2222,0l7.45833,18.0139L1560.93,696.764zM1536.15,759.958l0.291667,0l19.4722,-49.375l-39.4028,0L1536.15,759.958z"/>
    <path xmlns="http://www.w3.org/2000/svg" fill="#E0E0E0" d="M1672.04,696.764l7.16667,-18.0139l22.6667,0l-37.8889,95.1805l-32.25,0l-38.625,-95.1805l22.2222,0l7.45833,18.0139L1672.04,696.764zM1647.26,759.958l0.291667,0l19.4722,-49.375l-39.4028,0L1647.26,759.958z"/>
    <path xmlns="http://www.w3.org/2000/svg" fill="#E0E0E0" d="M1453.03,696.764l7.15278,-18.0139l22.6806,0l-37.8889,95.1805l-32.25,0l-38.625,-95.1805l22.2083,0l7.45833,18.0139L1453.03,696.764zM1428.24,759.958l0.305556,0l19.4583,-49.375l-39.4167,0L1428.24,759.958z"/>
    <path xmlns="http://www.w3.org/2000/svg" fill="#E0E0E0" d="M1311.19,678.708l0,95.1805l-56.8056,0c-22.3472,0,-33.5694,-3.76389,-33.5694,-24.75c0,-10.8889,2.40278,-18.2778,16.2361,-21.0278l0,-0.541667c-15.9722,-1.52778,-19,-10.2917,-19,-22.3056c0,-21.0833,10.3056,-26.5278,34.4028,-26.5278L1311.19,678.708L1311.19,678.708zM1289.28,694.333l-29.9583,0c-13.0417,0,-19.3056,0.763889,-19.3056,12.4306c0,10.4028,2.75,13.4583,15.6528,13.4583l33.5833,0L1289.28,694.333L1289.28,694.333zM1289.28,734.056l-31.4722,0c-12.3611,0,-15.0556,3.16667,-15.0556,13.3333c0,10.1528,4.86111,10.9306,15.6528,10.9306l30.8889,0L1289.28,734.056L1289.28,734.056z"/>
    <path xmlns="http://www.w3.org/2000/svg" fill="#E0E0E0" d="M1150.33,687.097l0.458333,0c3.79167,-8.93056,15.5,-9.13889,24.7917,-9.13889c18.1111,0,29.8333,3.16667,29.8333,21.1806c0,16,-10.0417,20.4444,-29.8333,20.4444c-9.73611,0,-19.3056,-0.125,-23.8611,-7.625l-0.611111,0l0,8.63889c0,10.7917,1.06944,14.5833,17.0278,14.5833c8.375,0,15.0694,-0.638889,15.0694,-9.25l19.2222,0c0,19.4028,-15.9861,20.1389,-34.25,20.1389c-25.5278,0,-36.1806,-3.30556,-36.1806,-25.6528l0,-41.7361l19.1667,0L1150.33,687.097zM1186.22,699.153c0,-9.38889,-4.52778,-10.2778,-17.4861,-10.2778c-10.2083,0,-17.6528,0.722222,-17.6528,10.2778c0,9.26389,8.18056,9.52778,17.6528,9.52778C1178.49,708.681,1186.22,708.681,1186.22,699.153z"/>
    <path xmlns="http://www.w3.org/2000/svg" fill="#E0E0E0" d="M1122.61,745.361l-10.0417,0l0,15.0972l-19.1806,0l0,-15.0972l-30.5694,0L1062.82,733.194l30.5694,0L1093.39,699.028c-0.180556,-6.09722,-0.180556,-8.91667,-8.19444,-8.91667c-10.8056,0,-9.58333,7.125,-9.58333,14.1111l-16.875,0c-0.305556,-20.1667,5.79167,-26.25,26.4722,-26.25c20.9861,0,27.3889,4.05556,27.3889,20.9306l0,34.2639l10.0417,0L1122.61,745.361L1122.61,745.361z"/>
    <path xmlns="http://www.w3.org/2000/svg" fill="#E0E0E0" d="M1057.92,745.361l-10.0417,0l0,15.0972l-19.1667,0l0,-15.0972l-30.5833,0L998.125,733.194l30.5833,0L1028.71,699.028c-0.152778,-6.09722,-0.152778,-8.91667,-8.18056,-8.91667c-10.8333,0,-9.59722,7.125,-9.59722,14.1111l-16.9028,0c-0.277778,-20.1667,5.80556,-26.25,26.5,-26.25c20.9444,0,27.3472,4.05556,27.3472,20.9306l0,34.2639l10.0417,0L1057.92,745.361L1057.92,745.361z"/>
    <path xmlns="http://www.w3.org/2000/svg" fill="#E0E0E0" d="M912.458,699.917c0,-20.9444,14.4722,-21.9583,37.2639,-21.9583c30.5833,0,36.7639,8.125,36.7639,33.8889c0,23.8889,-4.52778,34.25,-36.7639,34.25c-32.8889,0,-37.2639,-8,-37.2639,-37.0694l54.9167,0c0,-14.3333,-0.458333,-18.9167,-17.6389,-18.9167c-10.6667,0,-18.1389,-0.125,-18.1389,9.80555L912.458,699.917L912.458,699.917zM931.625,719.208c0,13.7083,2.43056,14.7639,18.1389,14.7639c16.5972,0,17.6528,-2.90278,17.6528,-14.7639L931.625,719.208z"/>
    <path xmlns="http://www.w3.org/2000/svg" fill="#E0E0E0" d="M879.403,745.361l0.416667,-8.76389l-0.763889,0c-3.80556,7.375,-12.0278,9.5,-21.3056,9.5c-16.875,0,-20.9861,-8.38889,-20.9861,-20.9444l0,-5.33333l17.9444,0l0,3.43056c0,6.72222,0.763889,10.6667,9.73611,10.6667c11.4028,0,14.75,-5.5,14.4861,-14.0833l0,-41.125l19.1667,0l0,66.625L879.403,745.361L879.403,745.361z"/>
    <path xmlns="http://www.w3.org/2000/svg" fill="#E0E0E0" d="M779.444,676.028c4.44444,-15.1111,8.09722,-26.8889,30.4028,-26.8889c2.73611,0,5.48611,0.347222,8.22222,0.5l0,12.0694c-1.375,-0.125,-2.77778,-0.375,-4.11111,-0.375c-12.0278,0,-13.8472,9.65278,-15.5694,17.4167l9.27778,0l26.3194,66.6389l-19.8194,0l-20.2361,-56.7361l-0.291667,0l-15.5278,56.7361l-19.4722,0L779.444,676.028z"/>
   </g>
  </g>
  <path xmlns="http://www.w3.org/2000/svg" opacity="0.35" fill="#FFFFFF" enable-background="new    " d="M160.139,606.361c0,15.0278,19.5278,27.1528,43.5972,27.1528l1614.94,0c24.0556,0,43.625,-11.0972,43.625,-26.0972l0,-81.875c0,-15.0139,-19.5556,-28.2361,-43.625,-28.2361L203.764,497.306c-24.0556,0,-43.6111,12.1667,-43.6111,27.1806L160.139,606.361L160.139,606.361z"/>
 </g>
 <path xmlns="http://www.w3.org/2000/svg" fill="none" stroke="#C9C9C9" stroke-width="11.5903" d="M29.7917,1575.44L29.7917,1019.39c0,-8.20833,5.38889,-14.9861,11.9861,-14.9861s11.9444,6.77778,11.9444,14.9861l12.6806,271.208c0,8.26389,5.43056,15,11.9861,15s11.9861,-6.73611,11.9861,-15L103.056,1080.49c0,-8.25,5.40278,-15,11.9583,-15c6.59722,0,11.9583,6.75,11.9583,15l0,165.097"/>
 <path xmlns="http://www.w3.org/2000/svg" fill="none" stroke="#C9C9C9" stroke-width="11.5903" d="M1914.19,801.097L1914.19,636c0,-8.25,5.36111,-15,11.9583,-15c6.54167,0,11.9444,6.75,11.9444,15l12.6806,210.111c0,8.26389,5.43056,15,11.9861,15c6.55556,0,11.9861,-6.73611,11.9861,-15l12.6667,-271.208c0,-8.20833,5.375,-14.9861,11.9583,-14.9861s11.9722,6.77778,11.9722,14.9861L2011.35,1130.97"/>
 <path xmlns="http://www.w3.org/2000/svg" fill="none" stroke="#C9C9C9" stroke-width="11.5903" d="M1912.63,1545.31l0,165.097c0,8.25,5.41667,15.0139,11.9583,15.0139c6.61111,0,11.9722,-6.76389,11.9722,-15.0139l12.6944,-210.111c0,-8.25,5.375,-15,11.9583,-15s11.9444,6.75,11.9444,15l12.6806,271.222c0,8.22222,5.43056,14.9722,11.9722,14.9722c6.56944,0,11.9861,-6.75,11.9861,-14.9722l0,-332.847c0,-8.19444,8.11111,-14.9861,17.9861,-14.9861l20.3472,0"/>
 <rect xmlns="http://www.w3.org/2000/svg" width="48.0556" x="23.6944" y="1516.04" fill="#C9C9C9" height="167.014"/>
 <rect xmlns="http://www.w3.org/2000/svg" width="40.9722" x="1970.4" y="1062.93" fill="#C9C9C9" height="167.056"/>
 <g xmlns="http://www.w3.org/2000/svg">
  <path xmlns="http://www.w3.org/2000/svg" fill="#353535" d="M1934.35,1320.15c0,24.7639,-24.2639,45,-53.9306,45L187,1365.15c-29.6667,0,-53.9306,-20.2361,-53.9306,-45L133.069,990.153c0,-24.7361,24.2639,-44.9861,53.9306,-44.9861L1880.42,945.167c29.6806,0,53.9444,20.25,53.9444,44.9861L1934.35,1320.15L1934.35,1320.15z"/>
  <path xmlns="http://www.w3.org/2000/svg" fill="#CE925D" d="M1415.83,945.847l468.181,0c29.6667,0,53.9306,20.2222,53.9306,44.9861l0,330.083c0,24.75,-24.2639,45,-53.9306,45L1415.83,1365.92L1415.83,945.847z"/>
  <path xmlns="http://www.w3.org/2000/svg" opacity="0.35" enable-background="new    " d="M191.083,1347.94c-22.3194,0,-50.8056,-17.2361,-50.8056,-37.6944l0,-94.4583c0,20.4722,28.4861,52.5417,50.8056,52.5417l1681.13,0c22.3333,0,50.8194,-32.0833,50.8194,-52.5417l0,94.4722c0,20.4722,-28.4861,37.6944,-50.8194,37.6944L191.083,1347.94L191.083,1347.94z"/>
  <path xmlns="http://www.w3.org/2000/svg" fill="#B2B2B2" d="M1932.83,1152.36c0,94.0833,-4.30556,170.319,-9.59722,170.319s-5.30556,-340.597,0,-340.597S1932.83,1058.32,1932.83,1152.36"/>
  <path xmlns="http://www.w3.org/2000/svg" fill="#7C7C7C" d="M1929.25,1210.43c-3.52778,0,-3.52778,-125.861,0,-125.861l-0.111111,0.0138889c0,7.76389,7.54167,14.0417,16.8333,14.0417l7.625,0c9.27778,0,16.8194,6.27778,16.8194,14.0556l0,69.5972c0,7.73611,-7.54167,14.0694,-16.8194,14.0694l-7.625,0c-9.29167,0,-16.8333,6.27778,-16.8333,14.0417L1929.25,1210.43L1929.25,1210.43z"/>
  <g xmlns="http://www.w3.org/2000/svg">
   <g xmlns="http://www.w3.org/2000/svg">
    <path xmlns="http://www.w3.org/2000/svg" fill="#E0E0E0" d="M492.139,1123.54l-7.15278,18l-22.6667,0l37.875,-95.1667l32.25,0l38.625,95.1667l-22.2083,0l-7.44444,-18L492.139,1123.54zM516.917,1060.35l-0.305556,0l-19.4583,49.3889l39.3889,0L516.917,1060.35z"/>
    <path xmlns="http://www.w3.org/2000/svg" fill="#E0E0E0" d="M381.556,1123.54l-7.15278,18l-22.6667,0l37.875,-95.1667l32.25,0l38.625,95.1667l-22.2083,0l-7.44444,-18L381.556,1123.54zM406.333,1060.35l-0.305556,0l-19.4583,49.3889l39.3889,0L406.333,1060.35z"/>
    <path xmlns="http://www.w3.org/2000/svg" fill="#E0E0E0" d="M600.042,1123.54l-7.15278,18l-22.625,0l37.8333,-95.1667l32.25,0l38.6389,95.1667l-22.2083,0l-7.44444,-18L600.042,1123.54zM624.819,1060.35l-0.291667,0l-19.4861,49.3889l39.3889,0L624.819,1060.35z"/>
    <path xmlns="http://www.w3.org/2000/svg" fill="#E0E0E0" d="M741.903,1141.58l0,-95.1805l56.7778,0c22.3611,0,33.5694,3.77778,33.5694,24.75c0,10.875,-2.40278,18.2778,-16.2361,21.0556l0,0.527778c15.9722,1.52778,19.0139,10.2917,19.0139,22.3056c0,21.0833,-10.3472,26.5278,-34.3889,26.5278L741.903,1141.57L741.903,1141.58zM763.806,1086.24l31.4444,0c12.375,0,15.0694,-3.18056,15.0694,-13.3194s-4.875,-10.9167,-15.6667,-10.9167l-30.8889,0L763.806,1086.24L763.806,1086.24zM763.806,1125.96l29.9722,0c13.0278,0,19.2917,-0.763889,19.2917,-12.4306c0,-10.4028,-2.73611,-13.4583,-15.625,-13.4583l-33.6111,0L763.806,1125.96L763.806,1125.96z"/>
    <path xmlns="http://www.w3.org/2000/svg" fill="#E0E0E0" d="M902.75,1133.19l-0.458333,0c-3.80556,8.90278,-15.5139,9.125,-24.8056,9.125c-18.0972,0,-29.8056,-3.18056,-29.8056,-21.1944c0,-15.9861,10.0417,-20.4306,29.8056,-20.4306c9.75,0,19.3194,0.125,23.8889,7.61111l0.611111,0l0,-8.63889c0,-10.7778,-1.06944,-14.5972,-17.0417,-14.5972c-8.375,0,-15.0694,0.666667,-15.0694,9.26389L850.694,1094.33c0,-19.4028,16.0139,-20.1389,34.2222,-20.1389c25.5972,0,36.1944,3.29167,36.1944,25.6389l0,41.7222l-19.1944,0L902.75,1133.19zM866.847,1121.14c0,9.40278,4.52778,10.2917,17.4861,10.2917c10.1806,0,17.6528,-0.736111,17.6528,-10.2917c0,-9.26389,-8.19444,-9.51389,-17.6528,-9.51389C874.597,1111.62,866.847,1111.62,866.847,1121.14z"/>
    <path xmlns="http://www.w3.org/2000/svg" fill="#E0E0E0" d="M930.472,1074.94l10.0556,0l0,-15.1111l19.1667,0l0,15.1111l30.5694,0l0,12.1806l-30.5694,0l0,34.1389c0.180556,6.09722,0.180556,8.875,8.19444,8.875c10.8056,0,9.58333,-7.08333,9.58333,-14.0417l16.8889,0c0.305556,20.1389,-5.79167,26.2361,-26.4722,26.2361c-20.9861,0,-27.3889,-4.05556,-27.3889,-20.9583l0,-34.2639l-10.0556,0L930.472,1074.94L930.472,1074.94z"/>
    <path xmlns="http://www.w3.org/2000/svg" fill="#E0E0E0" d="M995.167,1074.94l10.0417,0l0,-15.1111l19.1667,0l0,15.1111l30.5833,0l0,12.1806l-30.5833,0l0,34.1389c0.152778,6.09722,0.152778,8.875,8.19444,8.875c10.8194,0,9.59722,-7.08333,9.59722,-14.0417l16.8889,0c0.291667,20.1389,-5.79167,26.2361,-26.4861,26.2361c-20.9583,0,-27.3472,-4.05556,-27.3472,-20.9583l0,-34.2639l-10.0556,0L995.167,1074.94L995.167,1074.94z"/>
    <path xmlns="http://www.w3.org/2000/svg" fill="#E0E0E0" d="M1140.63,1120.39c0,20.9444,-14.4722,21.9444,-37.2639,21.9444c-30.5833,0,-36.7639,-8.11111,-36.7639,-33.875c0,-23.875,4.52778,-34.2361,36.7639,-34.2361c32.8889,0,37.2639,8,37.2639,37.0556l-54.9167,0c0,14.3333,0.458333,18.9028,17.6389,18.9028c10.6528,0,18.1389,0.138889,18.1389,-9.79167L1140.63,1120.39L1140.63,1120.39zM1121.46,1101.1c0,-13.7083,-2.43056,-14.75,-18.1389,-14.75c-16.5833,0,-17.6389,2.91667,-17.6389,14.75L1121.46,1101.1z"/>
    <path xmlns="http://www.w3.org/2000/svg" fill="#E0E0E0" d="M1173.68,1074.94l-0.416667,8.76389l0.763889,0c3.80556,-7.36111,12.0278,-9.5,21.2917,-9.5c16.8889,0,21,8.38889,21,20.9444l0,5.33333l-17.9444,0l0,-3.41667c0,-6.72222,-0.777778,-10.6806,-9.75,-10.6806c-11.4028,0,-14.75,5.5,-14.4722,14.0972l0,41.125l-19.1806,0l0,-66.625L1173.68,1074.94L1173.68,1074.94z"/>
    <path xmlns="http://www.w3.org/2000/svg" fill="#E0E0E0" d="M1273.64,1144.24c-4.44444,15.1111,-8.11111,26.8889,-30.4167,26.8889c-2.73611,0,-5.47222,-0.347222,-8.20833,-0.513889l0,-12.0556c1.375,0.125,2.79167,0.388889,4.09722,0.388889c12.0139,0,13.8472,-9.65278,15.5556,-17.4306l-9.26389,0l-26.3194,-66.6389l19.8194,0l20.2222,56.7361l0.277778,0l15.5417,-56.7361l19.4722,0L1273.64,1144.24z"/>
   </g>
  </g>
  <path xmlns="http://www.w3.org/2000/svg" opacity="0.35" fill="#FFFFFF" enable-background="new    " d="M1882.03,1069.21c0,15,-19.5278,27.1667,-43.625,27.1667L223.458,1096.37c-24.0556,0,-43.6111,-11.1111,-43.6111,-26.1111l0,-81.875c0,-15,19.5278,-28.2361,43.6111,-28.2361l1614.93,0c24.0972,0,43.6528,12.1806,43.6528,27.1806L1882.04,1069.21L1882.03,1069.21z"/>
 </g>
 <g xmlns="http://www.w3.org/2000/svg">
  <path xmlns="http://www.w3.org/2000/svg" fill="#353535" d="M107.833,1775.31c0,24.7222,24.25,45,53.9306,45l1693.39,0c29.6667,0,53.9306,-20.2778,53.9306,-45l0,-330.042c0,-24.7361,-24.2639,-45,-53.9306,-45L161.764,1400.26c-29.6806,0,-53.9306,20.2639,-53.9306,45L107.833,1775.31z"/>
  <path xmlns="http://www.w3.org/2000/svg" fill="#CE925D" d="M629.944,1400.31L161.764,1400.31c-29.6806,0,-53.9306,20.25,-53.9306,44.9861l0,330.056c0,24.7361,24.25,44.9861,53.9306,44.9861l468.181,0L629.944,1400.31L629.944,1400.31z"/>
  <path xmlns="http://www.w3.org/2000/svg" opacity="0.35" enable-background="new    " d="M1851.08,1803.12c22.3194,0,50.7917,-17.2778,50.7917,-37.7083l0,-94.4722c0,20.4722,-28.4722,52.5278,-50.7917,52.5278L169.931,1723.47c-22.3194,0,-50.8056,-32.0694,-50.8056,-52.5278l0,94.4722c0,20.4722,28.4861,37.7083,50.8056,37.7083L1851.08,1803.12z"/>
  <path xmlns="http://www.w3.org/2000/svg" fill="#B2B2B2" d="M109.347,1607.51c0,94.0694,4.31944,170.333,9.625,170.333c5.31944,0,5.31944,-340.625,0,-340.625C113.653,1437.21,109.347,1513.46,109.347,1607.51"/>
  <path xmlns="http://www.w3.org/2000/svg" fill="#7C7C7C" d="M112.931,1665.58c3.51389,0,3.51389,-125.861,0,-125.861l0.0972222,0.0138889c0,7.76389,-7.52778,14.0417,-16.7917,14.0417L88.5694,1553.78c-9.25,0,-16.8333,6.31944,-16.8333,14.0556l0,69.6111c0,7.73611,7.58333,14.0556,16.8333,14.0556l7.65278,0c9.26389,0,16.7917,6.27778,16.7917,14.0694L112.931,1665.58L112.931,1665.58z"/>
  <g xmlns="http://www.w3.org/2000/svg">
   <g xmlns="http://www.w3.org/2000/svg">
    <path xmlns="http://www.w3.org/2000/svg" fill="#E0E0E0" d="M1560.93,1614.75l7.16667,-18.0139l22.6667,0l-37.8889,95.1805l-32.25,0l-38.625,-95.1805l22.2222,0l7.45833,18.0139L1560.93,1614.75zM1536.15,1677.96l0.291667,0l19.4722,-49.375l-39.4028,0L1536.15,1677.96z"/>
    <path xmlns="http://www.w3.org/2000/svg" fill="#E0E0E0" d="M1672.04,1614.75l7.16667,-18.0139l22.6667,0l-37.8889,95.1805l-32.25,0l-38.625,-95.1805l22.2222,0l7.45833,18.0139L1672.04,1614.75zM1647.26,1677.96l0.291667,0l19.4722,-49.375l-39.4028,0L1647.26,1677.96z"/>
    <path xmlns="http://www.w3.org/2000/svg" fill="#E0E0E0" d="M1453.03,1614.75l7.15278,-18.0139l22.6806,0l-37.8889,95.1805l-32.25,0l-38.625,-95.1805l22.2083,0l7.45833,18.0139L1453.03,1614.75zM1428.24,1677.96l0.305556,0l19.4583,-49.375l-39.4167,0L1428.24,1677.96z"/>
    <path xmlns="http://www.w3.org/2000/svg" fill="#E0E0E0" d="M1311.19,1596.71l0,95.1667l-56.8056,0c-22.3472,0,-33.5694,-3.76389,-33.5694,-24.7361c0,-10.8889,2.40278,-18.2778,16.2361,-21.0417l0,-0.541667c-15.9722,-1.52778,-19,-10.2917,-19,-22.3056c0,-21.0833,10.3056,-26.5278,34.4028,-26.5278L1311.19,1596.72L1311.19,1596.71zM1289.28,1612.33l-29.9583,0c-13.0417,0,-19.3056,0.763889,-19.3056,12.4306c0,10.4028,2.75,13.4583,15.6528,13.4583l33.5833,0L1289.28,1612.33L1289.28,1612.33zM1289.28,1652.06l-31.4722,0c-12.3611,0,-15.0556,3.18056,-15.0556,13.3333s4.86111,10.9167,15.6528,10.9167l30.8889,0L1289.28,1652.06L1289.28,1652.06z"/>
    <path xmlns="http://www.w3.org/2000/svg" fill="#E0E0E0" d="M1150.33,1605.1l0.458333,0c3.79167,-8.93056,15.5,-9.13889,24.7917,-9.13889c18.1111,0,29.8333,3.16667,29.8333,21.1806c0,15.9861,-10.0417,20.4444,-29.8333,20.4444c-9.73611,0,-19.3056,-0.125,-23.8611,-7.63889l-0.611111,0l0,8.65278c0,10.7778,1.06944,14.5833,17.0278,14.5833c8.375,0,15.0694,-0.638889,15.0694,-9.25l19.2222,0c0,19.4028,-15.9861,20.1389,-34.25,20.1389c-25.5278,0,-36.1806,-3.30556,-36.1806,-25.6528l0,-41.7361l19.1667,0L1150.33,1605.1zM1186.22,1617.14c0,-9.38889,-4.52778,-10.2639,-17.4861,-10.2639c-10.2083,0,-17.6528,0.722222,-17.6528,10.2639c0,9.27778,8.18056,9.52778,17.6528,9.52778C1178.49,1626.69,1186.22,1626.69,1186.22,1617.14z"/>
    <path xmlns="http://www.w3.org/2000/svg" fill="#E0E0E0" d="M1122.61,1663.36l-10.0417,0l0,15.0972l-19.1806,0l0,-15.0972l-30.5694,0l0,-12.1806l30.5694,0l0,-34.1528c-0.180556,-6.09722,-0.180556,-8.93056,-8.19444,-8.93056c-10.8056,0,-9.58333,7.13889,-9.58333,14.1111l-16.875,0c-0.305556,-20.1528,5.79167,-26.25,26.4722,-26.25c20.9861,0,27.3889,4.05556,27.3889,20.9306l0,34.2639l10.0417,0L1122.61,1663.36L1122.61,1663.36z"/>
    <path xmlns="http://www.w3.org/2000/svg" fill="#E0E0E0" d="M1057.92,1663.36l-10.0417,0l0,15.0972l-19.1667,0l0,-15.0972l-30.5833,0l0,-12.1806l30.5833,0l0,-34.1528c-0.152778,-6.09722,-0.152778,-8.93056,-8.18056,-8.93056c-10.8333,0,-9.59722,7.13889,-9.59722,14.1111l-16.9028,0c-0.277778,-20.1528,5.80556,-26.25,26.5,-26.25c20.9444,0,27.3472,4.05556,27.3472,20.9306l0,34.2639l10.0417,0L1057.92,1663.36L1057.92,1663.36z"/>
    <path xmlns="http://www.w3.org/2000/svg" fill="#E0E0E0" d="M912.458,1617.9c0,-20.9444,14.4722,-21.9444,37.2639,-21.9444c30.5833,0,36.7639,8.125,36.7639,33.875c0,23.9028,-4.52778,34.2639,-36.7639,34.2639c-32.8889,0,-37.2639,-8,-37.2639,-37.0833l54.9167,0c0,-14.3194,-0.458333,-18.9028,-17.6389,-18.9028c-10.6667,0,-18.1389,-0.138889,-18.1389,9.79167L912.458,1617.9L912.458,1617.9zM931.625,1637.21c0,13.6944,2.43056,14.75,18.1389,14.75c16.5972,0,17.6528,-2.90278,17.6528,-14.75L931.625,1637.21z"/>
    <path xmlns="http://www.w3.org/2000/svg" fill="#E0E0E0" d="M879.403,1663.36l0.416667,-8.76389l-0.763889,0c-3.80556,7.375,-12.0278,9.5,-21.3056,9.5c-16.875,0,-20.9861,-8.38889,-20.9861,-20.9444l0,-5.34722l17.9444,0l0,3.41667c0,6.72222,0.763889,10.6667,9.73611,10.6667c11.4028,0,14.75,-5.5,14.4861,-14.0833l0,-41.125l19.1667,0l0,66.625L879.403,1663.36L879.403,1663.36z"/>
    <path xmlns="http://www.w3.org/2000/svg" fill="#E0E0E0" d="M779.444,1594.03c4.44444,-15.1111,8.09722,-26.8889,30.4028,-26.8889c2.73611,0,5.48611,0.347222,8.22222,0.5l0,12.0556c-1.375,-0.125,-2.77778,-0.375,-4.11111,-0.375c-12.0278,0,-13.8472,9.65278,-15.5694,17.4167l9.27778,0l26.3194,66.6528l-19.8194,0l-20.2361,-56.75l-0.291667,0l-15.5278,56.75l-19.4722,0L779.444,1594.03z"/>
   </g>
  </g>
  <path xmlns="http://www.w3.org/2000/svg" opacity="0.35" fill="#FFFFFF" enable-background="new    " d="M160.139,1524.35c0,15.0278,19.5278,27.1528,43.5972,27.1528l1614.94,0c24.0556,0,43.625,-11.0972,43.625,-26.1111l0,-81.875c0,-15,-19.5556,-28.2361,-43.625,-28.2361L203.764,1415.28c-24.0556,0,-43.6111,12.1806,-43.6111,27.1806L160.139,1524.35L160.139,1524.35z"/>
 </g>
 <g xmlns="http://www.w3.org/2000/svg">
  <path xmlns="http://www.w3.org/2000/svg" fill="#1A1A1A" d="M102.181,1.51389l24.8611,16.1111c0,0,17.7222,16.75,33.1806,34.6111c9.20833,10.6528,16.9167,48.1389,28.2778,57.6528c11.4028,9.48611,27.6806,11.5417,41.4861,11.5417c3.84722,0,320.25,0,324.097,0c13.8194,0,30.0556,-2.01389,41.4722,-11.5417c11.3889,-9.51389,19.1389,-47,28.3194,-57.6528c15.4306,-17.8611,33.1806,-34.6111,33.1806,-34.6111l24.8611,-16.1111L102.181,1.51389z"/>
  <path xmlns="http://www.w3.org/2000/svg" opacity="0.2" fill="#FFFFFF" enable-background="new    " d="M138.069,13.6667l6.47222,2.01389c0,0,0,7.48611,14.4028,15.4306c8.65278,4.75,15.8056,6.83333,26.4444,11.0833c10.6667,4.23611,25.8056,5.13889,38.7639,5.13889c3.58333,0,332.194,0,335.847,0c12.9444,0,28.0694,-0.902778,38.7083,-5.13889c10.6667,-4.25,17.8611,-6.33333,26.4444,-11.0833c14.4583,-7.95833,14.4444,-15.4306,14.4444,-15.4306l6.36111,-2L138.069,13.6667z"/>
 </g>
 <g xmlns="http://www.w3.org/2000/svg">
  <path xmlns="http://www.w3.org/2000/svg" fill="#1A1A1A" d="M1366.31,1.51389l24.8611,16.1111c0,0,17.7222,16.75,33.1806,34.6111c9.20833,10.6528,16.9306,48.1389,28.2778,57.6528c11.3889,9.48611,27.6806,11.5417,41.4861,11.5417c3.86111,0,320.25,0,324.083,0c13.8333,0,30.0694,-2.01389,41.5,-11.5417c11.3611,-9.51389,19.1111,-47,28.2778,-57.6528c15.4444,-17.8611,33.1944,-34.6111,33.1944,-34.6111l24.8611,-16.1111L1366.31,1.51389z"/>
  <path xmlns="http://www.w3.org/2000/svg" opacity="0.2" fill="#FFFFFF" enable-background="new    " d="M1402.19,13.6667l6.5,2.01389c0,0,0,7.48611,14.3889,15.4306c8.65278,4.75,15.8056,6.83333,26.4444,11.0833c10.7083,4.23611,25.8056,5.13889,38.7639,5.13889c3.58333,0,332.208,0,335.861,0c12.9444,0,28.0694,-0.902778,38.7222,-5.13889c10.6667,-4.25,17.8333,-6.33333,26.4583,-11.0833c14.4306,-7.95833,14.4167,-15.4306,14.4167,-15.4306l6.36111,-2L1402.19,13.6667z"/>
 </g>
 <g xmlns="http://www.w3.org/2000/svg">
  <path xmlns="http://www.w3.org/2000/svg" fill="#1A1A1A" d="M102.181,1843.99l24.8611,-16.125c0,0,17.7222,-16.7361,33.1806,-34.6111c9.20833,-10.6389,16.9167,-48.1389,28.2778,-57.6389c11.4028,-9.51389,27.6806,-11.5278,41.4861,-11.5278c3.84722,0,320.25,0,324.097,0c13.8194,0,30.0556,1.98611,41.4722,11.5278c11.3889,9.51389,19.1389,47.0139,28.3194,57.6389c15.4306,17.875,33.1806,34.6111,33.1806,34.6111l24.8611,16.125L102.181,1843.99z"/>
  <path xmlns="http://www.w3.org/2000/svg" d="M138.069,1831.85l6.47222,-2.01389c0,0,0,-7.48611,14.4028,-15.4306c8.65278,-4.77778,15.8056,-6.83333,26.4444,-11.0833c10.6667,-4.25,25.8056,-5.13889,38.7639,-5.13889c3.58333,0,332.194,0,335.847,0c12.9444,0,28.0694,0.888889,38.7083,5.13889c10.6667,4.22222,17.8611,6.30556,26.4444,11.0833c14.4583,7.94444,14.4444,15.4306,14.4444,15.4306l6.36111,1.95833L138.069,1831.85z"/>
 </g>
 <g xmlns="http://www.w3.org/2000/svg">
  <path xmlns="http://www.w3.org/2000/svg" fill="#1A1A1A" d="M1366.31,1843.99l24.8611,-16.125c0,0,17.7222,-16.7361,33.1806,-34.6111c9.20833,-10.6389,16.9306,-48.1389,28.2778,-57.6389c11.3889,-9.51389,27.6806,-11.5278,41.4861,-11.5278c3.86111,0,320.25,0,324.083,0c13.8333,0,30.0694,1.98611,41.5,11.5278c11.375,9.52778,19.1111,47.0139,28.2778,57.6389c15.4444,17.875,33.1944,34.6111,33.1944,34.6111l24.8611,16.125L1366.31,1843.99z"/>
  <path xmlns="http://www.w3.org/2000/svg" d="M1402.19,1831.85l6.5,-2.01389c0,0,0,-7.48611,14.3889,-15.4306c8.65278,-4.77778,15.8056,-6.83333,26.4444,-11.0833c10.7083,-4.25,25.8056,-5.13889,38.7639,-5.13889c3.58333,0,332.208,0,335.861,0c12.9444,0,28.0694,0.888889,38.7222,5.13889c10.6667,4.22222,17.8333,6.30556,26.4583,11.0833c14.4306,7.94444,14.4167,15.4306,14.4167,15.4306l6.36111,1.95833L1402.19,1831.85z"/>
 </g>
 <path xmlns="http://www.w3.org/2000/svg" fill="none" stroke="#000000" stroke-width="34.7694" d="M2048.15,1423.68l78.2361,0"/>
 <path xmlns="http://www.w3.org/2000/svg" fill="none" stroke="#FF0000" stroke-width="34.7694" d="M2048.15,359.806l78.2361,0"/>
</g>
</g></g><path stroke='#8c8c8c' stroke-width='29.9998' stroke-linecap='round' stroke-linejoin='round' fill='none' d='M1528.92,3245.44L1528.92,3345.13' />
<path stroke='#8c8c8c' stroke-width='29.9998' stroke-linecap='round' stroke-linejoin='round' fill='none' d='M1429.12,3245.44L1429.12,3345.13' />
<path stroke='#8c8c8c' stroke-width='29.9998' stroke-linecap='round' stroke-linejoin='round' fill='none' d='M1329.38,3245.44L1329.38,3345.13' />
<g partID='41030'><g transform='translate(1314.38,2910.98)' ><g xmlns="http://www.w3.org/2000/svg" id="breadboard">
 <rect xmlns="http://www.w3.org/2000/svg" width="29.9998" x="0" y="306.681" fill="none" height="13.8889" id="connector0pin"/>
 <rect xmlns="http://www.w3.org/2000/svg" width="29.9998" x="99.7354" y="306.681" fill="none" height="13.8889" id="connector1pin"/>
 <rect xmlns="http://www.w3.org/2000/svg" width="29.9998" x="199.54" y="306.681" fill="none" height="13.8889" id="connector2pin"/>
 <g xmlns="http://www.w3.org/2000/svg" fill="none" stroke="#8C8C8C" id="connector0leg" stroke-linecap="round" y1="24.081" x1="1.08" y2="31.259" stroke-width="29.9998" x2="1.08"/>
 <g xmlns="http://www.w3.org/2000/svg" fill="none" stroke="#8C8C8C" id="connector1leg" stroke-linecap="round" y1="24.081" x1="8.261" y2="31.259" stroke-width="29.9998" x2="8.261"/>
 <g xmlns="http://www.w3.org/2000/svg" fill="none" stroke="#8C8C8C" id="connector2leg" stroke-linecap="round" y1="24.081" x1="15.447" y2="31.259" stroke-width="29.9998" x2="15.447"/>
 <rect xmlns="http://www.w3.org/2000/svg" width="29.9164" x="99.6937" y="204.597" fill="#8C8C8C" height="129.875" id="rect9506"/>
 <path xmlns="http://www.w3.org/2000/svg" fill="#8C8C8C" id="path9510" d="M45.6524,204.597l0,46.0556c0,5.88889,-10.861,14.7083,-16.6388,19.7917c-14.236,12.375,-28.9998,25.2639,-28.9998,41.5556l0,22.4861l29.9164,0c0,0,0,-13.8889,0,-16.8056c0,-7.18055,12.5555,-19.2917,18.7499,-24.5694c13.8471,-12.0833,27.0137,-23.4722,27.0137,-38.1806l0,-50.3472L45.6524,204.583L45.6524,204.597z"/>
 <path xmlns="http://www.w3.org/2000/svg" fill="#8C8C8C" id="path9514" d="M183.624,204.597l0,46.0556c0,5.88889,10.8471,14.7083,16.6527,19.7917c14.2638,12.375,29.0137,25.2639,29.0137,41.5556l0,22.4861l-29.9164,0c0,0,0,-13.8889,0,-16.8056c0,-7.18055,-12.5555,-19.2917,-18.7499,-24.5694c-13.861,-12.0833,-27.0137,-23.4722,-27.0137,-38.1806l0,-50.3472L183.624,204.583L183.624,204.597z"/>
 <rect xmlns="http://www.w3.org/2000/svg" width="184.415" x="22.4304" y="64.7083" fill="#1A1A1A" height="139.861" id="rect9553"/>
 <path xmlns="http://www.w3.org/2000/svg" fill="#141414" id="path9555" d="M192.901,64.7083l0,34.0694l0,114.278l0,25.5833c8.77771,-9.90278,13.9443,-21.5694,13.9443,-34.0694l0,0L206.846,64.7083L192.901,64.7083z"/>
 <path xmlns="http://www.w3.org/2000/svg" fill="#242424" id="path9557" d="M36.4025,64.7083L22.4443,64.7083l0,139.861l0,0c0,12.4861,5.18052,24.1667,13.9582,34.0694L36.4025,213.056L36.4025,98.7778L36.4025,64.7083z"/>
 <path xmlns="http://www.w3.org/2000/svg" fill="#1F1F1F" id="path9559" d="M22.4304,64.7083L22.4304,64.7083c0,12.4861,5.18052,24.1667,13.9582,34.0694l156.61,0c8.77771,-9.90278,13.9582,-21.5833,13.9582,-34.0694l0,0L22.4304,64.7083z"/>
 <path xmlns="http://www.w3.org/2000/svg" fill="#141414" id="path9561" d="M114.652,0C63.7079,0,22.4304,28.9722,22.4304,64.7361l184.415,0C206.846,28.9722,165.596,0,114.652,0z"/>
 <rect xmlns="http://www.w3.org/2000/svg" width="156.61" x="36.4025" y="98.7778" height="139.861" id="rect9563"/>
 <path xmlns="http://www.w3.org/2000/svg" fill="#999999" d="M69.3051,199.431l0,-75l29.9998,0l0,14.9861l14.9999,0l0,15l15.0138,0L129.319,124.417l29.9859,0l0,75L129.332,199.417l0,-14.9861L114.319,184.431l0,-15l-14.9999,0l0,30.0139L69.3051,199.444z"/>
</g>
</g></g><path stroke='#8c8c8c' stroke-width='29.9998' stroke-linecap='round' stroke-linejoin='round' fill='none' d='M1828.92,3245.43L1828.92,3345.13' />
<path stroke='#8c8c8c' stroke-width='29.9998' stroke-linecap='round' stroke-linejoin='round' fill='none' d='M2028.46,3245.43L2028.46,3345.13' />
<path stroke='#8c8c8c' stroke-width='29.9998' stroke-linecap='round' stroke-linejoin='round' fill='none' d='M1928.66,3245.43L1928.66,3345.13' />
<g partID='41230'><g transform='translate(1813.92,2911.03)' ><g xmlns="http://www.w3.org/2000/svg" id="breadboard">
 <rect xmlns="http://www.w3.org/2000/svg" width="29.9998" x="0" y="319.402" fill="none" height="13.887" id="connector0pin"/>
 <rect xmlns="http://www.w3.org/2000/svg" width="29.9998" x="99.7354" y="319.402" fill="none" height="13.887" id="connector1pin"/>
 <rect xmlns="http://www.w3.org/2000/svg" width="29.9998" x="199.54" y="319.402" fill="none" height="13.887" id="connector2pin"/>
 <g xmlns="http://www.w3.org/2000/svg" fill="none" stroke="#8C8C8C" id="connector0leg" stroke-linecap="round" y1="24.08" x1="1.08" y2="31.259" stroke-width="29.9998" x2="1.08"/>
 <g xmlns="http://www.w3.org/2000/svg" fill="none" stroke="#8C8C8C" id="connector1leg" stroke-linecap="round" y1="24.08" x1="8.261" y2="31.259" stroke-width="29.9998" x2="8.261"/>
 <g xmlns="http://www.w3.org/2000/svg" fill="none" stroke="#8C8C8C" id="connector2leg" stroke-linecap="round" y1="24.08" x1="15.447" y2="31.259" stroke-width="29.9998" x2="15.447"/>
 <rect xmlns="http://www.w3.org/2000/svg" width="29.9164" x="99.6937" y="204.57" fill="#8C8C8C" height="129.844" id="rect9506"/>
 <path xmlns="http://www.w3.org/2000/svg" fill="#8C8C8C" id="path9510" d="M45.6524,204.57l0,46.0494c0,5.88811,-10.861,14.7064,-16.6388,19.789c-14.236,12.3734,-28.9998,25.2744,-28.9998,41.55l0,22.4831l29.9164,0c0,0,0,-13.887,0,-16.7894c0,-7.19349,12.5555,-19.2891,18.7499,-24.5801c13.8471,-12.0678,27.0137,-23.4552,27.0137,-38.1616l0,-50.3405L45.6524,204.57L45.6524,204.57z"/>
 <path xmlns="http://www.w3.org/2000/svg" fill="#8C8C8C" id="path9514" d="M183.624,204.57l0,46.0494c0,5.88811,10.8471,14.7064,16.6527,19.789c14.2638,12.3734,29.0137,25.2744,29.0137,41.55l0,22.4831l-29.9164,0c0,0,0,-13.887,0,-16.7894c0,-7.19349,-12.5555,-19.2891,-18.7499,-24.5801c-13.861,-12.0678,-27.0137,-23.4552,-27.0137,-38.1616l0,-50.3405L183.624,204.57L183.624,204.57z"/>
 <rect xmlns="http://www.w3.org/2000/svg" width="184.415" x="22.4304" y="64.6997" fill="#1A1A1A" height="139.843" id="rect9553"/>
 <path xmlns="http://www.w3.org/2000/svg" fill="#141414" id="path9555" d="M192.901,64.6997l0,34.0649l0,114.263l0,25.5938c8.77771,-9.90146,13.9443,-21.5805,13.9443,-34.0649l0,0L206.846,64.6997L192.901,64.6997z"/>
 <path xmlns="http://www.w3.org/2000/svg" fill="#242424" id="path9557" d="M36.4025,64.6997L22.4443,64.6997l0,139.843l0,0c0,12.4845,5.18052,24.1635,13.9582,34.0649L36.4025,213.027L36.4025,98.7647L36.4025,64.6997z"/>
 <path xmlns="http://www.w3.org/2000/svg" fill="#1F1F1F" id="path9559" d="M22.4304,64.6997L22.4304,64.6997c0,12.4845,5.18052,24.1635,13.9582,34.0649l156.61,0c8.77771,-9.90146,13.9582,-21.5805,13.9582,-34.0649l0,0L22.4304,64.6997z"/>
 <path xmlns="http://www.w3.org/2000/svg" fill="#141414" id="path9561" d="M114.652,0C63.7079,0,22.4304,28.9684,22.4304,64.7275l184.415,0C206.846,28.9684,165.596,0,114.652,0z"/>
 <rect xmlns="http://www.w3.org/2000/svg" width="156.61" x="36.4025" y="98.7647" height="139.843" id="rect9563"/>
 <path xmlns="http://www.w3.org/2000/svg" fill="#999999" d="M145.957,133.566l15.0138,0l0,30.0099l-15.0138,0l0,14.9841L100.971,178.56l0,14.998L70.9717,193.558l0,-74.99l75.0133,0L145.957,133.566L145.957,133.566zM130.971,133.566L100.985,133.566l0,30.0099L130.971,163.575L130.971,133.566z"/>
</g>
</g></g><g partID='103400'><line stroke-linecap='round' stroke='#157de6' x1='28.9207' y1='345.139' x2='3932.13' y2='659.806' stroke-width='11.1111' /></g><g partID='103420'><line stroke-linecap='round' stroke='#00a527' x1='3932.13' y1='1723.68' x2='1528.92' y2='3345.13' stroke-width='11.1111' /></g><g partID='103440'><line stroke-linecap='round' stroke='#25cc35' x1='6932.13' y1='1423.68' x2='2528.99' y2='345.139' stroke-width='11.1111' /></g><g partID='103460'><line stroke-linecap='round' stroke='#ef6100' x1='6932.13' y1='359.806' x2='1828.92' y2='3345.13' stroke-width='11.1111' /></g><g partID='103480'><line stroke-linecap='round' stroke='#a37911' x1='1329.38' y1='3345.13' x2='428.991' y2='345.139' stroke-width='11.1111' /></g><g partID='103500'><line stroke-linecap='round' stroke='#33ffc5' x1='1928.66' y1='3345.13' x2='2128.92' y2='345.139' stroke-width='11.1111' /></g></svg>