<?xml version="1.0" encoding="UTF-8" standalone="no"?>
<!-- Generator: Adobe Illustrator 16.0.0, SVG Export Plug-In . SVG Version: 6.00 Build 0)  -->

<svg
   xmlns:dc="http://purl.org/dc/elements/1.1/"
   xmlns:cc="http://creativecommons.org/ns#"
   xmlns:rdf="http://www.w3.org/1999/02/22-rdf-syntax-ns#"
   xmlns:svg="http://www.w3.org/2000/svg"
   xmlns="http://www.w3.org/2000/svg"
   xmlns:sodipodi="http://sodipodi.sourceforge.net/DTD/sodipodi-0.dtd"
   xmlns:inkscape="http://www.inkscape.org/namespaces/inkscape"
   version="1.2"
   id="Ebene_1"
   x="0px"
   y="0px"
   width="35.77px"
   height="50.232px"
   viewBox="0 0 35.77 50.232"
   xml:space="preserve"
   inkscape:version="0.48.4 r9939"
   sodipodi:docname="7segment_13.svg"><metadata
     id="metadata3157"><rdf:RDF><cc:Work
         rdf:about=""><dc:format>image/svg+xml</dc:format><dc:type
           rdf:resource="http://purl.org/dc/dcmitype/StillImage" /><dc:title></dc:title></cc:Work></rdf:RDF></metadata><defs
     id="defs3155" /><sodipodi:namedview
     pagecolor="#ffffff"
     bordercolor="#666666"
     borderopacity="1"
     objecttolerance="10"
     gridtolerance="10"
     guidetolerance="10"
     inkscape:pageopacity="0"
     inkscape:pageshadow="2"
     inkscape:window-width="1535"
     inkscape:window-height="876"
     id="namedview3153"
     showgrid="false"
     inkscape:zoom="4.6982005"
     inkscape:cx="-19.044033"
     inkscape:cy="25.115999"
     inkscape:window-x="65"
     inkscape:window-y="24"
     inkscape:window-maximized="1"
     inkscape:current-layer="Ebene_1" /><rect
     id="connector6pin"
     x="31.216"
     y="2.418"
     fill="none"
     width="1.8"
     height="1.8" /><rect
     id="connector7pin"
     x="24.018"
     y="2.417"
     fill="none"
     width="1.799"
     height="1.8" /><rect
     id="connector8pin"
     x="16.818"
     y="2.417"
     fill="none"
     width="1.799"
     height="1.8" /><rect
     id="connector9pin"
     x="9.617"
     y="2.417"
     fill="none"
     width="1.799"
     height="1.8" /><rect
     id="connector0pin"
     x="2.417"
     y="2.417"
     fill="none"
     width="1.799"
     height="1.8" /><rect
     id="connector5pin"
     x="31.217"
     y="45.617"
     fill="none"
     width="1.799"
     height="1.8" /><rect
     id="connector4pin"
     x="24.018"
     y="45.617"
     fill="none"
     width="1.799"
     height="1.8" /><rect
     id="connector3pin"
     x="16.819"
     y="45.617"
     fill="none"
     width="1.799"
     height="1.8" /><rect
     id="connector2pin"
     x="9.618"
     y="45.617"
     fill="none"
     width="1.799"
     height="1.8" /><rect
     id="connector1pin"
     x="2.418"
     y="45.617"
     fill="none"
     width="1.799"
     height="1.8" /><rect
     id="connector6terminal"
     x="31.216"
     y="2.418"
     fill="none"
     width="1.8"
     height="1.8" /><rect
     id="connector7terminal"
     x="24.018"
     y="2.417"
     fill="none"
     width="1.799"
     height="1.8" /><rect
     id="connector8terminal"
     x="16.818"
     y="2.417"
     fill="none"
     width="1.799"
     height="1.8" /><rect
     id="connector9terminal"
     x="9.617"
     y="2.417"
     fill="none"
     width="1.799"
     height="1.8" /><rect
     id="connector0terminal"
     x="2.417"
     y="2.417"
     fill="none"
     width="1.799"
     height="1.8" /><rect
     id="connector5terminal"
     x="31.217"
     y="45.617"
     fill="none"
     width="1.799"
     height="1.8" /><rect
     id="connector4terminal"
     x="24.018"
     y="45.617"
     fill="none"
     width="1.799"
     height="1.8" /><rect
     id="connector3terminal"
     x="16.819"
     y="45.617"
     fill="none"
     width="1.799"
     height="1.8" /><rect
     id="connector2terminal"
     x="9.618"
     y="45.617"
     fill="none"
     width="1.799"
     height="1.8" /><rect
     id="connector1terminal"
     x="2.418"
     y="45.617"
     fill="none"
     width="1.799"
     height="1.8" /><rect
     style="fill:#ffffff"
     y="0"
     x="0"
     id="rect3089"
     height="49.355"
     width="34.897999" /><polygon
     style="fill:#9b9b9b"
     id="polygon3091"
     points="35.77,50.232 35.77,0.626 35.148,0 35.148,49.605 0,49.605 0.62,50.232 " /><line
     style="fill:none;stroke:#d1c7c7;stroke-width:0.25"
     id="line3093"
     y2="7.816"
     x2="24.917"
     y1="3.316"
     x1="24.917" /><polyline
     style="fill:none;stroke:#d1c7c7;stroke-width:0.25"
     id="polyline3095"
     points="32.116,3.318 32.116,8.717 31.216,10.517  " /><line
     style="fill:none;stroke:#d1c7c7;stroke-width:0.25"
     id="line3097"
     y2="38.417"
     x2="24.917"
     y1="46.518002"
     x1="24.917" /><polyline
     style="fill:none;stroke:#d1c7c7;stroke-width:0.25"
     id="polyline3099"
     points="32.117,46.518 32.116,43.816 30.316,42.018  " /><line
     style="fill:none;stroke:#d1c7c7;stroke-width:0.25"
     id="line3101"
     y2="42.018002"
     x2="10.516"
     y1="46.518002"
     x1="10.517" /><line
     style="fill:none;stroke:#d1c7c7;stroke-width:0.25"
     id="line3103"
     y2="12.316"
     x2="10.516"
     y1="3.316"
     x1="10.516" /><polyline
     style="fill:none;stroke:#d1c7c7;stroke-width:0.25"
     id="polyline3105"
     points="3.317,3.316 3.316,24.017 4.216,24.917 12.316,24.917  " /><polyline
     style="fill:none;stroke:#d1c7c7;stroke-width:0.25"
     id="polyline3107"
     points="17.718,46.518 19.516,48.316 33.016,48.316 33.917,47.417    33.917,2.417 33.016,1.517 19.516,1.517 17.717,3.316  " /><polyline
     style="fill:none;stroke:#d1c7c7;stroke-width:0.25"
     id="polyline3109"
     points="3.318,46.518 3.316,41.117 6.016,37.518  " /><polygon
     style="fill:#d1c7c7;fill-opacity:1"
     id="polygon3111"
     points="29.979,7.354 27.838,10.561 13.939,10.561 11.803,7.354 12.871,6.286 28.909,6.286 " /><polygon
     style="fill:#d1c7c7"
     id="polygon3113"
     points="29.979,22.324 27.838,24.46 25.702,22.324 27.838,11.629 31.047,8.421 32.116,10.561 " /><polygon
     style="fill:#d1c7c7"
     id="polygon3115"
     points="26.771,39.43 24.632,41.568 22.494,39.43 24.632,28.738 27.838,25.53 28.909,27.667 " /><polygon
     style="fill:#d1c7c7"
     id="polygon3117"
     points="5.386,42.634 7.525,39.43 21.426,39.43 23.563,42.637 22.494,43.705 6.455,43.705 " /><polygon
     style="fill:#d1c7c7;fill-opacity:1"
     id="polygon3119"
     points="5.386,27.667 7.525,25.53 9.662,27.667 7.525,38.359 4.315,41.568 3.248,39.43 " /><polygon
     style="fill:#d1c7c7;fill-opacity:1"
     id="polygon3121"
     points="8.594,10.561 10.732,8.421 12.871,10.561 10.732,21.255 7.525,24.46 6.455,22.324 " /><polyline
     style="fill:#d1c7c7;fill-opacity:1"
     id="polyline3123"
     points="8.594,24.46 10.732,22.324 24.632,22.324 26.771,24.46 24.632,26.598 10.732,26.598  " /><circle
     style="fill:#d1c7c7"
     sodipodi:ry="2.2520001"
     sodipodi:rx="2.2520001"
     sodipodi:cy="41.563999"
     sodipodi:cx="29.52"
     id="circle3125"
     r="2.2520001"
     cy="41.563999"
     cx="29.52" /><rect
     style="fill:#8c8c8c"
     id="rect3127"
     height="1.8"
     width="1.8"
     y="2.418"
     x="31.216" /><rect
     style="fill:#8c8c8c"
     id="rect3129"
     height="1.8"
     width="1.799"
     y="2.4170001"
     x="24.018" /><rect
     style="fill:#8c8c8c"
     id="rect3131"
     height="1.8"
     width="1.799"
     y="2.4170001"
     x="16.818001" /><rect
     style="fill:#8c8c8c"
     id="rect3133"
     height="1.8"
     width="1.799"
     y="2.4170001"
     x="9.6169996" /><rect
     style="fill:#8c8c8c"
     id="rect3135"
     height="1.8"
     width="1.799"
     y="2.4170001"
     x="2.4170001" /><rect
     style="fill:#8c8c8c"
     id="rect3137"
     height="1.8"
     width="1.799"
     y="45.617001"
     x="31.216999" /><rect
     style="fill:#8c8c8c"
     id="rect3139"
     height="1.8"
     width="1.799"
     y="45.617001"
     x="24.018" /><rect
     style="fill:#8c8c8c"
     id="rect3141"
     height="1.8"
     width="1.799"
     y="45.617001"
     x="16.819" /><rect
     style="fill:#8c8c8c"
     id="rect3143"
     height="1.8"
     width="1.799"
     y="45.617001"
     x="9.618" /><rect
     style="fill:#8c8c8c"
     id="rect3145"
     height="1.8"
     width="1.799"
     y="45.617001"
     x="2.418" /><path
     style="fill:none"
     inkscape:connector-curvature="0"
     id="path3147"
     d="M 34.898,0.25 V 49.355 H 0.25 V 0.25 H 34.898 M 35.148,0 H 0 V 49.605 H 35.148 V 0 l 0,0 z" /><polygon
     style="fill:none"
     id="polygon3149"
     points="35.77,50.232 35.77,0.626 35.148,0 35.148,49.605 0,49.605 0.62,50.232 " /><rect
     id="connector10pin"
     x="2.417"
     y="2.417"
     fill="none"
     width="1.799"
     height="1.8" /><rect
     id="connector10terminal"
     x="2.417"
     y="2.417"
     fill="none"
     width="1.799"
     height="1.8" /></svg>