<?xml version="1.0" encoding="UTF-8" standalone="no"?>
<!-- Created with Inkscape (http://www.inkscape.org/) -->

<svg
   xmlns:dc="http://purl.org/dc/elements/1.1/"
   xmlns:cc="http://creativecommons.org/ns#"
   xmlns:rdf="http://www.w3.org/1999/02/22-rdf-syntax-ns#"
   xmlns:svg="http://www.w3.org/2000/svg"
   xmlns="http://www.w3.org/2000/svg"
   xmlns:xlink="http://www.w3.org/1999/xlink"
   xmlns:sodipodi="http://sodipodi.sourceforge.net/DTD/sodipodi-0.dtd"
   xmlns:inkscape="http://www.inkscape.org/namespaces/inkscape"
   sodipodi:docname="wheel.svg"
   inkscape:version="0.48.3.1 r9886"
   version="1.1"
   id="svg2"
   height="200"
   width="200">
  <sodipodi:namedview
     id="base"
     pagecolor="#ffffff"
     bordercolor="#666666"
     borderopacity="1.0"
     inkscape:pageopacity="0.0"
     inkscape:pageshadow="2"
     inkscape:zoom="2.0583956"
     inkscape:cx="162.39539"
     inkscape:cy="141.03721"
     inkscape:document-units="px"
     inkscape:current-layer="svg2"
     showgrid="false"
     inkscape:window-width="1920"
     inkscape:window-height="1103"
     inkscape:window-x="-3"
     inkscape:window-y="-3"
     inkscape:window-maximized="1" />
  <defs
     id="defs4">
    <linearGradient
       id="linearGradient3028">
      <stop
         style="stop-color:#000000;stop-opacity:0.58011049;"
         offset="0"
         id="stop3042" />
      <stop
         style="stop-color:#000000;stop-opacity:0;"
         offset="1"
         id="stop3032" />
    </linearGradient>
    <radialGradient
       inkscape:collect="always"
       xlink:href="#linearGradient3028"
       id="radialGradient3060"
       cx="371.10953"
       cy="308.25626"
       fx="371.10953"
       fy="308.25626"
       r="143.54988"
       gradientUnits="userSpaceOnUse"
       gradientTransform="matrix(-0.00343205,-0.69032204,0.69513297,-0.00347698,-112.95661,356.97324)" />
  </defs>
  <metadata
     id="metadata7">
    <rdf:RDF>
      <cc:Work
         rdf:about="">
        <dc:format>image/svg+xml</dc:format>
        <dc:type
           rdf:resource="http://purl.org/dc/dcmitype/StillImage" />
      </cc:Work>
    </rdf:RDF>
  </metadata>
  <g
     id="layer1"
     inkscape:groupmode="layer"
     inkscape:label="レイヤー 1"
     transform="translate(0,-852.36218)" />
  <path
     style="fill:url(#radialGradient3060);fill-opacity:1;stroke:#000000;stroke-width:1.20150375"
     d="m 97.27882,0.60074801 -3.265419,7.81522969 -0.936081,5.6165143 0.174161,2.089866 -8.424774,1.110241 -0.391853,-2.068097 -2.329327,-5.1811256 -5.18114,-6.7049877 -5.289966,1.4150145 -1.132007,8.3812338 0.566013,5.660054 0.696614,2.002788 -7.836997,3.243646 -0.91432,-1.89394 -3.613723,-4.419196 -6.726757,-5.115818 -4.745737,2.721179 1.088472,8.403003 2.002788,5.333513 1.197319,1.741555 -6.748525,5.159355 -1.349705,-1.610937 -4.636889,-3.308955 -7.836998,-3.221877 -3.853192,3.874961 3.200108,7.836997 3.330724,4.615122 1.610939,1.371474 -5.181126,6.748526 -1.741555,-1.197319 -5.333512,-2.024558 -8.381233,-1.066704 -2.742949,4.745739 5.137587,6.726755 4.397427,3.61373 1.915711,0.89254 -3.265418,7.858761 -1.981018,-0.696613 -5.660054,-0.566021 -8.4030014,1.132014 -1.4150137,5.289973 6.7049868,5.159367 5.1811263,2.351094 2.089864,0.37008 -1.110241,8.446546 -2.111635,-0.17416 -5.6165139,0.914313 -7.81522823,3.26542 0,5.485896 7.81522823,3.26542 5.6165139,0.9143 2.111635,-0.17414 1.110241,8.42478 -2.089864,0.39184 -5.1811263,2.3511 -6.7049868,5.15936 1.4150137,5.28997 8.4030014,1.13201 5.660054,-0.566 1.981018,-0.69662 3.265418,7.85876 -1.915711,0.89255 -4.397427,3.61372 -5.137587,6.72676 2.742949,4.74574 8.381233,-1.08847 5.333512,-2.00279 1.741555,-1.19732 5.181126,6.74851 -1.610939,1.37148 -3.330724,4.61513 -3.200108,7.837 3.853192,3.85318 7.836998,-3.20009 4.636889,-3.33074 1.349705,-1.61094 6.748525,5.18113 -1.197319,1.74155 -2.002788,5.33352 -1.088472,8.38124 4.745737,2.74295 6.726757,-5.13759 3.613723,-4.39744 0.91432,-1.91569 7.836997,3.26539 -0.696614,1.98104 -0.566013,5.68181 1.132007,8.38124 5.289966,1.41501 5.18114,-6.70498 2.329327,-5.18113 0.391853,-2.0681 8.424774,1.08848 -0.174161,2.11163 0.936081,5.61652 3.265419,7.81522 5.46412,0 3.26544,-7.81522 0.9143,-5.61652 -0.17415,-2.11163 8.44654,-1.08848 0.37007,2.0681 2.3511,5.18113 5.18114,6.70498 5.26819,-1.41501 1.15378,-8.38124 -0.56601,-5.68181 -0.71838,-1.98104 7.85876,-3.26539 0.91433,1.91569 3.59194,4.39744 6.72676,5.13759 4.74574,-2.74295 -1.06669,-8.38124 -2.02456,-5.33352 -1.19733,-1.74155 6.74852,-5.18113 1.37148,1.61094 4.61513,3.33074 7.837,3.20009 3.87495,-3.85318 -3.22187,-7.837 -3.30896,-4.61513 -1.61094,-1.37148 5.18113,-6.74851 1.71978,1.19732 5.33352,2.00279 8.403,1.08847 2.72118,-4.74574 -5.11582,-6.72676 -4.41919,-3.61372 -1.89396,-0.89255 3.24365,-7.85876 2.0028,0.69662 5.66005,0.566 8.38124,-1.13201 1.415,-5.28997 -6.6832,-5.15936 -5.2029,-2.3511 -2.0681,-0.39184 1.11025,-8.42478 2.11162,0.17414 5.61652,-0.9143 7.79345,-3.26542 0,-5.485896 -7.79345,-3.26542 -5.61652,-0.914313 -2.11162,0.17416 -1.11025,-8.446546 2.0681,-0.37008 5.2029,-2.351094 6.6832,-5.159367 -1.415,-5.289973 -8.38124,-1.132014 -5.66005,0.566021 -2.0028,0.696613 -3.24365,-7.858761 1.89396,-0.89254 4.41919,-3.61373 5.11582,-6.726755 -2.72118,-4.745739 -8.403,1.066704 -5.33352,2.024558 -1.71978,1.197319 -5.18113,-6.748526 1.61094,-1.371474 3.30896,-4.615122 3.22187,-7.836997 -3.87495,-3.874961 -7.837,3.221877 -4.61513,3.308955 -1.37148,1.610937 -6.74852,-5.159355 1.19733,-1.741555 2.02456,-5.333513 1.06669,-8.403003 -4.74574,-2.721179 -6.72676,5.115818 -3.59194,4.419196 -0.91433,1.89394 -7.85876,-3.243646 0.71838,-2.002788 0.56601,-5.660054 -1.15378,-8.3812338 -5.26819,-1.4150145 -5.18114,6.7049877 -2.3511,5.1811256 -0.37007,2.068097 -8.44654,-1.110241 0.17415,-2.089866 -0.9143,-5.6165143 -3.26544,-7.81522969 -5.46412,0 z m -6.879146,22.59667699 0,47.870993 c -9.172493,3.14306 -16.39318,10.464913 -19.396567,19.701333 l -47.196136,0 C 27.490916,55.494494 55.276938,27.385676 90.399674,23.197425 z m 19.570726,0.174156 c 34.4749,4.747054 61.60493,32.583449 65.243,67.39817 l -45.34573,0 c -3.05824,-9.405107 -10.48572,-16.831553 -19.89727,-19.8755 l 0,-47.52267 z M 100,86.459404 c 7.4754,0 13.54059,6.065194 13.54059,13.540587 0,7.475389 -6.06519,13.540589 -13.54059,13.540589 -7.475393,0 -13.540586,-6.0652 -13.540586,-13.540589 0,-7.475393 6.065193,-13.540587 13.540586,-13.540587 z m -75.735871,23.881076 46.869598,0 c 3.082827,9.04305 10.22872,16.19232 19.265947,19.28772 l 0,44.69266 C 56.477455,170.27576 29.393865,143.91761 24.264129,110.34048 z m 105.472911,0 45.0192,0 c -5.06343,33.12324 -31.5049,59.22356 -64.78584,63.80622 l 0,-44.34434 c 9.27416,-2.99898 16.62692,-10.25196 19.76664,-19.46188 z"
     id="path3100"
     inkscape:connector-curvature="0"
     inkscape:export-xdpi="90"
     inkscape:export-ydpi="90" />
</svg>
